<!-- Generator: Adobe Illustrator 19.0.1, SVG Export Plug-In  -->
<svg version="1.1"
	 xmlns="http://www.w3.org/2000/svg" xmlns:xlink="http://www.w3.org/1999/xlink" xmlns:a="http://ns.adobe.com/AdobeSVGViewerExtensions/3.0/"
	 x="0px" y="0px" width="37.5px" height="37.5px" viewBox="0 0 37.5 37.5" style="enable-background:new 0 0 37.5 37.5;"
	 xml:space="preserve">
<defs>
</defs>
<path style="fill-rule:evenodd;clip-rule:evenodd;fill:#3C3C3B;" d="M21.355,11.427c-1.637,0.596-2.672,2.132-2.554,3.813
	l0.039,0.649l-0.655-0.079c-2.384-0.305-4.466-1.337-6.234-3.072l-0.864-0.861l-0.223,0.636c-0.471,1.417-0.17,2.913,0.812,3.919
	c0.524,0.556,0.406,0.636-0.498,0.305c-0.314-0.106-0.589-0.185-0.616-0.146c-0.092,0.093,0.223,1.298,0.471,1.774
	c0.34,0.662,1.035,1.311,1.794,1.695l0.642,0.305l-0.76,0.013c-0.733,0-0.76,0.013-0.681,0.291c0.262,0.861,1.297,1.774,2.449,2.171
	l0.812,0.278l-0.707,0.424c-1.048,0.609-2.279,0.953-3.51,0.98C10.485,24.535,10,24.588,10,24.628c0,0.132,1.598,0.874,2.528,1.165
	c2.79,0.861,6.103,0.49,8.591-0.98c1.768-1.046,3.536-3.125,4.361-5.137c0.445-1.072,0.891-3.032,0.891-3.972
	c0-0.609,0.039-0.689,0.773-1.417c0.432-0.424,0.838-0.887,0.917-1.02c0.131-0.252,0.118-0.252-0.55-0.026
	c-1.113,0.397-1.27,0.344-0.72-0.252c0.406-0.424,0.891-1.192,0.891-1.417c0-0.04-0.196,0.026-0.419,0.146
	c-0.236,0.132-0.76,0.331-1.152,0.45l-0.707,0.225l-0.642-0.437c-0.354-0.238-0.851-0.503-1.113-0.583
	C22.978,11.189,21.957,11.215,21.355,11.427z M18.75,37.5c10.355,0,18.75-8.395,18.75-18.75S29.105,0,18.75,0S0,8.395,0,18.75
	S8.395,37.5,18.75,37.5z"/>
</svg>
