<!-- Generator: Adobe Illustrator 19.0.1, SVG Export Plug-In  -->
<svg version="1.1"
	 xmlns="http://www.w3.org/2000/svg" xmlns:xlink="http://www.w3.org/1999/xlink" xmlns:a="http://ns.adobe.com/AdobeSVGViewerExtensions/3.0/"
	 x="0px" y="0px" width="600px" height="36px" viewBox="0 0 600 36" style="enable-background:new 0 0 600 36;"
	 xml:space="preserve">
<defs>
</defs>
<g>
	<path style="fill:#3C3C3B;" d="M379.439,32.325c8.313,1.135,16.478,2.25,24.805,3.386c-2.837-4.723-5.601-9.326-8.388-13.966
		C395.857,21.745,379.439,32.325,379.439,32.325z M406.591,6.18c-0.733,1.1-1.467,2.2-2.199,3.301
		c-2.513,3.781-5.026,7.562-7.537,11.345c-0.14,0.211-0.321,0.378-0.124,0.702c2.426,4.006,4.833,8.024,7.246,12.039
		c0.381,0.634,0.766,1.266,1.258,1.874c0.488-9.744,0.975-19.487,1.463-29.231C406.698,6.211,406.591,6.18,406.591,6.18z
		 M373.471,18.672c0.113,0.107,0.397,0.17,0.529,0.105c2.327-1.144,4.669-2.262,6.945-3.5c0.742-0.403,1.313-1.127,1.953-1.713
		c2.118-1.942,4.232-3.888,6.346-5.835c0.129-0.12,0.282-0.235,0.36-0.386c0.759-1.484,1.505-2.975,2.278-4.509
		c-0.921-0.346-1.794-0.685-2.678-0.993c-0.12-0.042-0.309,0.041-0.439,0.113c-2.046,1.143-4.131,2.225-6.112,3.472
		c-0.991,0.624-1.799,1.543-2.676,2.344c-1.415,1.291-2.827,2.585-4.221,3.899c-0.37,0.349-0.707,0.747-0.995,1.166
		c-0.953,1.388-1.878,2.797-2.846,4.245C372.453,17.639,372.945,18.174,373.471,18.672z M381.976,16.774
		c-1.158,4.891-2.308,9.754-3.498,14.777c5.576-3.593,11.023-7.103,16.434-10.589C390.607,19.568,386.315,18.178,381.976,16.774z
		 M405.17,6.227c-4.711,0.787-9.31,1.555-13.968,2.334c1.587,3.859,3.141,7.641,4.74,11.53
		C399.036,15.442,402.068,10.887,405.17,6.227z M382.171,15.773c4.242,1.377,8.4,2.727,12.679,4.116
		c-1.589-3.871-3.123-7.607-4.69-11.422C387.492,10.907,384.864,13.31,382.171,15.773z M373.646,21.524
		c-1.505,3.597-2.958,7.071-4.438,10.608c2.844-0.084,5.6-0.166,8.452-0.25C376.322,28.428,375.009,25.042,373.646,21.524z
		 M377.76,29.422l0.105-0.023c1.015-4.219,2.044-8.41,3.08-12.794c-2.311,1.201-4.516,2.347-6.781,3.524
		C375.321,23.133,376.553,26.302,377.76,29.422z M403.464,5.543c-1.35-0.357-2.699-0.716-4.049-1.071
		c-1.941-0.51-3.883-1.014-5.822-1.529c-0.242-0.064-0.418-0.107-0.56,0.186c-0.686,1.404-1.392,2.798-2.089,4.197
		c-0.021,0.043-0.017,0.099-0.034,0.208c4.203-0.637,8.377-1.27,12.551-1.902C403.462,5.631,403.464,5.543,403.464,5.543z
		 M395.635,2.349l11,3.043c-0.631-1.798-1.216-3.464-1.817-5.179l-9.166,2.032C395.651,2.245,395.635,2.349,395.635,2.349z
		 M378.693,33.135c-1.362-0.157-2.761-0.013-4.143,0.011c-1.135,0.019-2.27,0.062-3.405,0.098c-0.117,0.004-0.233,0.027-0.35,0.153
		c9.383,0.867,18.766,1.735,28.15,2.603l0.019-0.125c-3.008-0.411-6.016-0.821-9.024-1.232
		C386.192,34.131,382.45,33.568,378.693,33.135z M369.394,28.894c1.209-2.806,2.413-5.613,3.627-8.417
		c0.121-0.281,0.112-0.472-0.126-0.699c-0.508-0.483-0.98-1.004-1.535-1.582c-0.75,3.705-1.482,7.317-2.215,10.93l0.082,0.038
		C369.284,29.075,369.353,28.99,369.394,28.894z M393.226,1.608c2.039-0.526,4.108-0.937,6.164-1.396
		c0.133-0.03,0.263-0.074,0.394-0.111l-0.02-0.1c-2.897,0.39-5.793,0.779-8.836,1.189C391.758,1.551,392.397,1.822,393.226,1.608z"
		/>
	<path style="fill:#3C3C3B;" d="M294.654,17.412h8.578c2.388,0,4.269-2.02,4.269-4.418V4.815c0-2.328-1.951-4.076-4.282-4.465
		c-1.475-0.246-2.999-0.357-4.468-0.35c-1.468,0.007-2.828,0.132-4.061,0.35c-3.635,0.642-4.252,1.986-4.252,4.465v3.182h8.531
		v1.177h-11.833c-2.496,0-4.682,1.503-5.365,4.357c-0.789,3.271-0.824,5.272,0,8.687c0.61,2.542,2.068,4.312,4.564,4.312h2.926
		v-3.839C289.262,19.858,291.741,17.412,294.654,17.412z M294.113,5.906c-0.89,0-1.612-0.729-1.612-1.631
		c0-0.906,0.721-1.642,1.612-1.642c0.887,0,1.612,0.736,1.612,1.642C295.725,5.177,295,5.906,294.113,5.906z M316.116,13.531
		c-0.617-2.485-1.795-4.357-4.295-4.357h-3.143v3.819c0,2.957-2.587,5.301-5.446,5.301h-8.578c-2.35,0-4.216,2.155-4.216,4.509
		v8.178c0,2.327,1.984,3.696,4.255,4.364c2.719,0.799,5.294,0.944,8.546,0c2.162-0.626,4.262-1.886,4.262-4.364v-3.273h-8.531
		v-1.177h12.851c2.496,0,3.426-1.699,4.295-4.313C317.012,19.528,316.973,16.982,316.116,13.531L316.116,13.531z M303.773,29.89
		c0.891,0,1.612,0.729,1.612,1.632c0,0.905-0.721,1.641-1.612,1.641c-0.887,0-1.612-0.736-1.612-1.641
		C302.161,30.619,302.886,29.89,303.773,29.89z"/>
	<path style="fill:#3C3C3B;" d="M35.519,0C15.903,0,0,8.059,0,18s15.903,18,35.519,18s35.519-8.059,35.519-18S55.134,0,35.519,0z
		 M26.276,21.507c-0.848,0.793-1.789,1.12-2.825,1.458c-1.037,0.338-2.356,0.268-3.96,0.268h-3.635l-1.008,5.814h-4.245
		l3.788-19.767h8.163c2.456,0,4.247,0.706,5.373,1.995s1.464,3.119,1.016,5.428c-0.185,0.952-0.498,1.837-0.938,2.625
		C27.563,20.117,26.987,20.853,26.276,21.507z M38.666,23.232l1.675-8.383c0.191-0.981,0.121-1.71-0.21-2.067
		c-0.331-0.357-1.036-0.596-2.113-0.596h-3.366l-2.169,11.046h-4.211l3.788-19.185h4.211l-1.007,5.232h3.752
		c2.361,0,3.989,0.474,4.885,1.297c0.896,0.823,1.164,1.951,0.806,3.795l-1.762,8.861H38.666z M62.072,16.734
		c-0.185,0.952-0.498,1.821-0.938,2.609c-0.441,0.789-1.016,1.51-1.727,2.164c-0.848,0.793-1.789,1.12-2.825,1.458
		c-1.036,0.338-2.356,0.268-3.96,0.268h-3.635l-1.007,5.814h-4.245l3.787-19.767h8.163c2.456,0,4.247,0.706,5.373,1.995
		C62.182,12.564,62.521,14.425,62.072,16.734z M54.076,12.186h-2.907l-1.585,8.139h2.582c1.71,0,2.986-0.169,3.823-0.814
		c0.838-0.644,1.403-1.644,1.696-3.152c0.281-1.448,0.153-2.578-0.384-3.173C56.763,12.591,55.688,12.186,54.076,12.186z
		 M20.946,12.186h-2.908l-1.585,8.139h2.582c1.711,0,2.986-0.169,3.824-0.814c0.838-0.644,1.403-1.644,1.696-3.152
		c0.281-1.448,0.153-2.578-0.384-3.173C23.633,12.591,22.559,12.186,20.946,12.186z"/>
	<path style="fill:#3C3C3B;" d="M489.668,7.977L476.54,0.354c-0.828-0.472-1.906-0.472-2.741,0L460.53,7.977
		c-0.854,0.492-1.459,1.415-1.459,2.403v15.226c0,0.988,0.62,1.912,1.475,2.406l3.506,1.991c1.676,0.825,2.268,0.825,3.03,0.825
		c2.481,0,3.898-1.5,3.898-4.117V11.68c0-0.212-0.11-0.528-0.319-0.528h-1.674c-0.212,0-0.687,0.316-0.687,0.528v15.032
		c0,1.16-1.049,2.314-3.01,1.334l-3.622-2.088c-0.126-0.068-0.215-0.206-0.215-0.352V10.38c0-0.144,0.165-0.288,0.292-0.361
		l13.226-7.61c0.124-0.07,0.305-0.07,0.428,0l13.065,7.608c0.125,0.075,0.081,0.215,0.081,0.363v15.226
		c0,0.145,0.055,0.287-0.069,0.357l-13.125,7.614c-0.113,0.068-0.252,0.068-0.375,0l-3.366-2.009
		c-0.102-0.059-0.222-0.08-0.319-0.026c-0.937,0.531-1.109,0.601-1.988,0.906c-0.216,0.075-0.535,0.206,0.122,0.574l4.406,2.606
		c0.422,0.244,0.901,0.371,1.384,0.371c0.489,0,0.968-0.127,1.389-0.371l13.065-7.616c0.854-0.498,1.259-1.418,1.259-2.406V10.38
		C490.927,9.392,490.522,8.471,489.668,7.977z M479.289,23.194c-3.491,0-4.26-0.963-4.516-2.699
		c-0.03-0.187-0.188-0.411-0.379-0.411h-1.706c-0.211,0-0.381,0.256-0.381,0.466c0,2.223,1.208,4.916,6.982,4.916
		c4.18,0,6.576-1.624,6.576-4.498c0-2.85-1.925-3.598-5.979-4.134c-4.097-0.542-4.513-0.815-4.513-1.775
		c0-0.791,0.353-1.847,3.386-1.847c2.711,0,3.71,0.582,4.121,2.409c0.035,0.172,0.192,0.295,0.369,0.295h1.713
		c0.105,0,0.206-0.043,0.28-0.118c0.071-0.081,0.109-0.183,0.1-0.291c-0.265-3.146-2.356-4.613-6.583-4.613
		c-3.76,0-6.004,1.588-6.004,4.25c0,2.887,2.232,3.685,5.842,4.042c4.318,0.423,4.654,1.055,4.654,1.904
		C483.252,22.565,482.067,23.194,479.289,23.194z"/>
	<g>
		<path style="fill:#3C3C3B;" d="M131.961,27.84c0,0-1.375,0.8,0.98,1.07c2.853,0.326,4.311,0.279,7.454-0.315
			c0,0,0.828,0.518,1.982,0.966C135.328,32.581,126.425,29.387,131.961,27.84z M131.099,23.899c0,0-1.542,1.142,0.814,1.386
			c3.048,0.315,5.454,0.34,9.619-0.461c0,0,0.575,0.584,1.48,0.903C134.492,28.218,125.003,25.923,131.099,23.899z"/>
		<path style="fill:#3C3C3B;" d="M138.359,17.213c1.738,2-0.456,3.798-0.456,3.798s4.409-2.276,2.385-5.127
			c-1.892-2.658-3.342-3.978,4.509-8.531C144.797,7.354,132.473,10.431,138.359,17.213z"/>
		<path style="fill:#3C3C3B;" d="M147.68,30.756c0,0,1.018,0.839-1.121,1.488c-4.067,1.232-16.931,1.604-20.504,0.049
			c-1.284-0.559,1.124-1.334,1.882-1.497c0.79-0.171,1.241-0.14,1.241-0.14c-1.428-1.006-9.233,1.976-3.964,2.831
			C139.583,35.816,151.407,32.437,147.68,30.756z M132.622,19.815c0,0-6.543,1.554-2.317,2.119c1.785,0.239,5.341,0.184,8.655-0.094
			c2.708-0.228,5.426-0.714,5.426-0.714s-0.954,0.409-1.645,0.88c-6.645,1.748-19.48,0.934-15.785-0.853
			C130.081,19.643,132.622,19.815,132.622,19.815z M144.36,26.376c6.755-3.509,3.631-6.881,1.451-6.427
			c-0.533,0.111-0.772,0.208-0.772,0.208s0.198-0.311,0.577-0.445c4.312-1.516,7.629,4.471-1.391,6.842
			C144.225,26.553,144.328,26.459,144.36,26.376z"/>
		<path style="fill:#3C3C3B;" d="M140.288,0c0,0,3.74,3.742-3.548,9.495c-5.845,4.616-1.333,7.248-0.002,10.255
			c-3.412-3.078-5.915-5.788-4.236-8.31C134.967,7.739,141.796,5.943,140.288,0z"/>
		<path style="fill:#3C3C3B;" d="M133.286,35.887c6.482,0.414,16.439-0.231,16.675-3.298c0,0-0.453,1.163-5.358,2.085
			c-5.533,1.042-12.359,0.92-16.406,0.252C128.197,34.927,129.026,35.613,133.286,35.887z"/>
	</g>
	<g>
		<path style="fill:#3C3C3B;" d="M228.242,18.26c-0.029-0.029-0.058-0.058-0.115-0.058l-0.029-0.029
			c-0.029-0.029-0.058-0.029-0.058-0.058l-0.029-0.029c-0.029,0-0.058-0.029-0.058-0.029l-0.058-0.029
			c-0.029,0-0.058-0.029-0.058-0.029l-0.058-0.029c-0.029,0-0.058-0.029-0.058-0.029c-0.029,0-0.029,0-0.058-0.029l-0.086-0.029
			c-0.029,0-0.029,0-0.058-0.029l-0.086-0.029h-0.029l-0.115-0.029h-0.058c-0.029,0-0.058,0-0.086-0.029h-0.661
			c-0.173-3.824,0.173-7.706-0.805-11.387c3.709-1.323,0.805-6.412-2.415-4.141C221.14,0.403,218.207,0,215.13,0
			c-3.019,0.201-5.866,0.834-7.879,2.415c-0.805-0.403-1.582-0.518-2.272-0.316v0.029c-0.029,0-0.086,0.029-0.115,0.058
			c-0.029,0-0.086,0.029-0.115,0.058h-0.029c-0.029,0-0.058,0.029-0.115,0.058h-0.029l-0.086,0.058h-0.029l-0.086,0.058h-0.029
			l-0.086,0.058c0,0-0.029,0-0.029,0.029l-0.086,0.058c0,0-0.029,0-0.029,0.029l-0.086,0.058c0,0-0.029,0-0.029,0.029l-0.086,0.058
			l-0.029,0.029c-0.029,0.029-0.058,0.029-0.058,0.058L203.8,2.847l-0.058,0.058l-0.029,0.029c-0.029,0.029-0.029,0.058-0.058,0.058
			l-0.029,0.029c-0.029,0.029-0.029,0.058-0.058,0.058l-0.029,0.029c-0.029,0.029-0.029,0.058-0.058,0.058l-0.029,0.029
			c-0.029,0.029-0.029,0.058-0.058,0.058l-0.029,0.029c-0.029,0.029-0.029,0.058-0.058,0.058l-0.029,0.029l-0.029,0.086
			c0,0,0,0.029-0.029,0.029l-0.029,0.086c0,0,0,0.029-0.029,0.029l-0.029,0.086c0,0,0,0.029-0.029,0.029l-0.029,0.086
			c0,0,0,0.029-0.029,0.029c0.115,0.086,0.115,0.115,0.115,0.115v0.029l-0.029,0.086v0.029c0,0.029,0,0.058-0.029,0.086v0.891
			c0,0.029,0,0.058,0.029,0.086v0.029l0.029,0.086v0.029l0.029,0.086c0,0,0,0.029,0.029,0.029l0.029,0.086c0,0,0,0.029,0.029,0.029
			l0.029,0.086c0,0,0,0.029,0.029,0.029l0.058,0.086c0,0,0,0.029,0.029,0.029l0.058,0.086c0,0,0,0.029,0.029,0.029l0.058,0.086
			l0.029,0.029l0.086,0.086l0.086,0.086h0.029c0.288,0.259,0.575,0.46,1.15,0.633V6.729c-1.208,3.623-0.201,7.275-0.144,11.013
			c-0.173,0-0.201,0.115-0.489,0.144h-0.144c-0.029,0-0.086,0-0.144,0.029c-0.029,0-0.086,0-0.115,0.029l-0.115,0.029h-0.029
			l-0.115,0.029h-0.029l-0.086,0.029h-0.029l-0.086,0.029c0,0-0.029,0-0.029,0.029l-0.086,0.029l-0.058,0.029
			c-0.029,0-0.058,0.029-0.058,0.029l-0.058,0.029l-0.058,0.029c-0.029,0-0.058,0.029-0.058,0.029l-0.058,0.029l-0.115,0.086
			c-0.029,0.029-0.058,0.058-0.086,0.058l-0.115,0.115l-0.029,0.029c-0.029,0.058-0.086,0.115-0.115,0.144l-0.058,0.086
			l-0.086,0.173l-0.029,0.086v0.086c0,0.144,0.058,0.259,0.259,0.345c0.058,1.064,1.121,0.575,1.61,0.23l0.029-0.029
			c0.058-0.058,0.144-0.086,0.173-0.086h0.029l0.058-0.029c0.029,0,0.029,0,0.058-0.029c0.058-0.029,0.115-0.029,0.144-0.058
			c0.029,0,0.029-0.029,0.029-0.058l0.029-0.029c0.029-0.058,0.058-0.173,0.058-0.345l0.029-0.374v0.518
			c-0.144,3.767-1.15,8.828,0.949,12.221c0.374,0.604,0.834,1.121,1.352,1.553h-0.144c-0.058,0.058-0.144,0.115-0.23,0.173
			l-0.259,0.173l-0.086,0.058l-0.173,0.115l-0.259,0.201l-0.316,0.288c-0.058,0.058-0.086,0.115-0.115,0.144l-0.115,0.173
			l-0.058,0.086c-0.029,0.058-0.058,0.115-0.058,0.173l-0.029,0.086c-0.058,0.23,0,0.489,0.173,0.776l0.115,0.115h0.058
			c0.029,0,0.058,0,0.115,0.029c0.058,0.115,0.345,0.719,1.121,0.259c0.805-0.431,1.352-1.323,2.329-1.467l-0.144-0.173
			c1.697,0.805,3.681,1.15,5.464,1.208c2.502,0.086,5.349-0.259,7.62-1.495c0.633,0.201,1.121,1.121,1.668,1.553l0.029,0.029
			l0.029,0.029l0.029,0.029l0.029,0.029c0,0,0.029,0,0.029,0.029c0,0,0.029,0,0.029,0.029c0,0,0.029,0,0.029,0.029h0.604
			c0,0,0.029,0,0.029-0.029h0.029c0,0,0.029,0,0.029-0.029h0.029c0,0,0.029,0,0.029-0.029c0,0,0.029,0,0.029-0.029l0.029-0.029
			c0,0,0.029,0,0.029-0.029l0.029-0.029h0.029l0.058-0.058l0.058-0.029h0.029l0.029-0.029h0.029l0.029-0.029l0.029-0.029
			l0.029-0.029l0.029-0.029l0.029-0.029l0.029-0.029l0.029-0.029v-0.029c0,0,0-0.029,0.029-0.029v-0.029c0,0,0-0.029,0.029-0.029
			v-0.029c0,0,0-0.029,0.029-0.029v-0.403c0,0-0.086,0-0.086-0.029l-0.086-0.029v-0.029l0.086-0.029c0,0,0.058,0,0.058-0.029
			l0.029-0.029v-0.604c0,0,0-0.029-0.029-0.029V33.73c0,0,0-0.029-0.029-0.029v-0.029c0,0,0-0.029-0.029-0.029
			c0,0,0-0.029-0.029-0.029c0,0,0-0.029-0.029-0.029c0,0,0-0.029-0.029-0.029c0,0,0-0.029-0.029-0.029c0,0,0-0.029-0.029-0.029
			c0,0,0-0.029-0.029-0.029c0,0,0-0.029-0.029-0.029c0,0,0-0.029-0.029-0.029c0,0,0-0.029-0.029-0.029c0,0,0-0.029-0.029-0.029
			c0,0,0-0.029-0.029-0.029c0,0,0-0.029-0.029-0.029c0,0,0-0.029-0.029-0.029l-0.029-0.029l-0.029-0.029l-0.029-0.029l-0.029-0.029
			l-0.029-0.029l-0.029-0.029l-0.029-0.029l-0.029-0.029l-0.029-0.029l-0.029-0.029l-0.029-0.029l-0.029-0.029v-0.029l-0.029-0.029
			l-0.029-0.029l-0.029-0.029l-0.029-0.029l-0.029-0.029l-0.029-0.029l-0.029-0.029l-0.029-0.029l-0.029-0.029l-0.029-0.029
			l-0.029-0.029l-0.029-0.029l-0.029-0.029l-0.029-0.029l-0.029-0.029l-0.029-0.029l-0.029-0.029l-0.029-0.029l-0.029-0.029
			c0.575-0.546,1.093-1.208,1.467-1.984c1.697-3.393,1.409-7.534,1.179-11.272h0.029c0.029,0,0.058,0.029,0.058,0.029h0.086
			c0,0,0.029,0,0.029,0.029h0.029c0,0,0.029,0,0.029,0.029l0.058,0.029c0.489,0.345,1.553,0.834,1.61-0.23
			C229.076,19.151,228.53,18.461,228.242,18.26L228.242,18.26z M207.481,6.24c-0.92-4.601,6.441-5.464,6.7-0.978
			C214.411,9,208.43,9.949,207.481,6.24z M217.862,10.553c-0.374,0.403-0.776,0.345-1.179,0.201c0,0.546,0.115,1.121,0.029,1.697
			c-0.144,0.259-0.431,0.288-0.661,0.403c-0.345-0.058-0.604-0.259-0.748-0.575l-0.058-0.029c-1.121,1.495-1.812-0.316-1.495-1.438
			c-0.345,0.029-0.633-0.058-0.863-0.431c-0.403-0.748,0.201-1.668,0.978-1.812c0.201,0.863,2.502,0.748,2.904-0.058
			C217.66,8.943,218.638,9.748,217.862,10.553z M215.849,5.521c-0.259-3.968,5.837-5.032,6.729-1.15
			C223.584,8.684,216.596,9.806,215.849,5.521z M209.12,4.515c-0.546,0-1.006,0.489-1.006,1.093s0.46,1.093,1.006,1.093
			s1.006-0.489,1.006-1.093C210.126,5.003,209.695,4.515,209.12,4.515z M209.58,6.154c-0.144,0-0.23-0.115-0.23-0.288
			c0-0.144,0.115-0.288,0.23-0.288c0.144,0,0.23,0.115,0.23,0.288C209.81,6.01,209.724,6.154,209.58,6.154z M217.574,4.256
			c-0.546,0-0.978,0.489-0.978,1.093s0.431,1.093,0.978,1.093s0.978-0.489,0.978-1.093C218.552,4.745,218.121,4.256,217.574,4.256z
			 M218.034,5.866c-0.115,0-0.23-0.115-0.23-0.288c0-0.144,0.115-0.288,0.23-0.288s0.23,0.115,0.23,0.288
			S218.149,5.866,218.034,5.866z"/>
	</g>
	<g>
		<path style="fill:#3C3C3B;" d="M551.04,0.045L543.3,0v36h8.865v-0.045c-4.365-4.635-6.975-11.115-6.93-18.81
			C545.19,10.35,547.35,4.455,551.04,0.045z M600,0h-7.38c2.79,4.05,4.32,8.685,4.095,14.445c0.045,0.54,0.045,0.855,0,2.205h-33.03
			c0,9.9,3.465,17.235,12.285,17.28c6.075-0.045,10.44-4.545,13.455-9.405l8.55,4.275c-1.53,2.745-3.24,4.95-5.13,7.2H600
			C600,36,600,0,600,0z M572.145,0.72c-4.05,0-7.56,3.33-7.92,7.38H579.3C579.165,4.05,576.24,0.72,572.145,0.72z"/>
	</g>
</g>
</svg>
