<!-- Generator: Adobe Illustrator 19.0.1, SVG Export Plug-In  -->
<svg version="1.1"
	 xmlns="http://www.w3.org/2000/svg" xmlns:xlink="http://www.w3.org/1999/xlink" xmlns:a="http://ns.adobe.com/AdobeSVGViewerExtensions/3.0/"
	 x="0px" y="0px" width="600px" height="326.514px" viewBox="0 0 600 326.514" style="enable-background:new 0 0 600 326.514;"
	 xml:space="preserve">
<defs>
</defs>
<g>
	<path style="fill:#FED061;" d="M599.974,1.698c0-0.934-0.764-1.698-1.698-1.698H1.698C0.764,0,0,0.764,0,1.698V18.63l0.027,306.186
		c0,0.934,0.764,1.698,1.698,1.698h596.577c0.934,0,1.698-0.764,1.698-1.698L599.974,1.698z"/>
	<rect x="1.725" y="18.63" style="fill:#3C3C3B;" width="596.577" height="306.185"/>
	<circle style="fill:#FFDB7C;" cx="9.833" cy="9.315" r="3.104"/>
	<circle style="fill:#FFDB7C;" cx="21.156" cy="9.315" r="3.104"/>
	<circle style="fill:#FFDB7C;" cx="32.479" cy="9.315" r="3.104"/>
	<path style="fill:#FFDB7C;" d="M581.043,12.691c0,0.934-0.764,1.698-1.698,1.698H67.9c-0.934,0-1.698-0.764-1.698-1.698V5.939
		c0-0.934,0.764-1.698,1.698-1.698h511.445c0.934,0,1.698,0.764,1.698,1.698V12.691z"/>
	<path style="fill:#FFDB7C;" d="M591.943,7.488l-1.098,0.002c-0.208,0.004-0.374-0.163-0.369-0.369
		c-0.002-0.202,0.165-0.369,0.367-0.367l1.993-0.004c0.208,0.004,0.365,0.161,0.369,0.369l-0.002,0.009l0.004,1.99
		c-0.002,0.198-0.168,0.365-0.367,0.367c-0.213-0.002-0.376-0.165-0.374-0.374l0.002-1.098l-3.126,3.126l1.102-0.006
		c0.202,0.005,0.365,0.169,0.374,0.374c-0.007,0.204-0.172,0.369-0.372,0.372l-1.989-0.004l-0.007,0l-0.008-0.004h-0.007h-0.008
		c-0.187-0.017-0.32-0.15-0.341-0.341v-0.008l-0.002-0.002l-0.002-0.009l-0.002-0.006l0.002-1.991c0-0.204,0.165-0.369,0.372-0.372
		c0.198,0.002,0.365,0.169,0.369,0.369l-0.006,1.102L591.943,7.488z"/>
	<path style="fill:#FFDB7C;" d="M47.632,8.699c-0.005,0-0.008-0.003-0.013-0.003s-0.008,0.002-0.013,0.003h-3.24l1.29-1.276
		c0.228-0.237,0.228-0.625,0-0.859c-0.246-0.237-0.63-0.237-0.867,0L42.469,8.88l-0.004,0.009l-0.008,0.013v0.004l-0.009,0.009
		c-0.198,0.246-0.198,0.556,0,0.793l0.009,0.009l0.008,0.008l0.004,0.013l0.009,0.008l2.312,2.321c0.237,0.229,0.621,0.229,0.867,0
		c0.228-0.25,0.228-0.63,0-0.871l-1.29-1.277h3.241c0.004,0,0.007,0.002,0.011,0.002c0.004,0,0.007-0.002,0.011-0.002
		c0.197-0.006,0.355-0.166,0.355-0.364V9.063C47.986,8.865,47.828,8.706,47.632,8.699z"/>
	<path style="fill:#FFDB7C;" d="M54.075,9.926c0.005,0,0.008,0.003,0.013,0.003c0.005,0,0.008-0.002,0.013-0.003h3.24l-1.29,1.276
		c-0.228,0.237-0.228,0.625,0,0.859c0.246,0.237,0.63,0.237,0.867,0l2.321-2.316l0.004-0.009l0.008-0.013V9.719l0.009-0.009
		c0.198-0.246,0.198-0.556,0-0.793L59.25,8.908L59.242,8.9l-0.004-0.013l-0.009-0.008l-2.312-2.321
		c-0.237-0.229-0.621-0.229-0.867,0c-0.228,0.25-0.228,0.63,0,0.871l1.29,1.277h-3.241c-0.004,0-0.007-0.002-0.011-0.002
		c-0.004,0-0.007,0.002-0.011,0.002c-0.197,0.006-0.355,0.166-0.355,0.364v0.492C53.721,9.76,53.878,9.919,54.075,9.926z"/>
</g>
</svg>
