<!-- Generator: Adobe Illustrator 19.0.1, SVG Export Plug-In  -->
<svg version="1.1"
	 xmlns="http://www.w3.org/2000/svg" xmlns:xlink="http://www.w3.org/1999/xlink" xmlns:a="http://ns.adobe.com/AdobeSVGViewerExtensions/3.0/"
	 x="0px" y="0px" width="138.614px" height="162.767px" viewBox="0 0 138.614 162.767"
	 style="enable-background:new 0 0 138.614 162.767;" xml:space="preserve">
<defs>
</defs>
<g>
	<path style="fill:#FED061;" d="M138.602,2.131c-0.005-0.098-0.011-0.195-0.029-0.29c-0.011-0.058-0.028-0.112-0.043-0.168
		c-0.023-0.084-0.045-0.168-0.077-0.248c-0.023-0.059-0.053-0.114-0.081-0.17c-0.036-0.073-0.072-0.145-0.116-0.214
		c-0.034-0.053-0.074-0.102-0.113-0.153c-0.049-0.064-0.098-0.128-0.154-0.187c-0.044-0.046-0.092-0.086-0.139-0.127
		c-0.061-0.054-0.12-0.107-0.187-0.154c-0.056-0.04-0.116-0.072-0.176-0.107c-0.065-0.038-0.129-0.076-0.199-0.108
		c-0.073-0.033-0.15-0.056-0.227-0.082c-0.051-0.017-0.097-0.041-0.15-0.054c-0.015-0.004-0.03-0.003-0.046-0.007
		c-0.067-0.015-0.137-0.022-0.207-0.031c-0.088-0.012-0.176-0.025-0.264-0.027c-0.011,0-0.02-0.003-0.031-0.003H89.839
		c-0.054,0-0.105,0.012-0.158,0.016c-0.068,0.005-0.136,0.01-0.203,0.021c-0.083,0.013-0.162,0.033-0.241,0.056
		c-0.06,0.017-0.12,0.034-0.179,0.055c-0.077,0.029-0.151,0.063-0.224,0.099c-0.058,0.029-0.115,0.058-0.17,0.092
		C88.6,0.381,88.54,0.424,88.481,0.469c-0.059,0.044-0.116,0.09-0.17,0.141c-0.048,0.044-0.091,0.091-0.135,0.139
		c-0.055,0.061-0.108,0.123-0.157,0.19c-0.036,0.049-0.067,0.101-0.099,0.153c-0.044,0.072-0.086,0.146-0.122,0.224
		c-0.026,0.057-0.047,0.116-0.068,0.176c-0.019,0.054-0.046,0.103-0.062,0.159C82.802,19.176,76.758,36.5,69.714,53.174
		l-1.243-0.664c-3.847-2.053-8.652-0.598-10.709,3.25l-9.812,18.36c-2.056,3.849-0.598,8.653,3.25,10.709l2.762,1.476
		c-2.659,5.017-5.422,10.003-8.297,14.931l-11.93-3.587c-4.395-1.323-9.043,1.179-10.365,5.573
		c-1.321,4.395,1.179,9.044,5.573,10.365l7.731,2.324c-0.762,1.191-1.507,2.398-2.28,3.579c-0.073,0.111-0.102,0.236-0.153,0.354
		l-8.71,8.71c-3.245,3.245-3.245,8.523,0,11.768c1.572,1.572,3.661,2.438,5.884,2.438c1.04,0,2.044-0.206,2.986-0.569l-1.646,1.646
		c-3.243,3.245-3.243,8.524,0.001,11.769c1.622,1.622,3.753,2.432,5.884,2.432c2.131,0,4.262-0.811,5.884-2.433l11.728-11.728
		l0.349,0.349l-4.337,4.337c-3.245,3.245-3.245,8.524,0,11.769c1.622,1.622,3.753,2.434,5.884,2.434
		c2.131,0,4.262-0.812,5.884-2.434l5.067-5.067c0.562-0.12,1.064-0.438,1.392-0.918c7.073-10.342,13.764-21.047,20.009-31.962
		c0.023-0.04,0.056-0.07,0.077-0.112c0.01-0.021,0.014-0.043,0.024-0.064c2.655-4.646,5.235-9.327,7.718-14.04
		c0.135-0.065,0.273-0.123,0.406-0.19l2.112,1.128c1.864,0.996,4.005,1.207,6.028,0.593s3.686-1.978,4.681-3.842l9.811-18.36
		c0.997-1.864,1.207-4.005,0.593-6.027c-0.614-2.023-1.978-3.686-3.842-4.681l-2.897-1.548c-0.103-0.602-0.25-1.187-0.388-1.776
		c2.68-6.287,5.217-12.655,7.63-19.082c0.016-0.034,0.042-0.059,0.057-0.095c0.04-0.098,0.063-0.199,0.089-0.299
		c6.26-16.723,11.615-33.862,15.949-51.194c0.004-0.017,0.004-0.034,0.007-0.051c0.014-0.063,0.019-0.128,0.028-0.193
		c0.012-0.09,0.026-0.179,0.027-0.267c0-0.012,0.003-0.023,0.003-0.035C138.614,2.211,138.604,2.172,138.602,2.131z"/>
	<path style="fill:#FFE596;" d="M115.584,2.131c-0.005-0.098-0.011-0.195-0.029-0.29c-0.011-0.058-0.028-0.112-0.043-0.168
		c-0.023-0.084-0.045-0.168-0.077-0.248c-0.023-0.059-0.053-0.114-0.081-0.17c-0.036-0.073-0.072-0.145-0.116-0.214
		c-0.034-0.053-0.074-0.102-0.113-0.153c-0.049-0.064-0.098-0.128-0.154-0.187c-0.044-0.046-0.092-0.086-0.139-0.127
		c-0.061-0.054-0.12-0.107-0.187-0.154c-0.056-0.04-0.116-0.072-0.176-0.107c-0.065-0.038-0.129-0.076-0.199-0.108
		c-0.073-0.033-0.15-0.056-0.227-0.082c-0.051-0.017-0.097-0.041-0.15-0.054c-0.015-0.004-0.03-0.003-0.046-0.007
		c-0.067-0.015-0.137-0.022-0.207-0.031c-0.088-0.012-0.176-0.025-0.264-0.027c-0.011,0-0.02-0.003-0.031-0.003H66.82
		c-0.054,0-0.105,0.012-0.158,0.016c-0.068,0.005-0.136,0.01-0.203,0.021c-0.083,0.013-0.162,0.033-0.241,0.056
		c-0.06,0.017-0.12,0.034-0.179,0.055c-0.077,0.029-0.151,0.063-0.224,0.099c-0.058,0.029-0.115,0.058-0.17,0.092
		c-0.064,0.039-0.124,0.082-0.183,0.127c-0.059,0.044-0.116,0.09-0.17,0.141c-0.048,0.044-0.091,0.091-0.135,0.139
		C65.102,0.81,65.049,0.872,65,0.939c-0.036,0.049-0.067,0.101-0.099,0.153c-0.044,0.072-0.086,0.146-0.122,0.224
		c-0.026,0.057-0.047,0.116-0.068,0.176c-0.019,0.054-0.046,0.103-0.062,0.159C59.783,19.176,53.739,36.5,46.696,53.174
		l-1.243-0.664c-3.847-2.053-8.652-0.598-10.709,3.25l-9.812,18.36c-2.056,3.849-0.598,8.653,3.25,10.709l2.762,1.476
		c-2.659,5.017-5.422,10.003-8.297,14.931l-11.93-3.587c-4.395-1.323-9.043,1.179-10.365,5.573
		c-1.321,4.395,1.179,9.044,5.573,10.365l7.731,2.324c-0.762,1.191-1.507,2.398-2.28,3.579c-0.073,0.111-0.102,0.236-0.153,0.354
		l-8.71,8.71c-3.245,3.245-3.245,8.523,0,11.768c1.572,1.572,3.661,2.438,5.884,2.438c1.04,0,2.044-0.206,2.986-0.569l-1.646,1.646
		c-3.243,3.245-3.243,8.524,0.001,11.769c1.622,1.622,3.753,2.432,5.884,2.432c2.131,0,4.262-0.811,5.884-2.433l11.728-11.728
		l0.349,0.349l-4.337,4.337c-3.245,3.245-3.245,8.524,0,11.769c1.622,1.622,3.753,2.434,5.884,2.434
		c2.131,0,4.262-0.812,5.884-2.434l5.067-5.067c0.562-0.12,1.064-0.438,1.392-0.918c7.073-10.342,13.764-21.047,20.009-31.962
		c0.023-0.04,0.056-0.07,0.077-0.112c0.01-0.021,0.014-0.043,0.024-0.064c2.655-4.646,5.235-9.327,7.718-14.04
		c0.135-0.065,0.273-0.123,0.406-0.19l2.112,1.128c1.864,0.996,4.005,1.207,6.028,0.593s3.686-1.978,4.681-3.842l9.811-18.36
		c0.997-1.864,1.207-4.005,0.593-6.027c-0.614-2.023-1.978-3.686-3.842-4.681l-2.897-1.548c-0.103-0.602-0.25-1.187-0.388-1.776
		c2.68-6.287,5.217-12.655,7.63-19.082c0.016-0.034,0.042-0.059,0.057-0.095c0.04-0.098,0.063-0.199,0.089-0.299
		c6.26-16.723,11.615-33.862,15.949-51.194c0.004-0.017,0.004-0.034,0.007-0.051c0.014-0.063,0.019-0.128,0.028-0.193
		c0.012-0.09,0.026-0.179,0.027-0.267c0-0.012,0.003-0.023,0.003-0.035C115.596,2.211,115.586,2.172,115.584,2.131z"/>
	<g>
		<g>
			<path style="fill:#3C3C3B;" d="M113.346,4.503H66.82c-1.243,0-2.25-1.007-2.25-2.25s1.007-2.25,2.25-2.25h46.526
				c1.243,0,2.25,1.007,2.25,2.25S114.589,4.503,113.346,4.503z"/>
		</g>
		<g>
			<g>
				<path style="fill:#3C3C3B;" d="M61.846,111.271c-14.731,0-27.242-10.267-30.163-24.572l-3.499-1.87
					c-3.848-2.056-5.306-6.86-3.25-10.709l9.812-18.36c2.057-3.848,6.862-5.303,10.709-3.25l1.694,0.906
					c4.493-2.443,9.547-3.729,14.698-3.729c14.992,0,27.836,10.906,30.348,25.556l2.897,1.548c1.864,0.995,3.229,2.658,3.842,4.681
					c0.614,2.022,0.404,4.163-0.593,6.027l-9.811,18.36c-0.995,1.864-2.658,3.229-4.681,3.842s-4.164,0.403-6.028-0.593
					l-2.112-1.128C71.432,110.136,66.666,111.271,61.846,111.271z M36.146,86.056c2.592,12.075,13.211,20.714,25.7,20.714
					c4.473,0,8.889-1.143,12.773-3.305c0.667-0.372,1.479-0.379,2.155-0.019l3.168,1.693c0.805,0.43,1.729,0.521,2.601,0.256
					c0.872-0.264,1.589-0.853,2.019-1.657l9.812-18.36c0.429-0.804,0.52-1.727,0.256-2.599s-0.853-1.589-1.657-2.019l-3.891-2.08
					c-0.639-0.341-1.074-0.97-1.17-1.689c-1.722-13-12.927-22.804-26.063-22.804c-4.77,0-9.439,1.289-13.505,3.728
					c-0.677,0.408-1.521,0.429-2.218,0.055l-2.791-1.491c-1.658-0.884-3.732-0.256-4.619,1.403l-9.811,18.36
					c-0.886,1.66-0.258,3.732,1.403,4.619l4.416,2.359c0.023,0.012,0.047,0.025,0.07,0.038l0.267,0.143
					C36.027,83.918,36.463,85.045,36.146,86.056z"/>
			</g>
			<g>
				<path style="fill:#3C3C3B;" d="M89.462,75.493c-0.296,0-0.596-0.059-0.885-0.182c-1.143-0.489-1.672-1.811-1.183-2.954
					c9.739-22.749,17.736-46.52,23.771-70.65c0.301-1.206,1.516-1.945,2.728-1.637c1.206,0.301,1.939,1.523,1.637,2.728
					c-6.092,24.363-14.167,48.361-23.999,71.33C91.165,74.981,90.335,75.493,89.462,75.493z"/>
			</g>
			<g>
				<path style="fill:#3C3C3B;" d="M48.205,57.652c-0.294,0-0.594-0.059-0.882-0.181c-1.143-0.488-1.674-1.81-1.187-2.952
					c7.288-17.085,13.517-34.873,18.513-52.868c0.333-1.198,1.575-1.893,2.77-1.566c1.198,0.333,1.898,1.573,1.566,2.77
					c-5.05,18.185-11.344,36.162-18.71,53.429C49.911,57.139,49.079,57.652,48.205,57.652z"/>
			</g>
			<g>
				<path style="fill:#3C3C3B;" d="M101.43,43.048c-0.097,0-0.194-0.018-0.289-0.058c-13.773-5.746-28.069-10.6-42.491-14.428
					c-0.4-0.106-0.639-0.517-0.532-0.918c0.107-0.4,0.518-0.636,0.918-0.532c14.487,3.845,28.847,8.722,42.683,14.494
					c0.382,0.16,0.563,0.598,0.404,0.981C102.002,42.874,101.723,43.048,101.43,43.048z"/>
			</g>
			<g>
				<path style="fill:#3C3C3B;" d="M97.41,55.689c-0.284,0-0.573-0.054-0.853-0.169c-13.753-5.638-27.994-10.486-42.329-14.408
					c-1.198-0.328-1.904-1.565-1.576-2.764c0.327-1.199,1.566-1.899,2.764-1.576c14.511,3.97,28.927,8.878,42.847,14.585
					c1.15,0.471,1.7,1.786,1.228,2.935C99.135,55.162,98.295,55.689,97.41,55.689z"/>
			</g>
			<g>
				<path style="fill:#3C3C3B;" d="M45.617,155.328c-0.594,0-1.167-0.235-1.591-0.659l-32.357-32.356
					c-0.754-0.753-0.875-1.931-0.292-2.823c7.413-11.328,14.353-23.153,20.626-35.148c0.575-1.1,1.931-1.53,3.037-0.951
					c1.101,0.576,1.526,1.935,0.951,3.037c-6.058,11.583-12.731,23.011-19.849,33.993l29.143,29.143
					c9.579-14.183,18.448-29.021,26.384-44.142c0.577-1.099,1.935-1.524,3.038-0.946c1.1,0.577,1.524,1.937,0.946,3.038
					c-8.437,16.074-17.917,31.831-28.178,46.834c-0.378,0.553-0.982,0.908-1.649,0.97C45.755,155.325,45.686,155.328,45.617,155.328
					z"/>
			</g>
			<g>
				<path style="fill:#3C3C3B;" d="M70.553,113.039c-0.089,0-0.179-0.015-0.267-0.049c-14.154-5.403-28.724-10.24-43.306-14.378
					c-0.398-0.113-0.629-0.527-0.516-0.927s0.525-0.631,0.927-0.516c14.624,4.15,29.236,9.001,43.43,14.419
					c0.387,0.148,0.581,0.582,0.434,0.968C71.139,112.855,70.854,113.039,70.553,113.039z"/>
			</g>
			<g>
				<path style="fill:#3C3C3B;" d="M65.54,123.53c-0.334,0-0.673-0.075-0.993-0.232c-13.383-6.596-27.166-12.812-40.965-18.477
					c-1.149-0.472-1.698-1.786-1.227-2.936c0.472-1.148,1.788-1.698,2.936-1.227c13.893,5.703,27.771,11.963,41.245,18.603
					c1.115,0.549,1.573,1.898,1.024,3.013C67.168,123.069,66.37,123.53,65.54,123.53z"/>
			</g>
			<g>
				<g>
					<path style="fill:#3C3C3B;" d="M8.398,142.76c-2.222,0-4.312-0.866-5.884-2.438c-3.245-3.245-3.245-8.523,0-11.768l9.289-9.289
						c0.879-0.879,2.303-0.879,3.182,0c0.879,0.878,0.879,2.303,0,3.182l-9.289,9.289c-0.721,0.722-1.119,1.682-1.119,2.703
						c0,1.02,0.398,1.98,1.119,2.702c1.444,1.444,3.96,1.442,5.405,0l9.289-9.289c0.879-0.879,2.303-0.879,3.182,0
						c0.879,0.878,0.879,2.303,0,3.182l-9.289,9.289C12.71,141.894,10.621,142.76,8.398,142.76z"/>
				</g>
				<g>
					<path style="fill:#3C3C3B;" d="M19.052,133.119c-0.174,0-0.347-0.059-0.489-0.181l-9.241-7.931
						c-0.314-0.27-0.35-0.743-0.081-1.058c0.27-0.314,0.746-0.349,1.058-0.081l9.241,7.931c0.314,0.27,0.35,0.743,0.081,1.058
						C19.474,133.03,19.263,133.119,19.052,133.119z"/>
				</g>
				<g>
					<path style="fill:#3C3C3B;" d="M14.35,137.823c-0.186,0-0.372-0.069-0.517-0.207l-8.802-8.371
						c-0.3-0.286-0.312-0.76-0.026-1.061c0.286-0.299,0.761-0.311,1.061-0.026l8.802,8.371c0.3,0.286,0.312,0.76,0.026,1.061
						C14.746,137.745,14.548,137.823,14.35,137.823z"/>
				</g>
			</g>
			<g>
				<g>
					<path style="fill:#3C3C3B;" d="M15.623,158.039c-2.131,0-4.262-0.811-5.884-2.432c-3.244-3.245-3.244-8.525-0.001-11.769
						l13.32-13.318c0.879-0.879,2.303-0.879,3.182,0s0.879,2.303,0,3.182L12.92,147.019c-1.49,1.49-1.49,3.915,0.001,5.405
						c1.488,1.49,3.915,1.49,5.405-0.001l12.906-12.905c0.879-0.879,2.303-0.879,3.182,0c0.879,0.878,0.879,2.303,0,3.182
						l-12.906,12.906C19.885,157.228,17.753,158.039,15.623,158.039z"/>
				</g>
				<g>
					<path style="fill:#3C3C3B;" d="M32.822,141.858c-0.186,0-0.372-0.069-0.517-0.207l-8.802-8.371
						c-0.3-0.286-0.312-0.76-0.026-1.061c0.286-0.3,0.761-0.311,1.061-0.026l8.802,8.371c0.3,0.286,0.312,0.76,0.026,1.061
						C33.218,141.78,33.02,141.858,32.822,141.858z"/>
				</g>
				<g>
					<path style="fill:#3C3C3B;" d="M28.992,144.28c-0.174,0-0.347-0.059-0.489-0.181l-9.242-7.931
						c-0.314-0.27-0.35-0.743-0.081-1.058c0.27-0.315,0.745-0.349,1.058-0.081l9.242,7.931c0.314,0.27,0.35,0.743,0.081,1.058
						C29.413,144.192,29.203,144.28,28.992,144.28z"/>
				</g>
				<g>
					<path style="fill:#3C3C3B;" d="M20.887,152.385c-0.174,0-0.347-0.059-0.489-0.181l-9.242-7.931
						c-0.314-0.27-0.35-0.743-0.081-1.058c0.27-0.315,0.746-0.349,1.058-0.081l9.242,7.931c0.314,0.27,0.35,0.743,0.081,1.058
						C21.308,152.297,21.098,152.385,20.887,152.385z"/>
				</g>
				<g>
					<path style="fill:#3C3C3B;" d="M25.014,148.258c-0.186,0-0.372-0.069-0.517-0.207l-8.802-8.372
						c-0.3-0.286-0.312-0.76-0.026-1.061c0.286-0.299,0.762-0.31,1.061-0.026l8.802,8.372c0.3,0.286,0.312,0.76,0.026,1.061
						C25.411,148.18,25.212,148.258,25.014,148.258z"/>
				</g>
			</g>
			<g>
				<g>
					<path style="fill:#3C3C3B;" d="M35.131,162.767c-2.131,0-4.261-0.812-5.884-2.434c-3.245-3.245-3.245-8.524,0-11.769
						l5.927-5.927c0.879-0.879,2.303-0.879,3.182,0c0.879,0.878,0.879,2.303,0,3.182l-5.927,5.927c-1.49,1.49-1.49,3.915,0,5.405
						c1.491,1.491,3.916,1.49,5.405,0l5.928-5.928c0.879-0.879,2.303-0.879,3.182,0c0.879,0.878,0.879,2.303,0,3.182l-5.928,5.928
						C39.393,161.955,37.262,162.767,35.131,162.767z"/>
				</g>
				<g>
					<path style="fill:#3C3C3B;" d="M41.574,157.342c-0.198,0-0.396-0.078-0.543-0.233l-8.372-8.802
						c-0.286-0.3-0.274-0.775,0.026-1.061c0.3-0.284,0.774-0.272,1.061,0.026l8.372,8.802c0.286,0.3,0.274,0.775-0.026,1.061
						C41.946,157.273,41.76,157.342,41.574,157.342z"/>
				</g>
			</g>
			<g>
				<g>
					<path style="fill:#3C3C3B;" d="M17.179,116.871c-0.215,0-0.432-0.031-0.649-0.096l-10.604-3.188
						c-4.394-1.321-6.894-5.971-5.573-10.365c1.322-4.394,5.97-6.896,10.365-5.573l13.638,4.101
						c1.189,0.358,1.864,1.613,1.507,2.803c-0.358,1.189-1.614,1.865-2.803,1.507l-13.638-4.101
						c-2.021-0.609-4.154,0.541-4.76,2.559c-0.606,2.018,0.541,4.154,2.559,4.76l10.605,3.188c1.189,0.358,1.864,1.613,1.507,2.803
						C19.04,116.242,18.146,116.871,17.179,116.871z"/>
				</g>
			</g>
			<g>
				<path style="fill:#3C3C3B;" d="M61.846,105.271c-13.67,0-24.792-11.122-24.792-24.792s11.122-24.792,24.792-24.792
					s24.792,11.122,24.792,24.792S75.516,105.271,61.846,105.271z M61.846,57.187c-12.843,0-23.292,10.449-23.292,23.292
					s10.449,23.292,23.292,23.292s23.292-10.449,23.292-23.292S74.689,57.187,61.846,57.187z"/>
			</g>
			<g>
				<path style="fill:#3C3C3B;" d="M76.117,95.499c-0.192,0-0.384-0.073-0.53-0.22L61.315,81.009c-0.293-0.293-0.293-0.768,0-1.061
					s0.768-0.293,1.061,0l14.271,14.271c0.293,0.293,0.293,0.768,0,1.061C76.501,95.426,76.309,95.499,76.117,95.499z"/>
			</g>
			<g>
				<path style="fill:#3C3C3B;" d="M61.846,82.729H46.009c-1.243,0-2.25-1.007-2.25-2.25s1.007-2.25,2.25-2.25h15.836
					c1.243,0,2.25,1.007,2.25,2.25S63.089,82.729,61.846,82.729z"/>
			</g>
			<g>
				<path style="fill:#3C3C3B;" d="M105.778,31.387c-0.159,0-0.321-0.018-0.483-0.053l-44.138-9.642
					c-1.214-0.265-1.983-1.464-1.718-2.678c0.265-1.214,1.461-1.981,2.678-1.718l44.138,9.642c1.214,0.265,1.983,1.464,1.718,2.678
					C107.744,30.668,106.812,31.387,105.778,31.387z"/>
			</g>
			<g>
				<path style="fill:#3C3C3B;" d="M109.133,18.709c-0.023,0-0.048-0.001-0.072-0.004l-45.639-4.344
					c-0.412-0.039-0.715-0.405-0.675-0.817c0.039-0.412,0.398-0.727,0.817-0.675l45.639,4.344c0.412,0.039,0.715,0.405,0.675,0.817
					C109.842,18.419,109.515,18.709,109.133,18.709z"/>
			</g>
			<g>
				<path style="fill:#3C3C3B;" d="M110.356,14.365c-0.037,0-0.076-0.003-0.114-0.009L65.428,7.49
					c-0.409-0.062-0.691-0.445-0.628-0.855c0.062-0.409,0.445-0.694,0.855-0.628l44.814,6.866c0.409,0.062,0.691,0.445,0.628,0.855
					C111.04,14.1,110.72,14.365,110.356,14.365z"/>
			</g>
			<g>
				<path style="fill:#3C3C3B;" d="M17.177,115.37c-0.39,0-0.719-0.302-0.747-0.697l-0.912-12.954
					c-0.029-0.413,0.282-0.772,0.695-0.801c0.423-0.036,0.771,0.281,0.801,0.695l0.912,12.954c0.029,0.413-0.282,0.772-0.695,0.801
					C17.213,115.369,17.195,115.37,17.177,115.37z"/>
			</g>
		</g>
	</g>
</g>
</svg>
