<!-- Generator: Adobe Illustrator 19.0.1, SVG Export Plug-In  -->
<svg version="1.1"
	 xmlns="http://www.w3.org/2000/svg" xmlns:xlink="http://www.w3.org/1999/xlink" xmlns:a="http://ns.adobe.com/AdobeSVGViewerExtensions/3.0/"
	 x="0px" y="0px" width="191.785px" height="37.5px" viewBox="0 0 191.785 37.5" style="enable-background:new 0 0 191.785 37.5;"
	 xml:space="preserve">
<defs>
</defs>
<g>
	<path style="fill:#3C3C3B;" d="M191.785,6.615v24.269c0,3.654-2.962,6.615-6.615,6.615H6.615C2.962,37.5,0,34.538,0,30.885L0,6.615
		C0,2.962,2.962,0,6.615,0L185.17,0C188.823,0,191.785,2.962,191.785,6.615z"/>
	<g>
		<path style="fill:#FFDB7C;" d="M46.714,16.891c-0.198-0.038-0.411-0.056-0.641-0.056c-0.727,0-1.234,0.398-1.522,1.194v6.2h-1.418
			v-8.668h1.378l0.024,0.881c0.379-0.694,0.916-1.042,1.61-1.042c0.225,0,0.411,0.038,0.561,0.112L46.714,16.891z"/>
		<path style="fill:#FFDB7C;" d="M51.072,24.389c-1.079,0-1.907-0.322-2.483-0.965s-0.871-1.587-0.881-2.832v-1.05
			c0-1.292,0.282-2.306,0.845-3.04c0.563-0.734,1.35-1.102,2.359-1.102c1.015,0,1.773,0.323,2.275,0.969
			c0.502,0.646,0.758,1.653,0.769,3.021v0.929h-4.838v0.2c0,0.929,0.175,1.605,0.524,2.027c0.35,0.422,0.854,0.633,1.51,0.633
			c0.417,0,0.784-0.079,1.102-0.236c0.317-0.158,0.615-0.407,0.893-0.749l0.737,0.897C53.27,23.957,52.332,24.389,51.072,24.389z
			 M50.912,16.619c-0.588,0-1.023,0.202-1.306,0.605c-0.283,0.403-0.443,1.029-0.48,1.878h3.413V18.91
			c-0.037-0.822-0.186-1.41-0.444-1.762C51.834,16.795,51.441,16.619,50.912,16.619z"/>
		<path style="fill:#FFDB7C;" d="M55.358,19.502c0-1.351,0.246-2.373,0.737-3.064c0.491-0.691,1.223-1.038,2.195-1.038
			c0.838,0,1.49,0.336,1.955,1.01l0.064-0.85h1.297v12h-1.417v-4.094c-0.459,0.614-1.095,0.921-1.907,0.921
			c-0.935,0-1.653-0.34-2.155-1.021c-0.502-0.681-0.759-1.673-0.769-2.976V19.502z M56.776,20.312c0,0.972,0.15,1.693,0.449,2.163
			c0.299,0.47,0.774,0.705,1.426,0.705c0.662,0,1.175-0.318,1.538-0.954V17.58c-0.385-0.641-0.895-0.961-1.53-0.961
			c-0.652,0-1.127,0.235-1.426,0.705c-0.299,0.47-0.452,1.178-0.457,2.123V20.312z"/>
		<path style="fill:#FFDB7C;" d="M68.287,23.468c-0.47,0.614-1.156,0.921-2.059,0.921c-0.785,0-1.377-0.271-1.778-0.813
			c-0.4-0.542-0.604-1.331-0.609-2.367v-5.648h1.41v5.544c0,1.351,0.406,2.026,1.218,2.026c0.86,0,1.453-0.384,1.778-1.153v-6.417
			h1.418v8.668H68.32L68.287,23.468z"/>
		<path style="fill:#FFDB7C;" d="M74.897,24.389c-1.079,0-1.907-0.322-2.483-0.965s-0.871-1.587-0.881-2.832v-1.05
			c0-1.292,0.282-2.306,0.845-3.04c0.563-0.734,1.35-1.102,2.359-1.102c1.015,0,1.773,0.323,2.275,0.969
			c0.502,0.646,0.758,1.653,0.769,3.021v0.929h-4.838v0.2c0,0.929,0.175,1.605,0.524,2.027c0.35,0.422,0.854,0.633,1.51,0.633
			c0.417,0,0.784-0.079,1.102-0.236c0.317-0.158,0.615-0.407,0.893-0.749l0.737,0.897C77.094,23.957,76.157,24.389,74.897,24.389z
			 M74.737,16.619c-0.588,0-1.023,0.202-1.306,0.605c-0.283,0.403-0.443,1.029-0.48,1.878h3.413V18.91
			c-0.037-0.822-0.186-1.41-0.444-1.762C75.659,16.795,75.265,16.619,74.737,16.619z"/>
		<path style="fill:#FFDB7C;" d="M83.692,22.01c0-0.304-0.115-0.566-0.344-0.785c-0.23-0.219-0.673-0.476-1.33-0.769
			c-0.764-0.315-1.302-0.585-1.614-0.809c-0.312-0.225-0.546-0.479-0.701-0.765s-0.232-0.626-0.232-1.021
			c0-0.705,0.258-1.291,0.773-1.758c0.516-0.467,1.174-0.701,1.975-0.701c0.844,0,1.522,0.246,2.035,0.737
			c0.513,0.491,0.769,1.122,0.769,1.891h-1.41c0-0.39-0.131-0.723-0.393-0.998s-0.595-0.413-1.001-0.413
			c-0.417,0-0.744,0.108-0.981,0.323c-0.238,0.216-0.356,0.505-0.356,0.867c0,0.288,0.086,0.519,0.26,0.695
			c0.173,0.176,0.591,0.407,1.254,0.695c1.052,0.412,1.768,0.814,2.146,1.208c0.379,0.393,0.569,0.892,0.569,1.496
			c0,0.754-0.259,1.357-0.777,1.81c-0.518,0.452-1.212,0.678-2.083,0.678c-0.902,0-1.634-0.259-2.195-0.777
			c-0.561-0.518-0.841-1.175-0.841-1.971h1.426c0.016,0.48,0.163,0.857,0.44,1.129c0.277,0.272,0.667,0.409,1.169,0.409
			c0.47,0,0.828-0.105,1.074-0.316C83.57,22.652,83.692,22.368,83.692,22.01z"/>
		<path style="fill:#FFDB7C;" d="M88.811,13.462v2.099h1.306v1.146h-1.306v5.382c0,0.342,0.056,0.602,0.168,0.778
			c0.112,0.177,0.305,0.265,0.577,0.265c0.187,0,0.376-0.032,0.568-0.096l-0.016,1.195c-0.321,0.106-0.649,0.159-0.985,0.159
			c-0.561,0-0.988-0.2-1.282-0.601c-0.294-0.401-0.441-0.967-0.441-1.698v-5.383h-1.322v-1.146h1.322v-2.099H88.811z"/>
		<path style="fill:#FFDB7C;" d="M101.837,20.312c0,1.352-0.243,2.369-0.729,3.052s-1.191,1.025-2.115,1.025
			c-0.918,0-1.607-0.395-2.067-1.186l-0.072,1.025h-1.29V11.924h1.41v4.59c0.464-0.742,1.132-1.114,2.002-1.114
			c0.951,0,1.664,0.336,2.139,1.01c0.475,0.673,0.715,1.688,0.721,3.044V20.312z M100.427,19.499c0-1.024-0.143-1.753-0.429-2.188
			c-0.286-0.435-0.749-0.652-1.39-0.652c-0.731,0-1.276,0.395-1.634,1.184v4.121c0.352,0.779,0.902,1.168,1.65,1.168
			c0.641,0,1.1-0.224,1.378-0.672s0.419-1.144,0.425-2.088V19.499z"/>
		<path style="fill:#FFDB7C;" d="M106.748,24.389c-1.079,0-1.907-0.322-2.483-0.965s-0.871-1.587-0.881-2.832v-1.05
			c0-1.292,0.282-2.306,0.845-3.04c0.563-0.734,1.35-1.102,2.359-1.102c1.015,0,1.773,0.323,2.275,0.969
			c0.502,0.646,0.758,1.653,0.769,3.021v0.929h-4.838v0.2c0,0.929,0.175,1.605,0.524,2.027c0.35,0.422,0.854,0.633,1.51,0.633
			c0.417,0,0.784-0.079,1.102-0.236c0.317-0.158,0.615-0.407,0.893-0.749l0.737,0.897C108.946,23.957,108.008,24.389,106.748,24.389
			z M106.588,16.619c-0.588,0-1.023,0.202-1.306,0.605c-0.283,0.403-0.443,1.029-0.48,1.878h3.413V18.91
			c-0.037-0.822-0.186-1.41-0.444-1.762C107.51,16.795,107.116,16.619,106.588,16.619z"/>
		<path style="fill:#FFDB7C;" d="M113.188,13.462v2.099h1.306v1.146h-1.306v5.382c0,0.342,0.056,0.602,0.168,0.778
			c0.112,0.177,0.305,0.265,0.577,0.265c0.187,0,0.376-0.032,0.568-0.096l-0.016,1.195c-0.321,0.106-0.649,0.159-0.985,0.159
			c-0.561,0-0.988-0.2-1.282-0.601c-0.294-0.401-0.441-0.967-0.441-1.698v-5.383h-1.322v-1.146h1.322v-2.099H113.188z"/>
		<path style="fill:#FFDB7C;" d="M120.638,24.229c-0.085-0.187-0.147-0.502-0.184-0.945c-0.502,0.737-1.143,1.105-1.923,1.105
			c-0.785,0-1.398-0.22-1.838-0.661c-0.441-0.441-0.661-1.062-0.661-1.863c0-0.881,0.299-1.581,0.897-2.099s1.418-0.782,2.459-0.793
			h1.041v-0.921c0-0.518-0.115-0.887-0.344-1.105c-0.23-0.219-0.58-0.329-1.049-0.329c-0.428,0-0.774,0.127-1.042,0.38
			c-0.267,0.254-0.4,0.576-0.4,0.965h-1.418c0-0.443,0.131-0.866,0.393-1.27c0.261-0.403,0.614-0.72,1.057-0.949
			s0.938-0.345,1.482-0.345c0.887,0,1.561,0.22,2.023,0.661c0.462,0.44,0.698,1.083,0.709,1.927v4.374
			c0.005,0.668,0.096,1.247,0.272,1.739v0.128H120.638z M118.748,23.1c0.347,0,0.678-0.096,0.993-0.289
			c0.315-0.192,0.545-0.433,0.689-0.721v-2.067h-0.801c-0.673,0.011-1.205,0.162-1.594,0.453c-0.39,0.291-0.585,0.698-0.585,1.222
			c0,0.491,0.099,0.848,0.296,1.069S118.278,23.1,118.748,23.1z"/>
		<path style="fill:#FFDB7C;" d="M132.254,24.229c-0.085-0.187-0.147-0.502-0.184-0.945c-0.502,0.737-1.143,1.105-1.923,1.105
			c-0.785,0-1.398-0.22-1.838-0.661c-0.441-0.441-0.661-1.062-0.661-1.863c0-0.881,0.299-1.581,0.897-2.099
			c0.598-0.518,1.418-0.782,2.459-0.793h1.041v-0.921c0-0.518-0.115-0.887-0.344-1.105c-0.23-0.219-0.58-0.329-1.049-0.329
			c-0.428,0-0.774,0.127-1.042,0.38c-0.267,0.254-0.4,0.576-0.4,0.965h-1.418c0-0.443,0.131-0.866,0.393-1.27
			c0.261-0.403,0.614-0.72,1.057-0.949s0.938-0.345,1.482-0.345c0.887,0,1.561,0.22,2.023,0.661c0.462,0.44,0.698,1.083,0.709,1.927
			v4.374c0.005,0.668,0.096,1.247,0.272,1.739v0.128H132.254z M130.363,23.1c0.347,0,0.678-0.096,0.993-0.289
			c0.315-0.192,0.545-0.433,0.689-0.721v-2.067h-0.801c-0.673,0.011-1.205,0.162-1.594,0.453c-0.39,0.291-0.585,0.698-0.585,1.222
			c0,0.491,0.099,0.848,0.296,1.069S129.893,23.1,130.363,23.1z"/>
		<path style="fill:#FFDB7C;" d="M138.663,23.18c0.47,0,0.847-0.146,1.13-0.437c0.283-0.291,0.438-0.707,0.464-1.246h1.338
			c-0.032,0.833-0.327,1.523-0.885,2.071c-0.558,0.548-1.24,0.821-2.047,0.821c-1.073,0-1.892-0.338-2.455-1.013
			c-0.563-0.676-0.845-1.681-0.845-3.016v-0.954c0-1.308,0.28-2.303,0.841-2.984c0.561-0.681,1.378-1.021,2.451-1.021
			c0.886,0,1.59,0.281,2.111,0.841c0.521,0.561,0.797,1.327,0.829,2.299h-1.338c-0.032-0.641-0.186-1.122-0.46-1.442
			c-0.275-0.32-0.656-0.48-1.142-0.48c-0.63,0-1.098,0.207-1.402,0.621c-0.305,0.414-0.462,1.093-0.473,2.039v1.105
			c0,1.02,0.151,1.741,0.453,2.163S138.011,23.18,138.663,23.18z"/>
		<path style="fill:#FFDB7C;" d="M146.241,23.18c0.47,0,0.847-0.146,1.13-0.437c0.283-0.291,0.438-0.707,0.464-1.246h1.338
			c-0.032,0.833-0.327,1.523-0.885,2.071c-0.558,0.548-1.24,0.821-2.047,0.821c-1.073,0-1.892-0.338-2.455-1.013
			c-0.563-0.676-0.845-1.681-0.845-3.016v-0.954c0-1.308,0.28-2.303,0.841-2.984c0.561-0.681,1.378-1.021,2.451-1.021
			c0.886,0,1.59,0.281,2.111,0.841c0.521,0.561,0.797,1.327,0.829,2.299h-1.338c-0.032-0.641-0.186-1.122-0.46-1.442
			c-0.275-0.32-0.656-0.48-1.142-0.48c-0.63,0-1.098,0.207-1.402,0.621c-0.305,0.414-0.462,1.093-0.473,2.039v1.105
			c0,1.02,0.151,1.741,0.453,2.163S145.59,23.18,146.241,23.18z"/>
		<path style="fill:#FFDB7C;" d="M150.511,19.495c0-1.26,0.306-2.258,0.917-2.992c0.611-0.734,1.419-1.102,2.423-1.102
			s1.812,0.358,2.423,1.074c0.611,0.716,0.925,1.69,0.941,2.924v0.913c0,1.255-0.305,2.249-0.914,2.98
			c-0.609,0.732-1.42,1.098-2.435,1.098c-1.004,0-1.809-0.355-2.416-1.065c-0.606-0.71-0.92-1.671-0.941-2.884V19.495z
			 M151.928,20.312c0,0.892,0.175,1.593,0.525,2.103c0.35,0.51,0.821,0.765,1.414,0.765c1.25,0,1.893-0.902,1.931-2.708v-0.977
			c0-0.887-0.176-1.587-0.529-2.103c-0.353-0.515-0.825-0.773-1.418-0.773c-0.582,0-1.048,0.258-1.398,0.773
			c-0.35,0.516-0.525,1.214-0.525,2.095V20.312z"/>
		<path style="fill:#FFDB7C;" d="M163.465,23.468c-0.47,0.614-1.156,0.921-2.059,0.921c-0.785,0-1.377-0.271-1.778-0.813
			c-0.4-0.542-0.604-1.331-0.609-2.367v-5.648h1.41v5.544c0,1.351,0.406,2.026,1.218,2.026c0.86,0,1.453-0.384,1.778-1.153v-6.417
			h1.418v8.668h-1.346L163.465,23.468z"/>
		<path style="fill:#FFDB7C;" d="M168.311,15.561l0.041,0.938c0.55-0.731,1.252-1.098,2.106-1.098c1.533,0,2.31,1.023,2.332,3.068
			v5.76h-1.41v-5.696c0-0.678-0.113-1.16-0.34-1.446s-0.567-0.429-1.021-0.429c-0.353,0-0.669,0.118-0.949,0.353
			s-0.506,0.542-0.677,0.921v6.296h-1.418v-8.668H168.311z"/>
		<path style="fill:#FFDB7C;" d="M176.771,13.462v2.099h1.306v1.146h-1.306v5.382c0,0.342,0.056,0.602,0.168,0.778
			c0.112,0.177,0.305,0.265,0.577,0.265c0.187,0,0.376-0.032,0.568-0.096l-0.016,1.195c-0.321,0.106-0.649,0.159-0.985,0.159
			c-0.561,0-0.988-0.2-1.282-0.601c-0.294-0.401-0.441-0.967-0.441-1.698v-5.383h-1.322v-1.146h1.322v-2.099H176.771z"/>
	</g>
	<path style="fill-rule:evenodd;clip-rule:evenodd;fill:#FFDB7C;" d="M14.329,18.856c-0.276-0.798-0.398-1.712-0.398-2.733
		c0-1.812,0.575-2.496,1.346-3.462c-0.59-2.066,0.212-3.478,0.212-3.478s1.24-0.253,3.585,1.397c1.271-0.535,4.659-0.58,6.262-0.119
		c0.983-0.639,2.783-1.546,3.509-1.292c0.197,0.311,0.62,1.218,0.257,3.209c0.246,0.437,1.528,1.367,1.533,3.998
		c-0.021,0.97-0.123,1.79-0.314,2.482c0.036,0-0.243,0.859-0.31,0.857c-0.85,1.835-2.594,2.52-5.412,2.805
		c0.913,0.565,1.175,1.274,1.175,3.191c0,1.917-0.026,2.175-0.02,2.616c0.01,0.724,1.089,1.07,1.049,1.303
		c-0.041,0.232-0.903,0.195-1.306,0.056c-1.142-0.391-1.028-1.325-1.028-1.325l-0.038-2.564c0,0,0.078-1.38-0.441-1.38v4.196
		c0,0.912,0.65,1.189,0.65,1.526c0,0.58-1.187-0.055-1.553-0.416c-0.557-0.55-0.494-1.716-0.48-2.639
		c0.013-0.891-0.008-2.839-0.008-2.839l-0.378,0.008c0,0,0.155,4.256-0.2,5.031c-0.459,0.996-1.842,1.338-1.842,0.885
		c0-0.305,0.341-0.208,0.529-0.892c0.161-0.581,0.106-4.92,0.106-4.92s-0.444,0.257-0.444,1.07c0,0.372-0.01,2.497-0.01,3.129
		c0,0.796-1.15,1.249-1.702,1.249c-0.28,0-0.627-0.014-0.627-0.159c0-0.368,1.051-0.584,1.051-1.349
		c0-0.664-0.015-2.371-0.015-2.371s-0.53,0.089-1.286,0.089c-1.906,0-2.509-1.195-2.795-1.864c-0.373-0.871-0.857-1.28-1.372-1.607
		c-0.316-0.201-0.388-0.438-0.023-0.505c1.687-0.312,2.118,1.88,3.245,2.23c0.804,0.249,1.838,0.142,2.352-0.186
		c0.068-0.669,0.559-1.249,0.968-1.554c-2.866-0.271-4.565-1.249-5.445-2.821C14.699,19.711,14.295,18.856,14.329,18.856z"/>
</g>
</svg>
