<!-- Generator: Adobe Illustrator 19.0.1, SVG Export Plug-In  -->
<svg version="1.1"
	 xmlns="http://www.w3.org/2000/svg" xmlns:xlink="http://www.w3.org/1999/xlink" xmlns:a="http://ns.adobe.com/AdobeSVGViewerExtensions/3.0/"
	 x="0px" y="0px" width="187.518px" height="92.57px" viewBox="0 0 187.518 92.57"
	 style="enable-background:new 0 0 187.518 92.57;" xml:space="preserve">
<defs>
</defs>
<g>
	<path style="fill:#FED061;" d="M182.166,31.308c3.937-5.719-0.42-13.302-7.223-13.001l-27.313,1.27
		c-0.346-0.184-0.727-0.285-1.14-0.264c-0.003,0-0.054,0.003-0.051,0.003c-6.091,0.255-12.173,0.644-18.245,1.136
		c3.676-8.887,5.384-11.245,3.696-15.314c-1.761-4.247-6.627-6.262-10.874-4.498c-2.054,0.852-3.653,2.452-4.501,4.506
		l-7.117,17.207C80.864,25.825,4.501,40.335,2.25,45.14l0.001,45.31c0,0,72.303-16.806,135.015-21.149
		c1,0.019,1.352,0.09,1.934-0.137c1-0.064,2.795-0.058,3.059-2.011l2.614-18.061l34.747-1.702
		C188.578,46.953,190.58,34.52,182.166,31.308z"/>
	<path style="fill:#FFE596;" d="M161.785,32.914c-0.781-0.708-1.679-1.24-2.637-1.606c1.023-1.486,1.562-3.24,1.476-5.074
		c-0.103-2.221-1.065-4.269-2.708-5.766c-1.643-1.496-3.762-2.26-5.991-2.161l-27.313,1.27c-0.222-0.118-0.462-0.205-0.72-0.242
		c-0.002,0-0.003-0.001-0.005-0.001c-0.043-0.006-0.085-0.002-0.128-0.006c-0.096-0.008-0.19-0.02-0.288-0.015
		c-0.008,0-0.015,0.001-0.023,0.001c-0.01,0-0.019,0.001-0.028,0.001c-6.091,0.255-12.173,0.644-18.245,1.136l3.7-8.945
		c0.85-2.054,0.848-4.316-0.004-6.369c-0.851-2.053-2.451-3.652-4.506-4.501c-2.054-0.85-4.316-0.849-6.368,0.004
		c-2.054,0.852-3.653,2.452-4.501,4.506L86.38,22.353c-0.149,0.018-0.298,0.034-0.447,0.052c-0.059,0.006-0.117,0.004-0.177,0.015
		c-0.011,0.002-0.02,0.007-0.031,0.009c-24.819,3.057-49.376,8.105-73.426,15.081c-0.039,0.008-0.078,0.008-0.117,0.018
		c-0.071,0.018-0.134,0.05-0.202,0.074c-3.479,1.012-6.951,2.049-10.407,3.142c-0.032,0.01-0.06,0.028-0.091,0.039
		c-0.075,0.028-0.148,0.059-0.219,0.094c-0.065,0.032-0.128,0.065-0.189,0.102C1.013,41.017,0.956,41.058,0.9,41.1
		c-0.062,0.046-0.121,0.094-0.177,0.146c-0.049,0.045-0.094,0.094-0.138,0.143c-0.052,0.058-0.102,0.116-0.147,0.178
		c-0.04,0.055-0.075,0.112-0.11,0.17c-0.039,0.066-0.076,0.131-0.109,0.2c-0.029,0.061-0.052,0.124-0.076,0.188
		c-0.027,0.075-0.051,0.149-0.07,0.227c-0.015,0.062-0.026,0.125-0.036,0.188c-0.014,0.085-0.023,0.171-0.026,0.258
		c-0.001,0.031-0.009,0.059-0.009,0.09v47.429c0,0.048,0.011,0.092,0.014,0.139c0.005,0.081,0.011,0.162,0.025,0.244
		c0.013,0.077,0.034,0.151,0.055,0.226c0.013,0.048,0.018,0.096,0.035,0.144c0.005,0.015,0.016,0.026,0.022,0.041
		c0.073,0.194,0.171,0.373,0.292,0.537c0.027,0.037,0.057,0.069,0.086,0.104c0.119,0.142,0.251,0.272,0.401,0.381
		c0.017,0.012,0.031,0.028,0.048,0.04c0.162,0.111,0.342,0.194,0.53,0.261c0.047,0.017,0.093,0.03,0.141,0.044
		c0.184,0.051,0.374,0.086,0.573,0.089c0.009,0,0.018,0.004,0.027,0.004c0.007,0,0.014-0.003,0.02-0.003
		c0.231-0.002,0.449-0.047,0.659-0.114c0.024-0.008,0.049-0.004,0.072-0.013c35.99-12.749,73.402-20.519,111.245-23.14l1.073,0.02
		c0.014,0.001,0.029,0.001,0.042,0.001c0.289,0,0.564-0.059,0.818-0.158c0.324-0.021,0.647-0.049,0.971-0.069
		c0.21-0.013,0.406-0.063,0.596-0.129c0.037-0.013,0.071-0.026,0.107-0.041c0.217-0.088,0.416-0.204,0.592-0.351
		c0.024-0.02,0.044-0.042,0.068-0.063c0.177-0.161,0.333-0.344,0.452-0.552c0.009-0.015,0.014-0.032,0.022-0.048
		c0.125-0.233,0.215-0.486,0.252-0.757l2.614-18.061l34.747-1.702c2.221-0.108,4.266-1.075,5.758-2.722s2.255-3.776,2.146-5.996
		C164.398,36.452,163.431,34.408,161.785,32.914z"/>
	<g>
		<g>
			<g>
				<path style="fill:#3C3C3B;" d="M2.25,45.14c-0.955,0-1.841-0.613-2.145-1.573c-0.375-1.185,0.282-2.449,1.467-2.823
					c39.515-12.491,80.528-19.701,121.9-21.431c1.234-0.061,2.289,0.913,2.342,2.154c0.052,1.241-0.913,2.29-2.154,2.342
					C82.685,25.522,42.065,32.663,2.929,45.034C2.703,45.105,2.475,45.14,2.25,45.14z"/>
			</g>
			<g>
				<path style="fill:#3C3C3B;" d="M2.251,92.57c-0.927,0-1.794-0.576-2.121-1.499c-0.415-1.171,0.198-2.457,1.37-2.873
					c37.305-13.214,76.122-21.153,115.373-23.595c1.247-0.082,2.309,0.866,2.385,2.106c0.077,1.241-0.866,2.309-2.106,2.385
					C78.319,71.511,39.913,79.365,3.003,92.44C2.755,92.528,2.5,92.57,2.251,92.57z"/>
			</g>
			<g>
				<path style="fill:#3C3C3B;" d="M15.319,86.676c-0.297,0-0.578-0.178-0.696-0.47C9.031,72.297,4.343,57.875,0.686,43.338
					c-0.101-0.402,0.143-0.809,0.544-0.91c0.402-0.101,0.81,0.143,0.91,0.544c3.64,14.471,8.308,28.829,13.874,42.675
					c0.155,0.385-0.031,0.821-0.416,0.976C15.507,86.659,15.412,86.676,15.319,86.676z"/>
			</g>
			<g>
				<path style="fill:#3C3C3B;" d="M26.621,84.752c-0.898,0-1.746-0.541-2.095-1.427c-5.506-14.007-10.203-28.493-13.961-43.055
					c-0.31-1.203,0.414-2.431,1.616-2.741c1.203-0.308,2.43,0.413,2.741,1.616c3.712,14.386,8.353,28.697,13.792,42.534
					c0.455,1.156-0.114,2.462-1.271,2.917C27.174,84.702,26.895,84.752,26.621,84.752z"/>
			</g>
			<g>
				<path style="fill:#3C3C3B;" d="M40.003,79.634c-0.303,0-0.589-0.185-0.702-0.486c-5.265-14.029-9.779-28.515-13.416-43.059
					c-0.101-0.401,0.144-0.809,0.546-0.909c0.398-0.101,0.809,0.143,0.909,0.546c3.624,14.488,8.121,28.92,13.366,42.895
					c0.145,0.388-0.051,0.82-0.439,0.966C40.179,79.619,40.091,79.634,40.003,79.634z"/>
			</g>
			<g>
				<path style="fill:#3C3C3B;" d="M49.132,77.434c-0.302,0-0.586-0.183-0.7-0.481L32.184,34.607
					c-0.149-0.387,0.045-0.82,0.431-0.969c0.386-0.149,0.82,0.045,0.969,0.431l16.247,42.346c0.149,0.387-0.045,0.82-0.431,0.969
					C49.312,77.418,49.221,77.434,49.132,77.434z"/>
			</g>
			<g>
				<path style="fill:#3C3C3B;" d="M60.564,74.977c-0.285,0-0.557-0.163-0.683-0.439c-6.289-13.807-11.86-28.116-16.562-42.531
					c-0.128-0.393,0.087-0.817,0.481-0.946c0.393-0.126,0.817,0.087,0.946,0.481c4.683,14.361,10.235,28.617,16.5,42.374
					c0.171,0.376,0.005,0.821-0.372,0.993C60.773,74.956,60.668,74.977,60.564,74.977z"/>
			</g>
			<g>
				<path style="fill:#3C3C3B;" d="M71.001,74.524c-0.856,0-1.674-0.491-2.051-1.321C62.639,59.288,57.136,44.837,52.596,30.25
					c-0.369-1.187,0.293-2.448,1.479-2.817c1.189-0.373,2.448,0.293,2.817,1.479c4.485,14.41,9.921,28.685,16.156,42.431
					c0.513,1.132,0.012,2.465-1.12,2.979C71.627,74.459,71.312,74.524,71.001,74.524z"/>
			</g>
			<g>
				<path style="fill:#3C3C3B;" d="M80.396,71.495c-0.313,0-0.604-0.196-0.71-0.509L65.043,27.838
					c-0.133-0.392,0.077-0.818,0.469-0.951c0.393-0.13,0.819,0.078,0.951,0.469l14.642,43.148c0.133,0.393-0.077,0.818-0.469,0.951
					C80.557,71.483,80.476,71.495,80.396,71.495z"/>
			</g>
			<g>
				<path style="fill:#3C3C3B;" d="M90.387,70.109c-0.302,0-0.586-0.183-0.7-0.482c-5.426-14.19-10.285-28.8-14.444-43.423
					c-0.114-0.398,0.118-0.813,0.516-0.927c0.4-0.114,0.813,0.119,0.927,0.516c4.146,14.582,8.992,29.149,14.402,43.297
					c0.148,0.387-0.045,0.82-0.432,0.968C90.567,70.093,90.477,70.109,90.387,70.109z"/>
			</g>
			<g>
				<path style="fill:#3C3C3B;" d="M95.916,70.909c-1.002,0-1.916-0.675-2.177-1.69c-3.747-14.544-7.039-29.407-9.784-44.176
					c-0.227-1.222,0.579-2.396,1.801-2.623c1.219-0.231,2.395,0.579,2.623,1.801c2.727,14.667,5.996,29.429,9.718,43.876
					c0.31,1.203-0.415,2.43-1.618,2.74C96.29,70.885,96.102,70.909,95.916,70.909z"/>
			</g>
			<g>
				<path style="fill:#3C3C3B;" d="M117.015,69.099c-0.108,0-0.216-0.007-0.325-0.023c-1.23-0.178-2.082-1.319-1.904-2.549
					l6.554-45.288c0.178-1.23,1.325-2.086,2.549-1.904c1.23,0.178,2.082,1.319,1.904,2.549l-6.554,45.288
					C119.076,68.292,118.115,69.099,117.015,69.099z"/>
			</g>
			<g>
				<g>
					<path style="fill:#3C3C3B;" d="M117.184,56.745c-0.014,0-0.029,0-0.043-0.001l-10.53-0.198
						c-2.221-0.041-4.295-0.946-5.837-2.547s-2.368-3.707-2.326-5.929c0.041-2.221,0.946-4.295,2.546-5.837
						c1.601-1.542,3.702-2.402,5.93-2.326l12.055,0.226c1.243,0.023,2.231,1.049,2.208,2.291c-0.023,1.242-1.069,2.276-2.291,2.208
						l-12.056-0.226c-1.063,0.005-1.989,0.362-2.723,1.069c-0.735,0.708-1.151,1.66-1.17,2.681c-0.019,1.021,0.36,1.988,1.069,2.723
						s1.66,1.151,2.68,1.17l10.531,0.198c1.242,0.023,2.23,1.049,2.207,2.292C119.41,55.765,118.407,56.745,117.184,56.745z"/>
				</g>
				<g>
					<path style="fill:#3C3C3B;" d="M114.169,54.711c-0.017,0-0.034-0.001-0.051-0.001c-0.413-0.028-0.726-0.386-0.698-0.799
						l0.822-12.149c0.028-0.413,0.396-0.704,0.799-0.698c0.413,0.028,0.726,0.386,0.698,0.799l-0.822,12.149
						C114.89,54.408,114.56,54.711,114.169,54.711z"/>
				</g>
				<g>
					<path style="fill:#3C3C3B;" d="M107.585,53.759c-0.029,0-0.059-0.001-0.089-0.005c-0.412-0.049-0.705-0.423-0.656-0.833
						l1.438-12.062c0.048-0.412,0.419-0.706,0.833-0.656c0.412,0.049,0.705,0.423,0.656,0.833l-1.438,12.062
						C108.283,53.479,107.96,53.759,107.585,53.759z"/>
				</g>
			</g>
			<g>
				<g>
					<path style="fill:#3C3C3B;" d="M115.364,69.322c-0.014,0-0.029,0-0.042-0.001l-5.992-0.112
						c-4.587-0.086-8.25-3.888-8.164-8.475c0.086-4.588,3.84-8.249,8.476-8.164l7.516,0.141c1.243,0.023,2.231,1.049,2.208,2.291
						c-0.023,1.242-1.072,2.265-2.291,2.208l-7.517-0.141c-0.025,0-0.049,0-0.073,0c-2.074,0-3.781,1.667-3.82,3.75
						c-0.039,2.106,1.644,3.853,3.75,3.892l5.991,0.112c1.243,0.023,2.231,1.049,2.208,2.291
						C117.59,68.342,116.587,69.322,115.364,69.322z"/>
				</g>
				<g>
					<path style="fill:#3C3C3B;" d="M110.303,66.421c-0.029,0-0.059-0.001-0.089-0.005c-0.412-0.049-0.705-0.423-0.656-0.833
						l1.438-12.062c0.049-0.412,0.42-0.704,0.833-0.656c0.412,0.049,0.705,0.423,0.656,0.833l-1.438,12.062
						C111.001,66.141,110.678,66.421,110.303,66.421z"/>
				</g>
			</g>
			<g>
				<g>
					<path style="fill:#3C3C3B;" d="M121.748,36.37c-1.195,0-2.19-0.94-2.246-2.145c-0.058-1.241,0.902-2.295,2.143-2.353
						l30.845-1.435c1.02-0.047,1.96-0.489,2.647-1.243c0.688-0.754,1.04-1.731,0.992-2.751c-0.047-1.02-0.489-1.961-1.243-2.648
						c-0.754-0.688-1.723-1.037-2.751-0.992l-28.51,1.326c-1.262,0.056-2.294-0.902-2.353-2.143
						c-0.057-1.241,0.902-2.295,2.143-2.353l28.51-1.326c2.229-0.099,4.348,0.665,5.991,2.161c1.643,1.497,2.604,3.545,2.708,5.766
						c0.103,2.22-0.664,4.348-2.161,5.99c-1.497,1.643-3.544,2.604-5.765,2.708l-30.844,1.435
						C121.818,36.369,121.783,36.37,121.748,36.37z"/>
				</g>
				<g>
					<path style="fill:#3C3C3B;" d="M134.665,34.269c-0.39,0-0.719-0.302-0.747-0.697l-0.868-12.116
						c-0.03-0.413,0.281-0.772,0.694-0.801c0.414-0.03,0.772,0.281,0.801,0.694l0.868,12.116c0.03,0.413-0.281,0.772-0.694,0.801
						C134.701,34.269,134.684,34.269,134.665,34.269z"/>
				</g>
				<g>
					<path style="fill:#3C3C3B;" d="M139.748,35.03c-0.374,0-0.697-0.278-0.743-0.658l-1.49-12.087
						c-0.051-0.411,0.241-0.785,0.653-0.836c0.41-0.066,0.785,0.242,0.836,0.653l1.49,12.087c0.051,0.411-0.241,0.785-0.653,0.836
						C139.81,35.028,139.778,35.03,139.748,35.03z"/>
				</g>
				<g>
					<path style="fill:#3C3C3B;" d="M151.199,34.497c-0.374,0-0.697-0.278-0.743-0.658l-1.49-12.087
						c-0.051-0.411,0.241-0.785,0.653-0.836c0.407-0.065,0.784,0.242,0.836,0.653l1.49,12.087c0.051,0.411-0.241,0.785-0.653,0.836
						C151.26,34.496,151.229,34.497,151.199,34.497z"/>
				</g>
				<g>
					<path style="fill:#3C3C3B;" d="M144.746,34.797c-0.39,0-0.719-0.302-0.747-0.697l-0.868-12.116
						c-0.03-0.413,0.281-0.772,0.694-0.801c0.417-0.035,0.772,0.281,0.801,0.694l0.868,12.116c0.03,0.413-0.281,0.772-0.694,0.801
						C144.782,34.796,144.765,34.797,144.746,34.797z"/>
				</g>
			</g>
			<g>
				<g>
					<path style="fill:#3C3C3B;" d="M119.892,49.186c-1.192,0-2.186-0.936-2.245-2.14c-0.061-1.241,0.896-2.296,2.137-2.357
						l36.598-1.792c2.104-0.103,3.732-1.899,3.63-4.004c-0.103-2.105-1.899-3.737-4.004-3.63l-34.232,1.676
						c-1.241,0.067-2.297-0.896-2.357-2.137c-0.061-1.241,0.896-2.296,2.137-2.357l34.232-1.676
						c2.211-0.119,4.349,0.653,5.996,2.146c1.646,1.493,2.613,3.538,2.722,5.758c0.109,2.22-0.653,4.35-2.146,5.996
						s-3.538,2.613-5.758,2.722l-36.598,1.792C119.966,49.185,119.929,49.186,119.892,49.186z"/>
				</g>
				<g>
					<path style="fill:#3C3C3B;" d="M130.964,47.144c-0.389,0-0.718-0.3-0.747-0.694l-0.898-12.114
						c-0.031-0.413,0.279-0.773,0.692-0.803c0.415-0.034,0.773,0.279,0.803,0.692l0.898,12.114c0.031,0.413-0.279,0.773-0.692,0.803
						C131.002,47.143,130.983,47.144,130.964,47.144z"/>
				</g>
				<g>
					<path style="fill:#3C3C3B;" d="M133.568,47.016c-0.373,0-0.696-0.277-0.743-0.656l-1.52-12.083
						c-0.052-0.411,0.24-0.786,0.65-0.838c0.421-0.044,0.787,0.24,0.838,0.65l1.52,12.083c0.052,0.411-0.24,0.786-0.65,0.838
						C133.63,47.014,133.599,47.016,133.568,47.016z"/>
				</g>
				<g>
					<path style="fill:#3C3C3B;" d="M138.565,46.772c-0.389,0-0.718-0.3-0.747-0.694l-0.898-12.114
						c-0.031-0.413,0.279-0.773,0.692-0.803c0.42-0.037,0.772,0.279,0.803,0.692l0.898,12.114c0.031,0.413-0.279,0.773-0.692,0.803
						C138.603,46.771,138.584,46.772,138.565,46.772z"/>
				</g>
				<g>
					<path style="fill:#3C3C3B;" d="M143.651,47.52c-0.373,0-0.696-0.277-0.743-0.656l-1.52-12.083
						c-0.052-0.411,0.24-0.786,0.65-0.838c0.418-0.048,0.786,0.24,0.838,0.65l1.52,12.083c0.052,0.411-0.24,0.786-0.65,0.838
						C143.713,47.517,143.681,47.52,143.651,47.52z"/>
				</g>
				<g>
					<path style="fill:#3C3C3B;" d="M155.1,46.958c-0.373,0-0.696-0.277-0.743-0.656l-1.52-12.083
						c-0.052-0.411,0.24-0.786,0.65-0.838c0.423-0.045,0.787,0.24,0.838,0.65l1.52,12.083c0.052,0.411-0.24,0.786-0.65,0.838
						C155.162,46.956,155.131,46.958,155.1,46.958z"/>
				</g>
				<g>
					<path style="fill:#3C3C3B;" d="M148.648,47.275c-0.389,0-0.718-0.3-0.747-0.694l-0.898-12.114
						c-0.031-0.413,0.279-0.773,0.692-0.803c0.421-0.035,0.773,0.279,0.803,0.692l0.898,12.114c0.031,0.413-0.279,0.773-0.692,0.803
						C148.685,47.274,148.666,47.275,148.648,47.275z"/>
				</g>
			</g>
			<g>
				<g>
					<path style="fill:#3C3C3B;" d="M87.961,26.666c-0.287,0-0.578-0.055-0.859-0.171c-1.148-0.475-1.694-1.791-1.219-2.939
						l7.615-18.409c0.849-2.054,2.448-3.654,4.501-4.506c2.052-0.853,4.315-0.853,6.368-0.004c2.054,0.85,3.655,2.448,4.506,4.501
						c0.852,2.053,0.853,4.315,0.004,6.369l-5.106,12.343c-0.476,1.149-1.794,1.694-2.939,1.219
						c-1.148-0.475-1.694-1.791-1.219-2.939l5.106-12.343c0.39-0.943,0.39-1.982-0.001-2.925c-0.391-0.943-1.126-1.677-2.069-2.067
						c-0.944-0.39-1.983-0.39-2.925,0.001c-0.943,0.391-1.677,1.126-2.067,2.069l-7.615,18.409
						C89.682,26.142,88.844,26.666,87.961,26.666z"/>
				</g>
			</g>
		</g>
		<g>
			<path style="fill:#3C3C3B;" d="M0.001,42.889c0-1.243,1.007-2.25,2.25-2.25s2.25,1.007,2.25,2.25v47.429
				c0,1.243-1.007,2.25-2.25,2.25s-2.25-1.007-2.25-2.25"/>
		</g>
	</g>
</g>
</svg>
