<!-- Generator: Adobe Illustrator 19.0.1, SVG Export Plug-In  -->
<svg version="1.1"
	 xmlns="http://www.w3.org/2000/svg" xmlns:xlink="http://www.w3.org/1999/xlink" xmlns:a="http://ns.adobe.com/AdobeSVGViewerExtensions/3.0/"
	 x="0px" y="0px" width="600px" height="356.103px" viewBox="0 0 600 356.103" style="enable-background:new 0 0 600 356.103;"
	 xml:space="preserve">
<defs>
</defs>
<g>
	<g>
		<path style="fill:#FED061;" d="M507.927,42.073c-2.388,0-4.388,1.674-4.899,3.909h-18.449V35.751c0-0.618-0.501-1.12-1.12-1.12
			h-5.686V27.76v0v0c0-15.307-12.453-27.76-27.759-27.76c-11.728,0-21.773,7.314-25.832,17.617l-27.878,3.849
			c-3.551-3.392-8.356-5.483-13.642-5.483c-10.524,0-19.151,8.267-19.733,18.648h-5.719c-0.618,0-1.12,0.501-1.12,1.12v10.232
			H335.18c-0.511-2.235-2.511-3.909-4.899-3.909c-2.773,0-5.029,2.256-5.029,5.029s2.256,5.028,5.029,5.028
			c2.388,0,4.388-1.674,4.899-3.909h20.911v10.231c0,0.618,0.501,1.12,1.12,1.12h5.685v6.409c0,0.016,0.004,0.031,0.005,0.047
			c0.002,0.04,0.006,0.078,0.012,0.118c0.005,0.035,0.011,0.069,0.019,0.103c0.009,0.035,0.02,0.069,0.032,0.104
			c0.013,0.036,0.026,0.071,0.042,0.104c0.014,0.031,0.031,0.06,0.048,0.089c0.021,0.035,0.042,0.069,0.067,0.101
			c0.009,0.013,0.015,0.026,0.026,0.039l10.772,13.261c-15.413,22.412-26.651,46.798-33.527,72.698
			c-0.01,0.032-0.017,0.064-0.025,0.096c-1.475,5.564-2.76,11.195-3.83,16.895v0c-0.001,0.006-0.003,0.013-0.004,0.019
			c-0.007,0.039-0.007,0.078-0.01,0.117c-0.003,0.03-0.009,0.059-0.009,0.09v0.017c0,0.001,0,0.002,0,0.004v6.61
			c0,2.283,1.857,4.141,4.141,4.141c1.021,0,1.956-0.373,2.678-0.988c0.752,1.049,1.978,1.736,3.364,1.736
			c2.284,0,4.141-1.858,4.141-4.141v-6.259h1.683v6.259c0,2.283,1.857,4.141,4.141,4.141s4.141-1.858,4.141-4.141v-6.259h4.643
			h109.779h4.643v6.259c0,2.283,1.857,4.141,4.14,4.141c2.284,0,4.141-1.858,4.141-4.141v-6.259h1.683v6.259
			c0,2.283,1.857,4.141,4.141,4.141c1.386,0,2.612-0.687,3.364-1.736c0.723,0.615,1.657,0.988,2.678,0.988
			c2.283,0,4.14-1.858,4.14-4.141v-6.61c0-0.001,0-0.002,0-0.004v-0.017c0-0.031-0.007-0.06-0.009-0.091
			c-0.003-0.039-0.003-0.077-0.01-0.116c-0.001-0.006-0.003-0.012-0.004-0.019c0,0,0,0,0,0l0-0.001
			c-1.07-5.699-2.355-11.329-3.83-16.893c-0.007-0.032-0.014-0.064-0.025-0.096c-6.877-25.901-18.115-50.286-33.527-72.698
			l10.772-13.261c0.01-0.012,0.016-0.026,0.025-0.038c0.024-0.033,0.046-0.067,0.067-0.102c0.018-0.029,0.034-0.059,0.048-0.089
			c0.016-0.034,0.029-0.069,0.042-0.105c0.012-0.034,0.023-0.069,0.032-0.104c0.008-0.034,0.014-0.068,0.02-0.104
			c0.006-0.039,0.01-0.078,0.012-0.117c0.001-0.016,0.005-0.031,0.005-0.047v-6.409h5.686c0.618,0,1.12-0.501,1.12-1.12V48.222
			h18.449c0.511,2.235,2.511,3.909,4.899,3.909c2.773,0,5.029-2.256,5.029-5.028S510.7,42.073,507.927,42.073z"/>
		<rect x="375.311" y="264.369" style="fill:#FED061;" width="27.216" height="85.409"/>
		<rect x="438.159" y="264.369" style="fill:#FED061;" width="27.216" height="85.409"/>
	</g>
	<rect x="326.008" y="264.369" style="fill:#FFE596;" width="27.216" height="85.409"/>
	<rect x="388.856" y="264.369" style="fill:#FFE596;" width="27.216" height="85.409"/>
	<rect x="243.919" y="168.743" style="fill:#FFE596;" width="356.081" height="105.994"/>
	<g>
		<g>
			<path style="fill:#3C3C3B;" d="M376.964,214.554l0.306,1.889l0.385-1.801l2.283-9.359h0.892l2.248,9.359l0.376,1.818l0.333-1.906
				l1.881-9.271h1.015l-2.712,12.734h-0.944l-2.388-9.928l-0.253-1.18l-0.245,1.18l-2.44,9.928h-0.954l-2.703-12.734h1.023
				L376.964,214.554z"/>
			<path style="fill:#3C3C3B;" d="M391.38,218.193c-1.114,0-1.986-0.365-2.616-1.094s-0.95-1.768-0.962-3.113v-1.156
				c0-1.387,0.303-2.477,0.91-3.266c0.606-0.791,1.44-1.186,2.501-1.186c1.026,0,1.809,0.336,2.349,1.006s0.815,1.697,0.827,3.078
				v0.91h-5.625v0.533c0,1.086,0.232,1.922,0.695,2.512c0.464,0.588,1.118,0.883,1.964,0.883c0.933,0,1.688-0.342,2.266-1.023
				l0.507,0.646C393.578,217.769,392.639,218.193,391.38,218.193z M391.213,209.288c-0.764,0-1.352,0.27-1.762,0.809
				c-0.411,0.539-0.637,1.328-0.678,2.365h4.645v-0.252C393.371,210.261,392.636,209.288,391.213,209.288z"/>
			<path style="fill:#3C3C3B;" d="M403.468,217.283c0.676,0,1.195-0.189,1.557-0.566c0.361-0.377,0.557-0.92,0.586-1.629h0.936
				c-0.047,0.969-0.356,1.727-0.927,2.279c-0.572,0.551-1.289,0.826-2.152,0.826c-1.125,0-1.976-0.359-2.55-1.08
				c-0.575-0.721-0.868-1.789-0.879-3.207v-1.154c0-1.445,0.287-2.537,0.861-3.271s1.427-1.102,2.559-1.102
				c0.939,0,1.679,0.297,2.222,0.889s0.831,1.418,0.866,2.479h-0.936c-0.029-0.781-0.228-1.387-0.595-1.814
				c-0.368-0.43-0.887-0.643-1.557-0.643c-0.84,0-1.457,0.281-1.85,0.848c-0.394,0.564-0.59,1.432-0.59,2.604v1.074
				c0,1.211,0.198,2.092,0.595,2.643S402.628,217.283,403.468,217.283z"/>
			<path style="fill:#3C3C3B;" d="M413.606,218.017c-0.087-0.303-0.146-0.74-0.175-1.312c-0.292,0.473-0.667,0.84-1.124,1.1
				c-0.458,0.258-0.955,0.389-1.491,0.389c-0.817,0-1.452-0.23-1.907-0.691c-0.455-0.461-0.682-1.117-0.682-1.969
				c0-0.926,0.316-1.662,0.949-2.203c0.632-0.543,1.506-0.816,2.62-0.822h1.627v-1.32c0-0.678-0.168-1.162-0.503-1.457
				c-0.335-0.295-0.827-0.441-1.474-0.441c-0.601,0-1.093,0.174-1.478,0.523c-0.385,0.352-0.577,0.803-0.577,1.357l-0.971-0.01
				c0-0.775,0.292-1.434,0.875-1.973c0.583-0.539,1.315-0.809,2.196-0.809c0.95,0,1.67,0.238,2.161,0.717
				c0.49,0.479,0.734,1.176,0.734,2.092v4.645c0,0.926,0.084,1.621,0.254,2.082v0.104H413.606z M410.938,217.257
				c0.572,0,1.078-0.15,1.518-0.447c0.44-0.297,0.763-0.693,0.967-1.189v-2.301h-1.54c-0.886,0.012-1.554,0.209-2.003,0.592
				c-0.449,0.381-0.674,0.896-0.674,1.543C409.206,216.656,409.783,217.257,410.938,217.257z"/>
			<path style="fill:#3C3C3B;" d="M417.962,208.554l0.026,1.504c0.28-0.514,0.637-0.922,1.071-1.225
				c0.435-0.303,0.929-0.455,1.483-0.455c1.65,0,2.496,1.1,2.537,3.297v6.342h-0.962v-6.236c-0.006-0.846-0.154-1.469-0.446-1.871
				c-0.292-0.402-0.75-0.604-1.374-0.604c-0.507,0-0.963,0.189-1.369,0.572c-0.406,0.383-0.713,0.906-0.923,1.57v6.568h-0.971
				v-9.463H417.962z"/>
			<path style="fill:#3C3C3B;" d="M434.686,218.017c-0.087-0.303-0.146-0.74-0.175-1.312c-0.292,0.473-0.667,0.84-1.124,1.1
				c-0.458,0.258-0.955,0.389-1.491,0.389c-0.817,0-1.452-0.23-1.907-0.691c-0.455-0.461-0.682-1.117-0.682-1.969
				c0-0.926,0.316-1.662,0.949-2.203c0.632-0.543,1.506-0.816,2.62-0.822h1.627v-1.32c0-0.678-0.168-1.162-0.503-1.457
				c-0.335-0.295-0.827-0.441-1.474-0.441c-0.601,0-1.093,0.174-1.478,0.523c-0.385,0.352-0.577,0.803-0.577,1.357l-0.971-0.01
				c0-0.775,0.292-1.434,0.875-1.973c0.583-0.539,1.315-0.809,2.196-0.809c0.95,0,1.67,0.238,2.161,0.717
				c0.49,0.479,0.734,1.176,0.734,2.092v4.645c0,0.926,0.084,1.621,0.254,2.082v0.104H434.686z M432.018,217.257
				c0.572,0,1.078-0.15,1.518-0.447c0.44-0.297,0.763-0.693,0.967-1.189v-2.301h-1.54c-0.886,0.012-1.554,0.209-2.003,0.592
				c-0.449,0.381-0.674,0.896-0.674,1.543C430.286,216.656,430.864,217.257,432.018,217.257z"/>
			<path style="fill:#3C3C3B;" d="M439.042,208.554l0.026,1.504c0.28-0.514,0.637-0.922,1.071-1.225
				c0.435-0.303,0.929-0.455,1.483-0.455c1.65,0,2.496,1.1,2.537,3.297v6.342h-0.962v-6.236c-0.006-0.846-0.154-1.469-0.446-1.871
				c-0.292-0.402-0.75-0.604-1.374-0.604c-0.507,0-0.963,0.189-1.369,0.572c-0.406,0.383-0.713,0.906-0.923,1.57v6.568h-0.971
				v-9.463H439.042z"/>
			<path style="fill:#3C3C3B;" d="M451.472,215.685c0-0.406-0.169-0.764-0.507-1.068c-0.338-0.307-0.911-0.641-1.719-1.004
				c-0.808-0.363-1.372-0.668-1.693-0.908c-0.321-0.242-0.557-0.506-0.708-0.793c-0.151-0.285-0.228-0.623-0.228-1.014
				c0-0.729,0.263-1.332,0.788-1.807s1.204-0.713,2.038-0.713c0.898,0,1.615,0.254,2.152,0.762c0.536,0.506,0.805,1.178,0.805,2.012
				h-0.971c0-0.537-0.184-0.982-0.551-1.334c-0.368-0.354-0.846-0.529-1.435-0.529c-0.572,0-1.025,0.145-1.36,0.438
				c-0.335,0.291-0.503,0.67-0.503,1.137c0,0.379,0.128,0.688,0.385,0.928c0.257,0.238,0.811,0.562,1.662,0.971
				c0.88,0.385,1.487,0.701,1.819,0.953c0.333,0.25,0.583,0.529,0.752,0.836c0.169,0.305,0.253,0.668,0.253,1.088
				c0,0.781-0.271,1.402-0.813,1.863s-1.257,0.691-2.143,0.691c-0.939,0-1.698-0.258-2.278-0.77
				c-0.581-0.514-0.871-1.176-0.871-1.986h0.98c0.029,0.586,0.226,1.041,0.59,1.363c0.364,0.322,0.891,0.482,1.579,0.482
				c0.595,0,1.073-0.145,1.435-0.436C451.291,216.556,451.472,216.167,451.472,215.685z"/>
			<path style="fill:#3C3C3B;" d="M456.729,215.867l0.079,0.523l0.105-0.568l1.933-7.268h0.813l1.916,7.207l0.14,0.742l0.114-0.664
				l1.635-7.285h0.998l-2.318,9.463h-0.813l-2.055-7.521l-0.044-0.229l-0.035,0.236l-2.021,7.514h-0.822l-2.3-9.463h0.988
				L456.729,215.867z"/>
			<path style="fill:#3C3C3B;" d="M469.543,218.193c-1.114,0-1.986-0.365-2.616-1.094s-0.95-1.768-0.962-3.113v-1.156
				c0-1.387,0.303-2.477,0.91-3.266c0.606-0.791,1.44-1.186,2.501-1.186c1.026,0,1.809,0.336,2.349,1.006s0.815,1.697,0.827,3.078
				v0.91h-5.625v0.533c0,1.086,0.232,1.922,0.695,2.512c0.464,0.588,1.118,0.883,1.964,0.883c0.933,0,1.688-0.342,2.266-1.023
				l0.507,0.646C471.741,217.769,470.802,218.193,469.543,218.193z M469.377,209.288c-0.764,0-1.352,0.27-1.762,0.809
				c-0.411,0.539-0.637,1.328-0.678,2.365h4.645v-0.252C471.534,210.261,470.799,209.288,469.377,209.288z"/>
			<path style="fill:#3C3C3B;" d="M478.325,209.462c-0.233-0.041-0.438-0.061-0.612-0.061c-0.537,0-0.987,0.184-1.352,0.551
				s-0.623,0.877-0.774,1.531v6.533h-0.971v-9.463h0.954l0.018,1.416c0.46-1.061,1.184-1.592,2.169-1.592
				c0.257,0,0.452,0.037,0.586,0.113L478.325,209.462z"/>
			<path style="fill:#3C3C3B;" d="M483.705,212.847c0-1.498,0.259-2.617,0.778-3.357s1.294-1.111,2.327-1.111
				c1.056,0,1.854,0.467,2.397,1.398l0.052-1.223h0.91v13.102h-0.979v-4.74c-0.554,0.852-1.35,1.277-2.388,1.277
				c-1.009,0-1.774-0.371-2.296-1.111s-0.789-1.824-0.8-3.254V212.847z M484.693,213.726c0,1.213,0.185,2.107,0.556,2.688
				c0.37,0.58,0.952,0.869,1.745,0.869c0.998,0,1.729-0.463,2.196-1.389V210.8c-0.473-1.008-1.202-1.512-2.187-1.512
				c-0.793,0-1.375,0.285-1.745,0.855c-0.37,0.57-0.558,1.451-0.564,2.639V213.726z"/>
			<path style="fill:#3C3C3B;" d="M497.901,216.89c-0.537,0.867-1.367,1.303-2.493,1.303c-0.857,0-1.504-0.297-1.942-0.893
				s-0.659-1.469-0.665-2.625v-6.121h0.962v6.096c0,0.857,0.151,1.508,0.455,1.951c0.303,0.443,0.74,0.664,1.312,0.664
				c1.225,0,2.009-0.594,2.353-1.785v-6.926h0.979v9.463h-0.945L497.901,216.89z"/>
			<path style="fill:#3C3C3B;" d="M504.575,218.193c-1.114,0-1.986-0.365-2.616-1.094s-0.95-1.768-0.962-3.113v-1.156
				c0-1.387,0.303-2.477,0.91-3.266c0.606-0.791,1.44-1.186,2.501-1.186c1.026,0,1.809,0.336,2.349,1.006s0.815,1.697,0.827,3.078
				v0.91h-5.625v0.533c0,1.086,0.232,1.922,0.695,2.512c0.464,0.588,1.118,0.883,1.964,0.883c0.933,0,1.688-0.342,2.266-1.023
				l0.507,0.646C506.774,217.769,505.835,218.193,504.575,218.193z M504.409,209.288c-0.764,0-1.352,0.27-1.762,0.809
				c-0.411,0.539-0.637,1.328-0.678,2.365h4.645v-0.252C506.567,210.261,505.832,209.288,504.409,209.288z"/>
			<path style="fill:#3C3C3B;" d="M514.381,215.685c0-0.406-0.169-0.764-0.507-1.068c-0.338-0.307-0.911-0.641-1.719-1.004
				c-0.808-0.363-1.372-0.668-1.693-0.908c-0.321-0.242-0.557-0.506-0.708-0.793c-0.151-0.285-0.228-0.623-0.228-1.014
				c0-0.729,0.263-1.332,0.788-1.807s1.204-0.713,2.038-0.713c0.898,0,1.615,0.254,2.152,0.762c0.536,0.506,0.805,1.178,0.805,2.012
				h-0.971c0-0.537-0.184-0.982-0.551-1.334c-0.368-0.354-0.846-0.529-1.435-0.529c-0.572,0-1.025,0.145-1.36,0.438
				c-0.335,0.291-0.503,0.67-0.503,1.137c0,0.379,0.128,0.688,0.385,0.928c0.257,0.238,0.811,0.562,1.662,0.971
				c0.88,0.385,1.487,0.701,1.819,0.953c0.333,0.25,0.583,0.529,0.752,0.836c0.169,0.305,0.253,0.668,0.253,1.088
				c0,0.781-0.271,1.402-0.813,1.863s-1.257,0.691-2.143,0.691c-0.939,0-1.698-0.258-2.278-0.77
				c-0.581-0.514-0.871-1.176-0.871-1.986h0.98c0.029,0.586,0.226,1.041,0.59,1.363c0.364,0.322,0.891,0.482,1.579,0.482
				c0.595,0,1.073-0.145,1.435-0.436C514.199,216.556,514.381,216.167,514.381,215.685z"/>
			<path style="fill:#3C3C3B;" d="M519.104,206.138v2.416h1.618v0.873h-1.618v6.289c0,0.52,0.077,0.906,0.232,1.16
				c0.154,0.254,0.412,0.381,0.774,0.381c0.157,0,0.391-0.029,0.7-0.088l0.026,0.875c-0.222,0.098-0.54,0.148-0.954,0.148
				c-1.137,0-1.72-0.781-1.75-2.344v-6.422h-1.46v-0.873h1.46v-2.416H519.104z"/>
			<path style="fill:#3C3C3B;" d="M522.804,205.824c0-0.197,0.055-0.367,0.166-0.508c0.111-0.139,0.268-0.209,0.472-0.209
				s0.363,0.07,0.477,0.209c0.114,0.141,0.17,0.311,0.17,0.508c0,0.199-0.057,0.367-0.17,0.504s-0.273,0.205-0.477,0.205
				s-0.361-0.068-0.472-0.205S522.804,206.023,522.804,205.824z M523.924,218.017h-0.98v-9.463h0.98V218.017z"/>
			<path style="fill:#3C3C3B;" d="M526.242,212.804c0-1.365,0.309-2.443,0.927-3.236s1.46-1.189,2.528-1.189
				c1.073,0,1.917,0.391,2.532,1.172s0.926,1.857,0.932,3.229v1.006c0,1.387-0.311,2.469-0.932,3.244s-1.459,1.164-2.515,1.164
				c-1.056,0-1.893-0.379-2.511-1.137s-0.939-1.803-0.962-3.133V212.804z M527.221,213.779c0,1.09,0.22,1.945,0.661,2.568
				c0.44,0.625,1.051,0.936,1.833,0.936c0.799,0,1.41-0.301,1.833-0.9c0.422-0.6,0.637-1.459,0.643-2.576V212.8
				c0-1.09-0.222-1.947-0.665-2.572c-0.443-0.627-1.053-0.939-1.828-0.939c-0.752,0-1.35,0.305-1.793,0.916
				c-0.443,0.613-0.671,1.455-0.683,2.525V213.779z"/>
			<path style="fill:#3C3C3B;" d="M536.327,208.554l0.026,1.504c0.28-0.514,0.637-0.922,1.071-1.225
				c0.435-0.303,0.929-0.455,1.483-0.455c1.65,0,2.496,1.1,2.537,3.297v6.342h-0.962v-6.236c-0.006-0.846-0.154-1.469-0.446-1.871
				c-0.292-0.402-0.75-0.604-1.374-0.604c-0.507,0-0.963,0.189-1.369,0.572c-0.406,0.383-0.713,0.906-0.923,1.57v6.568H535.4v-9.463
				H536.327z"/>
			<path style="fill:#3C3C3B;" d="M548.757,215.685c0-0.406-0.169-0.764-0.507-1.068c-0.338-0.307-0.911-0.641-1.719-1.004
				c-0.808-0.363-1.372-0.668-1.693-0.908c-0.321-0.242-0.557-0.506-0.708-0.793c-0.151-0.285-0.228-0.623-0.228-1.014
				c0-0.729,0.263-1.332,0.788-1.807s1.204-0.713,2.038-0.713c0.898,0,1.615,0.254,2.152,0.762c0.536,0.506,0.805,1.178,0.805,2.012
				h-0.971c0-0.537-0.184-0.982-0.551-1.334c-0.368-0.354-0.846-0.529-1.435-0.529c-0.572,0-1.025,0.145-1.36,0.438
				c-0.335,0.291-0.503,0.67-0.503,1.137c0,0.379,0.128,0.688,0.385,0.928c0.257,0.238,0.811,0.562,1.662,0.971
				c0.88,0.385,1.487,0.701,1.819,0.953c0.333,0.25,0.583,0.529,0.752,0.836c0.169,0.305,0.253,0.668,0.253,1.088
				c0,0.781-0.271,1.402-0.813,1.863s-1.257,0.691-2.143,0.691c-0.939,0-1.698-0.258-2.278-0.77
				c-0.581-0.514-0.871-1.176-0.871-1.986h0.98c0.029,0.586,0.226,1.041,0.59,1.363c0.364,0.322,0.891,0.482,1.579,0.482
				c0.595,0,1.073-0.145,1.435-0.436C548.575,216.556,548.757,216.167,548.757,215.685z"/>
			<path style="fill:#3C3C3B;" d="M379.719,235.931c-0.087-0.303-0.146-0.74-0.175-1.312c-0.292,0.473-0.667,0.84-1.124,1.1
				c-0.458,0.258-0.955,0.389-1.491,0.389c-0.817,0-1.452-0.23-1.907-0.691c-0.455-0.461-0.682-1.117-0.682-1.969
				c0-0.926,0.316-1.662,0.949-2.203c0.632-0.543,1.506-0.816,2.62-0.822h1.627v-1.32c0-0.678-0.168-1.162-0.503-1.457
				c-0.335-0.295-0.827-0.441-1.474-0.441c-0.601,0-1.093,0.174-1.478,0.523c-0.385,0.352-0.577,0.803-0.577,1.357l-0.971-0.01
				c0-0.775,0.292-1.434,0.875-1.973c0.583-0.539,1.315-0.809,2.196-0.809c0.95,0,1.67,0.238,2.161,0.717
				c0.49,0.479,0.734,1.176,0.734,2.092v4.645c0,0.926,0.084,1.621,0.254,2.082v0.104H379.719z M377.051,235.171
				c0.572,0,1.078-0.15,1.518-0.447c0.44-0.297,0.763-0.693,0.967-1.189v-2.301h-1.54c-0.886,0.012-1.554,0.209-2.003,0.592
				c-0.449,0.381-0.674,0.896-0.674,1.543C375.319,234.57,375.897,235.171,377.051,235.171z"/>
			<path style="fill:#3C3C3B;" d="M389.612,231.646c0,1.457-0.255,2.566-0.766,3.324s-1.27,1.137-2.278,1.137
				c-1.114,0-1.939-0.48-2.476-1.443l-0.044,1.268h-0.901v-13.436h0.962v5.293c0.53-0.998,1.344-1.496,2.44-1.496
				c1.021,0,1.781,0.359,2.283,1.08s0.761,1.795,0.779,3.223V231.646z M388.641,230.761c0-1.201-0.178-2.09-0.533-2.666
				c-0.356-0.578-0.939-0.867-1.75-0.867c-1.079,0-1.828,0.568-2.248,1.705v4.689c0.198,0.496,0.49,0.879,0.875,1.15
				s0.849,0.406,1.391,0.406c0.775,0,1.345-0.281,1.71-0.844c0.364-0.562,0.549-1.439,0.555-2.629V230.761z"/>
			<path style="fill:#3C3C3B;" d="M391.493,230.718c0-1.365,0.309-2.443,0.927-3.236s1.46-1.189,2.528-1.189
				c1.073,0,1.917,0.391,2.532,1.172s0.926,1.857,0.932,3.229v1.006c0,1.387-0.311,2.469-0.932,3.244s-1.459,1.164-2.515,1.164
				c-1.056,0-1.893-0.379-2.511-1.137s-0.939-1.803-0.962-3.133V230.718z M392.472,231.693c0,1.09,0.22,1.945,0.661,2.568
				c0.44,0.625,1.051,0.936,1.833,0.936c0.799,0,1.41-0.301,1.833-0.9c0.422-0.6,0.637-1.459,0.643-2.576v-1.006
				c0-1.09-0.222-1.947-0.665-2.572c-0.443-0.627-1.053-0.939-1.828-0.939c-0.752,0-1.35,0.305-1.793,0.916
				c-0.443,0.613-0.671,1.455-0.683,2.525V231.693z"/>
			<path style="fill:#3C3C3B;" d="M405.724,234.804c-0.537,0.867-1.367,1.303-2.493,1.303c-0.857,0-1.504-0.297-1.942-0.893
				s-0.659-1.469-0.665-2.625v-6.121h0.962v6.096c0,0.857,0.151,1.508,0.455,1.951c0.303,0.443,0.74,0.664,1.312,0.664
				c1.225,0,2.009-0.594,2.353-1.785v-6.926h0.979v9.463h-0.945L405.724,234.804z"/>
			<path style="fill:#3C3C3B;" d="M410.736,224.052v2.416h1.618v0.873h-1.618v6.289c0,0.52,0.077,0.906,0.232,1.16
				c0.154,0.254,0.412,0.381,0.774,0.381c0.157,0,0.391-0.029,0.7-0.088l0.026,0.875c-0.222,0.098-0.54,0.148-0.954,0.148
				c-1.137,0-1.72-0.781-1.75-2.344v-6.422h-1.46v-0.873h1.46v-2.416H410.736z"/>
			<path style="fill:#3C3C3B;" d="M426.341,231.96c-0.093,1.43-0.478,2.477-1.155,3.145c-0.676,0.668-1.612,1.002-2.808,1.002
				c-1.23,0-2.201-0.465-2.913-1.396c-0.711-0.93-1.07-2.193-1.076-3.791v-2.764c0-1.604,0.363-2.861,1.089-3.77
				c0.726-0.91,1.719-1.365,2.978-1.365c1.19,0,2.111,0.342,2.764,1.023s1.026,1.729,1.12,3.141h-1.015
				c-0.093-1.154-0.366-1.98-0.818-2.477c-0.452-0.494-1.136-0.742-2.051-0.742c-0.962,0-1.711,0.357-2.248,1.076
				c-0.536,0.717-0.805,1.758-0.805,3.121v2.73c0,1.352,0.26,2.404,0.779,3.156c0.519,0.754,1.25,1.129,2.195,1.129
				c0.991,0,1.708-0.248,2.152-0.744c0.443-0.494,0.708-1.32,0.796-2.475H426.341z"/>
			<path style="fill:#3C3C3B;" d="M428.59,223.738c0-0.197,0.055-0.367,0.166-0.508c0.111-0.139,0.268-0.209,0.472-0.209
				s0.363,0.07,0.477,0.209c0.114,0.141,0.17,0.311,0.17,0.508c0,0.199-0.057,0.367-0.17,0.504s-0.273,0.205-0.477,0.205
				s-0.361-0.068-0.472-0.205S428.59,223.937,428.59,223.738z M429.709,235.931h-0.98v-9.463h0.98V235.931z"/>
			<path style="fill:#3C3C3B;" d="M433.287,226.468l0.026,1.416c0.589-1.061,1.435-1.592,2.537-1.592c1.219,0,2.006,0.58,2.362,1.74
				c0.297-0.576,0.681-1.012,1.15-1.303c0.469-0.291,0.981-0.438,1.535-0.438c1.703,0,2.574,1.096,2.615,3.289v6.35h-0.971v-6.289
				c-0.012-0.816-0.164-1.424-0.455-1.824c-0.292-0.398-0.77-0.598-1.435-0.598c-0.601,0.012-1.108,0.244-1.522,0.699
				s-0.65,1.025-0.708,1.715v6.297h-0.979v-6.262c0-0.828-0.153-1.443-0.459-1.846s-0.783-0.604-1.43-0.604
				c-0.531,0-0.99,0.184-1.377,0.551c-0.388,0.367-0.669,0.893-0.844,1.574v6.586h-0.971v-9.463H433.287z"/>
			<path style="fill:#3C3C3B;" d="M445.681,230.718c0-1.365,0.309-2.443,0.927-3.236s1.46-1.189,2.528-1.189
				c1.073,0,1.917,0.391,2.532,1.172s0.926,1.857,0.932,3.229v1.006c0,1.387-0.311,2.469-0.932,3.244s-1.459,1.164-2.515,1.164
				c-1.056,0-1.893-0.379-2.511-1.137s-0.939-1.803-0.962-3.133V230.718z M446.661,231.693c0,1.09,0.22,1.945,0.661,2.568
				c0.44,0.625,1.051,0.936,1.833,0.936c0.799,0,1.41-0.301,1.833-0.9c0.422-0.6,0.637-1.459,0.643-2.576v-1.006
				c0-1.09-0.222-1.947-0.665-2.572c-0.443-0.627-1.053-0.939-1.828-0.939c-0.752,0-1.35,0.305-1.793,0.916
				c-0.443,0.613-0.671,1.455-0.683,2.525V231.693z"/>
			<path style="fill:#3C3C3B;" d="M455.766,226.468l0.026,1.504c0.28-0.514,0.637-0.922,1.071-1.225
				c0.435-0.303,0.929-0.455,1.483-0.455c1.65,0,2.496,1.1,2.537,3.297v6.342h-0.962v-6.236c-0.006-0.846-0.154-1.469-0.446-1.871
				c-0.292-0.402-0.75-0.604-1.374-0.604c-0.507,0-0.963,0.189-1.369,0.572c-0.406,0.383-0.713,0.906-0.923,1.57v6.568h-0.971
				v-9.463H455.766z"/>
			<path style="fill:#3C3C3B;" d="M472.491,235.931c-0.087-0.303-0.146-0.74-0.175-1.312c-0.292,0.473-0.667,0.84-1.124,1.1
				c-0.458,0.258-0.955,0.389-1.491,0.389c-0.817,0-1.452-0.23-1.907-0.691c-0.455-0.461-0.682-1.117-0.682-1.969
				c0-0.926,0.316-1.662,0.949-2.203c0.632-0.543,1.506-0.816,2.62-0.822h1.627v-1.32c0-0.678-0.168-1.162-0.503-1.457
				c-0.335-0.295-0.827-0.441-1.474-0.441c-0.601,0-1.093,0.174-1.478,0.523c-0.385,0.352-0.577,0.803-0.577,1.357l-0.971-0.01
				c0-0.775,0.292-1.434,0.875-1.973c0.583-0.539,1.315-0.809,2.196-0.809c0.95,0,1.67,0.238,2.161,0.717
				c0.49,0.479,0.734,1.176,0.734,2.092v4.645c0,0.926,0.084,1.621,0.254,2.082v0.104H472.491z M469.823,235.171
				c0.572,0,1.078-0.15,1.518-0.447c0.44-0.297,0.763-0.693,0.967-1.189v-2.301h-1.54c-0.886,0.012-1.554,0.209-2.003,0.592
				c-0.449,0.381-0.674,0.896-0.674,1.543C468.091,234.57,468.669,235.171,469.823,235.171z"/>
			<path style="fill:#3C3C3B;" d="M476.847,226.468l0.026,1.504c0.28-0.514,0.637-0.922,1.071-1.225
				c0.435-0.303,0.929-0.455,1.483-0.455c1.65,0,2.496,1.1,2.537,3.297v6.342h-0.962v-6.236c-0.006-0.846-0.154-1.469-0.446-1.871
				c-0.292-0.402-0.75-0.604-1.374-0.604c-0.507,0-0.963,0.189-1.369,0.572c-0.406,0.383-0.713,0.906-0.923,1.57v6.568h-0.971
				v-9.463H476.847z"/>
			<path style="fill:#3C3C3B;" d="M484.194,230.761c0-1.48,0.259-2.596,0.778-3.346c0.519-0.748,1.289-1.123,2.309-1.123
				c1.073,0,1.875,0.48,2.406,1.443v-5.24h0.971v13.436h-0.91l-0.043-1.215c-0.531,0.926-1.341,1.391-2.432,1.391
				c-0.997,0-1.756-0.379-2.278-1.137s-0.789-1.834-0.8-3.229V230.761z M485.183,231.646c0,1.213,0.182,2.105,0.547,2.676
				c0.364,0.572,0.943,0.857,1.736,0.857c1.02,0,1.761-0.486,2.222-1.461v-4.906c-0.438-1.057-1.175-1.584-2.213-1.584
				c-0.793,0-1.372,0.283-1.736,0.85c-0.365,0.564-0.55,1.439-0.556,2.623V231.646z"/>
			<path style="fill:#3C3C3B;" d="M498.277,227.954c0.28-0.508,0.634-0.912,1.062-1.211c0.429-0.301,0.92-0.451,1.474-0.451
				c1.65,0,2.496,1.1,2.537,3.297v6.342h-0.962v-6.236c-0.006-0.846-0.154-1.469-0.446-1.871c-0.292-0.402-0.75-0.604-1.374-0.604
				c-0.507,0-0.963,0.189-1.369,0.572c-0.406,0.383-0.713,0.906-0.923,1.57v6.568h-0.971v-13.436h0.971V227.954z"/>
			<path style="fill:#3C3C3B;" d="M509.045,236.107c-1.114,0-1.986-0.365-2.616-1.094s-0.95-1.768-0.962-3.113v-1.156
				c0-1.387,0.303-2.477,0.91-3.266c0.606-0.791,1.44-1.186,2.501-1.186c1.026,0,1.809,0.336,2.349,1.006s0.815,1.697,0.827,3.078
				v0.91h-5.625v0.533c0,1.086,0.232,1.922,0.695,2.512c0.464,0.588,1.118,0.883,1.964,0.883c0.933,0,1.688-0.342,2.266-1.023
				l0.507,0.646C511.243,235.683,510.304,236.107,509.045,236.107z M508.879,227.203c-0.764,0-1.352,0.27-1.762,0.809
				c-0.411,0.539-0.637,1.328-0.678,2.365h4.645v-0.252C511.036,228.175,510.301,227.203,508.879,227.203z"/>
			<path style="fill:#3C3C3B;" d="M515.203,235.931h-0.98v-13.436h0.98V235.931z"/>
			<path style="fill:#3C3C3B;" d="M524.343,231.646c0,1.457-0.254,2.566-0.761,3.324s-1.265,1.137-2.274,1.137
				c-1.097,0-1.916-0.438-2.458-1.312v4.775h-0.962v-13.102h0.893l0.043,1.293c0.56-0.979,1.379-1.469,2.458-1.469
				c1.021,0,1.784,0.361,2.292,1.084c0.507,0.725,0.764,1.828,0.77,3.316V231.646z M523.372,230.757
				c0-1.211-0.188-2.102-0.564-2.672c-0.376-0.572-0.964-0.857-1.763-0.857c-1.026,0-1.758,0.521-2.195,1.564v4.98
				c0.438,0.949,1.175,1.424,2.213,1.424c0.781,0,1.36-0.285,1.736-0.855c0.376-0.572,0.567-1.451,0.573-2.639V230.757z"/>
			<path style="fill:#3C3C3B;" d="M533.143,234.331l2.256-7.863h1.041l-3.333,10.977l-0.184,0.525
				c-0.449,1.189-1.137,1.783-2.064,1.783c-0.222,0-0.455-0.041-0.7-0.121l-0.009-0.893c0.134,0.041,0.283,0.061,0.446,0.061
				c0.419,0,0.764-0.125,1.032-0.375c0.269-0.252,0.49-0.656,0.665-1.217l0.402-1.338l-2.974-9.402h1.067L533.143,234.331z"/>
			<path style="fill:#3C3C3B;" d="M537.622,230.718c0-1.365,0.309-2.443,0.927-3.236s1.46-1.189,2.528-1.189
				c1.073,0,1.917,0.391,2.532,1.172s0.926,1.857,0.932,3.229v1.006c0,1.387-0.311,2.469-0.932,3.244s-1.459,1.164-2.515,1.164
				c-1.056,0-1.893-0.379-2.511-1.137s-0.939-1.803-0.962-3.133V230.718z M538.601,231.693c0,1.09,0.22,1.945,0.661,2.568
				c0.44,0.625,1.051,0.936,1.833,0.936c0.799,0,1.41-0.301,1.833-0.9c0.422-0.6,0.637-1.459,0.643-2.576v-1.006
				c0-1.09-0.222-1.947-0.665-2.572c-0.443-0.627-1.053-0.939-1.828-0.939c-0.752,0-1.35,0.305-1.793,0.916
				c-0.443,0.613-0.671,1.455-0.683,2.525V231.693z"/>
			<path style="fill:#3C3C3B;" d="M551.853,234.804c-0.537,0.867-1.367,1.303-2.493,1.303c-0.857,0-1.504-0.297-1.942-0.893
				s-0.659-1.469-0.665-2.625v-6.121h0.962v6.096c0,0.857,0.151,1.508,0.455,1.951c0.303,0.443,0.74,0.664,1.312,0.664
				c1.225,0,2.009-0.594,2.353-1.785v-6.926h0.979v9.463h-0.945L551.853,234.804z"/>
			<path style="fill:#3C3C3B;" d="M555.413,235.314c0-0.201,0.057-0.371,0.171-0.508c0.113-0.137,0.272-0.203,0.477-0.203
				s0.363,0.066,0.477,0.203s0.17,0.307,0.17,0.508c0,0.197-0.057,0.361-0.17,0.492s-0.272,0.195-0.477,0.195
				s-0.363-0.064-0.477-0.195C555.47,235.675,555.413,235.511,555.413,235.314z M556.463,232.388h-0.901l-0.053-9.191h1.015
				L556.463,232.388z"/>
		</g>
	</g>
	<path style="fill:#FFE596;" d="M458.624,42.073c-2.388,0-4.388,1.674-4.899,3.909h-18.449V35.751c0-0.618-0.501-1.12-1.12-1.12
		h-5.686V27.76v0v0c0-15.307-12.453-27.76-27.759-27.76c-11.728,0-21.773,7.314-25.832,17.617l-27.878,3.849
		c-3.551-3.392-8.356-5.483-13.642-5.483c-10.524,0-19.151,8.267-19.733,18.648h-5.719c-0.618,0-1.12,0.501-1.12,1.12v10.232
		h-20.911c-0.511-2.235-2.511-3.909-4.899-3.909c-2.773,0-5.029,2.256-5.029,5.029s2.256,5.028,5.029,5.028
		c2.388,0,4.388-1.674,4.899-3.909h20.911v10.231c0,0.618,0.501,1.12,1.12,1.12h5.685v6.409c0,0.016,0.004,0.031,0.005,0.047
		c0.002,0.04,0.006,0.078,0.012,0.118c0.005,0.035,0.011,0.069,0.019,0.103c0.009,0.035,0.02,0.069,0.032,0.104
		c0.013,0.036,0.026,0.071,0.042,0.104c0.014,0.031,0.031,0.06,0.048,0.089c0.021,0.035,0.042,0.069,0.067,0.101
		c0.009,0.013,0.015,0.026,0.026,0.039l10.772,13.261c-15.413,22.412-26.651,46.798-33.527,72.698
		c-0.01,0.032-0.017,0.064-0.025,0.096c-1.475,5.564-2.76,11.195-3.83,16.895v0c-0.001,0.006-0.003,0.013-0.004,0.019
		c-0.007,0.039-0.007,0.078-0.01,0.117c-0.003,0.03-0.009,0.059-0.009,0.09v0.017c0,0.001,0,0.002,0,0.004v6.61
		c0,2.283,1.857,4.141,4.141,4.141c1.021,0,1.956-0.373,2.678-0.988c0.752,1.049,1.978,1.736,3.364,1.736
		c2.284,0,4.141-1.858,4.141-4.141v-6.259h1.683v6.259c0,2.283,1.857,4.141,4.141,4.141s4.141-1.858,4.141-4.141v-6.259l4.643-2.239
		h109.779l4.643,2.239v6.259c0,2.283,1.857,4.141,4.14,4.141c2.284,0,4.141-1.858,4.141-4.141v-6.259h1.683v6.259
		c0,2.283,1.857,4.141,4.141,4.141c1.386,0,2.612-0.687,3.364-1.736c0.723,0.615,1.657,0.988,2.678,0.988
		c2.283,0,4.14-1.858,4.14-4.141v-6.61c0-0.001,0-0.002,0-0.004v-0.017c0-0.031-0.007-0.06-0.009-0.091
		c-0.003-0.039-0.003-0.077-0.01-0.116c-0.001-0.006-0.003-0.012-0.004-0.019c0,0,0,0,0,0l0-0.001
		c-1.07-5.699-2.355-11.329-3.83-16.893c-0.007-0.032-0.014-0.064-0.025-0.096c-6.877-25.901-18.115-50.286-33.527-72.698
		l10.772-13.261c0.01-0.012,0.016-0.026,0.025-0.038c0.024-0.033,0.046-0.067,0.067-0.102c0.018-0.029,0.034-0.059,0.048-0.089
		c0.016-0.034,0.029-0.069,0.042-0.105c0.012-0.034,0.024-0.069,0.032-0.104c0.008-0.034,0.014-0.068,0.02-0.104
		c0.006-0.039,0.01-0.078,0.012-0.117c0.001-0.016,0.005-0.031,0.005-0.047v-6.409h5.686c0.618,0,1.12-0.501,1.12-1.12V48.222
		h18.449c0.511,2.235,2.511,3.909,4.899,3.909c2.773,0,5.029-2.256,5.029-5.028S461.397,42.073,458.624,42.073z M354.343,161.514
		h33.377v7.143h-33.377V161.514z M324.888,130.06v30.334v8.349h-5.072c0.296-0.57,0.467-1.216,0.467-1.902
		c0-2.283-1.857-4.141-4.14-4.141h-2.248C316.646,151.576,320.327,140.624,324.888,130.06z M428.169,162.7h-2.247
		c-2.284,0-4.141,1.858-4.141,4.141c0,0.686,0.17,1.332,0.466,1.902h-5.072v-8.349V130.06
		C421.736,140.624,425.418,151.576,428.169,162.7z"/>
	<g>
		<g>
			<g>
				<g>
					<path style="fill:#3C3C3B;" d="M400.712,55.518c-15.307,0-27.759-12.453-27.759-27.759c0-15.307,12.453-27.76,27.759-27.76
						c15.307,0,27.76,12.453,27.76,27.76C428.471,43.066,416.019,55.518,400.712,55.518z M400.712,2.239
						c-14.072,0-25.52,11.448-25.52,25.52s11.448,25.52,25.52,25.52c14.072,0,25.52-11.448,25.52-25.52S414.784,2.239,400.712,2.239
						z"/>
				</g>
				<g>
					<path style="fill:#3C3C3B;" d="M400.712,50.802c-12.706,0-23.043-10.337-23.043-23.043s10.337-23.043,23.043-23.043
						c12.705,0,23.042,10.337,23.042,23.043S413.418,50.802,400.712,50.802z M400.712,6.21c-11.883,0-21.55,9.667-21.55,21.55
						s9.667,21.55,21.55,21.55c11.883,0,21.549-9.667,21.549-21.55S412.595,6.21,400.712,6.21z"/>
				</g>
				<g>
					<path style="fill:#3C3C3B;" d="M400.712,48.386c-11.374,0-20.627-9.253-20.627-20.626s9.253-20.626,20.627-20.626
						c11.373,0,20.626,9.253,20.626,20.626S412.086,48.386,400.712,48.386z M400.712,11.612c-8.904,0-16.148,7.244-16.148,16.148
						s7.244,16.148,16.148,16.148c8.904,0,16.148-7.244,16.148-16.148S409.616,11.612,400.712,11.612z"/>
				</g>
				<g>
					<path style="fill:#3C3C3B;" d="M400.712,43.534c-0.51,0-1.023-0.025-1.526-0.073c-0.205-0.02-0.355-0.203-0.335-0.407
						c0.02-0.206,0.2-0.343,0.407-0.336c0.879,0.086,1.789,0.093,2.666,0.022c0.208-0.009,0.386,0.137,0.402,0.342
						c0.016,0.206-0.137,0.386-0.342,0.402C401.563,43.517,401.135,43.534,400.712,43.534z M403.433,43.293
						c-0.177,0-0.335-0.127-0.367-0.308c-0.036-0.203,0.099-0.397,0.302-0.433c0.478-0.085,0.955-0.195,1.418-0.326
						c0.199-0.054,0.405,0.06,0.461,0.258c0.056,0.198-0.06,0.405-0.258,0.461c-0.487,0.137-0.988,0.252-1.49,0.342
						C403.476,43.291,403.454,43.293,403.433,43.293z M397.746,43.247c-0.024,0-0.048-0.002-0.072-0.007
						c-0.5-0.098-0.999-0.221-1.484-0.367c-0.198-0.059-0.309-0.267-0.25-0.464c0.059-0.198,0.265-0.311,0.465-0.25
						c0.461,0.138,0.937,0.256,1.413,0.349c0.202,0.039,0.334,0.235,0.294,0.437C398.077,43.124,397.921,43.247,397.746,43.247z
						 M406.301,42.485c-0.149,0-0.29-0.09-0.348-0.238c-0.075-0.192,0.02-0.408,0.212-0.483c0.447-0.174,0.894-0.375,1.328-0.596
						c0.184-0.092,0.408-0.02,0.502,0.164c0.093,0.184,0.02,0.408-0.164,0.502c-0.456,0.231-0.926,0.442-1.395,0.625
						C406.392,42.477,406.346,42.485,406.301,42.485z M394.891,42.392c-0.047,0-0.095-0.009-0.142-0.028
						c-0.467-0.192-0.932-0.41-1.383-0.647c-0.182-0.096-0.252-0.322-0.156-0.504c0.096-0.182,0.321-0.251,0.504-0.156
						c0.43,0.227,0.874,0.434,1.319,0.617c0.191,0.079,0.282,0.297,0.203,0.487C395.177,42.305,395.038,42.392,394.891,42.392z
						 M408.959,41.136c-0.123,0-0.244-0.061-0.315-0.173c-0.111-0.174-0.059-0.405,0.114-0.515c0.41-0.261,0.81-0.543,1.189-0.84
						c0.163-0.129,0.397-0.099,0.524,0.064c0.127,0.162,0.098,0.397-0.064,0.523c-0.398,0.311-0.818,0.608-1.248,0.882
						C409.097,41.117,409.027,41.136,408.959,41.136z M392.256,41c-0.07,0-0.142-0.02-0.205-0.061
						c-0.425-0.281-0.84-0.584-1.234-0.902c-0.16-0.13-0.185-0.364-0.055-0.525c0.129-0.16,0.364-0.186,0.525-0.055
						c0.375,0.303,0.77,0.592,1.175,0.859c0.172,0.114,0.219,0.346,0.106,0.518C392.496,40.941,392.377,41,392.256,41z
						 M411.308,39.3c-0.099,0-0.198-0.039-0.271-0.117c-0.142-0.149-0.136-0.386,0.014-0.527c0.349-0.331,0.688-0.685,1.007-1.052
						c0.136-0.155,0.371-0.172,0.527-0.036c0.156,0.135,0.172,0.371,0.037,0.526c-0.335,0.385-0.69,0.756-1.056,1.103
						C411.492,39.266,411.4,39.3,411.308,39.3z M389.937,39.127c-0.094,0-0.189-0.036-0.261-0.106
						c-0.363-0.356-0.713-0.733-1.038-1.12c-0.133-0.158-0.112-0.394,0.046-0.526c0.157-0.134,0.393-0.112,0.526,0.045
						c0.31,0.37,0.643,0.729,0.99,1.068c0.147,0.144,0.149,0.381,0.005,0.528C390.13,39.09,390.033,39.127,389.937,39.127z
						 M413.262,37.05c-0.075,0-0.151-0.023-0.216-0.069c-0.168-0.12-0.207-0.353-0.087-0.52c0.281-0.394,0.545-0.805,0.787-1.225
						c0.103-0.178,0.33-0.239,0.51-0.137c0.179,0.103,0.24,0.331,0.137,0.51c-0.253,0.44-0.531,0.873-0.826,1.285
						C413.494,36.996,413.379,37.05,413.262,37.05z M388.019,36.846c-0.119,0-0.235-0.056-0.308-0.162
						c-0.288-0.417-0.558-0.854-0.805-1.299c-0.1-0.18-0.035-0.407,0.146-0.507c0.179-0.098,0.407-0.035,0.507,0.146
						c0.235,0.424,0.492,0.84,0.766,1.238c0.117,0.169,0.074,0.402-0.095,0.519C388.166,36.825,388.092,36.846,388.019,36.846z
						 M414.749,34.468c-0.051,0-0.104-0.011-0.154-0.034c-0.188-0.085-0.271-0.306-0.186-0.494c0.199-0.439,0.379-0.894,0.536-1.353
						c0.066-0.195,0.279-0.297,0.473-0.233c0.195,0.066,0.3,0.278,0.233,0.474c-0.164,0.483-0.354,0.96-0.563,1.421
						C415.026,34.386,414.891,34.468,414.749,34.468z M386.574,34.24c-0.144,0-0.282-0.084-0.343-0.225
						c-0.201-0.463-0.383-0.944-0.539-1.429c-0.063-0.196,0.044-0.406,0.24-0.469c0.198-0.064,0.406,0.044,0.47,0.241
						c0.149,0.462,0.322,0.92,0.514,1.361c0.082,0.189-0.004,0.409-0.194,0.491C386.674,34.229,386.623,34.24,386.574,34.24z
						 M415.71,31.646c-0.028,0-0.057-0.003-0.086-0.01c-0.201-0.047-0.325-0.248-0.278-0.448c0.11-0.468,0.198-0.949,0.262-1.431
						c0.028-0.204,0.212-0.347,0.419-0.321c0.204,0.028,0.348,0.215,0.321,0.42c-0.067,0.505-0.16,1.011-0.276,1.502
						C416.032,31.53,415.879,31.646,415.71,31.646z M385.66,31.403c-0.172,0-0.327-0.12-0.364-0.294
						c-0.107-0.495-0.192-1.002-0.251-1.506c-0.024-0.205,0.122-0.391,0.327-0.415c0.21-0.017,0.39,0.124,0.414,0.327
						c0.056,0.481,0.137,0.964,0.239,1.436c0.044,0.201-0.084,0.399-0.286,0.443C385.712,31.401,385.686,31.403,385.66,31.403z
						 M416.103,28.693c-0.005,0-0.009,0-0.014,0c-0.206-0.008-0.367-0.181-0.359-0.387c0.007-0.182,0.01-0.363,0.01-0.546
						c0-0.305-0.009-0.609-0.027-0.909c-0.012-0.206,0.144-0.383,0.35-0.395c0.209-0.019,0.383,0.144,0.395,0.35
						c0.019,0.316,0.029,0.634,0.028,0.955c0,0.191-0.003,0.383-0.011,0.573C416.469,28.534,416.303,28.693,416.103,28.693z
						 M385.314,28.443c-0.203,0-0.369-0.162-0.373-0.365l-0.003-0.319c0-0.407,0.015-0.81,0.046-1.209
						c0.016-0.206,0.196-0.359,0.401-0.344c0.206,0.016,0.359,0.195,0.344,0.401c-0.029,0.38-0.044,0.764-0.044,1.152l0.003,0.303
						c0.004,0.206-0.159,0.377-0.365,0.381C385.319,28.443,385.316,28.443,385.314,28.443z M415.924,25.718
						c-0.18,0-0.339-0.131-0.368-0.315c-0.075-0.477-0.176-0.956-0.297-1.424c-0.052-0.2,0.068-0.403,0.267-0.456
						c0.2-0.05,0.403,0.068,0.455,0.268c0.128,0.492,0.233,0.995,0.312,1.496c0.032,0.203-0.106,0.394-0.31,0.427
						C415.963,25.716,415.943,25.718,415.924,25.718z M385.541,25.472c-0.021,0-0.043-0.001-0.065-0.006
						c-0.203-0.035-0.339-0.229-0.303-0.432c0.088-0.502,0.201-1.004,0.336-1.491c0.055-0.199,0.26-0.316,0.46-0.259
						c0.199,0.055,0.315,0.261,0.26,0.459c-0.129,0.464-0.237,0.941-0.32,1.419C385.876,25.345,385.719,25.472,385.541,25.472z
						 M415.174,22.834c-0.152,0-0.295-0.093-0.35-0.245c-0.166-0.453-0.358-0.903-0.568-1.339c-0.09-0.186-0.012-0.409,0.174-0.499
						c0.186-0.09,0.409-0.012,0.498,0.173c0.221,0.458,0.422,0.932,0.596,1.408c0.071,0.193-0.028,0.407-0.222,0.479
						C415.26,22.826,415.216,22.834,415.174,22.834z M386.337,22.6c-0.045,0-0.09-0.008-0.134-0.025
						c-0.192-0.074-0.288-0.291-0.214-0.483c0.182-0.472,0.39-0.941,0.619-1.397c0.092-0.184,0.317-0.259,0.501-0.166
						c0.184,0.093,0.259,0.317,0.166,0.501c-0.218,0.434-0.416,0.881-0.59,1.331C386.628,22.51,386.487,22.6,386.337,22.6z
						 M413.879,20.15c-0.126,0-0.249-0.063-0.319-0.179c-0.252-0.414-0.526-0.819-0.816-1.206c-0.124-0.165-0.09-0.399,0.075-0.523
						c0.165-0.124,0.399-0.09,0.522,0.075c0.304,0.405,0.592,0.831,0.857,1.265c0.107,0.176,0.051,0.405-0.125,0.512
						C414.012,20.133,413.945,20.15,413.879,20.15z M387.676,19.938c-0.068,0-0.137-0.018-0.199-0.058
						c-0.174-0.11-0.226-0.34-0.116-0.515c0.27-0.429,0.565-0.849,0.877-1.252c0.126-0.162,0.361-0.192,0.524-0.066
						c0.163,0.126,0.193,0.361,0.067,0.524c-0.297,0.383-0.578,0.784-0.836,1.192C387.921,19.877,387.8,19.938,387.676,19.938z
						 M412.092,17.764c-0.101,0-0.202-0.041-0.276-0.122c-0.327-0.358-0.674-0.703-1.032-1.027
						c-0.153-0.138-0.165-0.375-0.027-0.527c0.139-0.153,0.375-0.164,0.527-0.027c0.376,0.34,0.74,0.703,1.082,1.078
						c0.139,0.152,0.128,0.389-0.024,0.527C412.272,17.732,412.182,17.764,412.092,17.764z M389.502,17.582
						c-0.092,0-0.184-0.034-0.256-0.101c-0.15-0.141-0.157-0.378-0.016-0.528c0.347-0.369,0.717-0.725,1.1-1.061
						c0.155-0.136,0.391-0.121,0.527,0.035c0.136,0.155,0.12,0.391-0.035,0.526c-0.364,0.319-0.717,0.66-1.048,1.011
						C389.7,17.542,389.601,17.582,389.502,17.582z M409.88,15.765c-0.077,0-0.155-0.024-0.222-0.074
						c-0.391-0.29-0.798-0.563-1.209-0.811c-0.176-0.106-0.233-0.335-0.127-0.512c0.106-0.177,0.335-0.234,0.512-0.127
						c0.432,0.26,0.858,0.546,1.268,0.851c0.165,0.122,0.2,0.356,0.077,0.522C410.107,15.713,409.994,15.765,409.88,15.765z
						 M391.744,15.619c-0.116,0-0.23-0.054-0.303-0.155c-0.121-0.168-0.082-0.401,0.085-0.521c0.416-0.299,0.847-0.578,1.283-0.831
						c0.18-0.103,0.407-0.042,0.51,0.136c0.104,0.179,0.043,0.407-0.136,0.51c-0.415,0.241-0.826,0.507-1.222,0.792
						C391.896,15.596,391.82,15.619,391.744,15.619z M407.328,14.226c-0.054,0-0.109-0.012-0.161-0.036
						c-0.434-0.208-0.886-0.397-1.342-0.563c-0.194-0.07-0.294-0.284-0.224-0.478c0.071-0.194,0.284-0.293,0.478-0.223
						c0.48,0.174,0.954,0.372,1.41,0.59c0.186,0.089,0.265,0.312,0.176,0.498C407.601,14.148,407.468,14.226,407.328,14.226z
						 M394.321,14.121c-0.142,0-0.277-0.081-0.34-0.218c-0.086-0.187-0.004-0.409,0.184-0.495c0.463-0.211,0.94-0.402,1.419-0.567
						c0.195-0.069,0.407,0.036,0.474,0.232c0.067,0.195-0.036,0.407-0.231,0.474c-0.456,0.157-0.911,0.339-1.351,0.541
						C394.426,14.11,394.373,14.121,394.321,14.121z M404.528,13.209c-0.031,0-0.062-0.004-0.092-0.012
						c-0.469-0.119-0.95-0.217-1.427-0.291c-0.204-0.031-0.343-0.222-0.312-0.426c0.032-0.203,0.222-0.342,0.426-0.312
						c0.501,0.077,1.004,0.18,1.497,0.305c0.2,0.05,0.321,0.254,0.27,0.453C404.846,13.097,404.694,13.209,404.528,13.209z
						 M397.138,13.15c-0.169,0-0.322-0.115-0.363-0.286c-0.048-0.2,0.076-0.402,0.277-0.45c0.492-0.117,0.997-0.212,1.502-0.281
						c0.209-0.029,0.393,0.114,0.421,0.319c0.028,0.204-0.114,0.393-0.319,0.421c-0.481,0.066-0.963,0.157-1.431,0.268
						C397.196,13.147,397.167,13.15,397.138,13.15z M401.583,12.756c-0.007,0-0.015,0-0.022-0.001
						c-0.482-0.027-0.972-0.031-1.456-0.012c-0.195,0.003-0.379-0.152-0.387-0.359c-0.008-0.206,0.152-0.38,0.358-0.388
						c0.507-0.02,1.023-0.017,1.528,0.013c0.206,0.012,0.363,0.188,0.351,0.394C401.943,12.603,401.779,12.756,401.583,12.756z"/>
				</g>
			</g>
			<g>
				<path style="fill:#3C3C3B;" d="M333.36,55.518c-10.9,0-19.768-8.867-19.768-19.767s8.868-19.768,19.768-19.768
					c10.9,0,19.767,8.868,19.767,19.768S344.26,55.518,333.36,55.518z M333.36,18.223c-9.665,0-17.528,7.863-17.528,17.528
					c0,9.665,7.863,17.528,17.528,17.528s17.528-7.863,17.528-17.528C350.888,26.086,343.025,18.223,333.36,18.223z"/>
			</g>
			<g>
				<path style="fill:#3C3C3B;" d="M333.36,50.802c-8.299,0-15.05-6.752-15.05-15.051s6.752-15.051,15.05-15.051
					c8.299,0,15.051,6.752,15.051,15.051S341.659,50.802,333.36,50.802z M333.36,22.194c-7.476,0-13.558,6.082-13.558,13.558
					s6.082,13.558,13.558,13.558s13.558-6.082,13.558-13.558S340.836,22.194,333.36,22.194z"/>
			</g>
			<g>
				<path style="fill:#3C3C3B;" d="M333.36,48.386c-6.966,0-12.634-5.668-12.634-12.634s5.668-12.634,12.634-12.634
					c6.967,0,12.635,5.668,12.635,12.634S340.326,48.386,333.36,48.386z M333.36,27.596c-4.497,0-8.156,3.658-8.156,8.156
					s3.658,8.156,8.156,8.156c4.497,0,8.156-3.658,8.156-8.156S337.857,27.596,333.36,27.596z"/>
			</g>
			<g>
				<path style="fill:#3C3C3B;" d="M333.39,43.535c-0.013,0-0.057-0.001-0.069-0.001c-0.48,0-0.986-0.05-1.479-0.148
					c-0.202-0.04-0.333-0.236-0.293-0.439c0.04-0.201,0.238-0.337,0.438-0.293c0.45,0.089,0.911,0.134,1.372,0.134
					c0.206,0,0.389,0.168,0.389,0.374C333.748,43.367,333.597,43.535,333.39,43.535z M334.833,43.387c-0.174,0-0.33-0.122-0.366-0.3
					c-0.041-0.202,0.09-0.399,0.292-0.44c0.448-0.09,0.891-0.227,1.316-0.405c0.191-0.078,0.409,0.009,0.489,0.2
					c0.08,0.19-0.009,0.409-0.199,0.488c-0.471,0.198-0.961,0.348-1.458,0.449C334.883,43.385,334.858,43.387,334.833,43.387z
					 M330.526,42.971c-0.048,0-0.097-0.009-0.143-0.028c-0.469-0.195-0.921-0.437-1.344-0.721c-0.171-0.114-0.217-0.346-0.102-0.518
					c0.115-0.171,0.347-0.217,0.518-0.102c0.382,0.256,0.791,0.475,1.215,0.651c0.19,0.079,0.281,0.297,0.201,0.488
					C330.811,42.884,330.673,42.971,330.526,42.971z M337.498,42.27c-0.12,0-0.237-0.058-0.309-0.164
					c-0.116-0.171-0.071-0.402,0.1-0.518c0.38-0.258,0.738-0.554,1.062-0.881c0.146-0.147,0.382-0.146,0.528-0.001
					c0.146,0.145,0.147,0.381,0.001,0.528c-0.358,0.36-0.753,0.687-1.173,0.972C337.643,42.248,337.57,42.27,337.498,42.27z
					 M328.125,41.364c-0.095,0-0.191-0.036-0.264-0.109c-0.36-0.359-0.686-0.754-0.969-1.177c-0.115-0.171-0.069-0.403,0.102-0.518
					c0.17-0.116,0.403-0.069,0.518,0.102c0.257,0.382,0.551,0.741,0.876,1.065c0.146,0.145,0.146,0.381,0.001,0.528
					C328.317,41.328,328.221,41.364,328.125,41.364z M339.533,40.218c-0.071,0-0.143-0.02-0.206-0.063
					c-0.172-0.114-0.218-0.346-0.104-0.518c0.255-0.383,0.473-0.792,0.648-1.217c0.079-0.19,0.296-0.283,0.487-0.203
					c0.191,0.078,0.281,0.297,0.203,0.487c-0.194,0.469-0.434,0.922-0.716,1.346C339.772,40.16,339.654,40.218,339.533,40.218z
					 M326.516,38.964c-0.146,0-0.285-0.087-0.344-0.23c-0.196-0.47-0.345-0.961-0.444-1.459c-0.04-0.202,0.091-0.399,0.293-0.439
					c0.202-0.042,0.398,0.09,0.439,0.293c0.09,0.45,0.225,0.894,0.401,1.318c0.079,0.19-0.011,0.409-0.201,0.488
					C326.612,38.954,326.564,38.964,326.516,38.964z M340.633,37.547c-0.024,0-0.048-0.002-0.072-0.007
					c-0.202-0.04-0.334-0.236-0.295-0.438c0.086-0.442,0.13-0.897,0.13-1.351c0-0.206,0.167-0.384,0.373-0.384
					c0.206,0,0.373,0.155,0.373,0.362v0.023c0,0.502-0.048,1.005-0.144,1.494C340.964,37.424,340.808,37.547,340.633,37.547z
					 M325.951,36.128c-0.206,0-0.373-0.163-0.373-0.37v-0.007c0-0.507,0.05-1.015,0.147-1.51c0.04-0.203,0.236-0.337,0.438-0.294
					c0.202,0.039,0.334,0.236,0.294,0.438c-0.088,0.448-0.133,0.907-0.133,1.365C326.324,35.958,326.157,36.128,325.951,36.128z
					 M340.623,34.658c-0.174,0-0.33-0.122-0.366-0.3c-0.09-0.45-0.226-0.893-0.404-1.316c-0.08-0.19,0.01-0.409,0.2-0.488
					c0.19-0.079,0.409,0.009,0.488,0.2c0.197,0.469,0.347,0.96,0.448,1.458c0.04,0.202-0.09,0.399-0.292,0.44
					C340.672,34.656,340.648,34.658,340.623,34.658z M326.511,33.299c-0.048,0-0.096-0.009-0.143-0.028
					c-0.19-0.079-0.281-0.297-0.202-0.488c0.194-0.469,0.436-0.921,0.719-1.344c0.114-0.171,0.345-0.219,0.518-0.104
					c0.171,0.114,0.218,0.346,0.103,0.518c-0.255,0.383-0.474,0.792-0.65,1.216C326.796,33.212,326.657,33.299,326.511,33.299z
					 M339.509,31.994c-0.12,0-0.238-0.058-0.31-0.165c-0.256-0.38-0.551-0.738-0.878-1.063c-0.146-0.145-0.147-0.381-0.001-0.528
					c0.145-0.146,0.382-0.146,0.528-0.001c0.361,0.359,0.688,0.754,0.971,1.175c0.115,0.171,0.07,0.403-0.101,0.518
					C339.653,31.973,339.58,31.994,339.509,31.994z M328.116,30.895c-0.095,0-0.191-0.036-0.263-0.109
					c-0.146-0.145-0.146-0.381-0.001-0.528c0.359-0.36,0.755-0.686,1.175-0.969c0.171-0.115,0.403-0.07,0.518,0.101
					s0.07,0.403-0.101,0.518c-0.38,0.256-0.738,0.551-1.064,0.878C328.307,30.859,328.211,30.895,328.116,30.895z M337.46,29.956
					c-0.071,0-0.143-0.02-0.207-0.063c-0.384-0.256-0.793-0.474-1.216-0.649c-0.191-0.078-0.281-0.297-0.203-0.487
					c0.078-0.191,0.297-0.282,0.487-0.203c0.468,0.192,0.921,0.434,1.346,0.717c0.172,0.114,0.218,0.346,0.103,0.518
					C337.699,29.898,337.581,29.956,337.46,29.956z M330.513,29.284c-0.146,0-0.285-0.086-0.344-0.229
					c-0.079-0.19,0.01-0.409,0.2-0.488c0.469-0.196,0.959-0.346,1.459-0.446c0.2-0.043,0.399,0.09,0.439,0.293
					c0.04,0.202-0.09,0.399-0.293,0.439c-0.451,0.09-0.894,0.226-1.317,0.402C330.61,29.274,330.561,29.284,330.513,29.284z
					 M334.79,28.854c-0.024,0-0.048-0.002-0.073-0.007c-0.444-0.087-0.901-0.131-1.358-0.131c-0.206,0-0.38-0.167-0.38-0.373
					s0.16-0.373,0.366-0.373h0.014c0.506,0,1.012,0.049,1.503,0.146c0.202,0.039,0.334,0.235,0.294,0.438
					C335.121,28.731,334.965,28.854,334.79,28.854z"/>
			</g>
			<g>
				<path style="fill:#3C3C3B;" d="M427.352,67.101h-112.64c-0.618,0-1.12-0.502-1.12-1.12v-30.23c0-0.618,0.501-1.12,1.12-1.12
					c0.618,0,1.12,0.501,1.12,1.12v29.11h110.401V27.76c0-0.618,0.501-1.12,1.12-1.12c0.618,0,1.12,0.501,1.12,1.12v38.221
					C428.471,66.6,427.97,67.101,427.352,67.101z"/>
			</g>
			<g>
				<path style="fill:#3C3C3B;" d="M416.056,81.006h-15.344c-0.618,0-1.12-0.501-1.12-1.12s0.501-1.12,1.12-1.12h14.811
					l10.96-13.491c0.39-0.48,1.095-0.553,1.575-0.163c0.48,0.39,0.553,1.095,0.163,1.574l-11.296,13.905
					C416.712,80.854,416.393,81.006,416.056,81.006z"/>
			</g>
			<g>
				<path style="fill:#3C3C3B;" d="M352.008,81.006h-26c-0.337,0-0.656-0.152-0.869-0.414l-11.296-13.905
					c-0.39-0.48-0.317-1.185,0.163-1.574c0.48-0.39,1.185-0.317,1.575,0.163l10.96,13.491h25.467c0.618,0,1.12,0.502,1.12,1.12
					S352.626,81.006,352.008,81.006z"/>
			</g>
			<g>
				<path style="fill:#3C3C3B;" d="M416.056,161.513h-90.048c-0.618,0-1.12-0.501-1.12-1.12v-52.86c0-0.618,0.501-1.12,1.12-1.12
					c0.618,0,1.12,0.502,1.12,1.12v51.74h87.809v-51.74c0-0.618,0.501-1.12,1.12-1.12c0.618,0,1.12,0.502,1.12,1.12v52.86
					C417.176,161.012,416.675,161.513,416.056,161.513z"/>
			</g>
			<g>
				<path style="fill:#3C3C3B;" d="M346.627,23.768c-0.55,0-1.03-0.406-1.108-0.967c-0.085-0.612,0.343-1.178,0.956-1.262
					l29.047-4.011c0.609-0.078,1.178,0.344,1.262,0.956c0.085,0.612-0.343,1.178-0.956,1.262l-29.047,4.011
					C346.73,23.764,346.678,23.768,346.627,23.768z"/>
			</g>
			<g>
				<path style="fill:#3C3C3B;" d="M324.888,168.743v-8.369c0-0.618,0.501-1.12,1.12-1.12c0.618,0,1.12,0.502,1.12,1.12v8.369
					H324.888z"/>
			</g>
			<g>
				<path style="fill:#3C3C3B;" d="M352.104,168.743v-8.369c0-0.618,0.501-1.12,1.12-1.12s1.12,0.502,1.12,1.12v8.369H352.104z"/>
			</g>
			<g>
				<path style="fill:#3C3C3B;" d="M387.72,168.743v-8.369c0-0.618,0.501-1.12,1.12-1.12s1.12,0.502,1.12,1.12v8.369H387.72z"/>
			</g>
			<g>
				<path style="fill:#3C3C3B;" d="M414.936,168.743v-8.369c0-0.618,0.501-1.12,1.12-1.12c0.618,0,1.12,0.502,1.12,1.12v8.369
					H414.936z"/>
			</g>
			<g>
				<path style="fill:#3C3C3B;" d="M314.712,59.573h-6.804c-0.618,0-1.12-0.501-1.12-1.12V35.751c0-0.618,0.501-1.12,1.12-1.12
					h6.804c0.618,0,1.12,0.501,1.12,1.12s-0.501,1.12-1.12,1.12h-5.685v20.462h5.685c0.618,0,1.12,0.501,1.12,1.12
					S315.331,59.573,314.712,59.573z"/>
			</g>
			<g>
				<path style="fill:#3C3C3B;" d="M434.156,59.573h-6.804c-0.618,0-1.12-0.501-1.12-1.12s0.501-1.12,1.12-1.12h5.685V36.871h-5.685
					c-0.618,0-1.12-0.501-1.12-1.12s0.501-1.12,1.12-1.12h6.804c0.618,0,1.12,0.501,1.12,1.12v22.702
					C435.276,59.071,434.775,59.573,434.156,59.573z"/>
			</g>
			<g>
				<path style="fill:#3C3C3B;" d="M307.908,48.222h-23.02c-0.618,0-1.12-0.501-1.12-1.12c0-0.618,0.501-1.12,1.12-1.12h23.02
					c0.618,0,1.12,0.501,1.12,1.12C309.027,47.72,308.526,48.222,307.908,48.222z"/>
			</g>
			<g>
				<path style="fill:#3C3C3B;" d="M454.715,48.222h-20.559c-0.618,0-1.12-0.501-1.12-1.12c0-0.618,0.501-1.12,1.12-1.12h20.559
					c0.618,0,1.12,0.501,1.12,1.12C455.835,47.72,455.334,48.222,454.715,48.222z"/>
			</g>
			<g>
				<path style="fill:#3C3C3B;" d="M280.978,52.131c-2.773,0-5.028-2.256-5.028-5.029s2.256-5.029,5.028-5.029
					s5.029,2.256,5.029,5.029S283.751,52.131,280.978,52.131z M280.978,44.313c-1.538,0-2.789,1.252-2.789,2.79
					c0,1.538,1.251,2.79,2.789,2.79s2.79-1.252,2.79-2.79C283.768,45.564,282.516,44.313,280.978,44.313z"/>
			</g>
			<g>
				<path style="fill:#3C3C3B;" d="M458.624,52.131c-2.773,0-5.029-2.256-5.029-5.029s2.256-5.029,5.029-5.029
					s5.028,2.256,5.028,5.029S461.397,52.131,458.624,52.131z M458.624,44.313c-1.538,0-2.79,1.252-2.79,2.79
					c0,1.538,1.252,2.79,2.79,2.79s2.789-1.252,2.789-2.79C461.414,45.564,460.163,44.313,458.624,44.313z"/>
			</g>
			<g>
				<path style="fill:#3C3C3B;" d="M371.032,139.245c-10.534,0-19.104-8.571-19.104-19.105c0-4.764,1.771-9.329,4.986-12.857
					c0.139-0.153,0.374-0.164,0.527-0.024c0.152,0.138,0.163,0.375,0.024,0.527c-3.09,3.39-4.792,7.778-4.792,12.355
					c0,10.123,8.235,18.359,18.358,18.359c10.123,0,18.359-8.235,18.359-18.359c0-4.578-1.702-8.965-4.791-12.355
					c-0.139-0.152-0.128-0.389,0.024-0.527c0.153-0.138,0.389-0.128,0.527,0.024c3.215,3.527,4.986,8.094,4.986,12.857
					C390.137,130.674,381.566,139.245,371.032,139.245z"/>
			</g>
			<g>
				<path style="fill:#3C3C3B;" d="M353.225,166.326c-0.019,0-0.039-0.001-0.058-0.001l-27.216-1.386
					c-0.618-0.031-1.093-0.558-1.061-1.175c0.032-0.618,0.559-1.083,1.175-1.061l27.216,1.386c0.618,0.031,1.093,0.558,1.061,1.175
					C354.312,165.861,353.817,166.326,353.225,166.326z"/>
			</g>
			<g>
				<path style="fill:#3C3C3B;" d="M416.057,166.326c-0.019,0-0.038-0.001-0.058-0.001l-27.216-1.375
					c-0.617-0.031-1.093-0.557-1.062-1.174c0.031-0.618,0.558-1.086,1.175-1.062l27.216,1.375c0.617,0.031,1.093,0.557,1.062,1.174
					C417.144,165.861,416.649,166.326,416.057,166.326z"/>
			</g>
			<g>
				<path style="fill:#3C3C3B;" d="M326.106,168.657c-0.551,0-1.032-0.407-1.108-0.969c-0.083-0.613,0.346-1.177,0.959-1.26
					l19.881-2.7c0.609-0.091,1.177,0.346,1.26,0.959c0.083,0.613-0.346,1.177-0.959,1.26l-19.881,2.7
					C326.207,168.654,326.157,168.657,326.106,168.657z"/>
			</g>
			<g>
				<path style="fill:#3C3C3B;" d="M395.563,81.006h-8.701c-0.618,0-1.12-0.501-1.12-1.12s0.501-1.12,1.12-1.12h8.701
					c0.618,0,1.12,0.502,1.12,1.12S396.182,81.006,395.563,81.006z"/>
			</g>
			<g>
				<path style="fill:#3C3C3B;" d="M381.387,81.006h-4.293c-0.618,0-1.12-0.501-1.12-1.12s0.501-1.12,1.12-1.12h4.293
					c0.618,0,1.12,0.502,1.12,1.12S382.006,81.006,381.387,81.006z"/>
			</g>
			<g>
				<path style="fill:#3C3C3B;" d="M416.07,120.512c-0.009,0-0.019,0-0.029-0.001l-23.393-1.787
					c-0.206-0.016-0.359-0.195-0.344-0.401c0.016-0.206,0.186-0.367,0.401-0.344l23.393,1.787c0.206,0.016,0.359,0.195,0.344,0.401
					C416.427,120.363,416.263,120.512,416.07,120.512z"/>
			</g>
			<g>
				<path style="fill:#3C3C3B;" d="M416.055,113.635c-0.004,0-0.008,0-0.012,0l-89.947-2.865c-0.206-0.007-0.367-0.179-0.361-0.385
					c0.007-0.206,0.16-0.374,0.385-0.362l89.947,2.865c0.206,0.007,0.367,0.179,0.361,0.385
					C416.422,113.476,416.256,113.635,416.055,113.635z"/>
			</g>
			<g>
				<path style="fill:#3C3C3B;" d="M348.774,25.627c-0.191,0-0.354-0.145-0.371-0.339c-0.019-0.206,0.132-0.387,0.337-0.406
					l25.743-2.368c0.208-0.02,0.387,0.133,0.406,0.337c0.019,0.206-0.132,0.387-0.337,0.406l-25.743,2.368
					C348.797,25.626,348.786,25.627,348.774,25.627z"/>
			</g>
			<g>
				<path style="fill:#3C3C3B;" d="M423.306,71.335c-0.006,0-0.012,0-0.017-0.001l-108.594-4.981
					c-0.206-0.009-0.365-0.184-0.356-0.389c0.009-0.206,0.189-0.381,0.39-0.356l108.593,4.981c0.206,0.009,0.365,0.184,0.356,0.389
					C423.669,71.179,423.504,71.335,423.306,71.335z"/>
			</g>
			<g>
				<path style="fill:#3C3C3B;" d="M326.008,160.767c-0.194,0-0.358-0.15-0.372-0.347c-0.015-0.206,0.14-0.384,0.346-0.399
					l90.062-6.299c0.202-0.017,0.384,0.141,0.398,0.346c0.014,0.206-0.141,0.384-0.347,0.399l-90.062,6.299
					C326.025,160.767,326.016,160.767,326.008,160.767z"/>
			</g>
			<g>
				<g>
					<path style="fill:#3C3C3B;" d="M371.032,142.977c-12.592,0-22.837-10.244-22.837-22.836c0-4.08,1.064-8.011,3.094-11.487
						h-41.776c-0.618,0-1.12-0.501-1.12-1.12s0.501-1.12,1.12-1.12h79.205c0.362,0,0.701,0.175,0.911,0.469
						c2.774,3.884,4.24,8.469,4.24,13.258C393.869,132.733,383.624,142.977,371.032,142.977z M353.932,108.653
						c-2.29,3.4-3.497,7.359-3.497,11.487c0,11.357,9.24,20.597,20.598,20.597s20.598-9.24,20.598-20.597
						c0-4.128-1.208-8.087-3.498-11.487H353.932z"/>
				</g>
				<g>
					<path style="fill:#3C3C3B;" d="M288.332,170.982c-0.069,0-0.138-0.006-0.208-0.019c-0.608-0.114-1.008-0.7-0.894-1.307
						c6.108-32.549,18.845-62.966,37.858-90.408c0.352-0.507,1.049-0.633,1.558-0.283c0.508,0.353,0.635,1.05,0.282,1.558
						c-18.832,27.181-31.448,57.308-37.498,89.545C289.33,170.607,288.86,170.982,288.332,170.982z"/>
				</g>
				<g>
					<path style="fill:#3C3C3B;" d="M312.458,164.939c-0.087,0-0.175-0.009-0.262-0.031c-0.601-0.144-0.972-0.749-0.827-1.35
						c3.224-13.433,7.807-26.629,13.624-39.22c0.26-0.562,0.925-0.808,1.486-0.547c0.561,0.259,0.806,0.924,0.547,1.486
						c-5.754,12.458-10.289,25.514-13.479,38.803C313.422,164.594,312.963,164.939,312.458,164.939z"/>
				</g>
				<g>
					<path style="fill:#3C3C3B;" d="M349.906,115.46c-0.009,0-0.019,0-0.029-0.001l-23.897-1.824
						c-0.056-0.004-0.11-0.022-0.159-0.05c-3.696-2.148-7.575-4.068-11.53-5.707c-0.19-0.079-0.281-0.297-0.202-0.488
						c0.079-0.19,0.298-0.282,0.488-0.202c3.96,1.64,7.844,3.56,11.546,5.707l23.812,1.818c0.206,0.016,0.359,0.195,0.344,0.401
						C350.263,115.311,350.099,115.46,349.906,115.46z"/>
				</g>
				<g>
					<path style="fill:#3C3C3B;" d="M325.994,120.512c-0.062,0-0.125-0.015-0.183-0.048c-5.883-3.32-12.034-6.305-18.281-8.875
						c-0.191-0.079-0.282-0.297-0.203-0.488c0.078-0.19,0.296-0.281,0.487-0.203c6.276,2.582,12.455,5.581,18.364,8.915
						c0.18,0.101,0.243,0.329,0.142,0.509C326.251,120.444,326.124,120.512,325.994,120.512z"/>
				</g>
				<g>
					<path style="fill:#3C3C3B;" d="M325.251,127.582c-0.188,0-0.379-0.047-0.554-0.147c-6.424-3.664-13.141-6.969-19.964-9.824
						c-0.57-0.238-0.839-0.894-0.601-1.465c0.239-0.571,0.895-0.838,1.465-0.601c6.907,2.89,13.706,6.236,20.209,9.945
						c0.537,0.306,0.724,0.99,0.418,1.527C326.018,127.379,325.64,127.582,325.251,127.582z"/>
				</g>
				<g>
					<path style="fill:#3C3C3B;" d="M322.517,133.168c-0.061,0-0.122-0.015-0.179-0.046c-6.511-3.58-13.298-6.823-20.173-9.639
						c-0.191-0.078-0.282-0.296-0.204-0.487c0.079-0.191,0.297-0.281,0.487-0.204c6.901,2.827,13.714,6.083,20.249,9.676
						c0.181,0.1,0.247,0.327,0.147,0.507C322.776,133.098,322.648,133.168,322.517,133.168z"/>
				</g>
				<g>
					<path style="fill:#3C3C3B;" d="M320.783,137.507c-0.062,0-0.124-0.015-0.182-0.047l-19.697-11.02
						c-0.18-0.101-0.244-0.328-0.144-0.508c0.101-0.181,0.328-0.244,0.508-0.144l19.697,11.02c0.18,0.101,0.244,0.328,0.144,0.508
						C321.04,137.438,320.913,137.507,320.783,137.507z"/>
				</g>
				<g>
					<path style="fill:#3C3C3B;" d="M318.758,142.961c-0.069,0-0.139-0.019-0.202-0.059c-6.325-4.064-12.951-7.815-19.693-11.147
						c-0.185-0.091-0.261-0.315-0.169-0.5c0.091-0.184,0.315-0.26,0.5-0.169c6.767,3.344,13.417,7.108,19.765,11.188
						c0.173,0.112,0.223,0.343,0.112,0.516C319.001,142.901,318.881,142.961,318.758,142.961z"/>
				</g>
				<g>
					<path style="fill:#3C3C3B;" d="M317.051,148.708c-0.207,0-0.416-0.057-0.603-0.176c-6.327-4.051-12.97-7.746-19.745-10.981
						c-0.558-0.266-0.794-0.934-0.528-1.493c0.266-0.558,0.935-0.794,1.493-0.528c6.858,3.275,13.583,7.014,19.988,11.115
						c0.52,0.334,0.672,1.026,0.339,1.547C317.781,148.526,317.42,148.708,317.051,148.708z"/>
				</g>
				<g>
					<path style="fill:#3C3C3B;" d="M315.629,152.48c-0.057,0-0.115-0.013-0.169-0.041l-20.206-10.286
						c-0.184-0.093-0.257-0.318-0.164-0.501c0.093-0.184,0.319-0.257,0.502-0.163l20.206,10.286
						c0.184,0.093,0.257,0.318,0.163,0.501C315.897,152.406,315.765,152.48,315.629,152.48z"/>
				</g>
				<g>
					<path style="fill:#3C3C3B;" d="M314.235,157.302c-0.062,0-0.124-0.015-0.181-0.047c-6.584-3.673-13.412-7.098-20.297-10.179
						c-0.188-0.084-0.273-0.305-0.188-0.493c0.084-0.187,0.304-0.275,0.493-0.188c6.905,3.09,13.753,6.524,20.356,10.208
						c0.18,0.101,0.245,0.328,0.144,0.507C314.493,157.233,314.366,157.302,314.235,157.302z"/>
				</g>
				<g>
					<path style="fill:#3C3C3B;" d="M313.496,159.976c-0.048,0-0.097-0.009-0.144-0.029c-6.867-2.87-13.92-5.538-20.963-7.931
						c-0.195-0.066-0.3-0.278-0.234-0.474c0.066-0.195,0.278-0.297,0.473-0.233c7.059,2.398,14.128,5.073,21.011,7.95
						c0.19,0.079,0.28,0.298,0.2,0.488C313.78,159.89,313.641,159.976,313.496,159.976z"/>
				</g>
				<g>
					<path style="fill:#3C3C3B;" d="M312.139,164.939c-0.18,0-0.363-0.043-0.532-0.135l-19.99-10.824
						c-0.544-0.294-0.746-0.974-0.451-1.518c0.294-0.544,0.973-0.748,1.518-0.452l19.99,10.824c0.544,0.294,0.746,0.974,0.451,1.518
						C312.922,164.727,312.537,164.939,312.139,164.939z"/>
				</g>
				<g>
					<path style="fill:#3C3C3B;" d="M308.365,170.982h-20.034c-0.618,0-1.12-0.502-1.12-1.12c0-0.618,0.501-1.12,1.12-1.12h20.034
						c0.618,0,1.12,0.501,1.12,1.12C309.485,170.481,308.983,170.982,308.365,170.982z"/>
				</g>
				<g>
					<path style="fill:#3C3C3B;" d="M291.352,180.634c-2.283,0-4.141-1.857-4.141-4.141v-6.631c0-0.618,0.501-1.12,1.12-1.12
						c0.618,0,1.12,0.501,1.12,1.12v6.631c0,1.049,0.853,1.902,1.901,1.902c1.049,0,1.902-0.853,1.902-1.902v-6.631
						c0-0.618,0.501-1.12,1.12-1.12c0.618,0,1.12,0.501,1.12,1.12v6.631C295.493,178.777,293.635,180.634,291.352,180.634z"/>
				</g>
				<g>
					<path style="fill:#3C3C3B;" d="M294.373,172.851c-0.009,0-0.019,0-0.029-0.001l-6.042-0.461
						c-0.206-0.016-0.359-0.195-0.344-0.401c0.016-0.206,0.187-0.362,0.401-0.344l6.042,0.461c0.206,0.016,0.359,0.195,0.344,0.401
						C294.73,172.702,294.566,172.851,294.373,172.851z"/>
				</g>
				<g>
					<path style="fill:#3C3C3B;" d="M294.373,175.851c-0.003,0-0.006,0-0.009,0l-6.042-0.151c-0.206-0.005-0.369-0.176-0.364-0.383
						c0.005-0.206,0.151-0.374,0.383-0.364l6.042,0.151c0.206,0.005,0.369,0.176,0.364,0.383
						C294.741,175.69,294.575,175.851,294.373,175.851z"/>
				</g>
				<g>
					<g>
						<path style="fill:#3C3C3B;" d="M297.394,181.382c-2.283,0-4.141-1.857-4.141-4.141v-7.378c0-0.618,0.501-1.12,1.12-1.12
							c0.618,0,1.12,0.501,1.12,1.12v7.378c0,1.049,0.853,1.902,1.902,1.902s1.901-0.853,1.901-1.902v-7.378
							c0-0.618,0.501-1.12,1.12-1.12s1.12,0.501,1.12,1.12v7.378C301.535,179.524,299.677,181.382,297.394,181.382z"/>
					</g>
					<g>
						<path style="fill:#3C3C3B;" d="M300.416,173.611c-0.009,0-0.019,0-0.029-0.001l-6.042-0.461
							c-0.206-0.016-0.359-0.195-0.344-0.401c0.016-0.206,0.185-0.359,0.401-0.344l6.042,0.461c0.206,0.016,0.359,0.195,0.344,0.401
							C300.773,173.463,300.609,173.611,300.416,173.611z"/>
					</g>
					<g>
						<path style="fill:#3C3C3B;" d="M300.415,176.101c-0.003,0-0.006,0-0.009,0l-6.042-0.152c-0.206-0.005-0.369-0.176-0.364-0.383
							c0.005-0.206,0.151-0.367,0.383-0.364l6.042,0.152c0.206,0.005,0.369,0.176,0.364,0.383
							C300.783,175.94,300.617,176.101,300.415,176.101z"/>
					</g>
				</g>
				<g>
					<g>
						<path style="fill:#3C3C3B;" d="M307.359,188.852c-2.283,0-4.141-1.857-4.141-4.141v-14.848c0-0.618,0.501-1.12,1.12-1.12
							s1.12,0.501,1.12,1.12v14.848c0,1.049,0.853,1.902,1.902,1.902s1.901-0.853,1.901-1.902v-14.848c0-0.618,0.501-1.12,1.12-1.12
							c0.618,0,1.12,0.501,1.12,1.12v14.848C311.5,186.994,309.642,188.852,307.359,188.852z"/>
					</g>
					<g>
						<path style="fill:#3C3C3B;" d="M304.337,173.611c-0.193,0-0.357-0.149-0.372-0.345c-0.016-0.206,0.138-0.385,0.344-0.401
							l6.042-0.461c0.21-0.015,0.385,0.139,0.401,0.344c0.016,0.206-0.138,0.385-0.344,0.401l-6.042,0.461
							C304.356,173.611,304.347,173.611,304.337,173.611z"/>
					</g>
					<g>
						<path style="fill:#3C3C3B;" d="M304.338,176.101c-0.202,0-0.368-0.161-0.373-0.364c-0.005-0.206,0.158-0.378,0.364-0.383
							l6.042-0.152c0.003,0,0.007,0,0.009,0c0.202,0,0.368,0.161,0.373,0.364c0.005,0.206-0.158,0.378-0.364,0.383l-6.042,0.152
							C304.344,176.101,304.341,176.101,304.338,176.101z"/>
					</g>
					<g>
						<path style="fill:#3C3C3B;" d="M304.337,178.874c-0.193,0-0.357-0.149-0.372-0.345c-0.016-0.206,0.138-0.385,0.344-0.401
							l6.042-0.461c0.21-0.023,0.385,0.138,0.401,0.344c0.016,0.206-0.138,0.385-0.344,0.401l-6.042,0.461
							C304.356,178.874,304.347,178.874,304.337,178.874z"/>
					</g>
					<g>
						<path style="fill:#3C3C3B;" d="M304.338,181.363c-0.202,0-0.368-0.161-0.373-0.364c-0.005-0.206,0.158-0.378,0.364-0.383
							l6.042-0.151c0.003,0,0.007,0,0.009,0c0.202,0,0.368,0.161,0.373,0.364c0.005,0.206-0.158,0.378-0.364,0.383l-6.042,0.151
							C304.344,181.363,304.341,181.363,304.338,181.363z"/>
					</g>
					<g>
						<path style="fill:#3C3C3B;" d="M304.148,183.32c-0.202,0-0.368-0.161-0.373-0.364c-0.005-0.206,0.158-0.378,0.364-0.383
							l6.042-0.152c0.233,0.004,0.378,0.158,0.383,0.364c0.005,0.206-0.158,0.378-0.364,0.383l-6.042,0.152
							C304.154,183.32,304.151,183.32,304.148,183.32z"/>
					</g>
				</g>
				<g>
					<g>
						<path style="fill:#3C3C3B;" d="M316.142,170.982h-7.379c-0.618,0-1.12-0.502-1.12-1.12c0-0.618,0.501-1.12,1.12-1.12h7.379
							c1.049,0,1.901-0.853,1.901-1.902s-0.853-1.902-1.901-1.902h-3.685c-0.618,0-1.12-0.502-1.12-1.12
							c0-0.618,0.501-1.12,1.12-1.12h3.685c2.283,0,4.141,1.857,4.141,4.141C320.283,169.125,318.425,170.982,316.142,170.982z"/>
					</g>
				</g>
			</g>
			<g>
				<g>
					<path style="fill:#3C3C3B;" d="M453.732,170.982c-0.528,0-0.998-0.375-1.099-0.913c-6.049-32.235-18.665-62.363-37.497-89.545
						c-0.352-0.509-0.226-1.206,0.282-1.558c0.508-0.351,1.206-0.225,1.558,0.283c19.013,27.442,31.75,57.86,37.857,90.408
						c0.114,0.607-0.286,1.193-0.894,1.307C453.87,170.976,453.8,170.982,453.732,170.982z"/>
				</g>
				<g>
					<path style="fill:#3C3C3B;" d="M429.606,164.939c-0.506,0-0.964-0.345-1.088-0.859c-3.19-13.29-7.725-26.345-13.479-38.803
						c-0.259-0.561-0.014-1.227,0.547-1.486c0.562-0.261,1.226-0.015,1.486,0.547c5.816,12.591,10.4,25.787,13.624,39.22
						c0.144,0.601-0.226,1.206-0.827,1.35C429.781,164.929,429.693,164.939,429.606,164.939z"/>
				</g>
				<g>
					<path style="fill:#3C3C3B;" d="M392.158,115.46c-0.193,0-0.357-0.149-0.372-0.345c-0.016-0.206,0.138-0.385,0.344-0.401
						l23.812-1.818c3.703-2.147,7.587-4.067,11.546-5.707c0.19-0.079,0.409,0.012,0.488,0.202c0.079,0.19-0.012,0.409-0.202,0.488
						c-3.954,1.638-7.834,3.558-11.53,5.707c-0.049,0.028-0.103,0.045-0.159,0.05l-23.897,1.824
						C392.177,115.46,392.167,115.46,392.158,115.46z"/>
				</g>
				<g>
					<path style="fill:#3C3C3B;" d="M416.07,120.512c-0.13,0-0.257-0.069-0.325-0.19c-0.101-0.18-0.038-0.407,0.142-0.509
						c5.909-3.334,12.088-6.334,18.364-8.915c0.192-0.077,0.409,0.013,0.487,0.203c0.078,0.191-0.012,0.409-0.203,0.488
						c-6.248,2.569-12.399,5.555-18.281,8.875C416.195,120.497,416.132,120.512,416.07,120.512z"/>
				</g>
				<g>
					<path style="fill:#3C3C3B;" d="M416.813,127.582c-0.389,0-0.767-0.203-0.974-0.565c-0.306-0.537-0.119-1.221,0.418-1.527
						c6.502-3.709,13.301-7.055,20.209-9.945c0.571-0.238,1.226,0.031,1.465,0.601c0.239,0.571-0.03,1.226-0.601,1.465
						c-6.824,2.855-13.541,6.161-19.964,9.824C417.191,127.535,417.001,127.582,416.813,127.582z"/>
				</g>
				<g>
					<path style="fill:#3C3C3B;" d="M419.548,133.168c-0.132,0-0.259-0.07-0.327-0.193c-0.1-0.181-0.034-0.407,0.147-0.507
						c6.535-3.593,13.347-6.848,20.249-9.676c0.189-0.078,0.409,0.013,0.487,0.204c0.078,0.191-0.013,0.409-0.204,0.487
						c-6.875,2.817-13.662,6.06-20.172,9.639C419.67,133.153,419.608,133.168,419.548,133.168z"/>
				</g>
				<g>
					<path style="fill:#3C3C3B;" d="M421.282,137.507c-0.131,0-0.258-0.069-0.326-0.191c-0.101-0.18-0.036-0.407,0.144-0.508
						l19.696-11.02c0.18-0.1,0.408-0.036,0.508,0.144c0.101,0.18,0.036,0.407-0.144,0.508l-19.696,11.02
						C421.406,137.492,421.343,137.507,421.282,137.507z"/>
				</g>
				<g>
					<path style="fill:#3C3C3B;" d="M423.306,142.961c-0.123,0-0.243-0.061-0.314-0.171c-0.112-0.173-0.061-0.405,0.112-0.516
						c6.349-4.079,12.999-7.843,19.765-11.188c0.186-0.092,0.409-0.015,0.5,0.169c0.091,0.185,0.016,0.409-0.169,0.5
						c-6.742,3.332-13.367,7.082-19.693,11.147C423.445,142.943,423.375,142.961,423.306,142.961z"/>
				</g>
				<g>
					<path style="fill:#3C3C3B;" d="M425.013,148.708c-0.369,0-0.73-0.182-0.944-0.516c-0.333-0.52-0.182-1.213,0.339-1.547
						c6.406-4.102,13.131-7.841,19.988-11.115c0.557-0.267,1.227-0.03,1.493,0.528c0.266,0.558,0.03,1.227-0.528,1.493
						c-6.774,3.234-13.417,6.929-19.745,10.981C425.429,148.651,425.22,148.708,425.013,148.708z"/>
				</g>
				<g>
					<path style="fill:#3C3C3B;" d="M426.435,152.48c-0.136,0-0.267-0.074-0.333-0.204c-0.093-0.184-0.02-0.408,0.163-0.501
						l20.207-10.286c0.183-0.094,0.408-0.021,0.502,0.163c0.093,0.184,0.02,0.408-0.164,0.501l-20.206,10.286
						C426.549,152.467,426.491,152.48,426.435,152.48z"/>
				</g>
				<g>
					<path style="fill:#3C3C3B;" d="M427.83,157.302c-0.131,0-0.258-0.069-0.326-0.192c-0.101-0.179-0.036-0.407,0.144-0.507
						c6.602-3.683,13.45-7.118,20.356-10.208c0.19-0.087,0.409,0.001,0.493,0.188c0.084,0.188,0,0.409-0.188,0.493
						c-6.885,3.082-13.714,6.506-20.296,10.179C427.954,157.287,427.891,157.302,427.83,157.302z"/>
				</g>
				<g>
					<path style="fill:#3C3C3B;" d="M428.569,159.976c-0.146,0-0.285-0.086-0.344-0.23c-0.079-0.19,0.01-0.408,0.2-0.488
						c6.882-2.877,13.952-5.551,21.011-7.95c0.197-0.063,0.407,0.039,0.473,0.233c0.066,0.195-0.038,0.407-0.234,0.474
						c-7.043,2.392-14.096,5.061-20.963,7.931C428.666,159.967,428.617,159.976,428.569,159.976z"/>
				</g>
				<g>
					<path style="fill:#3C3C3B;" d="M429.925,164.939c-0.398,0-0.783-0.212-0.986-0.587c-0.294-0.544-0.093-1.223,0.451-1.518
						l19.99-10.824c0.544-0.295,1.223-0.093,1.518,0.452c0.294,0.544,0.093,1.223-0.451,1.518l-19.99,10.824
						C430.288,164.896,430.105,164.939,429.925,164.939z"/>
				</g>
				<g>
					<path style="fill:#3C3C3B;" d="M453.733,170.982h-20.034c-0.618,0-1.12-0.502-1.12-1.12c0-0.618,0.501-1.12,1.12-1.12h20.034
						c0.618,0,1.12,0.501,1.12,1.12C454.853,170.481,454.352,170.982,453.733,170.982z"/>
				</g>
				<g>
					<path style="fill:#3C3C3B;" d="M450.712,180.634c-2.283,0-4.141-1.857-4.141-4.141v-6.631c0-0.618,0.501-1.12,1.12-1.12
						c0.618,0,1.12,0.501,1.12,1.12v6.631c0,1.049,0.853,1.902,1.902,1.902s1.901-0.853,1.901-1.902v-6.631
						c0-0.618,0.501-1.12,1.12-1.12s1.12,0.501,1.12,1.12v6.631C454.853,178.777,452.995,180.634,450.712,180.634z"/>
				</g>
				<g>
					<path style="fill:#3C3C3B;" d="M447.691,172.851c-0.193,0-0.357-0.149-0.372-0.345c-0.016-0.206,0.138-0.385,0.344-0.401
						l6.042-0.461c0.21-0.018,0.385,0.138,0.401,0.344c0.016,0.206-0.138,0.385-0.344,0.401l-6.042,0.461
						C447.71,172.851,447.7,172.851,447.691,172.851z"/>
				</g>
				<g>
					<path style="fill:#3C3C3B;" d="M447.691,175.851c-0.202,0-0.368-0.161-0.373-0.364c-0.005-0.206,0.158-0.378,0.364-0.383
						l6.042-0.151c0.003,0,0.007,0,0.009,0c0.202,0,0.368,0.161,0.373,0.364c0.005,0.206-0.158,0.378-0.364,0.383l-6.042,0.151
						C447.697,175.851,447.694,175.851,447.691,175.851z"/>
				</g>
				<g>
					<g>
						<path style="fill:#3C3C3B;" d="M444.67,181.382c-2.283,0-4.141-1.857-4.141-4.141v-7.378c0-0.618,0.501-1.12,1.12-1.12
							s1.12,0.501,1.12,1.12v7.378c0,1.049,0.853,1.902,1.902,1.902s1.901-0.853,1.901-1.902v-7.378c0-0.618,0.501-1.12,1.12-1.12
							c0.618,0,1.12,0.501,1.12,1.12v7.378C448.811,179.524,446.953,181.382,444.67,181.382z"/>
					</g>
					<g>
						<path style="fill:#3C3C3B;" d="M441.648,173.611c-0.193,0-0.357-0.149-0.372-0.345c-0.016-0.206,0.138-0.385,0.344-0.401
							l6.042-0.461c0.211-0.015,0.385,0.139,0.401,0.344c0.016,0.206-0.138,0.385-0.344,0.401l-6.042,0.461
							C441.667,173.611,441.658,173.611,441.648,173.611z"/>
					</g>
					<g>
						<path style="fill:#3C3C3B;" d="M441.649,176.101c-0.202,0-0.368-0.161-0.373-0.364c-0.005-0.206,0.158-0.378,0.364-0.383
							l6.042-0.152c0.003,0,0.007,0,0.009,0c0.202,0,0.368,0.161,0.373,0.364c0.005,0.206-0.158,0.378-0.364,0.383l-6.042,0.152
							C441.655,176.101,441.651,176.101,441.649,176.101z"/>
					</g>
				</g>
				<g>
					<g>
						<path style="fill:#3C3C3B;" d="M434.705,181.382c-2.283,0-4.141-1.857-4.141-4.141v-7.378c0-0.618,0.501-1.12,1.12-1.12
							s1.12,0.501,1.12,1.12v7.378c0,1.049,0.853,1.902,1.902,1.902s1.901-0.853,1.901-1.902v-7.378c0-0.618,0.501-1.12,1.12-1.12
							s1.12,0.501,1.12,1.12v7.378C438.846,179.524,436.988,181.382,434.705,181.382z"/>
					</g>
					<g>
						<path style="fill:#3C3C3B;" d="M437.727,173.611c-0.009,0-0.019,0-0.029-0.001l-6.042-0.461
							c-0.206-0.016-0.359-0.195-0.344-0.401c0.016-0.206,0.187-0.359,0.401-0.344l6.042,0.461c0.206,0.016,0.359,0.195,0.344,0.401
							C438.083,173.463,437.92,173.611,437.727,173.611z"/>
					</g>
					<g>
						<path style="fill:#3C3C3B;" d="M437.726,176.101c-0.003,0-0.006,0-0.009,0l-6.042-0.152c-0.206-0.005-0.369-0.176-0.364-0.383
							c0.005-0.206,0.151-0.367,0.383-0.364l6.042,0.152c0.206,0.005,0.369,0.176,0.364,0.383
							C438.094,175.94,437.928,176.101,437.726,176.101z"/>
					</g>
				</g>
				<g>
					<g>
						<path style="fill:#3C3C3B;" d="M433.3,170.982h-7.379c-2.283,0-4.141-1.857-4.141-4.141c0-2.284,1.858-4.141,4.141-4.141
							h3.686c0.618,0,1.12,0.501,1.12,1.12c0,0.618-0.501,1.12-1.12,1.12h-3.686c-1.049,0-1.901,0.853-1.901,1.902
							s0.853,1.902,1.901,1.902h7.379c0.618,0,1.12,0.501,1.12,1.12C434.42,170.481,433.919,170.982,433.3,170.982z"/>
					</g>
				</g>
			</g>
			<g>
				<path style="fill:#3C3C3B;" d="M432.552,108.653h-43.834c-0.618,0-1.12-0.501-1.12-1.12s0.501-1.12,1.12-1.12h43.834
					c0.618,0,1.12,0.502,1.12,1.12S433.17,108.653,432.552,108.653z"/>
			</g>
		</g>
	</g>
	<g>
		<g>
			<path style="fill:#3C3C3B;" d="M329.384,235.921h-41.053c-0.618,0-1.12-0.502-1.12-1.12v-26.125c0-0.618,0.501-1.12,1.12-1.12
				h41.053c0.618,0,1.12,0.501,1.12,1.12v26.125C330.503,235.42,330.002,235.921,329.384,235.921z M289.45,233.682h38.814v-23.885
				H289.45V233.682z"/>
		</g>
		<g>
			<path style="fill:#3C3C3B;" d="M288.331,235.921c-0.319,0-0.635-0.135-0.856-0.397c-0.399-0.472-0.339-1.179,0.133-1.578
				l15.712-13.266c0.473-0.399,1.179-0.34,1.578,0.133c0.399,0.472,0.339,1.179-0.133,1.578l-15.712,13.266
				C288.843,235.834,288.586,235.921,288.331,235.921z"/>
		</g>
		<g>
			<path style="fill:#3C3C3B;" d="M329.383,235.921c-0.255,0-0.511-0.087-0.722-0.264l-15.712-13.266
				c-0.472-0.399-0.532-1.106-0.133-1.578c0.398-0.472,1.105-0.531,1.578-0.133l15.712,13.266c0.472,0.399,0.532,1.106,0.133,1.578
				C330.018,235.786,329.701,235.921,329.383,235.921z"/>
		</g>
		<g>
			<path style="fill:#3C3C3B;" d="M308.858,225.6c-1.015,0-2.029-0.339-2.857-1.016l-18.379-15.041
				c-0.479-0.392-0.549-1.097-0.157-1.576c0.391-0.478,1.097-0.549,1.576-0.157l18.379,15.041c0.832,0.682,2.04,0.684,2.871,0.003
				l18.384-15.044l1.418,1.733l-18.384,15.044C310.883,225.263,309.871,225.6,308.858,225.6z"/>
		</g>
	</g>
	<g>
		<g>
			<path style="fill:#3C3C3B;" d="M388.84,350.897c-0.618,0-1.12-0.501-1.12-1.12v-75.041c0-0.618,0.501-1.12,1.12-1.12
				s1.12,0.501,1.12,1.12v75.041C389.96,350.396,389.458,350.897,388.84,350.897z"/>
		</g>
		<g>
			<path style="fill:#3C3C3B;" d="M416.056,350.897c-0.618,0-1.12-0.501-1.12-1.12v-75.041c0-0.618,0.501-1.12,1.12-1.12
				c0.618,0,1.12,0.501,1.12,1.12v75.041C417.176,350.396,416.675,350.897,416.056,350.897z"/>
		</g>
		<g>
			<path style="fill:#3C3C3B;" d="M353.224,350.897c-0.618,0-1.12-0.501-1.12-1.12v-75.041c0-0.618,0.501-1.12,1.12-1.12
				s1.12,0.501,1.12,1.12v75.041C354.344,350.396,353.843,350.897,353.224,350.897z"/>
		</g>
		<g>
			<path style="fill:#3C3C3B;" d="M326.008,350.897c-0.618,0-1.12-0.501-1.12-1.12v-75.041c0-0.618,0.501-1.12,1.12-1.12
				c0.618,0,1.12,0.501,1.12,1.12v75.041C327.127,350.396,326.626,350.897,326.008,350.897z"/>
		</g>
		<g>
			<path style="fill:#FFE596;" d="M419.646,274.736h-98.154c-0.618,0-1.12-0.501-1.12-1.12s0.501-1.12,1.12-1.12h98.154
				c0.618,0,1.12,0.501,1.12,1.12S420.265,274.736,419.646,274.736z"/>
		</g>
		<g>
			<path style="fill:#3C3C3B;" d="M353.224,282.674c-0.001,0-0.002,0-0.003,0c-9.043-0.024-18.214-0.224-27.259-0.593
				c-0.618-0.026-1.098-0.547-1.073-1.165c0.025-0.617,0.553-1.093,1.164-1.073c9.017,0.368,18.159,0.567,27.174,0.591
				c0.618,0.001,1.118,0.504,1.117,1.123C354.342,282.175,353.841,282.674,353.224,282.674z"/>
		</g>
		<g>
			<path style="fill:#3C3C3B;" d="M326.008,291.818c-0.192,0-0.355-0.147-0.371-0.341c-0.018-0.205,0.134-0.386,0.339-0.404
				c9.052-0.786,18.203-1.839,27.195-3.132c0.207-0.023,0.393,0.112,0.423,0.316c0.029,0.204-0.112,0.394-0.316,0.423
				c-9.007,1.295-18.171,2.35-27.237,3.137C326.029,291.817,326.018,291.818,326.008,291.818z"/>
		</g>
		<g>
			<path style="fill:#3C3C3B;" d="M350.465,297.688c-8.157,0-16.379-0.278-24.482-0.827c-0.206-0.014-0.361-0.192-0.347-0.398
				c0.014-0.205,0.2-0.354,0.398-0.347c9,0.611,18.153,0.888,27.188,0.814c0.001,0,0.002,0,0.003,0c0.205,0,0.372,0.165,0.373,0.37
				c0.001,0.206-0.164,0.375-0.37,0.376C352.307,297.684,351.386,297.688,350.465,297.688z"/>
		</g>
		<g>
			<path style="fill:#3C3C3B;" d="M353.225,307.108c-0.014,0-0.028,0-0.042-0.001c-9.003-0.333-18.136-0.372-27.143-0.118
				c-0.612,0.044-1.133-0.468-1.151-1.088c-0.018-0.618,0.469-1.133,1.088-1.15c9.056-0.256,18.238-0.216,27.289,0.118
				c0.618,0.023,1.1,0.542,1.078,1.16C354.321,306.634,353.824,307.108,353.225,307.108z"/>
		</g>
		<g>
			<path style="fill:#3C3C3B;" d="M326.008,314.204c-0.183,0-0.343-0.135-0.369-0.321c-0.029-0.204,0.113-0.393,0.317-0.422
				c4.04-0.57,8.195-0.787,12.213-0.997c4.953-0.259,10.074-0.526,14.986-1.46c0.203-0.035,0.398,0.095,0.436,0.297
				c0.039,0.203-0.094,0.398-0.297,0.437c-4.961,0.943-10.108,1.212-15.086,1.472c-4.002,0.208-8.14,0.425-12.148,0.991
				C326.042,314.202,326.025,314.204,326.008,314.204z"/>
		</g>
		<g>
			<path style="fill:#3C3C3B;" d="M326.008,323.616c-0.182,0-0.342-0.133-0.369-0.319c-0.03-0.203,0.111-0.393,0.315-0.424
				l27.216-3.998c0.207-0.023,0.394,0.112,0.424,0.316c0.03,0.203-0.111,0.394-0.315,0.423l-27.216,3.998
				C326.044,323.615,326.025,323.616,326.008,323.616z"/>
		</g>
		<g>
			<path style="fill:#3C3C3B;" d="M353.225,332.739c-0.01,0-0.02,0-0.031-0.001l-27.217-0.731c-0.618-0.016-1.106-0.531-1.089-1.149
				c0.017-0.619,0.555-1.133,1.15-1.089l27.216,0.731c0.618,0.016,1.106,0.531,1.089,1.149
				C354.327,332.257,353.829,332.739,353.225,332.739z"/>
		</g>
		<g>
			<path style="fill:#3C3C3B;" d="M326.008,340.907c-0.206,0-0.373-0.167-0.373-0.372c0-0.206,0.167-0.374,0.373-0.374
				c9.044-0.012,18.187-0.538,27.174-1.564c0.203-0.026,0.39,0.124,0.413,0.329c0.024,0.205-0.124,0.39-0.328,0.413
				C344.251,340.368,335.08,340.895,326.008,340.907L326.008,340.907z"/>
		</g>
		<g>
			<path style="fill:#3C3C3B;" d="M388.84,280.135c-0.188,0-0.35-0.141-0.371-0.332c-0.022-0.206,0.126-0.389,0.331-0.412
				c9.018-0.985,18.183-1.66,27.242-2.01c0.196-0.001,0.379,0.152,0.387,0.359c0.008,0.206-0.153,0.38-0.359,0.388
				c-9.042,0.348-18.19,1.023-27.19,2.005C388.867,280.134,388.853,280.135,388.84,280.135z"/>
		</g>
		<g>
			<path style="fill:#3C3C3B;" d="M416.075,285.489c-0.027,0-0.054-0.001-0.082-0.003c-8.997-0.649-18.133-0.981-27.154-0.985
				c-0.618,0-1.12-0.501-1.119-1.12c0-0.618,0.501-1.119,1.12-1.119c0,0,0,0,0,0c9.075,0.004,18.264,0.337,27.314,0.991
				c0.617,0.044,1.081,0.581,1.036,1.198C417.148,285.039,416.657,285.489,416.075,285.489z"/>
		</g>
		<g>
			<path style="fill:#3C3C3B;" d="M391.353,293.168c-0.84,0-1.678-0.004-2.516-0.011c-0.206-0.002-0.372-0.171-0.37-0.377
				c0.002-0.206,0.178-0.369,0.376-0.37c9.029,0.084,18.172-0.274,27.175-1.054c0.207-0.017,0.386,0.134,0.404,0.34
				c0.018,0.206-0.134,0.386-0.34,0.404C407.891,292.809,399.584,293.168,391.353,293.168z"/>
		</g>
		<g>
			<path style="fill:#3C3C3B;" d="M388.84,310.776c-0.181,0-0.34-0.131-0.368-0.316c-0.032-0.203,0.108-0.394,0.311-0.426
				c8.992-1.408,18.161-2.401,27.251-2.95c0.209-0.016,0.383,0.144,0.395,0.35c0.012,0.206-0.144,0.383-0.35,0.395
				c-9.067,0.547-18.212,1.538-27.181,2.943C388.878,310.774,388.859,310.776,388.84,310.776z"/>
		</g>
		<g>
			<path style="fill:#3C3C3B;" d="M416.079,321.613c-0.004,0-0.007,0-0.01,0l-27.23-0.716c-0.206-0.006-0.369-0.177-0.363-0.383
				c0.005-0.207,0.203-0.372,0.383-0.364l27.23,0.716c0.206,0.006,0.368,0.177,0.363,0.383
				C416.447,321.453,416.281,321.613,416.079,321.613z"/>
		</g>
		<g>
			<path style="fill:#3C3C3B;" d="M388.792,332.159c-0.57,0-1.057-0.433-1.113-1.012c-0.059-0.616,0.391-1.163,1.007-1.222
				l27.171-2.624c0.614-0.065,1.163,0.391,1.222,1.007c0.059,0.616-0.391,1.163-1.007,1.222l-27.171,2.624
				C388.865,332.158,388.828,332.159,388.792,332.159z"/>
		</g>
		<g>
			<path style="fill:#3C3C3B;" d="M388.84,337.078c-0.194,0-0.358-0.149-0.372-0.346c-0.015-0.206,0.14-0.384,0.345-0.399
				c9.036-0.657,18.187-1.569,27.196-2.709c0.207-0.026,0.391,0.12,0.417,0.324s-0.119,0.391-0.323,0.417
				c-9.023,1.142-18.186,2.054-27.236,2.713C388.858,337.078,388.849,337.078,388.84,337.078z"/>
		</g>
		<g>
			<path style="fill:#3C3C3B;" d="M391.903,344.346c-1.019,0-2.036-0.007-3.052-0.023c-0.206-0.003-0.371-0.173-0.368-0.379
				c0.003-0.206,0.149-0.383,0.379-0.367c9.036,0.136,18.168-0.329,27.151-1.374c0.21-0.022,0.39,0.123,0.414,0.328
				c0.024,0.205-0.123,0.39-0.328,0.414C408.095,343.876,399.97,344.346,391.903,344.346z"/>
		</g>
	</g>
	<rect x="275.14" y="301.061" style="fill:#FFDB7C;" width="264.376" height="55.042"/>
</g>
<g>
	<path style="fill:#3C3C3B;" d="M598.567,303.927H1.433c-0.792,0-1.433-0.642-1.433-1.433s0.641-1.433,1.433-1.433h597.134
		c0.792,0,1.433,0.642,1.433,1.433S599.359,303.927,598.567,303.927z"/>
</g>
</svg>
