<!-- Generator: Adobe Illustrator 19.0.1, SVG Export Plug-In  -->
<svg version="1.1"
	 xmlns="http://www.w3.org/2000/svg" xmlns:xlink="http://www.w3.org/1999/xlink" xmlns:a="http://ns.adobe.com/AdobeSVGViewerExtensions/3.0/"
	 x="0px" y="0px" width="31.856px" height="36px" viewBox="0 0 31.856 36" style="enable-background:new 0 0 31.856 36;"
	 xml:space="preserve">
<defs>
</defs>
<path style="fill:#3C3C3B;" d="M30.597,7.977L17.468,0.354c-0.828-0.472-1.906-0.472-2.741,0L1.459,7.977
	C0.605,8.468,0,9.392,0,10.38v15.226c0,0.988,0.62,1.912,1.475,2.406l3.506,1.991c1.676,0.825,2.268,0.825,3.03,0.825
	c2.481,0,3.898-1.5,3.898-4.117V11.68c0-0.212-0.11-0.528-0.319-0.528H9.916c-0.212,0-0.687,0.316-0.687,0.528v15.032
	c0,1.16-1.049,2.314-3.01,1.334l-3.622-2.088c-0.126-0.068-0.215-0.206-0.215-0.352V10.38c0-0.144,0.165-0.288,0.292-0.361
	L15.9,2.409c0.124-0.07,0.305-0.07,0.428,0l13.065,7.608c0.125,0.075,0.081,0.215,0.081,0.363v15.226
	c0,0.145,0.054,0.287-0.069,0.357L16.28,33.577c-0.113,0.068-0.252,0.068-0.375,0l-3.366-2.009c-0.102-0.059-0.222-0.08-0.319-0.026
	c-0.937,0.531-1.109,0.601-1.988,0.906c-0.216,0.075-0.535,0.206,0.122,0.574l4.406,2.606C15.18,35.873,15.659,36,16.142,36
	c0.489,0,0.968-0.127,1.389-0.371l13.065-7.616c0.854-0.498,1.259-1.418,1.259-2.406V10.38C31.856,9.392,31.451,8.471,30.597,7.977z
	 M20.218,23.194c-3.491,0-4.26-0.963-4.516-2.699c-0.03-0.187-0.188-0.411-0.379-0.411h-1.706c-0.211,0-0.381,0.256-0.381,0.466
	c0,2.223,1.208,4.916,6.982,4.916c4.18,0,6.576-1.624,6.576-4.498c0-2.85-1.925-3.598-5.979-4.134
	c-4.097-0.542-4.513-0.815-4.513-1.775c0-0.791,0.352-1.847,3.386-1.847c2.711,0,3.71,0.582,4.121,2.409
	c0.035,0.172,0.192,0.295,0.369,0.295h1.713c0.105,0,0.206-0.043,0.28-0.118c0.071-0.081,0.109-0.183,0.1-0.291
	c-0.265-3.146-2.356-4.613-6.583-4.613c-3.761,0-6.004,1.588-6.004,4.25c0,2.887,2.232,3.685,5.842,4.042
	c4.318,0.423,4.654,1.055,4.654,1.904C24.181,22.565,22.996,23.194,20.218,23.194z"/>
</svg>
