<!-- Generator: Adobe Illustrator 19.0.1, SVG Export Plug-In  -->
<svg version="1.1"
	 xmlns="http://www.w3.org/2000/svg" xmlns:xlink="http://www.w3.org/1999/xlink" xmlns:a="http://ns.adobe.com/AdobeSVGViewerExtensions/3.0/"
	 x="0px" y="0px" width="170.887px" height="24.345px" viewBox="0 0 170.887 24.345"
	 style="enable-background:new 0 0 170.887 24.345;" xml:space="preserve">
<defs>
</defs>
<g>
	<path style="fill:#3C3C3B;" d="M12.038,24.345c-3.316,0-6.154-1.174-8.514-3.523C1.174,18.461,0,15.624,0,12.308
		c0-3.327,1.174-6.165,3.523-8.514c2.36-2.36,5.198-3.541,8.514-3.541c2.731,0,5.181,0.832,7.351,2.496
		c0.427,0.337,0.68,0.775,0.759,1.315c0.067,0.551-0.067,1.045-0.405,1.483s-0.775,0.691-1.315,0.759
		c-0.551,0.067-1.045-0.062-1.484-0.388c-1.438-1.113-3.074-1.669-4.906-1.669c-2.214,0-4.108,0.787-5.682,2.36
		c-1.574,1.574-2.36,3.473-2.36,5.699c0,2.214,0.787,4.108,2.36,5.682c1.573,1.574,3.467,2.36,5.682,2.36
		c2.09,0,3.9-0.697,5.429-2.091c0.404-0.371,0.882-0.545,1.433-0.522c0.55,0.022,1.011,0.242,1.382,0.658
		c0.371,0.404,0.545,0.882,0.522,1.433c-0.022,0.551-0.236,1.012-0.641,1.383C17.859,23.3,15.15,24.345,12.038,24.345z"/>
	<path style="fill:#3C3C3B;" d="M28.458,24.345c-0.551,0-1.018-0.196-1.399-0.59c-0.394-0.382-0.59-0.849-0.59-1.399V2.243
		c0-0.551,0.196-1.017,0.59-1.399c0.382-0.394,0.849-0.59,1.399-0.59s1.017,0.197,1.399,0.59c0.393,0.382,0.59,0.849,0.59,1.399
		v20.113c0,0.551-0.197,1.017-0.59,1.399C29.476,24.149,29.009,24.345,28.458,24.345z"/>
	<path style="fill:#3C3C3B;" d="M60.272,0.169c0.427,0.124,0.775,0.365,1.045,0.725c0.27,0.349,0.405,0.748,0.405,1.197v20.265
		c0,0.551-0.191,1.017-0.573,1.399c-0.394,0.394-0.866,0.59-1.416,0.59c-0.551,0-1.023-0.196-1.417-0.59
		c-0.382-0.382-0.573-0.849-0.573-1.399V9.239l-6.289,10.385v0.017l-0.017,0.017l-0.017,0.017l-0.017,0.017
		c-0.034,0.057-0.056,0.096-0.067,0.118l-0.051,0.067c-0.045,0.045-0.073,0.073-0.084,0.084c-0.012,0.011-0.034,0.034-0.067,0.067
		c-0.034,0.034-0.057,0.056-0.068,0.067c-0.022,0.022-0.056,0.051-0.101,0.084l-0.05,0.05c-0.034,0.023-0.073,0.045-0.118,0.067
		c0,0.011-0.006,0.017-0.017,0.017l-0.017,0.017h-0.017c-0.022,0.023-0.062,0.045-0.118,0.067c-0.045,0.023-0.062,0.034-0.051,0.034
		c-0.011,0-0.045,0.012-0.101,0.034c-0.259,0.112-0.528,0.163-0.809,0.151h-0.034c0.022,0,0-0.005-0.068-0.017
		c-0.146-0.011-0.292-0.04-0.438-0.084c-0.057-0.011-0.079-0.017-0.067-0.017c0.022,0.011,0,0.005-0.068-0.017
		c-0.056-0.022-0.095-0.039-0.118-0.051c0.011,0,0-0.011-0.034-0.034c-0.057-0.022-0.101-0.044-0.135-0.067H48.69l-0.017-0.017
		l-0.017-0.017c-0.045-0.022-0.084-0.05-0.118-0.084c0,0.011-0.017,0-0.05-0.034c-0.045-0.034-0.079-0.062-0.102-0.084
		c-0.011-0.011-0.034-0.034-0.067-0.067s-0.056-0.056-0.067-0.067c-0.011-0.022-0.04-0.051-0.084-0.084
		c-0.023-0.034-0.034-0.056-0.034-0.067c-0.023-0.022-0.051-0.062-0.084-0.118l-0.017-0.017c0-0.011-0.006-0.017-0.017-0.017v-0.017
		c0-0.011-0.006-0.017-0.017-0.017L41.727,9.239v13.117c0,0.551-0.197,1.017-0.59,1.399c-0.394,0.394-0.865,0.59-1.416,0.59
		s-1.018-0.196-1.399-0.59c-0.394-0.382-0.59-0.849-0.59-1.399V2.091c0-0.449,0.135-0.849,0.404-1.197
		c0.27-0.359,0.624-0.601,1.062-0.725c0.427-0.112,0.848-0.09,1.264,0.067c0.416,0.168,0.742,0.444,0.978,0.826l8.295,13.707
		L58.03,1.062c0.225-0.382,0.545-0.658,0.961-0.826C59.407,0.079,59.615,0,59.615,0S59.834,0.057,60.272,0.169z"/>
	<path style="fill:#3C3C3B;" d="M79.593,24.345c-3.338,0-6.188-1.186-8.547-3.557c-2.372-2.36-3.558-5.21-3.558-8.548
		c0-3.338,1.186-6.193,3.558-8.564c2.36-2.36,5.209-3.541,8.547-3.541c3.338,0,6.193,1.18,8.565,3.541
		c2.36,2.372,3.54,5.226,3.54,8.564c0,3.338-1.18,6.188-3.54,8.548C85.786,23.16,82.931,24.345,79.593,24.345z M79.593,4.114
		c-2.237,0-4.147,0.792-5.732,2.377c-1.596,1.596-2.394,3.512-2.394,5.749s0.798,4.147,2.394,5.732
		c1.584,1.596,3.495,2.394,5.732,2.394s4.153-0.798,5.749-2.394c1.585-1.584,2.377-3.495,2.377-5.732s-0.792-4.153-2.377-5.749
		C83.746,4.906,81.83,4.114,79.593,4.114z"/>
	<path style="fill:#3C3C3B;" d="M113.784,23.586h-0.017V23.57L101.645,7.975v14.381c0,0.551-0.197,1.017-0.59,1.399
		c-0.382,0.394-0.849,0.59-1.399,0.59s-1.018-0.196-1.399-0.59c-0.394-0.382-0.59-0.849-0.59-1.399V2.158
		c0-0.427,0.124-0.809,0.371-1.146c0.247-0.348,0.573-0.59,0.978-0.725c0.393-0.146,0.798-0.157,1.214-0.034
		c0.405,0.124,0.736,0.354,0.995,0.691l12.122,15.612V2.158c0-0.551,0.191-1.017,0.573-1.399c0.393-0.393,0.865-0.59,1.416-0.59
		s1.017,0.197,1.399,0.59c0.393,0.382,0.59,0.849,0.59,1.399V22.39c0,0.022-0.005,0.056-0.017,0.101c0,0.045,0,0.073,0,0.084
		c0,0.022-0.006,0.056-0.017,0.101c0,0.045-0.005,0.079-0.017,0.101l-0.017,0.084c-0.011,0.056-0.022,0.09-0.034,0.101
		c0,0.011-0.011,0.04-0.034,0.084c-0.011,0.045-0.022,0.079-0.034,0.102l-0.034,0.084l-0.05,0.084
		c-0.012,0.022-0.028,0.056-0.051,0.101l-0.051,0.051c-0.011,0.022-0.034,0.056-0.067,0.101l-0.05,0.067
		c-0.012,0.011-0.034,0.034-0.067,0.067c-0.034,0.045-0.057,0.067-0.068,0.067c0,0.011-0.022,0.034-0.067,0.067
		c-0.034,0.034-0.062,0.057-0.084,0.067c0.034-0.022,0.028-0.017-0.017,0.017l-0.017,0.017c-0.09,0.067-0.175,0.124-0.253,0.169
		h-0.017c-0.09,0.045-0.18,0.084-0.27,0.118c-0.045,0.023-0.057,0.028-0.034,0.017c-0.09,0.034-0.186,0.056-0.287,0.067
		l-0.051,0.017c-0.101,0.012-0.197,0.017-0.287,0.017c-0.067,0-0.141-0.005-0.219-0.017c0.022,0.012,0.011,0.012-0.034,0
		c-0.067-0.011-0.124-0.022-0.168-0.034c0.011,0.012-0.011,0.006-0.067-0.017c-0.057-0.011-0.101-0.022-0.135-0.034
		c-0.012,0-0.034-0.011-0.068-0.034c-0.056-0.011-0.101-0.028-0.135-0.051c-0.022,0-0.045-0.011-0.067-0.034
		c-0.045-0.022-0.084-0.039-0.118-0.05c-0.034-0.022-0.056-0.04-0.067-0.051c-0.034-0.022-0.073-0.051-0.118-0.084
		c-0.034-0.022-0.057-0.039-0.067-0.05c-0.057-0.045-0.107-0.09-0.152-0.135l-0.017-0.017v-0.017
		c-0.045-0.044-0.067-0.067-0.067-0.067S113.818,23.631,113.784,23.586z"/>
	<path style="fill:#3C3C3B;" d="M127.221,20.265c0.551,0,1.018,0.191,1.399,0.573c0.394,0.382,0.59,0.849,0.59,1.399
		s-0.197,1.018-0.59,1.399c-0.382,0.382-0.849,0.573-1.399,0.573c-0.539,0-1.006-0.191-1.399-0.573
		c-0.382-0.382-0.573-0.849-0.573-1.399s0.191-1.017,0.573-1.399C126.215,20.457,126.682,20.265,127.221,20.265z"/>
	<path style="fill:#3C3C3B;" d="M138.955,24.345c-0.551,0-1.018-0.196-1.399-0.59c-0.394-0.382-0.59-0.849-0.59-1.399V2.243
		c0-0.551,0.196-1.017,0.59-1.399c0.382-0.394,0.849-0.59,1.399-0.59s1.017,0.197,1.399,0.59c0.393,0.382,0.59,0.849,0.59,1.399
		v20.113c0,0.551-0.197,1.017-0.59,1.399C139.972,24.149,139.506,24.345,138.955,24.345z"/>
	<path style="fill:#3C3C3B;" d="M158.782,24.345c-3.338,0-6.188-1.186-8.547-3.557c-2.372-2.36-3.558-5.21-3.558-8.548
		c0-3.338,1.186-6.193,3.558-8.564c2.36-2.36,5.209-3.541,8.547-3.541c3.338,0,6.193,1.18,8.565,3.541
		c2.36,2.372,3.54,5.226,3.54,8.564c0,3.338-1.18,6.188-3.54,8.548C164.975,23.16,162.12,24.345,158.782,24.345z M158.782,4.114
		c-2.237,0-4.147,0.792-5.732,2.377c-1.596,1.596-2.394,3.512-2.394,5.749s0.798,4.147,2.394,5.732
		c1.584,1.596,3.495,2.394,5.732,2.394s4.153-0.798,5.749-2.394c1.585-1.584,2.377-3.495,2.377-5.732s-0.792-4.153-2.377-5.749
		C162.935,4.906,161.019,4.114,158.782,4.114z"/>
</g>
</svg>
