<!-- Generator: Adobe Illustrator 19.0.1, SVG Export Plug-In  -->
<svg version="1.1"
	 xmlns="http://www.w3.org/2000/svg" xmlns:xlink="http://www.w3.org/1999/xlink" xmlns:a="http://ns.adobe.com/AdobeSVGViewerExtensions/3.0/"
	 x="0px" y="0px" width="117.194px" height="145.934px" viewBox="0 0 117.194 145.934"
	 style="enable-background:new 0 0 117.194 145.934;" xml:space="preserve">
<defs>
</defs>
<g>
	<path style="fill:#FED061;" d="M117.185,143.598c-0.003-0.082-0.012-0.163-0.025-0.245c-0.01-0.07-0.022-0.139-0.038-0.207
		c-0.017-0.069-0.04-0.136-0.063-0.204c-0.027-0.077-0.056-0.152-0.091-0.225c-0.013-0.027-0.019-0.055-0.033-0.081
		c-15.812-30.065-27.89-61.806-36.007-94.554l11.141-3.201c2.136-0.614,3.906-2.023,4.983-3.968
		c1.076-1.945,1.331-4.192,0.717-6.328c-0.614-2.136-2.023-3.906-3.968-4.983c-1.944-1.076-4.193-1.329-6.328-0.717l-9.729,2.796
		V8.321C77.743,3.733,74.01,0,69.421,0C64.834,0,61.1,3.733,61.1,8.321v22.896H43.506l-3.993-20.741
		c-0.42-2.183-1.666-4.072-3.506-5.318c-1.84-1.245-4.053-1.698-6.239-1.281c-4.505,0.868-7.465,5.239-6.598,9.745l3.902,20.271
		c0.067,0.349,0.217,0.657,0.417,0.922c2.282,12.026,5.037,23.956,8.251,35.761c0.015,0.063,0.022,0.126,0.044,0.189
		c0.004,0.013,0.014,0.022,0.019,0.035c2.767,10.142,5.879,20.188,9.319,30.122c0.036,0.162,0.087,0.322,0.161,0.478
		c0.002,0.005,0.006,0.008,0.008,0.013c4.704,13.533,10.027,26.851,15.954,39.907c0.012,0.032,0.016,0.065,0.029,0.096
		c0.014,0.035,0.041,0.059,0.056,0.093c0.472,1.039,0.936,2.083,1.416,3.119c0.01,0.022,0.028,0.038,0.039,0.059
		c0.076,0.151,0.168,0.29,0.274,0.419c0.03,0.036,0.057,0.074,0.089,0.108c0.126,0.135,0.265,0.255,0.42,0.355
		c0.032,0.02,0.065,0.034,0.098,0.053c0.132,0.077,0.272,0.139,0.42,0.188c0.048,0.016,0.094,0.032,0.143,0.044
		c0.175,0.045,0.355,0.076,0.544,0.077c0.005,0,0.011,0.002,0.016,0.002c0.002,0,0.004-0.001,0.007-0.001h50.144
		c0.002,0,0.004,0.001,0.005,0.001c0.016,0,0.032-0.005,0.049-0.006c0.152-0.003,0.301-0.021,0.444-0.053
		c0.047-0.011,0.092-0.029,0.139-0.043c0.119-0.035,0.234-0.077,0.345-0.131c0.023-0.011,0.047-0.014,0.069-0.026
		c0.034-0.018,0.062-0.043,0.094-0.063c0.07-0.041,0.137-0.085,0.201-0.133c0.057-0.043,0.111-0.087,0.163-0.135
		c0.054-0.049,0.105-0.1,0.154-0.154c0.05-0.055,0.096-0.111,0.14-0.17c0.043-0.057,0.082-0.116,0.119-0.177
		c0.038-0.062,0.072-0.125,0.103-0.191c0.031-0.065,0.059-0.131,0.084-0.2c0.025-0.069,0.047-0.139,0.065-0.21
		c0.017-0.067,0.032-0.135,0.043-0.205c0.013-0.081,0.02-0.161,0.025-0.243c0.002-0.037,0.011-0.073,0.011-0.111
		C117.194,143.654,117.186,143.626,117.185,143.598z"/>
	<path style="fill:#FFE596;" d="M94.167,143.598c-0.003-0.082-0.012-0.163-0.025-0.245c-0.01-0.07-0.022-0.139-0.038-0.207
		c-0.017-0.069-0.04-0.136-0.063-0.204c-0.027-0.077-0.056-0.152-0.091-0.225c-0.013-0.027-0.019-0.055-0.033-0.081
		c-15.812-30.065-27.89-61.806-36.007-94.554l11.141-3.201c2.136-0.614,3.906-2.023,4.983-3.968
		c1.076-1.945,1.331-4.192,0.717-6.328c-0.614-2.136-2.023-3.906-3.968-4.983c-1.944-1.076-4.193-1.329-6.328-0.717l-9.729,2.796
		V8.321C54.725,3.733,50.992,0,46.403,0c-4.588,0-8.321,3.733-8.321,8.321v22.896H20.487l-3.993-20.741
		c-0.42-2.183-1.666-4.072-3.506-5.318c-1.84-1.245-4.053-1.698-6.239-1.281c-4.505,0.868-7.465,5.239-6.598,9.745l3.902,20.271
		C4.12,34.242,4.27,34.55,4.47,34.815c2.282,12.026,5.037,23.956,8.251,35.761c0.015,0.063,0.022,0.126,0.044,0.189
		c0.004,0.013,0.014,0.022,0.019,0.035c2.767,10.142,5.879,20.188,9.319,30.122c0.036,0.162,0.087,0.322,0.161,0.478
		c0.002,0.005,0.006,0.008,0.008,0.013c4.704,13.533,10.027,26.851,15.954,39.907c0.012,0.032,0.016,0.065,0.029,0.096
		c0.014,0.035,0.041,0.059,0.056,0.093c0.472,1.039,0.936,2.083,1.416,3.119c0.01,0.022,0.028,0.038,0.039,0.059
		c0.076,0.151,0.168,0.29,0.274,0.419c0.03,0.036,0.057,0.074,0.089,0.108c0.126,0.135,0.265,0.255,0.42,0.355
		c0.032,0.02,0.065,0.034,0.098,0.053c0.132,0.077,0.272,0.139,0.42,0.188c0.048,0.016,0.094,0.032,0.143,0.044
		c0.175,0.045,0.355,0.076,0.544,0.077c0.005,0,0.011,0.002,0.016,0.002c0.002,0,0.004-0.001,0.007-0.001h50.144
		c0.002,0,0.004,0.001,0.005,0.001c0.016,0,0.032-0.005,0.049-0.006c0.152-0.003,0.301-0.021,0.444-0.053
		c0.047-0.011,0.092-0.029,0.139-0.043c0.119-0.035,0.234-0.077,0.345-0.131c0.023-0.011,0.047-0.014,0.069-0.026
		c0.034-0.018,0.062-0.043,0.094-0.063c0.07-0.041,0.137-0.085,0.201-0.133c0.057-0.043,0.111-0.087,0.163-0.135
		c0.054-0.049,0.105-0.1,0.154-0.154c0.05-0.055,0.096-0.111,0.14-0.17c0.043-0.057,0.082-0.116,0.119-0.177
		c0.038-0.062,0.072-0.125,0.103-0.191c0.031-0.065,0.059-0.131,0.084-0.2c0.025-0.069,0.047-0.139,0.065-0.21
		c0.017-0.067,0.032-0.135,0.043-0.205c0.013-0.081,0.02-0.161,0.025-0.243c0.002-0.037,0.011-0.073,0.011-0.111
		C94.175,143.654,94.168,143.626,94.167,143.598z"/>
	<g>
		<g>
			<g>
				<path style="fill:#3C3C3B;" d="M41.771,145.934c-0.85,0-1.663-0.483-2.043-1.305C23.381,109.345,11.457,72.084,4.288,33.883
					c-0.229-1.222,0.575-2.397,1.796-2.626c1.232-0.227,2.397,0.576,2.626,1.796c7.101,37.835,18.91,74.739,35.101,109.685
					c0.523,1.127,0.032,2.465-1.096,2.987C42.409,145.866,42.088,145.934,41.771,145.934z"/>
			</g>
			<g>
				<path style="fill:#3C3C3B;" d="M91.928,145.934c-0.809,0-1.591-0.438-1.994-1.203C71.513,109.702,58.095,72.423,50.056,33.927
					c-0.254-1.217,0.526-2.408,1.742-2.662c1.222-0.252,2.409,0.527,2.662,1.742c7.954,38.087,21.229,74.971,39.456,109.628
					c0.579,1.1,0.156,2.46-0.944,3.039C92.639,145.85,92.281,145.934,91.928,145.934z"/>
			</g>
			<g>
				<path style="fill:#3C3C3B;" d="M62.428,144.433c-0.28,0-0.549-0.157-0.677-0.426c-0.179-0.374-0.021-0.821,0.353-1
					c7.871-3.768,15.686-7.898,23.226-12.275c0.361-0.207,0.819-0.084,1.025,0.272c0.208,0.358,0.086,0.817-0.272,1.025
					c-7.575,4.397-15.424,8.545-23.331,12.331C62.647,144.409,62.537,144.433,62.428,144.433z"/>
			</g>
			<g>
				<path style="fill:#3C3C3B;" d="M40.333,142.799c-0.88,0-1.715-0.519-2.076-1.382c-0.48-1.146,0.061-2.465,1.207-2.944
					c13.712-5.737,27.209-12.379,40.119-19.742c1.077-0.618,2.453-0.241,3.069,0.839c0.616,1.08,0.24,2.454-0.839,3.069
					c-13.069,7.454-26.732,14.177-40.611,19.986C40.917,142.742,40.622,142.799,40.333,142.799z"/>
			</g>
			<g>
				<path style="fill:#3C3C3B;" d="M34.585,128.117c-0.295,0-0.575-0.175-0.694-0.466c-0.157-0.383,0.026-0.821,0.41-0.979
					c13.818-5.661,27.457-12.178,40.539-19.371c0.362-0.198,0.82-0.067,1.018,0.296c0.2,0.363,0.067,0.819-0.296,1.018
					c-13.131,7.22-26.822,13.763-40.693,19.446C34.776,128.1,34.68,128.117,34.585,128.117z"/>
			</g>
			<g>
				<path style="fill:#3C3C3B;" d="M32.134,122.134c-0.263,0-0.518-0.138-0.656-0.384c-0.202-0.362-0.073-0.819,0.289-1.021
					l39.582-22.146c0.362-0.201,0.818-0.073,1.021,0.289c0.202,0.362,0.073,0.818-0.289,1.021L32.5,122.039
					C32.384,122.104,32.258,122.134,32.134,122.134z"/>
			</g>
			<g>
				<path style="fill:#3C3C3B;" d="M28.001,111.469c-0.277,0-0.543-0.153-0.673-0.417c-0.184-0.371-0.031-0.821,0.34-1.005
					c13.547-6.695,26.862-14.232,39.573-22.4c0.349-0.226,0.812-0.123,1.036,0.225c0.224,0.349,0.123,0.813-0.225,1.036
					c-12.76,8.199-26.123,15.763-39.72,22.483C28.226,111.444,28.112,111.469,28.001,111.469z"/>
			</g>
			<g>
				<path style="fill:#3C3C3B;" d="M24.296,102.682c-0.84,0-1.646-0.472-2.032-1.281c-0.535-1.121-0.061-2.465,1.061-3
					c13.619-6.502,26.969-13.928,39.68-22.068c1.047-0.669,2.439-0.365,3.108,0.681c0.67,1.047,0.365,2.438-0.681,3.108
					c-12.868,8.24-26.382,15.757-40.167,22.339C24.952,102.611,24.622,102.682,24.296,102.682z"/>
			</g>
			<g>
				<path style="fill:#3C3C3B;" d="M20.754,90.569c-0.273,0-0.537-0.149-0.669-0.409c-0.188-0.369-0.041-0.821,0.328-1.009
					l40.606-20.671c0.369-0.186,0.822-0.041,1.009,0.328s0.041,0.821-0.328,1.009L21.094,90.488
					C20.985,90.543,20.869,90.569,20.754,90.569z"/>
			</g>
			<g>
				<path style="fill:#3C3C3B;" d="M17.71,80.693c-0.287,0-0.56-0.165-0.686-0.444c-0.169-0.378,0.001-0.822,0.379-0.991
					c13.832-6.19,27.555-13.072,40.788-20.455c0.363-0.202,0.82-0.072,1.02,0.289c0.202,0.362,0.073,0.819-0.289,1.02
					C45.651,67.518,31.888,74.42,18.016,80.628C17.916,80.672,17.812,80.693,17.71,80.693z"/>
			</g>
			<g>
				<path style="fill:#3C3C3B;" d="M14.896,72.292c-0.938,0-1.812-0.59-2.131-1.527c-0.399-1.176,0.23-2.454,1.407-2.854
					c14.122-4.797,28.263-10.147,42.031-15.901c1.146-0.48,2.465,0.062,2.944,1.208c0.48,1.147-0.062,2.465-1.208,2.944
					c-13.863,5.794-28.101,11.18-42.319,16.011C15.38,72.253,15.135,72.292,14.896,72.292z"/>
			</g>
			<g>
				<path style="fill:#3C3C3B;" d="M52.259,35.717H6.499c-1.243,0-2.25-1.007-2.25-2.25s1.007-2.25,2.25-2.25h45.76
					c1.243,0,2.25,1.007,2.25,2.25S53.502,35.717,52.259,35.717z"/>
			</g>
			<g>
				<g>
					<path style="fill:#3C3C3B;" d="M25.383,52.997c-4.129,0-7.722-3.083-8.25-7.285L15.63,33.748
						c-0.155-1.233,0.719-2.358,1.952-2.513c1.233-0.148,2.358,0.719,2.513,1.952l1.504,11.964c0.263,2.091,2.188,3.579,4.268,3.315
						c2.09-0.263,3.578-2.177,3.316-4.268l-1.313-10.45c-0.155-1.233,0.719-2.358,1.952-2.513c1.231-0.148,2.358,0.719,2.513,1.952
						l1.313,10.45c0.571,4.553-2.667,8.722-7.219,9.294C26.076,52.975,25.728,52.997,25.383,52.997z"/>
				</g>
				<g>
					<path style="fill:#3C3C3B;" d="M17.861,38.205c-0.388,0-0.717-0.3-0.747-0.693c-0.031-0.413,0.278-0.773,0.691-0.805
						l12.142-0.927c0.421-0.04,0.773,0.278,0.805,0.691c0.031,0.413-0.278,0.773-0.691,0.805l-12.142,0.927
						C17.899,38.204,17.88,38.205,17.861,38.205z"/>
				</g>
				<g>
					<path style="fill:#3C3C3B;" d="M17.862,44.235c-0.406,0-0.74-0.324-0.75-0.731c-0.01-0.415,0.317-0.759,0.731-0.769
						l12.143-0.304c0.472,0.015,0.759,0.318,0.769,0.731c0.01,0.415-0.317,0.759-0.731,0.769l-12.143,0.304
						C17.875,44.235,17.868,44.235,17.862,44.235z"/>
				</g>
			</g>
			<g>
				<g>
					<path style="fill:#3C3C3B;" d="M37.514,48.494c-1.838,0-3.612-0.606-5.087-1.751c-1.756-1.364-2.875-3.329-3.152-5.534
						l-0.938-7.46c-0.155-1.233,0.719-2.358,1.952-2.513c1.235-0.148,2.358,0.719,2.513,1.952l0.938,7.46
						c0.127,1.013,0.641,1.915,1.447,2.542s1.805,0.902,2.821,0.773c1.013-0.127,1.915-0.642,2.542-1.447
						c0.626-0.806,0.901-1.808,0.773-2.821l-0.747-5.947c-0.155-1.233,0.719-2.358,1.952-2.513c1.234-0.148,2.358,0.719,2.513,1.952
						l0.747,5.947c0.278,2.205-0.321,4.386-1.685,6.141c-1.363,1.756-3.329,2.875-5.534,3.152
						C38.217,48.472,37.865,48.494,37.514,48.494z"/>
				</g>
				<g>
					<path style="fill:#3C3C3B;" d="M30.004,39.731c-0.406,0-0.74-0.324-0.75-0.731c-0.01-0.415,0.317-0.759,0.731-0.769
						l12.143-0.304c0.472,0.042,0.759,0.319,0.769,0.731c0.01,0.415-0.317,0.759-0.731,0.769l-12.143,0.304
						C30.017,39.731,30.01,39.731,30.004,39.731z"/>
				</g>
			</g>
			<g>
				<g>
					<path style="fill:#3C3C3B;" d="M18.627,35.718c-1.058,0-2-0.749-2.208-1.825l-4.345-22.566
						c-0.193-1.003-0.764-1.87-1.609-2.442C9.62,8.312,8.604,8.105,7.599,8.297c-2.068,0.398-3.428,2.406-3.029,4.474l3.902,20.271
						c0.234,1.22-0.564,2.4-1.784,2.635c-1.225,0.229-2.401-0.564-2.635-1.784L0.151,13.622c-0.866-4.506,2.093-8.877,6.598-9.745
						c2.186-0.417,4.399,0.036,6.239,1.281c1.841,1.247,3.086,3.135,3.506,5.318l4.345,22.565c0.234,1.22-0.564,2.4-1.784,2.635
						C18.911,35.704,18.767,35.718,18.627,35.718z"/>
				</g>
				<g>
					<path style="fill:#3C3C3B;" d="M5.81,31.87c-0.345,0-0.656-0.239-0.732-0.59c-0.089-0.405,0.168-0.805,0.572-0.893
						l11.867-2.594c0.409-0.091,0.805,0.168,0.893,0.572c0.089,0.405-0.168,0.805-0.572,0.893L5.971,31.852
						C5.917,31.864,5.863,31.87,5.81,31.87z"/>
				</g>
				<g>
					<path style="fill:#3C3C3B;" d="M5.952,27.341c-0.33,0-0.632-0.219-0.723-0.552c-0.109-0.4,0.127-0.812,0.526-0.921
						l11.749-3.206c0.401-0.104,0.813,0.126,0.921,0.526c0.109,0.4-0.127,0.812-0.526,0.921L6.151,27.315
						C6.084,27.333,6.018,27.341,5.952,27.341z"/>
				</g>
				<g>
					<path style="fill:#3C3C3B;" d="M3.786,16.085c-0.33,0-0.632-0.219-0.723-0.552c-0.109-0.4,0.127-0.812,0.526-0.921
						l11.749-3.206c0.401-0.103,0.812,0.126,0.921,0.526s-0.127,0.812-0.526,0.921L3.984,16.059
						C3.917,16.077,3.852,16.085,3.786,16.085z"/>
				</g>
				<g>
					<path style="fill:#3C3C3B;" d="M4.889,21.817c-0.345,0-0.656-0.239-0.732-0.59c-0.089-0.405,0.168-0.805,0.572-0.893
						l11.867-2.594c0.408-0.091,0.805,0.167,0.893,0.572c0.089,0.405-0.168,0.805-0.572,0.893L5.05,21.799
						C4.996,21.811,4.941,21.817,4.889,21.817z"/>
				</g>
			</g>
			<g>
				<g>
					<path style="fill:#3C3C3B;" d="M52.475,36.129c-1.243,0-2.25-1.007-2.25-2.25V8.321c0-2.107-1.715-3.821-3.822-3.821
						s-3.821,1.714-3.821,3.821v25.146c0,1.243-1.007,2.25-2.25,2.25s-2.25-1.007-2.25-2.25V8.321C38.082,3.733,41.815,0,46.403,0
						c4.589,0,8.322,3.733,8.322,8.321v25.558C54.725,35.122,53.718,36.129,52.475,36.129z"/>
				</g>
				<g>
					<path style="fill:#3C3C3B;" d="M40.332,34.934c-0.406,0-0.74-0.324-0.75-0.731c-0.01-0.415,0.317-0.758,0.731-0.769
						l12.143-0.305c0.487,0.003,0.76,0.319,0.769,0.731c0.01,0.415-0.317,0.758-0.731,0.769l-12.143,0.305
						C40.344,34.934,40.338,34.934,40.332,34.934z"/>
				</g>
				<g>
					<path style="fill:#3C3C3B;" d="M40.331,32.949c-0.388,0-0.717-0.3-0.747-0.693c-0.031-0.413,0.278-0.773,0.691-0.805
						l12.143-0.927c0.426-0.031,0.773,0.278,0.805,0.691c0.031,0.413-0.278,0.773-0.691,0.805l-12.143,0.927
						C40.369,32.948,40.35,32.949,40.331,32.949z"/>
				</g>
				<g>
					<path style="fill:#3C3C3B;" d="M40.332,27.323c-0.406,0-0.74-0.324-0.75-0.731c-0.01-0.415,0.317-0.759,0.731-0.769
						l12.143-0.304c0.487-0.002,0.76,0.319,0.769,0.731c0.01,0.415-0.317,0.759-0.731,0.769l-12.143,0.304
						C40.344,27.323,40.338,27.323,40.332,27.323z"/>
				</g>
				<g>
					<path style="fill:#3C3C3B;" d="M41.327,22.903c-0.388,0-0.717-0.3-0.747-0.693c-0.031-0.413,0.278-0.773,0.691-0.805
						l12.143-0.927c0.417-0.025,0.773,0.278,0.805,0.691s-0.278,0.773-0.691,0.805l-12.143,0.927
						C41.365,22.902,41.346,22.903,41.327,22.903z"/>
				</g>
				<g>
					<path style="fill:#3C3C3B;" d="M41.327,11.44c-0.388,0-0.717-0.3-0.747-0.693c-0.031-0.413,0.278-0.773,0.691-0.805
						l12.143-0.927c0.417-0.027,0.773,0.278,0.805,0.691s-0.278,0.773-0.691,0.805l-12.143,0.927
						C41.365,11.44,41.346,11.44,41.327,11.44z"/>
				</g>
				<g>
					<path style="fill:#3C3C3B;" d="M41.327,17.277c-0.406,0-0.74-0.324-0.75-0.731c-0.01-0.415,0.317-0.759,0.731-0.769
						l12.143-0.304c0.469,0.011,0.759,0.318,0.769,0.731c0.01,0.415-0.317,0.759-0.731,0.769l-12.143,0.304
						C41.34,17.277,41.333,17.277,41.327,17.277z"/>
				</g>
			</g>
			<g>
				<g>
					<path style="fill:#3C3C3B;" d="M55.202,48.77c-0.979,0-1.878-0.642-2.161-1.629c-0.344-1.195,0.346-2.441,1.54-2.784
						l13.227-3.801c0.981-0.282,1.794-0.929,2.288-1.822c0.494-0.894,0.612-1.926,0.33-2.906c-0.282-0.981-0.929-1.794-1.822-2.288
						c-0.893-0.495-1.926-0.61-2.906-0.33L53.13,36.821c-1.2,0.34-2.441-0.348-2.784-1.542s0.347-2.44,1.542-2.784l12.565-3.611
						c2.135-0.612,4.384-0.359,6.328,0.717c1.945,1.077,3.354,2.846,3.968,4.983c0.614,2.136,0.359,4.384-0.717,6.328
						c-1.077,1.945-2.846,3.354-4.983,3.968l-13.226,3.801C55.616,48.741,55.407,48.77,55.202,48.77z"/>
				</g>
			</g>
		</g>
		<g>
			<path style="fill:#3C3C3B;" d="M91.925,145.933H41.771c-1.243,0-2.25-1.007-2.25-2.25s1.007-2.25,2.25-2.25h50.155
				c1.243,0,2.25,1.007,2.25,2.25S93.168,145.933,91.925,145.933z"/>
		</g>
	</g>
</g>
</svg>
