<!-- Generator: Adobe Illustrator 19.0.1, SVG Export Plug-In  -->
<svg version="1.1"
	 xmlns="http://www.w3.org/2000/svg" xmlns:xlink="http://www.w3.org/1999/xlink" xmlns:a="http://ns.adobe.com/AdobeSVGViewerExtensions/3.0/"
	 x="0px" y="0px" width="600px" height="36px" viewBox="0 0 600 36" style="enable-background:new 0 0 600 36;"
	 xml:space="preserve">
<defs>
</defs>
<g>
	<path style="fill:#3C3C3B;" d="M372.98,32.325c8.313,1.135,16.478,2.25,24.805,3.386c-2.837-4.723-5.601-9.326-8.388-13.966
		C389.398,21.745,372.98,32.325,372.98,32.325z M400.132,6.18c-0.733,1.1-1.467,2.2-2.199,3.301
		c-2.513,3.781-5.026,7.562-7.537,11.345c-0.14,0.211-0.321,0.378-0.124,0.702c2.426,4.006,4.833,8.024,7.246,12.039
		c0.381,0.634,0.766,1.266,1.258,1.874c0.488-9.744,0.975-19.487,1.463-29.231C400.239,6.211,400.132,6.18,400.132,6.18z
		 M367.012,18.672c0.113,0.107,0.397,0.17,0.529,0.105c2.327-1.144,4.669-2.262,6.945-3.5c0.742-0.403,1.313-1.127,1.953-1.713
		c2.118-1.942,4.232-3.888,6.346-5.835c0.129-0.12,0.282-0.235,0.36-0.386c0.759-1.484,1.505-2.975,2.278-4.509
		c-0.921-0.346-1.794-0.685-2.678-0.993c-0.12-0.042-0.309,0.041-0.439,0.113c-2.046,1.143-4.131,2.225-6.112,3.472
		c-0.991,0.624-1.799,1.543-2.676,2.344c-1.415,1.291-2.827,2.585-4.222,3.899c-0.37,0.349-0.707,0.747-0.995,1.166
		c-0.953,1.388-1.878,2.797-2.846,4.245C365.994,17.639,366.486,18.174,367.012,18.672z M375.517,16.774
		c-1.158,4.891-2.308,9.754-3.498,14.777c5.576-3.593,11.023-7.103,16.435-10.589C384.148,19.568,379.856,18.178,375.517,16.774z
		 M398.71,6.227c-4.711,0.787-9.31,1.555-13.968,2.334c1.587,3.859,3.141,7.641,4.74,11.53
		C392.576,15.442,395.609,10.887,398.71,6.227z M375.712,15.773c4.242,1.377,8.4,2.727,12.679,4.116
		c-1.589-3.871-3.123-7.607-4.69-11.422C381.033,10.907,378.405,13.31,375.712,15.773z M367.187,21.524
		c-1.505,3.597-2.958,7.071-4.438,10.608c2.844-0.084,5.6-0.166,8.452-0.25C369.863,28.428,368.55,25.042,367.187,21.524z
		 M371.301,29.422l0.105-0.023c1.015-4.219,2.044-8.41,3.08-12.794c-2.311,1.201-4.516,2.347-6.781,3.524
		C368.861,23.133,370.094,26.302,371.301,29.422z M397.005,5.543c-1.35-0.357-2.699-0.716-4.049-1.071
		c-1.941-0.51-3.883-1.014-5.822-1.529c-0.242-0.064-0.418-0.107-0.56,0.186c-0.686,1.404-1.392,2.798-2.089,4.197
		c-0.021,0.043-0.017,0.099-0.034,0.208c4.203-0.637,8.377-1.27,12.551-1.902C397.003,5.631,397.005,5.543,397.005,5.543z
		 M389.176,2.349l11,3.043c-0.631-1.798-1.216-3.464-1.817-5.179l-9.166,2.032C389.192,2.245,389.176,2.349,389.176,2.349z
		 M372.234,33.135c-1.362-0.157-2.761-0.013-4.143,0.011c-1.135,0.019-2.27,0.062-3.405,0.098c-0.117,0.004-0.233,0.027-0.35,0.153
		c9.383,0.867,18.767,1.735,28.15,2.603l0.019-0.125c-3.008-0.411-6.016-0.821-9.024-1.232
		C379.733,34.131,375.991,33.568,372.234,33.135z M362.935,28.894c1.209-2.806,2.413-5.613,3.627-8.417
		c0.121-0.281,0.112-0.472-0.126-0.699c-0.508-0.483-0.98-1.004-1.535-1.582c-0.75,3.705-1.482,7.317-2.215,10.93l0.082,0.038
		C362.825,29.075,362.894,28.99,362.935,28.894z M386.767,1.608c2.039-0.526,4.108-0.937,6.164-1.396
		c0.133-0.03,0.263-0.074,0.394-0.111l-0.02-0.1c-2.897,0.39-5.793,0.779-8.836,1.189C385.299,1.551,385.938,1.822,386.767,1.608z"
		/>
	<path style="fill:#3C3C3B;" d="M284.966,17.412h8.578c2.388,0,4.269-2.02,4.269-4.418V4.815c0-2.328-1.951-4.076-4.282-4.465
		c-1.475-0.246-2.999-0.357-4.468-0.35c-1.468,0.007-2.828,0.132-4.061,0.35c-3.635,0.642-4.252,1.986-4.252,4.465v3.182h8.531
		v1.177h-11.833c-2.496,0-4.682,1.503-5.365,4.357c-0.789,3.271-0.824,5.272,0,8.687c0.61,2.542,2.068,4.312,4.564,4.312h2.926
		v-3.839C279.573,19.858,282.053,17.412,284.966,17.412z M284.425,5.906c-0.89,0-1.612-0.729-1.612-1.631
		c0-0.906,0.721-1.642,1.612-1.642c0.887,0,1.612,0.736,1.612,1.642C286.036,5.177,285.312,5.906,284.425,5.906z M306.427,13.531
		c-0.617-2.485-1.795-4.357-4.295-4.357h-3.143v3.819c0,2.957-2.587,5.301-5.446,5.301h-8.578c-2.35,0-4.216,2.155-4.216,4.509
		v8.178c0,2.327,1.984,3.696,4.255,4.364c2.719,0.799,5.294,0.944,8.546,0c2.162-0.626,4.262-1.886,4.262-4.364v-3.273h-8.531
		v-1.177h12.851c2.496,0,3.426-1.699,4.295-4.313C307.323,19.528,307.285,16.982,306.427,13.531L306.427,13.531z M294.084,29.89
		c0.891,0,1.612,0.729,1.612,1.632c0,0.905-0.721,1.641-1.612,1.641c-0.887,0-1.612-0.736-1.612-1.641
		C292.473,30.619,293.197,29.89,294.084,29.89z"/>
	<g>
		<path style="fill:#3C3C3B;" d="M33.296,10.576c-0.896-0.823-2.524-1.297-4.885-1.297H24.66l1.007-5.232h-4.212l-3.788,19.185
			h4.211l2.169-11.046h3.366c1.077,0,1.782,0.239,2.113,0.596c0.331,0.356,0.401,1.085,0.21,2.067l-1.675,8.383h4.278l1.762-8.861
			C34.461,12.527,34.192,11.4,33.296,10.576z"/>
		<path style="fill:#3C3C3B;" d="M50.453,11.275c-1.126-1.289-2.917-1.995-5.373-1.995h-8.163L33.13,29.046h4.245l1.007-5.814h3.635
			c1.604,0,2.924,0.07,3.96-0.268c1.036-0.337,1.978-0.665,2.826-1.458c0.711-0.654,1.287-1.375,1.727-2.164
			c0.44-0.788,0.753-1.658,0.938-2.609C51.917,14.425,51.578,12.564,50.453,11.275z M47.081,16.36
			c-0.294,1.508-0.858,2.508-1.696,3.152c-0.837,0.645-2.113,0.814-3.823,0.814h-2.583l1.585-8.139h2.907
			c1.613,0,2.688,0.405,3.225,1C47.235,13.782,47.363,14.912,47.081,16.36z"/>
		<path style="fill:#3C3C3B;" d="M17.323,11.275c-1.126-1.289-2.917-1.995-5.373-1.995H3.788L0,29.046h4.245l1.008-5.814h3.635
			c1.604,0,2.923,0.07,3.96-0.268c1.037-0.337,1.978-0.665,2.826-1.458c0.71-0.654,1.286-1.39,1.728-2.179
			c0.441-0.788,0.753-1.673,0.938-2.625C18.788,14.393,18.449,12.564,17.323,11.275z M13.95,16.36
			c-0.293,1.508-0.858,2.508-1.696,3.152c-0.838,0.645-2.113,0.814-3.824,0.814H5.849l1.585-8.139h2.908
			c1.613,0,2.687,0.405,3.224,1C14.104,13.782,14.232,14.912,13.95,16.36z"/>
	</g>
	<path style="fill:#3C3C3B;" d="M486.439,7.977L473.31,0.354c-0.828-0.472-1.906-0.472-2.741,0l-13.269,7.623
		c-0.854,0.492-1.459,1.415-1.459,2.403v15.226c0,0.988,0.62,1.912,1.475,2.406l3.506,1.991c1.676,0.825,2.268,0.825,3.03,0.825
		c2.481,0,3.898-1.5,3.898-4.117V11.68c0-0.212-0.11-0.528-0.319-0.528h-1.674c-0.212,0-0.687,0.316-0.687,0.528v15.032
		c0,1.16-1.049,2.314-3.01,1.334l-3.622-2.088c-0.126-0.068-0.215-0.206-0.215-0.352V10.38c0-0.144,0.165-0.288,0.292-0.361
		l13.226-7.61c0.124-0.07,0.305-0.07,0.428,0l13.065,7.608c0.125,0.075,0.081,0.215,0.081,0.363v15.226
		c0,0.145,0.054,0.287-0.069,0.357l-13.125,7.614c-0.113,0.068-0.252,0.068-0.375,0l-3.366-2.009
		c-0.102-0.059-0.222-0.08-0.319-0.026c-0.937,0.531-1.109,0.601-1.988,0.906c-0.216,0.075-0.535,0.206,0.122,0.574l4.406,2.606
		c0.422,0.244,0.901,0.371,1.383,0.371c0.489,0,0.968-0.127,1.389-0.371l13.065-7.616c0.854-0.498,1.259-1.418,1.259-2.406V10.38
		C487.698,9.392,487.293,8.471,486.439,7.977z M476.06,23.194c-3.491,0-4.26-0.963-4.516-2.699c-0.03-0.187-0.188-0.411-0.379-0.411
		h-1.706c-0.211,0-0.381,0.256-0.381,0.466c0,2.223,1.208,4.916,6.982,4.916c4.18,0,6.576-1.624,6.576-4.498
		c0-2.85-1.925-3.598-5.979-4.134c-4.097-0.542-4.513-0.815-4.513-1.775c0-0.791,0.353-1.847,3.386-1.847
		c2.711,0,3.71,0.582,4.121,2.409c0.035,0.172,0.192,0.295,0.369,0.295h1.713c0.105,0,0.206-0.043,0.28-0.118
		c0.071-0.081,0.109-0.183,0.1-0.291c-0.265-3.146-2.356-4.613-6.583-4.613c-3.76,0-6.004,1.588-6.004,4.25
		c0,2.887,2.232,3.685,5.842,4.042c4.318,0.423,4.654,1.055,4.654,1.904C480.022,22.565,478.838,23.194,476.06,23.194z"/>
	<g>
		<path style="fill:#3C3C3B;" d="M115.813,27.84c0,0-1.375,0.8,0.98,1.07c2.853,0.326,4.311,0.279,7.454-0.315
			c0,0,0.828,0.518,1.982,0.966C119.18,32.581,110.278,29.387,115.813,27.84z M114.951,23.899c0,0-1.542,1.142,0.814,1.386
			c3.048,0.315,5.454,0.34,9.619-0.461c0,0,0.575,0.584,1.48,0.903C118.345,28.218,108.855,25.923,114.951,23.899z"/>
		<path style="fill:#3C3C3B;" d="M122.211,17.213c1.738,2-0.456,3.798-0.456,3.798s4.409-2.276,2.385-5.127
			c-1.892-2.658-3.342-3.978,4.509-8.531C128.649,7.354,116.326,10.431,122.211,17.213z"/>
		<path style="fill:#3C3C3B;" d="M131.532,30.756c0,0,1.018,0.839-1.121,1.488c-4.067,1.232-16.931,1.604-20.504,0.049
			c-1.284-0.559,1.124-1.334,1.882-1.497c0.79-0.171,1.241-0.14,1.241-0.14c-1.428-1.006-9.233,1.976-3.964,2.831
			C123.436,35.816,135.259,32.437,131.532,30.756z M116.475,19.815c0,0-6.543,1.554-2.317,2.119
			c1.785,0.239,5.341,0.184,8.655-0.094c2.708-0.228,5.426-0.714,5.426-0.714s-0.954,0.409-1.645,0.88
			c-6.645,1.748-19.48,0.934-15.785-0.853C113.933,19.643,116.475,19.815,116.475,19.815z M128.212,26.376
			c6.755-3.509,3.631-6.881,1.451-6.427c-0.533,0.111-0.772,0.208-0.772,0.208s0.198-0.311,0.577-0.445
			c4.312-1.516,7.629,4.471-1.391,6.842C128.077,26.553,128.18,26.459,128.212,26.376z"/>
		<path style="fill:#3C3C3B;" d="M124.14,0c0,0,3.74,3.742-3.548,9.495c-5.845,4.616-1.333,7.248-0.002,10.255
			c-3.412-3.078-5.915-5.788-4.236-8.31C118.819,7.739,125.649,5.943,124.14,0z"/>
		<path style="fill:#3C3C3B;" d="M117.139,35.887c6.482,0.414,16.439-0.231,16.675-3.298c0,0-0.453,1.163-5.358,2.085
			c-5.533,1.042-12.359,0.92-16.406,0.252C112.049,34.927,112.878,35.613,117.139,35.887z"/>
	</g>
	<g>
		<path style="fill:#3C3C3B;" d="M215.324,18.26c-0.029-0.029-0.058-0.058-0.115-0.058l-0.029-0.029
			c-0.029-0.029-0.058-0.029-0.058-0.058l-0.029-0.029c-0.029,0-0.058-0.029-0.058-0.029l-0.058-0.029
			c-0.029,0-0.058-0.029-0.058-0.029l-0.058-0.029c-0.029,0-0.058-0.029-0.058-0.029c-0.029,0-0.029,0-0.058-0.029l-0.086-0.029
			c-0.029,0-0.029,0-0.058-0.029l-0.086-0.029h-0.029l-0.115-0.029h-0.058c-0.029,0-0.058,0-0.086-0.029h-0.661
			c-0.173-3.824,0.173-7.706-0.805-11.387c3.709-1.323,0.805-6.412-2.415-4.141C208.222,0.403,205.289,0,202.212,0
			c-3.019,0.201-5.866,0.834-7.879,2.415c-0.805-0.403-1.582-0.518-2.272-0.316v0.029c-0.029,0-0.086,0.029-0.115,0.058
			c-0.029,0-0.086,0.029-0.115,0.058h-0.029c-0.029,0-0.058,0.029-0.115,0.058h-0.029l-0.086,0.058h-0.029l-0.086,0.058h-0.029
			l-0.086,0.058c0,0-0.029,0-0.029,0.029l-0.086,0.058c0,0-0.029,0-0.029,0.029l-0.086,0.058c0,0-0.029,0-0.029,0.029l-0.086,0.058
			l-0.029,0.029c-0.029,0.029-0.058,0.029-0.058,0.058l-0.029,0.029l-0.058,0.058l-0.029,0.029
			c-0.029,0.029-0.029,0.058-0.058,0.058l-0.029,0.029c-0.029,0.029-0.029,0.058-0.058,0.058l-0.029,0.029
			c-0.029,0.029-0.029,0.058-0.058,0.058l-0.029,0.029c-0.029,0.029-0.029,0.058-0.058,0.058l-0.029,0.029
			c-0.029,0.029-0.029,0.058-0.058,0.058l-0.029,0.029l-0.029,0.086c0,0,0,0.029-0.029,0.029l-0.029,0.086c0,0,0,0.029-0.029,0.029
			l-0.029,0.086c0,0,0,0.029-0.029,0.029l-0.029,0.086c0,0,0,0.029-0.029,0.029c0.115,0.086,0.115,0.115,0.115,0.115v0.029
			l-0.029,0.086v0.029c0,0.029,0,0.058-0.029,0.086v0.891c0,0.029,0,0.058,0.029,0.086v0.029l0.029,0.086v0.029l0.029,0.086
			c0,0,0,0.029,0.029,0.029l0.029,0.086c0,0,0,0.029,0.029,0.029l0.029,0.086c0,0,0,0.029,0.029,0.029l0.058,0.086
			c0,0,0,0.029,0.029,0.029l0.058,0.086c0,0,0,0.029,0.029,0.029l0.058,0.086l0.029,0.029l0.086,0.086l0.086,0.086h0.029
			c0.288,0.259,0.575,0.46,1.15,0.633V6.729c-1.208,3.623-0.201,7.275-0.144,11.013c-0.173,0-0.201,0.115-0.489,0.144h-0.144
			c-0.029,0-0.086,0-0.144,0.029c-0.029,0-0.086,0-0.115,0.029l-0.115,0.029h-0.029l-0.115,0.029h-0.029l-0.086,0.029h-0.029
			l-0.086,0.029c0,0-0.029,0-0.029,0.029l-0.086,0.029l-0.058,0.029c-0.029,0-0.058,0.029-0.058,0.029l-0.058,0.029l-0.058,0.029
			c-0.029,0-0.058,0.029-0.058,0.029l-0.058,0.029l-0.115,0.086c-0.029,0.029-0.058,0.058-0.086,0.058l-0.115,0.115l-0.029,0.029
			c-0.029,0.058-0.086,0.115-0.115,0.144l-0.058,0.086l-0.086,0.173l-0.029,0.086v0.086c0,0.144,0.058,0.259,0.259,0.345
			c0.058,1.064,1.121,0.575,1.61,0.23l0.029-0.029c0.058-0.058,0.144-0.086,0.173-0.086h0.029l0.058-0.029
			c0.029,0,0.029,0,0.058-0.029c0.058-0.029,0.115-0.029,0.144-0.058c0.029,0,0.029-0.029,0.029-0.058l0.029-0.029
			c0.029-0.058,0.058-0.173,0.058-0.345l0.029-0.374v0.518c-0.144,3.767-1.15,8.828,0.949,12.221
			c0.374,0.604,0.834,1.121,1.352,1.553h-0.144c-0.058,0.058-0.144,0.115-0.23,0.173l-0.259,0.173l-0.086,0.058l-0.173,0.115
			l-0.259,0.201l-0.316,0.288c-0.058,0.058-0.086,0.115-0.115,0.144l-0.115,0.173l-0.058,0.086
			c-0.029,0.058-0.058,0.115-0.058,0.173l-0.029,0.086c-0.058,0.23,0,0.489,0.173,0.776l0.115,0.115h0.058
			c0.029,0,0.058,0,0.115,0.029c0.058,0.115,0.345,0.719,1.121,0.259c0.805-0.431,1.352-1.323,2.329-1.467l-0.144-0.173
			c1.697,0.805,3.681,1.15,5.464,1.208c2.502,0.086,5.349-0.259,7.62-1.495c0.633,0.201,1.121,1.121,1.668,1.553l0.029,0.029
			l0.029,0.029l0.029,0.029l0.029,0.029c0,0,0.029,0,0.029,0.029c0,0,0.029,0,0.029,0.029c0,0,0.029,0,0.029,0.029h0.604
			c0,0,0.029,0,0.029-0.029h0.029c0,0,0.029,0,0.029-0.029h0.029c0,0,0.029,0,0.029-0.029c0,0,0.029,0,0.029-0.029l0.029-0.029
			c0,0,0.029,0,0.029-0.029l0.029-0.029h0.029l0.058-0.058l0.058-0.029h0.029l0.029-0.029h0.029l0.029-0.029l0.029-0.029
			l0.029-0.029l0.029-0.029l0.029-0.029l0.029-0.029l0.029-0.029v-0.029c0,0,0-0.029,0.029-0.029v-0.029c0,0,0-0.029,0.029-0.029
			v-0.029c0,0,0-0.029,0.029-0.029v-0.403c0,0-0.086,0-0.086-0.029l-0.086-0.029v-0.029l0.086-0.029c0,0,0.058,0,0.058-0.029
			l0.029-0.029v-0.604c0,0,0-0.029-0.029-0.029V33.73c0,0,0-0.029-0.029-0.029v-0.029c0,0,0-0.029-0.029-0.029
			c0,0,0-0.029-0.029-0.029c0,0,0-0.029-0.029-0.029c0,0,0-0.029-0.029-0.029c0,0,0-0.029-0.029-0.029c0,0,0-0.029-0.029-0.029
			c0,0,0-0.029-0.029-0.029c0,0,0-0.029-0.029-0.029c0,0,0-0.029-0.029-0.029c0,0,0-0.029-0.029-0.029c0,0,0-0.029-0.029-0.029
			c0,0,0-0.029-0.029-0.029c0,0,0-0.029-0.029-0.029c0,0,0-0.029-0.029-0.029l-0.029-0.029l-0.029-0.029l-0.029-0.029l-0.029-0.029
			l-0.029-0.029l-0.029-0.029l-0.029-0.029l-0.029-0.029l-0.029-0.029l-0.029-0.029l-0.029-0.029l-0.029-0.029v-0.029l-0.029-0.029
			l-0.029-0.029l-0.029-0.029l-0.029-0.029l-0.029-0.029l-0.029-0.029l-0.029-0.029l-0.029-0.029l-0.029-0.029l-0.029-0.029
			l-0.029-0.029l-0.029-0.029l-0.029-0.029l-0.029-0.029l-0.029-0.029l-0.029-0.029l-0.029-0.029l-0.029-0.029l-0.029-0.029
			c0.575-0.546,1.093-1.208,1.467-1.984c1.697-3.393,1.409-7.534,1.179-11.272h0.029c0.029,0,0.058,0.029,0.058,0.029h0.086
			c0,0,0.029,0,0.029,0.029h0.029c0,0,0.029,0,0.029,0.029l0.058,0.029c0.489,0.345,1.553,0.834,1.61-0.23
			C216.158,19.151,215.612,18.461,215.324,18.26L215.324,18.26z M194.563,6.24c-0.92-4.601,6.441-5.464,6.7-0.978
			C201.493,9,195.512,9.949,194.563,6.24z M204.944,10.553c-0.374,0.403-0.776,0.345-1.179,0.201c0,0.546,0.115,1.121,0.029,1.697
			c-0.144,0.259-0.431,0.288-0.661,0.403c-0.345-0.058-0.604-0.259-0.748-0.575l-0.058-0.029c-1.121,1.495-1.812-0.316-1.495-1.438
			c-0.345,0.029-0.633-0.058-0.863-0.431c-0.403-0.748,0.201-1.668,0.978-1.812c0.201,0.863,2.502,0.748,2.904-0.058
			C204.742,8.943,205.72,9.748,204.944,10.553z M202.931,5.521c-0.259-3.968,5.837-5.032,6.729-1.15
			C210.666,8.684,203.678,9.806,202.931,5.521z M196.202,4.515c-0.546,0-1.006,0.489-1.006,1.093s0.46,1.093,1.006,1.093
			s1.006-0.489,1.006-1.093C197.208,5.003,196.777,4.515,196.202,4.515z M196.662,6.154c-0.144,0-0.23-0.115-0.23-0.288
			c0-0.144,0.115-0.288,0.23-0.288c0.144,0,0.23,0.115,0.23,0.288C196.892,6.01,196.806,6.154,196.662,6.154z M204.656,4.256
			c-0.546,0-0.978,0.489-0.978,1.093s0.431,1.093,0.978,1.093s0.978-0.489,0.978-1.093C205.634,4.745,205.202,4.256,204.656,4.256z
			 M205.116,5.866c-0.115,0-0.23-0.115-0.23-0.288c0-0.144,0.115-0.288,0.23-0.288s0.23,0.115,0.23,0.288
			S205.231,5.866,205.116,5.866z"/>
	</g>
	<g>
		<path style="fill:#3C3C3B;" d="M551.04,0.045L543.3,0v36h8.865v-0.045c-4.365-4.635-6.975-11.115-6.93-18.81
			C545.19,10.35,547.35,4.455,551.04,0.045z M600,0h-7.38c2.79,4.05,4.32,8.685,4.095,14.445c0.045,0.54,0.045,0.855,0,2.205h-33.03
			c0,9.9,3.465,17.235,12.285,17.28c6.075-0.045,10.44-4.545,13.455-9.405l8.55,4.275c-1.53,2.745-3.24,4.95-5.13,7.2H600
			C600,36,600,0,600,0z M572.145,0.72c-4.05,0-7.56,3.33-7.92,7.38H579.3C579.165,4.05,576.24,0.72,572.145,0.72z"/>
	</g>
</g>
</svg>
