<!-- Generator: Adobe Illustrator 19.0.1, SVG Export Plug-In  -->
<svg version="1.1"
	 xmlns="http://www.w3.org/2000/svg" xmlns:xlink="http://www.w3.org/1999/xlink" xmlns:a="http://ns.adobe.com/AdobeSVGViewerExtensions/3.0/"
	 x="0px" y="0px" width="26.551px" height="36px" viewBox="0 0 26.551 36" style="enable-background:new 0 0 26.551 36;"
	 xml:space="preserve">
<defs>
</defs>
<g>
	<path style="fill:#3C3C3B;" d="M8.55,27.84c0,0-1.375,0.8,0.98,1.07c2.853,0.326,4.311,0.279,7.454-0.315
		c0,0,0.828,0.518,1.982,0.966C11.918,32.581,3.015,29.387,8.55,27.84z M7.689,23.899c0,0-1.542,1.142,0.814,1.386
		c3.048,0.315,5.454,0.34,9.619-0.461c0,0,0.575,0.584,1.48,0.903C11.082,28.218,1.593,25.923,7.689,23.899z"/>
	<path style="fill:#3C3C3B;" d="M14.949,17.213c1.738,2-0.456,3.798-0.456,3.798s4.409-2.276,2.385-5.127
		c-1.892-2.658-3.342-3.978,4.509-8.531C21.387,7.354,9.063,10.431,14.949,17.213z"/>
	<path style="fill:#3C3C3B;" d="M24.27,30.756c0,0,1.018,0.839-1.121,1.488c-4.067,1.232-16.931,1.604-20.504,0.049
		c-1.284-0.559,1.124-1.334,1.882-1.497c0.79-0.171,1.241-0.14,1.241-0.14c-1.428-1.006-9.233,1.976-3.964,2.831
		C16.173,35.816,27.997,32.437,24.27,30.756z M9.212,19.815c0,0-6.543,1.554-2.317,2.119c1.785,0.239,5.341,0.184,8.655-0.094
		c2.708-0.228,5.426-0.714,5.426-0.714s-0.954,0.409-1.645,0.88c-6.645,1.748-19.48,0.934-15.785-0.853
		C6.671,19.643,9.212,19.815,9.212,19.815z M20.949,26.376c6.755-3.509,3.631-6.881,1.451-6.427
		c-0.533,0.111-0.772,0.208-0.772,0.208s0.198-0.311,0.577-0.445c4.312-1.516,7.629,4.471-1.391,6.842
		C20.814,26.553,20.918,26.459,20.949,26.376z"/>
	<path style="fill:#3C3C3B;" d="M16.878,0c0,0,3.74,3.742-3.548,9.495c-5.845,4.616-1.333,7.248-0.002,10.255
		c-3.412-3.078-5.915-5.788-4.236-8.31C11.557,7.739,18.386,5.943,16.878,0z"/>
	<path style="fill:#3C3C3B;" d="M9.876,35.887c6.482,0.414,16.439-0.231,16.675-3.298c0,0-0.453,1.163-5.358,2.085
		c-5.533,1.042-12.359,0.92-16.406,0.252C4.787,34.927,5.616,35.613,9.876,35.887z"/>
</g>
</svg>
