<!-- Generator: Adobe Illustrator 19.0.1, SVG Export Plug-In  -->
<svg version="1.1"
	 xmlns="http://www.w3.org/2000/svg" xmlns:xlink="http://www.w3.org/1999/xlink" xmlns:a="http://ns.adobe.com/AdobeSVGViewerExtensions/3.0/"
	 x="0px" y="0px" width="600px" height="356.103px" viewBox="0 0 600 356.103" style="enable-background:new 0 0 600 356.103;"
	 xml:space="preserve">
<defs>
</defs>
<g>
	<g>
		<path style="fill:#EBC15B;" d="M514.615,42.073c-2.388,0-4.388,1.674-4.899,3.909h-18.449V35.751c0-0.618-0.502-1.12-1.12-1.12
			h-5.686V27.76v0v0c0-15.307-12.453-27.76-27.759-27.76c-11.728,0-21.773,7.314-25.832,17.617l-27.878,3.849
			c-3.551-3.392-8.356-5.483-13.642-5.483c-10.524,0-19.151,8.267-19.733,18.648h-5.719c-0.618,0-1.12,0.501-1.12,1.12v10.232
			h-20.911c-0.511-2.235-2.511-3.909-4.899-3.909c-2.773,0-5.029,2.256-5.029,5.029s2.256,5.028,5.029,5.028
			c2.388,0,4.388-1.674,4.899-3.909h20.911v10.231c0,0.618,0.501,1.12,1.12,1.12h5.685v6.409c0,0.016,0.004,0.031,0.005,0.047
			c0.002,0.04,0.006,0.078,0.012,0.118c0.005,0.035,0.011,0.069,0.019,0.103c0.009,0.035,0.02,0.069,0.032,0.104
			c0.013,0.036,0.026,0.071,0.042,0.104c0.014,0.031,0.031,0.06,0.048,0.089c0.021,0.035,0.042,0.069,0.067,0.101
			c0.009,0.013,0.016,0.026,0.026,0.039l10.772,13.261c-15.413,22.412-26.651,46.798-33.527,72.698
			c-0.01,0.032-0.017,0.064-0.025,0.096c-1.475,5.564-2.76,11.195-3.83,16.895v0c-0.001,0.006-0.003,0.013-0.004,0.019
			c-0.007,0.039-0.007,0.078-0.01,0.117c-0.003,0.03-0.009,0.059-0.009,0.09v0.017c0,0.001,0,0.002,0,0.004v6.61
			c0,2.283,1.857,4.141,4.141,4.141c1.021,0,1.956-0.373,2.678-0.988c0.752,1.049,1.978,1.736,3.364,1.736
			c2.284,0,4.141-1.858,4.141-4.141v-6.259h1.683v6.259c0,2.283,1.857,4.141,4.141,4.141s4.141-1.858,4.141-4.141v-6.259h4.643
			h109.779h4.643v6.259c0,2.283,1.857,4.141,4.14,4.141c2.284,0,4.141-1.858,4.141-4.141v-6.259h1.683v6.259
			c0,2.283,1.857,4.141,4.141,4.141c1.386,0,2.612-0.687,3.364-1.736c0.723,0.615,1.657,0.988,2.678,0.988
			c2.283,0,4.14-1.858,4.14-4.141v-6.61c0-0.001,0-0.002,0-0.004v-0.017c0-0.031-0.007-0.06-0.009-0.091
			c-0.003-0.039-0.003-0.077-0.01-0.116c-0.001-0.006-0.003-0.012-0.004-0.019c0,0,0,0,0,0l0-0.001
			c-1.07-5.699-2.355-11.329-3.83-16.893c-0.007-0.032-0.014-0.064-0.025-0.096c-6.877-25.901-18.115-50.286-33.527-72.698
			l10.772-13.261c0.01-0.012,0.016-0.026,0.025-0.038c0.024-0.033,0.046-0.067,0.067-0.102c0.017-0.029,0.034-0.059,0.048-0.089
			c0.016-0.034,0.029-0.069,0.042-0.105c0.012-0.034,0.023-0.069,0.032-0.104c0.008-0.034,0.014-0.068,0.02-0.104
			c0.006-0.039,0.01-0.078,0.012-0.117c0.001-0.016,0.005-0.031,0.005-0.047v-6.409h5.686c0.618,0,1.12-0.501,1.12-1.12V48.222
			h18.449c0.511,2.235,2.511,3.909,4.899,3.909c2.773,0,5.029-2.256,5.029-5.028S517.388,42.073,514.615,42.073z"/>
		<rect x="381.999" y="264.369" style="fill:#EBC15B;" width="27.216" height="85.409"/>
		<rect x="444.847" y="264.369" style="fill:#EBC15B;" width="27.216" height="85.409"/>
	</g>
	<rect x="332.696" y="264.369" style="fill:#FFDB7C;" width="27.216" height="85.409"/>
	<rect x="395.544" y="264.369" style="fill:#FFDB7C;" width="27.216" height="85.409"/>
	<rect x="240.287" y="168.743" style="fill:#FFDB7C;" width="358.28" height="105.994"/>
	<g>
		<g>
			<path style="fill:#3C3C3B;" d="M377.88,214.554l0.306,1.889l0.385-1.801l2.283-9.359h0.892l2.248,9.359l0.376,1.818l0.333-1.906
				l1.881-9.271h1.015l-2.712,12.734h-0.944l-2.388-9.928l-0.253-1.18l-0.245,1.18l-2.44,9.928h-0.954l-2.703-12.734h1.023
				L377.88,214.554z"/>
			<path style="fill:#3C3C3B;" d="M392.295,218.193c-1.114,0-1.986-0.365-2.616-1.094s-0.95-1.768-0.962-3.113v-1.156
				c0-1.387,0.303-2.477,0.91-3.266c0.606-0.791,1.44-1.186,2.501-1.186c1.026,0,1.809,0.336,2.349,1.006s0.815,1.697,0.827,3.078
				v0.91h-5.625v0.533c0,1.086,0.232,1.922,0.695,2.512c0.464,0.588,1.118,0.883,1.964,0.883c0.933,0,1.688-0.342,2.266-1.023
				l0.507,0.646C394.494,217.769,393.555,218.193,392.295,218.193z M392.129,209.288c-0.764,0-1.352,0.27-1.762,0.809
				c-0.411,0.539-0.637,1.328-0.678,2.365h4.645v-0.252C394.287,210.261,393.552,209.288,392.129,209.288z"/>
			<path style="fill:#3C3C3B;" d="M404.384,217.283c0.676,0,1.195-0.189,1.557-0.566c0.361-0.377,0.557-0.92,0.586-1.629h0.936
				c-0.047,0.969-0.356,1.727-0.927,2.279c-0.572,0.551-1.289,0.826-2.152,0.826c-1.125,0-1.976-0.359-2.55-1.08
				c-0.575-0.721-0.868-1.789-0.879-3.207v-1.154c0-1.445,0.287-2.537,0.861-3.271s1.427-1.102,2.559-1.102
				c0.939,0,1.679,0.297,2.222,0.889s0.831,1.418,0.866,2.479h-0.936c-0.029-0.781-0.228-1.387-0.595-1.814
				c-0.368-0.43-0.887-0.643-1.557-0.643c-0.84,0-1.457,0.281-1.85,0.848c-0.394,0.564-0.59,1.432-0.59,2.604v1.074
				c0,1.211,0.198,2.092,0.595,2.643S403.544,217.283,404.384,217.283z"/>
			<path style="fill:#3C3C3B;" d="M414.521,218.017c-0.087-0.303-0.146-0.74-0.175-1.312c-0.292,0.473-0.667,0.84-1.124,1.1
				c-0.458,0.258-0.955,0.389-1.491,0.389c-0.817,0-1.452-0.23-1.907-0.691c-0.455-0.461-0.682-1.117-0.682-1.969
				c0-0.926,0.316-1.662,0.949-2.203c0.632-0.543,1.506-0.816,2.62-0.822h1.627v-1.32c0-0.678-0.168-1.162-0.503-1.457
				c-0.335-0.295-0.827-0.441-1.474-0.441c-0.601,0-1.093,0.174-1.478,0.523c-0.385,0.352-0.577,0.803-0.577,1.357l-0.971-0.01
				c0-0.775,0.292-1.434,0.875-1.973c0.583-0.539,1.315-0.809,2.196-0.809c0.95,0,1.67,0.238,2.161,0.717
				c0.49,0.479,0.734,1.176,0.734,2.092v4.645c0,0.926,0.084,1.621,0.254,2.082v0.104H414.521z M411.854,217.257
				c0.572,0,1.078-0.15,1.518-0.447c0.44-0.297,0.763-0.693,0.967-1.189v-2.301h-1.54c-0.886,0.012-1.554,0.209-2.003,0.592
				c-0.449,0.381-0.674,0.896-0.674,1.543C410.122,216.656,410.699,217.257,411.854,217.257z"/>
			<path style="fill:#3C3C3B;" d="M418.877,208.554l0.026,1.504c0.28-0.514,0.637-0.922,1.071-1.225
				c0.435-0.303,0.929-0.455,1.483-0.455c1.65,0,2.496,1.1,2.537,3.297v6.342h-0.962v-6.236c-0.006-0.846-0.154-1.469-0.446-1.871
				c-0.292-0.402-0.75-0.604-1.374-0.604c-0.507,0-0.963,0.189-1.369,0.572c-0.406,0.383-0.713,0.906-0.923,1.57v6.568h-0.971
				v-9.463H418.877z"/>
			<path style="fill:#3C3C3B;" d="M435.602,218.017c-0.087-0.303-0.146-0.74-0.175-1.312c-0.292,0.473-0.667,0.84-1.124,1.1
				c-0.458,0.258-0.955,0.389-1.491,0.389c-0.817,0-1.452-0.23-1.907-0.691c-0.455-0.461-0.682-1.117-0.682-1.969
				c0-0.926,0.316-1.662,0.949-2.203c0.632-0.543,1.506-0.816,2.62-0.822h1.627v-1.32c0-0.678-0.168-1.162-0.503-1.457
				c-0.335-0.295-0.827-0.441-1.474-0.441c-0.601,0-1.093,0.174-1.478,0.523c-0.385,0.352-0.577,0.803-0.577,1.357l-0.971-0.01
				c0-0.775,0.292-1.434,0.875-1.973c0.583-0.539,1.315-0.809,2.196-0.809c0.95,0,1.67,0.238,2.161,0.717
				c0.49,0.479,0.734,1.176,0.734,2.092v4.645c0,0.926,0.084,1.621,0.254,2.082v0.104H435.602z M432.934,217.257
				c0.572,0,1.078-0.15,1.518-0.447c0.44-0.297,0.763-0.693,0.967-1.189v-2.301h-1.54c-0.886,0.012-1.554,0.209-2.003,0.592
				c-0.449,0.381-0.674,0.896-0.674,1.543C431.202,216.656,431.78,217.257,432.934,217.257z"/>
			<path style="fill:#3C3C3B;" d="M439.958,208.554l0.026,1.504c0.28-0.514,0.637-0.922,1.071-1.225
				c0.435-0.303,0.929-0.455,1.483-0.455c1.65,0,2.496,1.1,2.537,3.297v6.342h-0.962v-6.236c-0.006-0.846-0.154-1.469-0.446-1.871
				c-0.292-0.402-0.75-0.604-1.374-0.604c-0.507,0-0.963,0.189-1.369,0.572c-0.406,0.383-0.713,0.906-0.923,1.57v6.568h-0.971
				v-9.463H439.958z"/>
			<path style="fill:#3C3C3B;" d="M452.388,215.685c0-0.406-0.169-0.764-0.507-1.068c-0.338-0.307-0.911-0.641-1.719-1.004
				c-0.808-0.363-1.372-0.668-1.693-0.908c-0.321-0.242-0.557-0.506-0.708-0.793c-0.151-0.285-0.228-0.623-0.228-1.014
				c0-0.729,0.263-1.332,0.788-1.807s1.204-0.713,2.038-0.713c0.898,0,1.615,0.254,2.152,0.762c0.536,0.506,0.805,1.178,0.805,2.012
				h-0.971c0-0.537-0.184-0.982-0.551-1.334c-0.368-0.354-0.846-0.529-1.435-0.529c-0.572,0-1.025,0.145-1.36,0.438
				c-0.335,0.291-0.503,0.67-0.503,1.137c0,0.379,0.128,0.688,0.385,0.928c0.257,0.238,0.811,0.562,1.662,0.971
				c0.88,0.385,1.487,0.701,1.819,0.953c0.333,0.25,0.583,0.529,0.752,0.836c0.169,0.305,0.253,0.668,0.253,1.088
				c0,0.781-0.271,1.402-0.813,1.863s-1.257,0.691-2.143,0.691c-0.939,0-1.698-0.258-2.278-0.77
				c-0.581-0.514-0.871-1.176-0.871-1.986h0.98c0.029,0.586,0.226,1.041,0.59,1.363c0.364,0.322,0.891,0.482,1.579,0.482
				c0.595,0,1.073-0.145,1.435-0.436C452.207,216.556,452.388,216.167,452.388,215.685z"/>
			<path style="fill:#3C3C3B;" d="M457.645,215.867l0.079,0.523l0.105-0.568l1.933-7.268h0.813l1.916,7.207l0.14,0.742l0.114-0.664
				l1.635-7.285h0.998l-2.318,9.463h-0.813l-2.055-7.521l-0.044-0.229l-0.035,0.236l-2.021,7.514h-0.822l-2.3-9.463h0.988
				L457.645,215.867z"/>
			<path style="fill:#3C3C3B;" d="M470.459,218.193c-1.114,0-1.986-0.365-2.616-1.094s-0.95-1.768-0.962-3.113v-1.156
				c0-1.387,0.303-2.477,0.91-3.266c0.606-0.791,1.44-1.186,2.501-1.186c1.026,0,1.809,0.336,2.349,1.006s0.815,1.697,0.827,3.078
				v0.91h-5.625v0.533c0,1.086,0.232,1.922,0.695,2.512c0.464,0.588,1.118,0.883,1.964,0.883c0.933,0,1.688-0.342,2.266-1.023
				l0.507,0.646C472.657,217.769,471.718,218.193,470.459,218.193z M470.292,209.288c-0.764,0-1.352,0.27-1.762,0.809
				c-0.411,0.539-0.637,1.328-0.678,2.365h4.645v-0.252C472.45,210.261,471.715,209.288,470.292,209.288z"/>
			<path style="fill:#3C3C3B;" d="M479.241,209.462c-0.233-0.041-0.438-0.061-0.612-0.061c-0.537,0-0.987,0.184-1.352,0.551
				s-0.623,0.877-0.774,1.531v6.533h-0.971v-9.463h0.954l0.018,1.416c0.46-1.061,1.184-1.592,2.169-1.592
				c0.257,0,0.452,0.037,0.586,0.113L479.241,209.462z"/>
			<path style="fill:#3C3C3B;" d="M484.621,212.847c0-1.498,0.259-2.617,0.778-3.357s1.294-1.111,2.327-1.111
				c1.056,0,1.854,0.467,2.397,1.398l0.052-1.223h0.91v13.102h-0.979v-4.74c-0.554,0.852-1.35,1.277-2.388,1.277
				c-1.009,0-1.774-0.371-2.296-1.111s-0.789-1.824-0.8-3.254V212.847z M485.609,213.726c0,1.213,0.185,2.107,0.556,2.688
				c0.37,0.58,0.952,0.869,1.745,0.869c0.998,0,1.729-0.463,2.196-1.389V210.8c-0.473-1.008-1.202-1.512-2.187-1.512
				c-0.793,0-1.375,0.285-1.745,0.855c-0.37,0.57-0.558,1.451-0.564,2.639V213.726z"/>
			<path style="fill:#3C3C3B;" d="M498.817,216.89c-0.537,0.867-1.367,1.303-2.493,1.303c-0.857,0-1.504-0.297-1.942-0.893
				s-0.659-1.469-0.665-2.625v-6.121h0.962v6.096c0,0.857,0.151,1.508,0.455,1.951c0.303,0.443,0.74,0.664,1.312,0.664
				c1.225,0,2.009-0.594,2.353-1.785v-6.926h0.979v9.463h-0.945L498.817,216.89z"/>
			<path style="fill:#3C3C3B;" d="M505.491,218.193c-1.114,0-1.986-0.365-2.616-1.094s-0.95-1.768-0.962-3.113v-1.156
				c0-1.387,0.303-2.477,0.91-3.266c0.606-0.791,1.44-1.186,2.501-1.186c1.026,0,1.809,0.336,2.349,1.006s0.815,1.697,0.827,3.078
				v0.91h-5.625v0.533c0,1.086,0.232,1.922,0.695,2.512c0.464,0.588,1.118,0.883,1.964,0.883c0.933,0,1.688-0.342,2.266-1.023
				l0.507,0.646C507.689,217.769,506.75,218.193,505.491,218.193z M505.325,209.288c-0.764,0-1.352,0.27-1.762,0.809
				c-0.411,0.539-0.637,1.328-0.678,2.365h4.645v-0.252C507.482,210.261,506.748,209.288,505.325,209.288z"/>
			<path style="fill:#3C3C3B;" d="M515.296,215.685c0-0.406-0.169-0.764-0.507-1.068c-0.338-0.307-0.911-0.641-1.719-1.004
				c-0.808-0.363-1.372-0.668-1.693-0.908c-0.321-0.242-0.557-0.506-0.708-0.793c-0.151-0.285-0.228-0.623-0.228-1.014
				c0-0.729,0.263-1.332,0.788-1.807s1.204-0.713,2.038-0.713c0.898,0,1.615,0.254,2.152,0.762c0.536,0.506,0.805,1.178,0.805,2.012
				h-0.971c0-0.537-0.184-0.982-0.551-1.334c-0.368-0.354-0.846-0.529-1.435-0.529c-0.572,0-1.025,0.145-1.36,0.438
				c-0.335,0.291-0.503,0.67-0.503,1.137c0,0.379,0.128,0.688,0.385,0.928c0.257,0.238,0.811,0.562,1.662,0.971
				c0.88,0.385,1.487,0.701,1.819,0.953c0.333,0.25,0.583,0.529,0.752,0.836c0.169,0.305,0.253,0.668,0.253,1.088
				c0,0.781-0.271,1.402-0.813,1.863s-1.257,0.691-2.143,0.691c-0.939,0-1.698-0.258-2.278-0.77
				c-0.581-0.514-0.871-1.176-0.871-1.986h0.98c0.029,0.586,0.226,1.041,0.59,1.363c0.364,0.322,0.891,0.482,1.579,0.482
				c0.595,0,1.073-0.145,1.435-0.436C515.115,216.556,515.296,216.167,515.296,215.685z"/>
			<path style="fill:#3C3C3B;" d="M520.02,206.138v2.416h1.618v0.873h-1.618v6.289c0,0.52,0.077,0.906,0.232,1.16
				c0.154,0.254,0.412,0.381,0.774,0.381c0.157,0,0.391-0.029,0.7-0.088l0.026,0.875c-0.222,0.098-0.54,0.148-0.954,0.148
				c-1.137,0-1.72-0.781-1.75-2.344v-6.422h-1.46v-0.873h1.46v-2.416H520.02z"/>
			<path style="fill:#3C3C3B;" d="M523.72,205.824c0-0.197,0.055-0.367,0.166-0.508c0.111-0.139,0.268-0.209,0.472-0.209
				s0.363,0.07,0.477,0.209c0.114,0.141,0.17,0.311,0.17,0.508c0,0.199-0.057,0.367-0.17,0.504s-0.273,0.205-0.477,0.205
				s-0.361-0.068-0.472-0.205S523.72,206.023,523.72,205.824z M524.84,218.017h-0.98v-9.463h0.98V218.017z"/>
			<path style="fill:#3C3C3B;" d="M527.158,212.804c0-1.365,0.309-2.443,0.927-3.236s1.46-1.189,2.528-1.189
				c1.073,0,1.917,0.391,2.532,1.172s0.926,1.857,0.932,3.229v1.006c0,1.387-0.311,2.469-0.932,3.244s-1.459,1.164-2.515,1.164
				c-1.056,0-1.893-0.379-2.511-1.137s-0.939-1.803-0.962-3.133V212.804z M528.137,213.779c0,1.09,0.22,1.945,0.661,2.568
				c0.44,0.625,1.051,0.936,1.833,0.936c0.799,0,1.41-0.301,1.833-0.9c0.422-0.6,0.637-1.459,0.643-2.576V212.8
				c0-1.09-0.222-1.947-0.665-2.572c-0.443-0.627-1.053-0.939-1.828-0.939c-0.752,0-1.35,0.305-1.793,0.916
				c-0.443,0.613-0.671,1.455-0.683,2.525V213.779z"/>
			<path style="fill:#3C3C3B;" d="M537.243,208.554l0.026,1.504c0.28-0.514,0.637-0.922,1.071-1.225
				c0.435-0.303,0.929-0.455,1.483-0.455c1.65,0,2.496,1.1,2.537,3.297v6.342h-0.962v-6.236c-0.006-0.846-0.154-1.469-0.446-1.871
				c-0.292-0.402-0.75-0.604-1.374-0.604c-0.507,0-0.963,0.189-1.369,0.572c-0.406,0.383-0.713,0.906-0.923,1.57v6.568h-0.971
				v-9.463H537.243z"/>
			<path style="fill:#3C3C3B;" d="M549.672,215.685c0-0.406-0.169-0.764-0.507-1.068c-0.338-0.307-0.911-0.641-1.719-1.004
				c-0.808-0.363-1.372-0.668-1.693-0.908c-0.321-0.242-0.557-0.506-0.708-0.793c-0.151-0.285-0.228-0.623-0.228-1.014
				c0-0.729,0.263-1.332,0.788-1.807s1.204-0.713,2.038-0.713c0.898,0,1.615,0.254,2.152,0.762c0.536,0.506,0.805,1.178,0.805,2.012
				h-0.971c0-0.537-0.184-0.982-0.551-1.334c-0.368-0.354-0.846-0.529-1.435-0.529c-0.572,0-1.025,0.145-1.36,0.438
				c-0.335,0.291-0.503,0.67-0.503,1.137c0,0.379,0.128,0.688,0.385,0.928c0.257,0.238,0.811,0.562,1.662,0.971
				c0.88,0.385,1.487,0.701,1.819,0.953c0.333,0.25,0.583,0.529,0.752,0.836c0.169,0.305,0.253,0.668,0.253,1.088
				c0,0.781-0.271,1.402-0.813,1.863s-1.257,0.691-2.143,0.691c-0.939,0-1.698-0.258-2.278-0.77
				c-0.581-0.514-0.871-1.176-0.871-1.986h0.98c0.029,0.586,0.226,1.041,0.59,1.363c0.364,0.322,0.891,0.482,1.579,0.482
				c0.595,0,1.073-0.145,1.435-0.436C549.491,216.556,549.672,216.167,549.672,215.685z"/>
			<path style="fill:#3C3C3B;" d="M380.635,235.931c-0.087-0.303-0.146-0.74-0.175-1.312c-0.292,0.473-0.667,0.84-1.124,1.1
				c-0.458,0.258-0.955,0.389-1.491,0.389c-0.817,0-1.452-0.23-1.907-0.691c-0.455-0.461-0.682-1.117-0.682-1.969
				c0-0.926,0.316-1.662,0.949-2.203c0.632-0.543,1.506-0.816,2.62-0.822h1.627v-1.32c0-0.678-0.168-1.162-0.503-1.457
				c-0.335-0.295-0.827-0.441-1.474-0.441c-0.601,0-1.093,0.174-1.478,0.523c-0.385,0.352-0.577,0.803-0.577,1.357l-0.971-0.01
				c0-0.775,0.292-1.434,0.875-1.973c0.583-0.539,1.315-0.809,2.196-0.809c0.95,0,1.67,0.238,2.161,0.717
				c0.49,0.479,0.734,1.176,0.734,2.092v4.645c0,0.926,0.084,1.621,0.254,2.082v0.104H380.635z M377.967,235.171
				c0.572,0,1.078-0.15,1.518-0.447c0.44-0.297,0.763-0.693,0.967-1.189v-2.301h-1.54c-0.886,0.012-1.554,0.209-2.003,0.592
				c-0.449,0.381-0.674,0.896-0.674,1.543C376.235,234.57,376.813,235.171,377.967,235.171z"/>
			<path style="fill:#3C3C3B;" d="M390.528,231.646c0,1.457-0.255,2.566-0.766,3.324s-1.27,1.137-2.278,1.137
				c-1.114,0-1.939-0.48-2.476-1.443l-0.044,1.268h-0.901v-13.436h0.962v5.293c0.53-0.998,1.344-1.496,2.44-1.496
				c1.021,0,1.781,0.359,2.283,1.08s0.761,1.795,0.779,3.223V231.646z M389.557,230.761c0-1.201-0.178-2.09-0.533-2.666
				c-0.356-0.578-0.939-0.867-1.75-0.867c-1.079,0-1.828,0.568-2.248,1.705v4.689c0.198,0.496,0.49,0.879,0.875,1.15
				s0.849,0.406,1.391,0.406c0.775,0,1.345-0.281,1.71-0.844c0.364-0.562,0.549-1.439,0.555-2.629V230.761z"/>
			<path style="fill:#3C3C3B;" d="M392.409,230.718c0-1.365,0.309-2.443,0.927-3.236s1.46-1.189,2.528-1.189
				c1.073,0,1.917,0.391,2.532,1.172s0.926,1.857,0.932,3.229v1.006c0,1.387-0.311,2.469-0.932,3.244s-1.459,1.164-2.515,1.164
				c-1.056,0-1.893-0.379-2.511-1.137s-0.939-1.803-0.962-3.133V230.718z M393.388,231.693c0,1.09,0.22,1.945,0.661,2.568
				c0.44,0.625,1.051,0.936,1.833,0.936c0.799,0,1.41-0.301,1.833-0.9c0.422-0.6,0.637-1.459,0.643-2.576v-1.006
				c0-1.09-0.222-1.947-0.665-2.572c-0.443-0.627-1.053-0.939-1.828-0.939c-0.752,0-1.35,0.305-1.793,0.916
				c-0.443,0.613-0.671,1.455-0.683,2.525V231.693z"/>
			<path style="fill:#3C3C3B;" d="M406.64,234.804c-0.537,0.867-1.367,1.303-2.493,1.303c-0.857,0-1.504-0.297-1.942-0.893
				s-0.659-1.469-0.665-2.625v-6.121h0.962v6.096c0,0.857,0.151,1.508,0.455,1.951c0.303,0.443,0.74,0.664,1.312,0.664
				c1.225,0,2.009-0.594,2.353-1.785v-6.926h0.979v9.463h-0.945L406.64,234.804z"/>
			<path style="fill:#3C3C3B;" d="M411.652,224.052v2.416h1.618v0.873h-1.618v6.289c0,0.52,0.077,0.906,0.232,1.16
				c0.154,0.254,0.412,0.381,0.774,0.381c0.157,0,0.391-0.029,0.7-0.088l0.026,0.875c-0.222,0.098-0.54,0.148-0.954,0.148
				c-1.137,0-1.72-0.781-1.75-2.344v-6.422h-1.46v-0.873h1.46v-2.416H411.652z"/>
			<path style="fill:#3C3C3B;" d="M427.257,231.96c-0.093,1.43-0.478,2.477-1.155,3.145c-0.676,0.668-1.612,1.002-2.808,1.002
				c-1.23,0-2.201-0.465-2.913-1.396c-0.711-0.93-1.07-2.193-1.076-3.791v-2.764c0-1.604,0.363-2.861,1.089-3.77
				c0.726-0.91,1.719-1.365,2.978-1.365c1.19,0,2.111,0.342,2.764,1.023s1.026,1.729,1.12,3.141h-1.015
				c-0.093-1.154-0.366-1.98-0.818-2.477c-0.452-0.494-1.136-0.742-2.051-0.742c-0.962,0-1.711,0.357-2.248,1.076
				c-0.536,0.717-0.805,1.758-0.805,3.121v2.73c0,1.352,0.26,2.404,0.779,3.156c0.519,0.754,1.25,1.129,2.195,1.129
				c0.991,0,1.708-0.248,2.152-0.744c0.443-0.494,0.708-1.32,0.796-2.475H427.257z"/>
			<path style="fill:#3C3C3B;" d="M429.505,223.738c0-0.197,0.055-0.367,0.166-0.508c0.111-0.139,0.268-0.209,0.472-0.209
				s0.363,0.07,0.477,0.209c0.114,0.141,0.17,0.311,0.17,0.508c0,0.199-0.057,0.367-0.17,0.504s-0.273,0.205-0.477,0.205
				s-0.361-0.068-0.472-0.205S429.505,223.937,429.505,223.738z M430.625,235.931h-0.98v-9.463h0.98V235.931z"/>
			<path style="fill:#3C3C3B;" d="M434.203,226.468l0.026,1.416c0.589-1.061,1.435-1.592,2.537-1.592c1.219,0,2.006,0.58,2.362,1.74
				c0.297-0.576,0.681-1.012,1.15-1.303c0.469-0.291,0.981-0.438,1.535-0.438c1.703,0,2.574,1.096,2.615,3.289v6.35h-0.971v-6.289
				c-0.012-0.816-0.164-1.424-0.455-1.824c-0.292-0.398-0.77-0.598-1.435-0.598c-0.601,0.012-1.108,0.244-1.522,0.699
				s-0.65,1.025-0.708,1.715v6.297h-0.979v-6.262c0-0.828-0.153-1.443-0.459-1.846s-0.783-0.604-1.43-0.604
				c-0.531,0-0.99,0.184-1.377,0.551c-0.388,0.367-0.669,0.893-0.844,1.574v6.586h-0.971v-9.463H434.203z"/>
			<path style="fill:#3C3C3B;" d="M446.597,230.718c0-1.365,0.309-2.443,0.927-3.236s1.46-1.189,2.528-1.189
				c1.073,0,1.917,0.391,2.532,1.172s0.926,1.857,0.932,3.229v1.006c0,1.387-0.311,2.469-0.932,3.244s-1.459,1.164-2.515,1.164
				c-1.056,0-1.893-0.379-2.511-1.137s-0.939-1.803-0.962-3.133V230.718z M447.577,231.693c0,1.09,0.22,1.945,0.661,2.568
				c0.44,0.625,1.051,0.936,1.833,0.936c0.799,0,1.41-0.301,1.833-0.9c0.422-0.6,0.637-1.459,0.643-2.576v-1.006
				c0-1.09-0.222-1.947-0.665-2.572c-0.443-0.627-1.053-0.939-1.828-0.939c-0.752,0-1.35,0.305-1.793,0.916
				c-0.443,0.613-0.671,1.455-0.683,2.525V231.693z"/>
			<path style="fill:#3C3C3B;" d="M456.682,226.468l0.026,1.504c0.28-0.514,0.637-0.922,1.071-1.225
				c0.435-0.303,0.929-0.455,1.483-0.455c1.65,0,2.496,1.1,2.537,3.297v6.342h-0.962v-6.236c-0.006-0.846-0.154-1.469-0.446-1.871
				c-0.292-0.402-0.75-0.604-1.374-0.604c-0.507,0-0.963,0.189-1.369,0.572c-0.406,0.383-0.713,0.906-0.923,1.57v6.568h-0.971
				v-9.463H456.682z"/>
			<path style="fill:#3C3C3B;" d="M473.407,235.931c-0.087-0.303-0.146-0.74-0.175-1.312c-0.292,0.473-0.667,0.84-1.124,1.1
				c-0.458,0.258-0.955,0.389-1.491,0.389c-0.817,0-1.452-0.23-1.907-0.691c-0.455-0.461-0.682-1.117-0.682-1.969
				c0-0.926,0.316-1.662,0.949-2.203c0.632-0.543,1.506-0.816,2.62-0.822h1.627v-1.32c0-0.678-0.168-1.162-0.503-1.457
				c-0.335-0.295-0.827-0.441-1.474-0.441c-0.601,0-1.093,0.174-1.478,0.523c-0.385,0.352-0.577,0.803-0.577,1.357l-0.971-0.01
				c0-0.775,0.292-1.434,0.875-1.973c0.583-0.539,1.315-0.809,2.196-0.809c0.95,0,1.67,0.238,2.161,0.717
				c0.49,0.479,0.734,1.176,0.734,2.092v4.645c0,0.926,0.084,1.621,0.254,2.082v0.104H473.407z M470.739,235.171
				c0.572,0,1.078-0.15,1.518-0.447c0.44-0.297,0.763-0.693,0.967-1.189v-2.301h-1.54c-0.886,0.012-1.554,0.209-2.003,0.592
				c-0.449,0.381-0.674,0.896-0.674,1.543C469.007,234.57,469.584,235.171,470.739,235.171z"/>
			<path style="fill:#3C3C3B;" d="M477.763,226.468l0.026,1.504c0.28-0.514,0.637-0.922,1.071-1.225
				c0.435-0.303,0.929-0.455,1.483-0.455c1.65,0,2.496,1.1,2.537,3.297v6.342h-0.962v-6.236c-0.006-0.846-0.154-1.469-0.446-1.871
				c-0.292-0.402-0.75-0.604-1.374-0.604c-0.507,0-0.963,0.189-1.369,0.572c-0.406,0.383-0.713,0.906-0.923,1.57v6.568h-0.971
				v-9.463H477.763z"/>
			<path style="fill:#3C3C3B;" d="M485.11,230.761c0-1.48,0.259-2.596,0.778-3.346c0.519-0.748,1.289-1.123,2.309-1.123
				c1.073,0,1.875,0.48,2.406,1.443v-5.24h0.971v13.436h-0.91l-0.043-1.215c-0.531,0.926-1.341,1.391-2.432,1.391
				c-0.997,0-1.756-0.379-2.278-1.137s-0.789-1.834-0.8-3.229V230.761z M486.099,231.646c0,1.213,0.182,2.105,0.547,2.676
				c0.364,0.572,0.943,0.857,1.736,0.857c1.02,0,1.761-0.486,2.222-1.461v-4.906c-0.438-1.057-1.175-1.584-2.213-1.584
				c-0.793,0-1.372,0.283-1.736,0.85c-0.365,0.564-0.55,1.439-0.556,2.623V231.646z"/>
			<path style="fill:#3C3C3B;" d="M499.193,227.954c0.28-0.508,0.634-0.912,1.062-1.211c0.429-0.301,0.92-0.451,1.474-0.451
				c1.65,0,2.496,1.1,2.537,3.297v6.342h-0.962v-6.236c-0.006-0.846-0.154-1.469-0.446-1.871c-0.292-0.402-0.75-0.604-1.374-0.604
				c-0.507,0-0.963,0.189-1.369,0.572c-0.406,0.383-0.713,0.906-0.923,1.57v6.568h-0.971v-13.436h0.971V227.954z"/>
			<path style="fill:#3C3C3B;" d="M509.961,236.107c-1.114,0-1.986-0.365-2.616-1.094s-0.95-1.768-0.962-3.113v-1.156
				c0-1.387,0.303-2.477,0.91-3.266c0.606-0.791,1.44-1.186,2.501-1.186c1.026,0,1.809,0.336,2.349,1.006s0.815,1.697,0.827,3.078
				v0.91h-5.625v0.533c0,1.086,0.232,1.922,0.695,2.512c0.464,0.588,1.118,0.883,1.964,0.883c0.933,0,1.688-0.342,2.266-1.023
				l0.507,0.646C512.159,235.683,511.22,236.107,509.961,236.107z M509.794,227.203c-0.764,0-1.352,0.27-1.762,0.809
				c-0.411,0.539-0.637,1.328-0.678,2.365h4.645v-0.252C511.952,228.175,511.217,227.203,509.794,227.203z"/>
			<path style="fill:#3C3C3B;" d="M516.119,235.931h-0.98v-13.436h0.98V235.931z"/>
			<path style="fill:#3C3C3B;" d="M525.259,231.646c0,1.457-0.254,2.566-0.761,3.324s-1.265,1.137-2.274,1.137
				c-1.097,0-1.916-0.438-2.458-1.312v4.775h-0.962v-13.102h0.893l0.043,1.293c0.56-0.979,1.379-1.469,2.458-1.469
				c1.021,0,1.784,0.361,2.292,1.084c0.507,0.725,0.764,1.828,0.77,3.316V231.646z M524.288,230.757
				c0-1.211-0.188-2.102-0.564-2.672c-0.376-0.572-0.964-0.857-1.763-0.857c-1.026,0-1.758,0.521-2.195,1.564v4.98
				c0.438,0.949,1.175,1.424,2.213,1.424c0.781,0,1.36-0.285,1.736-0.855c0.376-0.572,0.567-1.451,0.573-2.639V230.757z"/>
			<path style="fill:#3C3C3B;" d="M534.059,234.331l2.256-7.863h1.041l-3.333,10.977l-0.184,0.525
				c-0.449,1.189-1.137,1.783-2.064,1.783c-0.222,0-0.455-0.041-0.7-0.121l-0.009-0.893c0.134,0.041,0.283,0.061,0.446,0.061
				c0.419,0,0.764-0.125,1.032-0.375c0.269-0.252,0.49-0.656,0.665-1.217l0.402-1.338l-2.974-9.402h1.067L534.059,234.331z"/>
			<path style="fill:#3C3C3B;" d="M538.538,230.718c0-1.365,0.309-2.443,0.927-3.236s1.46-1.189,2.528-1.189
				c1.073,0,1.917,0.391,2.532,1.172s0.926,1.857,0.932,3.229v1.006c0,1.387-0.311,2.469-0.932,3.244s-1.459,1.164-2.515,1.164
				c-1.056,0-1.893-0.379-2.511-1.137s-0.939-1.803-0.962-3.133V230.718z M539.517,231.693c0,1.09,0.22,1.945,0.661,2.568
				c0.44,0.625,1.051,0.936,1.833,0.936c0.799,0,1.41-0.301,1.833-0.9c0.422-0.6,0.637-1.459,0.643-2.576v-1.006
				c0-1.09-0.222-1.947-0.665-2.572c-0.443-0.627-1.053-0.939-1.828-0.939c-0.752,0-1.35,0.305-1.793,0.916
				c-0.443,0.613-0.671,1.455-0.683,2.525V231.693z"/>
			<path style="fill:#3C3C3B;" d="M552.769,234.804c-0.537,0.867-1.367,1.303-2.493,1.303c-0.857,0-1.504-0.297-1.942-0.893
				s-0.659-1.469-0.665-2.625v-6.121h0.962v6.096c0,0.857,0.151,1.508,0.455,1.951c0.303,0.443,0.74,0.664,1.312,0.664
				c1.225,0,2.009-0.594,2.353-1.785v-6.926h0.979v9.463h-0.945L552.769,234.804z"/>
			<path style="fill:#3C3C3B;" d="M556.329,235.314c0-0.201,0.057-0.371,0.171-0.508c0.113-0.137,0.272-0.203,0.477-0.203
				s0.363,0.066,0.477,0.203s0.17,0.307,0.17,0.508c0,0.197-0.057,0.361-0.17,0.492s-0.272,0.195-0.477,0.195
				s-0.363-0.064-0.477-0.195C556.386,235.675,556.329,235.511,556.329,235.314z M557.379,232.388h-0.901l-0.053-9.191h1.015
				L557.379,232.388z"/>
		</g>
	</g>
	<path style="fill:#FFDB7C;" d="M465.312,42.073c-2.388,0-4.388,1.674-4.899,3.909h-18.449V35.751c0-0.618-0.501-1.12-1.12-1.12
		h-5.686V27.76v0v0C435.159,12.453,422.706,0,407.4,0c-11.728,0-21.773,7.314-25.832,17.617l-27.878,3.849
		c-3.551-3.392-8.356-5.483-13.642-5.483c-10.524,0-19.151,8.267-19.733,18.648h-5.719c-0.618,0-1.12,0.501-1.12,1.12v10.232
		h-20.911c-0.511-2.235-2.511-3.909-4.899-3.909c-2.773,0-5.029,2.256-5.029,5.029s2.256,5.028,5.029,5.028
		c2.388,0,4.388-1.674,4.899-3.909h20.911v10.231c0,0.618,0.501,1.12,1.12,1.12h5.685v6.409c0,0.016,0.004,0.031,0.005,0.047
		c0.002,0.04,0.006,0.078,0.012,0.118c0.005,0.035,0.011,0.069,0.019,0.103c0.009,0.035,0.02,0.069,0.032,0.104
		c0.013,0.036,0.026,0.071,0.042,0.104c0.014,0.031,0.031,0.06,0.048,0.089c0.021,0.035,0.042,0.069,0.067,0.101
		c0.009,0.013,0.016,0.026,0.026,0.039l10.772,13.261c-15.413,22.412-26.651,46.798-33.527,72.698
		c-0.01,0.032-0.017,0.064-0.025,0.096c-1.475,5.564-2.76,11.195-3.83,16.895v0c-0.001,0.006-0.003,0.013-0.004,0.019
		c-0.007,0.039-0.007,0.078-0.01,0.117c-0.003,0.03-0.009,0.059-0.009,0.09v0.017c0,0.001,0,0.002,0,0.004v6.61
		c0,2.283,1.857,4.141,4.141,4.141c1.021,0,1.956-0.373,2.678-0.988c0.752,1.049,1.978,1.736,3.364,1.736
		c2.284,0,4.141-1.858,4.141-4.141v-6.259h1.683v6.259c0,2.283,1.857,4.141,4.141,4.141c2.284,0,4.141-1.858,4.141-4.141v-6.259
		l4.643-2.239H432.61l4.643,2.239v6.259c0,2.283,1.857,4.141,4.14,4.141c2.284,0,4.141-1.858,4.141-4.141v-6.259h1.683v6.259
		c0,2.283,1.857,4.141,4.141,4.141c1.386,0,2.612-0.687,3.364-1.736c0.723,0.615,1.657,0.988,2.678,0.988
		c2.283,0,4.14-1.858,4.14-4.141v-6.61c0-0.001,0-0.002,0-0.004v-0.017c0-0.031-0.007-0.06-0.009-0.091
		c-0.003-0.039-0.003-0.077-0.01-0.116c-0.001-0.006-0.003-0.012-0.004-0.019c0,0,0,0,0,0l0-0.001
		c-1.07-5.699-2.355-11.329-3.83-16.893c-0.007-0.032-0.014-0.064-0.025-0.096c-6.877-25.901-18.115-50.286-33.527-72.698
		l10.772-13.261c0.01-0.012,0.016-0.026,0.025-0.038c0.024-0.033,0.046-0.067,0.067-0.102c0.017-0.029,0.034-0.059,0.048-0.089
		c0.016-0.034,0.029-0.069,0.042-0.105c0.012-0.034,0.023-0.069,0.032-0.104c0.008-0.034,0.014-0.068,0.02-0.104
		c0.006-0.039,0.01-0.078,0.012-0.117c0.001-0.016,0.005-0.031,0.005-0.047v-6.409h5.686c0.618,0,1.12-0.501,1.12-1.12V48.222
		h18.449c0.511,2.235,2.511,3.909,4.899,3.909c2.773,0,5.029-2.256,5.029-5.028S468.085,42.073,465.312,42.073z M361.031,161.514
		h33.377v7.143h-33.377V161.514z M331.576,130.06v30.334v8.349h-5.072c0.296-0.57,0.467-1.216,0.467-1.902
		c0-2.283-1.857-4.141-4.14-4.141h-2.248C323.333,151.576,327.015,140.624,331.576,130.06z M434.857,162.7h-2.247
		c-2.284,0-4.141,1.858-4.141,4.141c0,0.686,0.17,1.332,0.467,1.902h-5.072v-8.349V130.06
		C428.424,140.624,432.106,151.576,434.857,162.7z"/>
	<g>
		<g>
			<g>
				<g>
					<path style="fill:#3C3C3B;" d="M407.399,55.518c-15.307,0-27.759-12.453-27.759-27.759C379.64,12.453,392.093,0,407.399,0
						c15.307,0,27.76,12.453,27.76,27.76C435.159,43.066,422.706,55.518,407.399,55.518z M407.399,2.239
						c-14.072,0-25.52,11.448-25.52,25.52s11.448,25.52,25.52,25.52c14.072,0,25.52-11.448,25.52-25.52S421.471,2.239,407.399,2.239
						z"/>
				</g>
				<g>
					<path style="fill:#3C3C3B;" d="M407.4,50.802c-12.706,0-23.043-10.337-23.043-23.043S394.694,4.717,407.4,4.717
						c12.706,0,23.042,10.337,23.042,23.043S420.105,50.802,407.4,50.802z M407.4,6.21c-11.883,0-21.55,9.667-21.55,21.55
						s9.667,21.55,21.55,21.55c11.883,0,21.55-9.667,21.55-21.55S419.282,6.21,407.4,6.21z"/>
				</g>
				<g>
					<path style="fill:#3C3C3B;" d="M407.4,48.386c-11.374,0-20.627-9.253-20.627-20.626S396.026,7.133,407.4,7.133
						c11.373,0,20.626,9.253,20.626,20.626S418.773,48.386,407.4,48.386z M407.4,11.612c-8.904,0-16.148,7.244-16.148,16.148
						s7.244,16.148,16.148,16.148c8.904,0,16.148-7.244,16.148-16.148S416.304,11.612,407.4,11.612z"/>
				</g>
				<g>
					<path style="fill:#3C3C3B;" d="M407.399,43.534c-0.51,0-1.023-0.025-1.526-0.073c-0.205-0.02-0.355-0.203-0.335-0.407
						c0.02-0.206,0.2-0.343,0.407-0.336c0.879,0.086,1.789,0.093,2.666,0.022c0.208-0.009,0.386,0.137,0.402,0.342
						c0.016,0.206-0.137,0.386-0.342,0.402C408.25,43.517,407.823,43.534,407.399,43.534z M410.12,43.293
						c-0.177,0-0.335-0.127-0.367-0.308c-0.036-0.203,0.099-0.397,0.302-0.433c0.478-0.085,0.955-0.195,1.418-0.326
						c0.199-0.054,0.405,0.06,0.461,0.258c0.056,0.198-0.06,0.405-0.258,0.461c-0.487,0.137-0.988,0.252-1.49,0.342
						C410.164,43.291,410.142,43.293,410.12,43.293z M404.434,43.247c-0.024,0-0.048-0.002-0.072-0.007
						c-0.5-0.098-0.999-0.221-1.484-0.367c-0.198-0.059-0.309-0.267-0.25-0.464c0.059-0.198,0.265-0.311,0.465-0.25
						c0.461,0.138,0.937,0.256,1.413,0.349c0.202,0.039,0.334,0.235,0.294,0.437C404.765,43.124,404.609,43.247,404.434,43.247z
						 M412.988,42.485c-0.149,0-0.29-0.09-0.348-0.238c-0.075-0.192,0.02-0.408,0.212-0.483c0.447-0.174,0.894-0.375,1.328-0.596
						c0.184-0.092,0.408-0.02,0.502,0.164c0.093,0.184,0.02,0.408-0.164,0.502c-0.456,0.231-0.926,0.442-1.395,0.625
						C413.08,42.477,413.034,42.485,412.988,42.485z M401.579,42.392c-0.047,0-0.095-0.009-0.142-0.028
						c-0.467-0.192-0.932-0.41-1.383-0.647c-0.182-0.096-0.252-0.322-0.156-0.504c0.096-0.182,0.321-0.251,0.504-0.156
						c0.43,0.227,0.874,0.434,1.319,0.617c0.191,0.079,0.282,0.297,0.203,0.487C401.865,42.305,401.726,42.392,401.579,42.392z
						 M415.647,41.136c-0.123,0-0.244-0.061-0.315-0.173c-0.111-0.174-0.059-0.405,0.114-0.515c0.41-0.261,0.81-0.543,1.189-0.84
						c0.163-0.129,0.397-0.099,0.524,0.064c0.127,0.162,0.098,0.397-0.064,0.523c-0.398,0.311-0.818,0.608-1.248,0.882
						C415.784,41.117,415.715,41.136,415.647,41.136z M398.943,41c-0.07,0-0.142-0.02-0.205-0.061
						c-0.425-0.281-0.84-0.584-1.234-0.902c-0.16-0.13-0.185-0.364-0.055-0.525c0.129-0.16,0.364-0.186,0.525-0.055
						c0.375,0.303,0.77,0.592,1.175,0.859c0.172,0.114,0.219,0.346,0.106,0.518C399.183,40.941,399.065,41,398.943,41z
						 M417.995,39.3c-0.099,0-0.198-0.039-0.271-0.117c-0.142-0.149-0.136-0.386,0.014-0.527c0.349-0.331,0.688-0.685,1.007-1.052
						c0.136-0.155,0.371-0.172,0.527-0.036c0.156,0.135,0.172,0.371,0.037,0.526c-0.335,0.385-0.69,0.756-1.056,1.103
						C418.18,39.266,418.087,39.3,417.995,39.3z M396.624,39.127c-0.094,0-0.189-0.036-0.261-0.106
						c-0.363-0.356-0.713-0.733-1.038-1.12c-0.133-0.158-0.112-0.394,0.046-0.526c0.157-0.134,0.393-0.112,0.526,0.045
						c0.31,0.37,0.643,0.729,0.99,1.068c0.147,0.144,0.149,0.381,0.005,0.528C396.818,39.09,396.721,39.127,396.624,39.127z
						 M419.95,37.05c-0.075,0-0.151-0.023-0.216-0.069c-0.168-0.12-0.207-0.353-0.087-0.52c0.281-0.394,0.545-0.805,0.787-1.225
						c0.103-0.178,0.33-0.239,0.51-0.137c0.179,0.103,0.24,0.331,0.137,0.51c-0.253,0.44-0.531,0.873-0.826,1.285
						C420.181,36.996,420.066,37.05,419.95,37.05z M394.706,36.846c-0.119,0-0.235-0.056-0.308-0.162
						c-0.288-0.417-0.558-0.854-0.805-1.299c-0.1-0.18-0.035-0.407,0.146-0.507c0.179-0.098,0.407-0.035,0.507,0.146
						c0.235,0.424,0.492,0.84,0.766,1.238c0.117,0.169,0.074,0.402-0.095,0.519C394.853,36.825,394.779,36.846,394.706,36.846z
						 M421.436,34.468c-0.051,0-0.104-0.011-0.154-0.034c-0.188-0.085-0.271-0.306-0.186-0.494c0.199-0.439,0.379-0.894,0.536-1.353
						c0.066-0.195,0.279-0.297,0.473-0.233c0.195,0.066,0.3,0.278,0.233,0.474c-0.164,0.483-0.354,0.96-0.563,1.421
						C421.714,34.386,421.578,34.468,421.436,34.468z M393.261,34.24c-0.144,0-0.282-0.084-0.343-0.225
						c-0.201-0.463-0.383-0.944-0.539-1.429c-0.063-0.196,0.044-0.406,0.24-0.469c0.198-0.064,0.406,0.044,0.47,0.241
						c0.149,0.462,0.322,0.92,0.514,1.361c0.082,0.189-0.004,0.409-0.194,0.491C393.361,34.229,393.311,34.24,393.261,34.24z
						 M422.397,31.646c-0.028,0-0.057-0.003-0.086-0.01c-0.201-0.047-0.325-0.248-0.278-0.448c0.11-0.468,0.198-0.949,0.262-1.431
						c0.028-0.204,0.212-0.347,0.419-0.321c0.204,0.028,0.348,0.215,0.321,0.42c-0.067,0.505-0.16,1.011-0.276,1.502
						C422.72,31.53,422.566,31.646,422.397,31.646z M392.347,31.403c-0.172,0-0.327-0.12-0.364-0.294
						c-0.107-0.495-0.192-1.002-0.251-1.506c-0.024-0.205,0.122-0.391,0.327-0.415c0.21-0.017,0.39,0.124,0.414,0.327
						c0.056,0.481,0.137,0.964,0.239,1.436c0.044,0.201-0.084,0.399-0.286,0.443C392.4,31.401,392.373,31.403,392.347,31.403z
						 M422.791,28.693c-0.005,0-0.009,0-0.014,0c-0.206-0.008-0.367-0.181-0.359-0.387c0.007-0.182,0.01-0.363,0.01-0.546
						c0-0.305-0.009-0.609-0.027-0.909c-0.012-0.206,0.144-0.383,0.35-0.395c0.209-0.019,0.383,0.144,0.395,0.35
						c0.019,0.316,0.029,0.634,0.028,0.955c0,0.191-0.003,0.383-0.011,0.573C423.156,28.534,422.991,28.693,422.791,28.693z
						 M392.001,28.443c-0.203,0-0.369-0.162-0.373-0.365l-0.003-0.319c0-0.407,0.015-0.81,0.046-1.209
						c0.016-0.206,0.196-0.359,0.401-0.344c0.206,0.016,0.359,0.195,0.344,0.401c-0.029,0.38-0.044,0.764-0.044,1.152l0.003,0.303
						c0.004,0.206-0.159,0.377-0.365,0.381C392.006,28.443,392.004,28.443,392.001,28.443z M422.611,25.718
						c-0.18,0-0.339-0.131-0.368-0.315c-0.075-0.477-0.176-0.956-0.297-1.424c-0.052-0.2,0.068-0.403,0.267-0.456
						c0.2-0.05,0.403,0.068,0.455,0.268c0.128,0.492,0.233,0.995,0.312,1.496c0.032,0.203-0.106,0.394-0.31,0.427
						C422.65,25.716,422.631,25.718,422.611,25.718z M392.228,25.472c-0.021,0-0.043-0.001-0.065-0.006
						c-0.203-0.035-0.339-0.229-0.303-0.432c0.088-0.502,0.201-1.004,0.336-1.491c0.055-0.199,0.26-0.316,0.46-0.259
						c0.199,0.055,0.315,0.261,0.26,0.459c-0.129,0.464-0.237,0.941-0.32,1.419C392.564,25.345,392.406,25.472,392.228,25.472z
						 M421.861,22.834c-0.152,0-0.295-0.093-0.35-0.245c-0.166-0.453-0.358-0.903-0.568-1.339c-0.09-0.186-0.012-0.409,0.174-0.499
						c0.185-0.09,0.409-0.012,0.498,0.173c0.221,0.458,0.422,0.932,0.596,1.408c0.071,0.193-0.028,0.407-0.222,0.479
						C421.947,22.826,421.904,22.834,421.861,22.834z M393.025,22.6c-0.045,0-0.09-0.008-0.134-0.025
						c-0.192-0.074-0.288-0.291-0.214-0.483c0.182-0.472,0.39-0.941,0.619-1.397c0.092-0.184,0.317-0.259,0.501-0.166
						c0.184,0.093,0.259,0.317,0.166,0.501c-0.218,0.434-0.416,0.881-0.59,1.331C393.316,22.51,393.175,22.6,393.025,22.6z
						 M420.566,20.15c-0.126,0-0.249-0.063-0.319-0.179c-0.252-0.414-0.526-0.819-0.816-1.206c-0.124-0.165-0.09-0.399,0.075-0.523
						c0.165-0.124,0.399-0.09,0.522,0.075c0.304,0.405,0.592,0.831,0.856,1.265c0.107,0.176,0.051,0.405-0.125,0.512
						C420.699,20.133,420.632,20.15,420.566,20.15z M394.363,19.938c-0.068,0-0.137-0.018-0.199-0.058
						c-0.174-0.11-0.226-0.34-0.116-0.515c0.27-0.429,0.565-0.849,0.877-1.252c0.126-0.162,0.361-0.192,0.524-0.066
						c0.163,0.126,0.193,0.361,0.067,0.524c-0.297,0.383-0.578,0.784-0.836,1.192C394.608,19.877,394.487,19.938,394.363,19.938z
						 M418.779,17.764c-0.101,0-0.202-0.041-0.276-0.122c-0.327-0.358-0.674-0.703-1.032-1.027
						c-0.153-0.138-0.165-0.375-0.027-0.527c0.139-0.153,0.375-0.164,0.527-0.027c0.376,0.34,0.74,0.703,1.082,1.078
						c0.139,0.152,0.128,0.389-0.024,0.527C418.959,17.732,418.869,17.764,418.779,17.764z M396.189,17.582
						c-0.092,0-0.184-0.034-0.256-0.101c-0.15-0.141-0.157-0.378-0.016-0.528c0.347-0.369,0.717-0.725,1.1-1.061
						c0.155-0.136,0.391-0.121,0.527,0.035c0.136,0.155,0.12,0.391-0.035,0.526c-0.364,0.319-0.717,0.66-1.048,1.011
						C396.388,17.542,396.289,17.582,396.189,17.582z M416.568,15.765c-0.077,0-0.155-0.024-0.222-0.074
						c-0.391-0.29-0.798-0.563-1.209-0.811c-0.176-0.106-0.233-0.335-0.127-0.512c0.106-0.177,0.335-0.234,0.512-0.127
						c0.432,0.26,0.858,0.546,1.268,0.851c0.165,0.122,0.2,0.356,0.077,0.522C416.795,15.713,416.682,15.765,416.568,15.765z
						 M398.432,15.619c-0.116,0-0.23-0.054-0.303-0.155c-0.121-0.168-0.082-0.401,0.085-0.521c0.416-0.299,0.847-0.578,1.283-0.831
						c0.18-0.103,0.407-0.042,0.51,0.136c0.104,0.179,0.043,0.407-0.136,0.51c-0.415,0.241-0.826,0.507-1.222,0.792
						C398.584,15.596,398.507,15.619,398.432,15.619z M414.016,14.226c-0.054,0-0.109-0.012-0.161-0.036
						c-0.434-0.208-0.886-0.397-1.342-0.563c-0.194-0.07-0.294-0.284-0.224-0.478c0.071-0.194,0.284-0.293,0.478-0.223
						c0.48,0.174,0.954,0.372,1.41,0.59c0.186,0.089,0.265,0.312,0.176,0.498C414.289,14.148,414.155,14.226,414.016,14.226z
						 M401.009,14.121c-0.142,0-0.277-0.081-0.34-0.218c-0.086-0.187-0.004-0.409,0.184-0.495c0.462-0.211,0.94-0.402,1.419-0.567
						c0.195-0.069,0.407,0.036,0.474,0.232c0.067,0.195-0.036,0.407-0.231,0.474c-0.456,0.157-0.911,0.339-1.351,0.541
						C401.114,14.11,401.061,14.121,401.009,14.121z M411.215,13.209c-0.031,0-0.062-0.004-0.092-0.012
						c-0.469-0.119-0.95-0.217-1.427-0.291c-0.204-0.031-0.343-0.222-0.312-0.426c0.032-0.203,0.222-0.342,0.426-0.312
						c0.501,0.077,1.004,0.18,1.497,0.305c0.2,0.05,0.321,0.254,0.27,0.453C411.534,13.097,411.382,13.209,411.215,13.209z
						 M403.826,13.15c-0.169,0-0.322-0.115-0.363-0.286c-0.048-0.2,0.076-0.402,0.277-0.45c0.492-0.117,0.997-0.212,1.502-0.281
						c0.209-0.029,0.393,0.114,0.421,0.319c0.028,0.204-0.114,0.393-0.319,0.421c-0.481,0.066-0.963,0.157-1.431,0.268
						C403.884,13.147,403.854,13.15,403.826,13.15z M408.27,12.756c-0.007,0-0.015,0-0.022-0.001
						c-0.482-0.027-0.972-0.031-1.456-0.012c-0.195,0.003-0.379-0.152-0.387-0.359c-0.008-0.206,0.152-0.38,0.358-0.388
						c0.507-0.02,1.023-0.017,1.528,0.013c0.206,0.012,0.363,0.188,0.351,0.394C408.631,12.603,408.466,12.756,408.27,12.756z"/>
				</g>
			</g>
			<g>
				<path style="fill:#3C3C3B;" d="M340.048,55.518c-10.9,0-19.768-8.867-19.768-19.767s8.868-19.768,19.768-19.768
					c10.9,0,19.767,8.868,19.767,19.768S350.947,55.518,340.048,55.518z M340.048,18.223c-9.665,0-17.528,7.863-17.528,17.528
					c0,9.665,7.863,17.528,17.528,17.528s17.528-7.863,17.528-17.528C357.576,26.086,349.713,18.223,340.048,18.223z"/>
			</g>
			<g>
				<path style="fill:#3C3C3B;" d="M340.047,50.802c-8.299,0-15.05-6.752-15.05-15.051s6.752-15.051,15.05-15.051
					c8.299,0,15.051,6.752,15.051,15.051S348.346,50.802,340.047,50.802z M340.047,22.194c-7.476,0-13.558,6.082-13.558,13.558
					s6.082,13.558,13.558,13.558s13.558-6.082,13.558-13.558S347.523,22.194,340.047,22.194z"/>
			</g>
			<g>
				<path style="fill:#3C3C3B;" d="M340.047,48.386c-6.966,0-12.634-5.668-12.634-12.634s5.668-12.634,12.634-12.634
					c6.967,0,12.635,5.668,12.635,12.634S347.014,48.386,340.047,48.386z M340.047,27.596c-4.497,0-8.156,3.658-8.156,8.156
					s3.658,8.156,8.156,8.156c4.497,0,8.156-3.658,8.156-8.156S344.545,27.596,340.047,27.596z"/>
			</g>
			<g>
				<path style="fill:#3C3C3B;" d="M340.078,43.535c-0.013,0-0.057-0.001-0.069-0.001c-0.48,0-0.986-0.05-1.479-0.148
					c-0.202-0.04-0.333-0.236-0.293-0.439c0.04-0.201,0.238-0.337,0.438-0.293c0.45,0.089,0.911,0.134,1.372,0.134
					c0.206,0,0.389,0.168,0.389,0.374C340.436,43.367,340.284,43.535,340.078,43.535z M341.521,43.387
					c-0.174,0-0.33-0.122-0.366-0.3c-0.041-0.202,0.09-0.399,0.292-0.44c0.448-0.09,0.891-0.227,1.316-0.405
					c0.191-0.078,0.409,0.009,0.489,0.2c0.08,0.19-0.009,0.409-0.199,0.488c-0.471,0.198-0.961,0.348-1.458,0.449
					C341.57,43.385,341.545,43.387,341.521,43.387z M337.214,42.971c-0.048,0-0.097-0.009-0.143-0.028
					c-0.469-0.195-0.921-0.437-1.344-0.721c-0.171-0.114-0.217-0.346-0.102-0.518c0.115-0.171,0.347-0.217,0.518-0.102
					c0.382,0.256,0.791,0.475,1.215,0.651c0.19,0.079,0.281,0.297,0.201,0.488C337.499,42.884,337.36,42.971,337.214,42.971z
					 M344.185,42.27c-0.12,0-0.237-0.058-0.309-0.164c-0.116-0.171-0.071-0.402,0.1-0.518c0.38-0.258,0.738-0.554,1.062-0.881
					c0.146-0.147,0.382-0.146,0.528-0.001c0.146,0.145,0.147,0.381,0.001,0.528c-0.358,0.36-0.753,0.687-1.173,0.972
					C344.33,42.248,344.258,42.27,344.185,42.27z M334.813,41.364c-0.095,0-0.191-0.036-0.263-0.109
					c-0.36-0.359-0.686-0.754-0.969-1.177c-0.115-0.171-0.069-0.403,0.102-0.518c0.17-0.116,0.403-0.069,0.518,0.102
					c0.257,0.382,0.551,0.741,0.876,1.065c0.146,0.145,0.146,0.381,0.001,0.528C335.004,41.328,334.908,41.364,334.813,41.364z
					 M346.221,40.218c-0.071,0-0.143-0.02-0.206-0.063c-0.172-0.114-0.218-0.346-0.104-0.518c0.255-0.383,0.473-0.792,0.648-1.217
					c0.079-0.19,0.296-0.283,0.487-0.203c0.191,0.078,0.281,0.297,0.203,0.487c-0.194,0.469-0.434,0.922-0.716,1.346
					C346.46,40.16,346.341,40.218,346.221,40.218z M333.203,38.964c-0.146,0-0.285-0.087-0.344-0.23
					c-0.196-0.47-0.345-0.961-0.444-1.459c-0.04-0.202,0.091-0.399,0.293-0.439c0.202-0.042,0.398,0.09,0.439,0.293
					c0.09,0.45,0.225,0.894,0.401,1.318c0.079,0.19-0.011,0.409-0.201,0.488C333.3,38.954,333.252,38.964,333.203,38.964z
					 M347.321,37.547c-0.024,0-0.048-0.002-0.072-0.007c-0.202-0.04-0.334-0.236-0.295-0.438c0.086-0.442,0.13-0.897,0.13-1.351
					c0-0.206,0.167-0.384,0.373-0.384c0.206,0,0.373,0.155,0.373,0.362v0.023c0,0.502-0.048,1.005-0.144,1.494
					C347.651,37.424,347.495,37.547,347.321,37.547z M332.638,36.128c-0.206,0-0.373-0.163-0.373-0.37v-0.007
					c0-0.507,0.05-1.015,0.147-1.51c0.04-0.203,0.236-0.337,0.438-0.294c0.202,0.039,0.334,0.236,0.294,0.438
					c-0.088,0.448-0.133,0.907-0.133,1.365C333.011,35.958,332.845,36.128,332.638,36.128z M347.311,34.658
					c-0.174,0-0.33-0.122-0.366-0.3c-0.09-0.45-0.226-0.893-0.404-1.316c-0.08-0.19,0.01-0.409,0.2-0.488s0.409,0.009,0.488,0.2
					c0.197,0.469,0.347,0.96,0.448,1.458c0.04,0.202-0.09,0.399-0.292,0.44C347.36,34.656,347.335,34.658,347.311,34.658z
					 M333.198,33.299c-0.048,0-0.096-0.009-0.143-0.028c-0.19-0.079-0.281-0.297-0.202-0.488c0.194-0.469,0.436-0.921,0.719-1.344
					c0.114-0.171,0.345-0.219,0.518-0.104c0.171,0.114,0.218,0.346,0.103,0.518c-0.255,0.383-0.474,0.792-0.65,1.216
					C333.484,33.212,333.345,33.299,333.198,33.299z M346.196,31.994c-0.12,0-0.238-0.058-0.31-0.165
					c-0.256-0.38-0.551-0.738-0.878-1.063c-0.146-0.145-0.147-0.381-0.001-0.528c0.145-0.146,0.382-0.146,0.528-0.001
					c0.361,0.359,0.688,0.754,0.971,1.175c0.115,0.171,0.07,0.403-0.101,0.518C346.34,31.973,346.268,31.994,346.196,31.994z
					 M334.803,30.895c-0.095,0-0.191-0.036-0.264-0.109c-0.146-0.145-0.146-0.381-0.001-0.528c0.359-0.36,0.755-0.686,1.175-0.969
					c0.171-0.115,0.403-0.07,0.518,0.101s0.07,0.403-0.101,0.518c-0.38,0.256-0.738,0.551-1.064,0.878
					C334.994,30.859,334.899,30.895,334.803,30.895z M344.148,29.956c-0.071,0-0.143-0.02-0.207-0.063
					c-0.384-0.256-0.793-0.474-1.216-0.649c-0.191-0.078-0.281-0.297-0.203-0.487c0.078-0.191,0.297-0.282,0.487-0.203
					c0.468,0.192,0.921,0.434,1.346,0.717c0.172,0.114,0.218,0.346,0.104,0.518C344.387,29.898,344.268,29.956,344.148,29.956z
					 M337.201,29.284c-0.146,0-0.285-0.086-0.344-0.229c-0.079-0.19,0.01-0.409,0.2-0.488c0.469-0.196,0.959-0.346,1.459-0.446
					c0.2-0.043,0.399,0.09,0.439,0.293c0.04,0.202-0.09,0.399-0.293,0.439c-0.451,0.09-0.894,0.226-1.317,0.402
					C337.297,29.274,337.249,29.284,337.201,29.284z M341.478,28.854c-0.024,0-0.048-0.002-0.073-0.007
					c-0.444-0.087-0.901-0.131-1.358-0.131c-0.206,0-0.38-0.167-0.38-0.373s0.16-0.373,0.366-0.373h0.014
					c0.506,0,1.012,0.049,1.503,0.146c0.202,0.039,0.334,0.235,0.294,0.438C341.809,28.731,341.653,28.854,341.478,28.854z"/>
			</g>
			<g>
				<path style="fill:#3C3C3B;" d="M434.039,67.101H321.4c-0.618,0-1.12-0.502-1.12-1.12v-30.23c0-0.618,0.501-1.12,1.12-1.12
					s1.12,0.501,1.12,1.12v29.11h110.4V27.76c0-0.618,0.501-1.12,1.12-1.12s1.12,0.501,1.12,1.12v38.221
					C435.159,66.6,434.658,67.101,434.039,67.101z"/>
			</g>
			<g>
				<path style="fill:#3C3C3B;" d="M422.744,81.006h-15.344c-0.618,0-1.12-0.501-1.12-1.12s0.501-1.12,1.12-1.12h14.811
					l10.96-13.491c0.39-0.48,1.095-0.553,1.575-0.163c0.48,0.39,0.553,1.095,0.163,1.574l-11.296,13.905
					C423.4,80.854,423.081,81.006,422.744,81.006z"/>
			</g>
			<g>
				<path style="fill:#3C3C3B;" d="M358.695,81.006h-26c-0.337,0-0.656-0.152-0.869-0.414l-11.296-13.905
					c-0.39-0.48-0.317-1.185,0.163-1.574c0.48-0.39,1.185-0.317,1.575,0.163l10.96,13.491h25.467c0.618,0,1.12,0.502,1.12,1.12
					S359.314,81.006,358.695,81.006z"/>
			</g>
			<g>
				<path style="fill:#3C3C3B;" d="M422.744,161.513h-90.048c-0.618,0-1.12-0.501-1.12-1.12v-52.86c0-0.618,0.501-1.12,1.12-1.12
					s1.12,0.502,1.12,1.12v51.74h87.809v-51.74c0-0.618,0.501-1.12,1.12-1.12c0.618,0,1.12,0.502,1.12,1.12v52.86
					C423.863,161.012,423.362,161.513,422.744,161.513z"/>
			</g>
			<g>
				<path style="fill:#3C3C3B;" d="M353.315,23.768c-0.55,0-1.03-0.406-1.108-0.967c-0.085-0.612,0.343-1.178,0.956-1.262
					l29.047-4.011c0.609-0.078,1.178,0.344,1.262,0.956c0.085,0.612-0.343,1.178-0.956,1.262l-29.047,4.011
					C353.418,23.764,353.366,23.768,353.315,23.768z"/>
			</g>
			<g>
				<path style="fill:#3C3C3B;" d="M331.576,168.743v-8.369c0-0.618,0.501-1.12,1.12-1.12s1.12,0.502,1.12,1.12v8.369H331.576z"/>
			</g>
			<g>
				<path style="fill:#3C3C3B;" d="M358.792,168.743v-8.369c0-0.618,0.501-1.12,1.12-1.12c0.618,0,1.12,0.502,1.12,1.12v8.369
					H358.792z"/>
			</g>
			<g>
				<path style="fill:#3C3C3B;" d="M394.408,168.743v-8.369c0-0.618,0.501-1.12,1.12-1.12c0.618,0,1.12,0.502,1.12,1.12v8.369
					H394.408z"/>
			</g>
			<g>
				<path style="fill:#3C3C3B;" d="M421.624,168.743v-8.369c0-0.618,0.501-1.12,1.12-1.12c0.618,0,1.12,0.502,1.12,1.12v8.369
					H421.624z"/>
			</g>
			<g>
				<path style="fill:#3C3C3B;" d="M321.4,59.573h-6.805c-0.618,0-1.12-0.501-1.12-1.12V35.751c0-0.618,0.501-1.12,1.12-1.12h6.805
					c0.618,0,1.12,0.501,1.12,1.12s-0.501,1.12-1.12,1.12h-5.685v20.462h5.685c0.618,0,1.12,0.501,1.12,1.12
					S322.018,59.573,321.4,59.573z"/>
			</g>
			<g>
				<path style="fill:#3C3C3B;" d="M440.844,59.573h-6.805c-0.618,0-1.12-0.501-1.12-1.12s0.501-1.12,1.12-1.12h5.685V36.871h-5.685
					c-0.618,0-1.12-0.501-1.12-1.12s0.501-1.12,1.12-1.12h6.805c0.618,0,1.12,0.501,1.12,1.12v22.702
					C441.964,59.071,441.462,59.573,440.844,59.573z"/>
			</g>
			<g>
				<path style="fill:#3C3C3B;" d="M314.595,48.222h-23.02c-0.618,0-1.12-0.501-1.12-1.12c0-0.618,0.501-1.12,1.12-1.12h23.02
					c0.618,0,1.12,0.501,1.12,1.12C315.715,47.72,315.214,48.222,314.595,48.222z"/>
			</g>
			<g>
				<path style="fill:#3C3C3B;" d="M461.403,48.222h-20.559c-0.618,0-1.12-0.501-1.12-1.12c0-0.618,0.501-1.12,1.12-1.12h20.559
					c0.618,0,1.12,0.501,1.12,1.12C462.522,47.72,462.021,48.222,461.403,48.222z"/>
			</g>
			<g>
				<path style="fill:#3C3C3B;" d="M287.666,52.131c-2.773,0-5.028-2.256-5.028-5.029s2.256-5.029,5.028-5.029
					s5.029,2.256,5.029,5.029S290.439,52.131,287.666,52.131z M287.666,44.313c-1.538,0-2.789,1.252-2.789,2.79
					c0,1.538,1.251,2.79,2.789,2.79s2.79-1.252,2.79-2.79C290.455,45.564,289.204,44.313,287.666,44.313z"/>
			</g>
			<g>
				<path style="fill:#3C3C3B;" d="M465.312,52.131c-2.773,0-5.029-2.256-5.029-5.029s2.256-5.029,5.029-5.029
					s5.028,2.256,5.028,5.029S468.085,52.131,465.312,52.131z M465.312,44.313c-1.538,0-2.79,1.252-2.79,2.79
					c0,1.538,1.252,2.79,2.79,2.79s2.789-1.252,2.789-2.79C468.101,45.564,466.85,44.313,465.312,44.313z"/>
			</g>
			<g>
				<path style="fill:#3C3C3B;" d="M377.719,139.245c-10.534,0-19.104-8.571-19.104-19.105c0-4.764,1.771-9.329,4.986-12.857
					c0.139-0.153,0.374-0.164,0.527-0.024c0.152,0.138,0.163,0.375,0.024,0.527c-3.09,3.39-4.792,7.778-4.792,12.355
					c0,10.123,8.235,18.359,18.358,18.359c10.123,0,18.359-8.235,18.359-18.359c0-4.578-1.702-8.965-4.791-12.355
					c-0.139-0.152-0.128-0.389,0.024-0.527c0.153-0.138,0.389-0.128,0.527,0.024c3.215,3.527,4.986,8.094,4.986,12.857
					C396.824,130.674,388.254,139.245,377.719,139.245z"/>
			</g>
			<g>
				<path style="fill:#3C3C3B;" d="M359.913,166.326c-0.019,0-0.039-0.001-0.058-0.001l-27.216-1.386
					c-0.618-0.031-1.093-0.558-1.061-1.175c0.032-0.618,0.559-1.083,1.175-1.061l27.216,1.386c0.618,0.031,1.093,0.558,1.061,1.175
					C360.999,165.861,360.505,166.326,359.913,166.326z"/>
			</g>
			<g>
				<path style="fill:#3C3C3B;" d="M422.745,166.326c-0.019,0-0.038-0.001-0.058-0.001l-27.216-1.375
					c-0.617-0.031-1.093-0.557-1.062-1.174c0.031-0.618,0.558-1.086,1.175-1.062l27.216,1.375c0.617,0.031,1.093,0.557,1.062,1.174
					C423.832,165.861,423.337,166.326,422.745,166.326z"/>
			</g>
			<g>
				<path style="fill:#3C3C3B;" d="M332.794,168.657c-0.551,0-1.032-0.407-1.108-0.969c-0.083-0.613,0.346-1.177,0.959-1.26
					l19.881-2.7c0.609-0.091,1.177,0.346,1.26,0.959c0.083,0.613-0.346,1.177-0.959,1.26l-19.881,2.7
					C332.895,168.654,332.844,168.657,332.794,168.657z"/>
			</g>
			<g>
				<path style="fill:#3C3C3B;" d="M402.251,81.006h-8.701c-0.618,0-1.12-0.501-1.12-1.12s0.501-1.12,1.12-1.12h8.701
					c0.618,0,1.12,0.502,1.12,1.12S402.869,81.006,402.251,81.006z"/>
			</g>
			<g>
				<path style="fill:#3C3C3B;" d="M388.075,81.006h-4.293c-0.618,0-1.12-0.501-1.12-1.12s0.501-1.12,1.12-1.12h4.293
					c0.618,0,1.12,0.502,1.12,1.12S388.693,81.006,388.075,81.006z"/>
			</g>
			<g>
				<path style="fill:#3C3C3B;" d="M422.758,120.512c-0.009,0-0.019,0-0.029-0.001l-23.393-1.787
					c-0.206-0.016-0.359-0.195-0.344-0.401c0.016-0.206,0.185-0.367,0.401-0.344l23.393,1.787c0.206,0.016,0.359,0.195,0.344,0.401
					C423.114,120.363,422.951,120.512,422.758,120.512z"/>
			</g>
			<g>
				<path style="fill:#3C3C3B;" d="M422.743,113.635c-0.004,0-0.008,0-0.012,0l-89.947-2.865c-0.206-0.007-0.367-0.179-0.361-0.385
					c0.007-0.206,0.16-0.374,0.385-0.362l89.947,2.865c0.206,0.007,0.367,0.179,0.361,0.385
					C423.109,113.476,422.943,113.635,422.743,113.635z"/>
			</g>
			<g>
				<path style="fill:#3C3C3B;" d="M355.462,25.627c-0.191,0-0.354-0.145-0.371-0.339c-0.019-0.206,0.132-0.387,0.337-0.406
					l25.743-2.368c0.208-0.02,0.387,0.133,0.406,0.337c0.019,0.206-0.132,0.387-0.337,0.406l-25.743,2.368
					C355.485,25.626,355.473,25.627,355.462,25.627z"/>
			</g>
			<g>
				<path style="fill:#3C3C3B;" d="M429.994,71.335c-0.006,0-0.012,0-0.017-0.001l-108.594-4.981
					c-0.206-0.009-0.365-0.184-0.356-0.389c0.009-0.206,0.189-0.381,0.39-0.356L430.01,70.59c0.206,0.009,0.365,0.184,0.356,0.389
					C430.357,71.179,430.192,71.335,429.994,71.335z"/>
			</g>
			<g>
				<path style="fill:#3C3C3B;" d="M332.695,160.767c-0.194,0-0.358-0.15-0.372-0.347c-0.015-0.206,0.14-0.384,0.346-0.399
					l90.062-6.299c0.202-0.017,0.384,0.141,0.398,0.346c0.014,0.206-0.141,0.384-0.347,0.399l-90.062,6.299
					C332.713,160.767,332.704,160.767,332.695,160.767z"/>
			</g>
			<g>
				<g>
					<path style="fill:#3C3C3B;" d="M377.72,142.977c-12.592,0-22.837-10.244-22.837-22.836c0-4.08,1.064-8.011,3.094-11.487H316.2
						c-0.618,0-1.12-0.501-1.12-1.12s0.501-1.12,1.12-1.12h79.205c0.362,0,0.701,0.175,0.911,0.469
						c2.774,3.884,4.24,8.469,4.24,13.258C400.556,132.733,390.312,142.977,377.72,142.977z M360.619,108.653
						c-2.29,3.4-3.497,7.359-3.497,11.487c0,11.357,9.24,20.597,20.598,20.597c11.357,0,20.598-9.24,20.598-20.597
						c0-4.128-1.208-8.087-3.498-11.487H360.619z"/>
				</g>
				<g>
					<path style="fill:#3C3C3B;" d="M295.019,170.982c-0.069,0-0.138-0.006-0.208-0.019c-0.608-0.114-1.008-0.7-0.894-1.307
						c6.108-32.549,18.845-62.966,37.858-90.408c0.352-0.507,1.049-0.633,1.558-0.283c0.508,0.353,0.635,1.05,0.282,1.558
						c-18.832,27.181-31.448,57.308-37.498,89.545C296.017,170.607,295.547,170.982,295.019,170.982z"/>
				</g>
				<g>
					<path style="fill:#3C3C3B;" d="M319.145,164.939c-0.087,0-0.175-0.009-0.262-0.031c-0.601-0.144-0.972-0.749-0.827-1.35
						c3.224-13.433,7.807-26.629,13.624-39.22c0.259-0.562,0.925-0.808,1.486-0.547c0.561,0.259,0.806,0.924,0.547,1.486
						c-5.754,12.458-10.289,25.514-13.479,38.803C320.109,164.594,319.651,164.939,319.145,164.939z"/>
				</g>
				<g>
					<path style="fill:#3C3C3B;" d="M356.594,115.46c-0.009,0-0.019,0-0.029-0.001l-23.897-1.824
						c-0.056-0.004-0.11-0.022-0.159-0.05c-3.696-2.148-7.575-4.068-11.53-5.707c-0.19-0.079-0.281-0.297-0.202-0.488
						c0.079-0.19,0.298-0.282,0.488-0.202c3.96,1.64,7.844,3.56,11.546,5.707l23.812,1.818c0.206,0.016,0.359,0.195,0.344,0.401
						C356.951,115.311,356.787,115.46,356.594,115.46z"/>
				</g>
				<g>
					<path style="fill:#3C3C3B;" d="M332.682,120.512c-0.062,0-0.125-0.015-0.183-0.048c-5.883-3.32-12.034-6.305-18.281-8.875
						c-0.191-0.079-0.282-0.297-0.203-0.488c0.078-0.19,0.296-0.281,0.487-0.203c6.276,2.582,12.455,5.581,18.364,8.915
						c0.18,0.101,0.243,0.329,0.142,0.509C332.939,120.444,332.812,120.512,332.682,120.512z"/>
				</g>
				<g>
					<path style="fill:#3C3C3B;" d="M331.939,127.582c-0.188,0-0.379-0.047-0.554-0.147c-6.424-3.664-13.141-6.969-19.964-9.824
						c-0.57-0.238-0.839-0.894-0.601-1.465c0.239-0.571,0.895-0.838,1.465-0.601c6.907,2.89,13.706,6.236,20.209,9.945
						c0.537,0.306,0.724,0.99,0.418,1.527C332.706,127.379,332.328,127.582,331.939,127.582z"/>
				</g>
				<g>
					<path style="fill:#3C3C3B;" d="M329.204,133.168c-0.061,0-0.122-0.015-0.179-0.046c-6.511-3.58-13.298-6.823-20.173-9.639
						c-0.191-0.078-0.282-0.296-0.204-0.487c0.079-0.191,0.297-0.281,0.487-0.204c6.901,2.827,13.714,6.083,20.249,9.676
						c0.181,0.1,0.247,0.327,0.147,0.507C329.464,133.098,329.336,133.168,329.204,133.168z"/>
				</g>
				<g>
					<path style="fill:#3C3C3B;" d="M327.47,137.507c-0.062,0-0.124-0.015-0.182-0.047l-19.697-11.02
						c-0.18-0.101-0.244-0.328-0.144-0.508c0.101-0.181,0.328-0.244,0.508-0.144l19.697,11.02c0.18,0.101,0.244,0.328,0.144,0.508
						C327.728,137.438,327.601,137.507,327.47,137.507z"/>
				</g>
				<g>
					<path style="fill:#3C3C3B;" d="M325.446,142.961c-0.069,0-0.139-0.019-0.202-0.059c-6.325-4.064-12.951-7.815-19.693-11.147
						c-0.185-0.091-0.261-0.315-0.169-0.5c0.091-0.184,0.315-0.26,0.5-0.169c6.767,3.344,13.417,7.108,19.766,11.188
						c0.173,0.112,0.223,0.343,0.112,0.516C325.689,142.901,325.568,142.961,325.446,142.961z"/>
				</g>
				<g>
					<path style="fill:#3C3C3B;" d="M323.738,148.708c-0.207,0-0.416-0.057-0.603-0.176c-6.327-4.051-12.97-7.746-19.745-10.981
						c-0.558-0.266-0.794-0.934-0.528-1.493c0.266-0.558,0.935-0.794,1.493-0.528c6.858,3.275,13.583,7.014,19.988,11.115
						c0.52,0.334,0.672,1.026,0.339,1.547C324.469,148.526,324.107,148.708,323.738,148.708z"/>
				</g>
				<g>
					<path style="fill:#3C3C3B;" d="M322.317,152.48c-0.057,0-0.115-0.013-0.169-0.041l-20.206-10.286
						c-0.184-0.093-0.257-0.318-0.164-0.501c0.093-0.184,0.319-0.257,0.502-0.163l20.206,10.286
						c0.184,0.093,0.257,0.318,0.163,0.501C322.584,152.406,322.453,152.48,322.317,152.48z"/>
				</g>
				<g>
					<path style="fill:#3C3C3B;" d="M320.922,157.302c-0.062,0-0.124-0.015-0.182-0.047c-6.584-3.673-13.412-7.098-20.297-10.179
						c-0.188-0.084-0.273-0.305-0.188-0.493c0.084-0.187,0.304-0.275,0.493-0.188c6.905,3.09,13.753,6.524,20.356,10.208
						c0.18,0.101,0.245,0.328,0.144,0.507C321.18,157.233,321.053,157.302,320.922,157.302z"/>
				</g>
				<g>
					<path style="fill:#3C3C3B;" d="M320.183,159.976c-0.048,0-0.097-0.009-0.144-0.029c-6.867-2.87-13.92-5.538-20.963-7.931
						c-0.195-0.066-0.3-0.278-0.234-0.474c0.066-0.195,0.278-0.297,0.473-0.233c7.059,2.398,14.128,5.073,21.011,7.95
						c0.19,0.079,0.28,0.298,0.2,0.488C320.468,159.89,320.329,159.976,320.183,159.976z"/>
				</g>
				<g>
					<path style="fill:#3C3C3B;" d="M318.826,164.939c-0.18,0-0.363-0.043-0.532-0.135l-19.99-10.824
						c-0.544-0.294-0.746-0.974-0.451-1.518c0.294-0.544,0.973-0.748,1.518-0.452l19.99,10.824c0.544,0.294,0.746,0.974,0.451,1.518
						C319.609,164.727,319.224,164.939,318.826,164.939z"/>
				</g>
				<g>
					<path style="fill:#3C3C3B;" d="M315.053,170.982h-20.034c-0.618,0-1.12-0.502-1.12-1.12c0-0.618,0.501-1.12,1.12-1.12h20.034
						c0.618,0,1.12,0.501,1.12,1.12C316.172,170.481,315.671,170.982,315.053,170.982z"/>
				</g>
				<g>
					<path style="fill:#3C3C3B;" d="M298.039,180.634c-2.283,0-4.141-1.857-4.141-4.141v-6.631c0-0.618,0.501-1.12,1.12-1.12
						c0.618,0,1.12,0.501,1.12,1.12v6.631c0,1.049,0.853,1.902,1.901,1.902s1.902-0.853,1.902-1.902v-6.631
						c0-0.618,0.501-1.12,1.12-1.12s1.12,0.501,1.12,1.12v6.631C302.18,178.777,300.323,180.634,298.039,180.634z"/>
				</g>
				<g>
					<path style="fill:#3C3C3B;" d="M301.061,172.851c-0.009,0-0.019,0-0.029-0.001l-6.042-0.461
						c-0.206-0.016-0.359-0.195-0.344-0.401c0.016-0.206,0.187-0.362,0.401-0.344l6.042,0.461c0.206,0.016,0.359,0.195,0.344,0.401
						C301.418,172.702,301.254,172.851,301.061,172.851z"/>
				</g>
				<g>
					<path style="fill:#3C3C3B;" d="M301.061,175.851c-0.003,0-0.006,0-0.009,0l-6.042-0.151c-0.206-0.005-0.369-0.176-0.364-0.383
						c0.005-0.206,0.151-0.374,0.383-0.364l6.042,0.151c0.206,0.005,0.369,0.176,0.364,0.383
						C301.429,175.69,301.262,175.851,301.061,175.851z"/>
				</g>
				<g>
					<g>
						<path style="fill:#3C3C3B;" d="M304.082,181.382c-2.283,0-4.141-1.857-4.141-4.141v-7.378c0-0.618,0.501-1.12,1.12-1.12
							s1.12,0.501,1.12,1.12v7.378c0,1.049,0.853,1.902,1.902,1.902s1.901-0.853,1.901-1.902v-7.378c0-0.618,0.501-1.12,1.12-1.12
							c0.618,0,1.12,0.501,1.12,1.12v7.378C308.223,179.524,306.365,181.382,304.082,181.382z"/>
					</g>
					<g>
						<path style="fill:#3C3C3B;" d="M307.103,173.611c-0.009,0-0.019,0-0.029-0.001l-6.042-0.461
							c-0.206-0.016-0.359-0.195-0.344-0.401c0.016-0.206,0.185-0.359,0.401-0.344l6.042,0.461c0.206,0.016,0.359,0.195,0.344,0.401
							C307.46,173.463,307.296,173.611,307.103,173.611z"/>
					</g>
					<g>
						<path style="fill:#3C3C3B;" d="M307.103,176.101c-0.003,0-0.006,0-0.009,0l-6.042-0.152c-0.206-0.005-0.369-0.176-0.364-0.383
							c0.005-0.206,0.151-0.367,0.383-0.364l6.042,0.152c0.206,0.005,0.369,0.176,0.364,0.383
							C307.471,175.94,307.305,176.101,307.103,176.101z"/>
					</g>
				</g>
				<g>
					<g>
						<path style="fill:#3C3C3B;" d="M314.047,188.852c-2.283,0-4.141-1.857-4.141-4.141v-14.848c0-0.618,0.501-1.12,1.12-1.12
							c0.618,0,1.12,0.501,1.12,1.12v14.848c0,1.049,0.853,1.902,1.902,1.902s1.901-0.853,1.901-1.902v-14.848
							c0-0.618,0.501-1.12,1.12-1.12s1.12,0.501,1.12,1.12v14.848C318.187,186.994,316.33,188.852,314.047,188.852z"/>
					</g>
					<g>
						<path style="fill:#3C3C3B;" d="M311.025,173.611c-0.193,0-0.357-0.149-0.372-0.345c-0.016-0.206,0.138-0.385,0.344-0.401
							l6.042-0.461c0.21-0.015,0.385,0.139,0.401,0.344c0.016,0.206-0.138,0.385-0.344,0.401l-6.042,0.461
							C311.044,173.611,311.034,173.611,311.025,173.611z"/>
					</g>
					<g>
						<path style="fill:#3C3C3B;" d="M311.025,176.101c-0.202,0-0.368-0.161-0.373-0.364c-0.005-0.206,0.158-0.378,0.364-0.383
							l6.042-0.152c0.003,0,0.007,0,0.009,0c0.202,0,0.368,0.161,0.373,0.364c0.005,0.206-0.158,0.378-0.364,0.383l-6.042,0.152
							C311.031,176.101,311.028,176.101,311.025,176.101z"/>
					</g>
					<g>
						<path style="fill:#3C3C3B;" d="M311.025,178.874c-0.193,0-0.357-0.149-0.372-0.345c-0.016-0.206,0.138-0.385,0.344-0.401
							l6.042-0.461c0.21-0.023,0.385,0.138,0.401,0.344c0.016,0.206-0.138,0.385-0.344,0.401l-6.042,0.461
							C311.044,178.874,311.034,178.874,311.025,178.874z"/>
					</g>
					<g>
						<path style="fill:#3C3C3B;" d="M311.025,181.363c-0.202,0-0.368-0.161-0.373-0.364c-0.005-0.206,0.158-0.378,0.364-0.383
							l6.042-0.151c0.003,0,0.007,0,0.009,0c0.202,0,0.368,0.161,0.373,0.364c0.005,0.206-0.158,0.378-0.364,0.383l-6.042,0.151
							C311.031,181.363,311.028,181.363,311.025,181.363z"/>
					</g>
					<g>
						<path style="fill:#3C3C3B;" d="M310.836,183.32c-0.202,0-0.368-0.161-0.373-0.364c-0.005-0.206,0.158-0.378,0.364-0.383
							l6.042-0.152c0.233,0.004,0.378,0.158,0.383,0.364c0.005,0.206-0.158,0.378-0.364,0.383l-6.042,0.152
							C310.842,183.32,310.839,183.32,310.836,183.32z"/>
					</g>
				</g>
				<g>
					<g>
						<path style="fill:#3C3C3B;" d="M322.83,170.982h-7.379c-0.618,0-1.12-0.502-1.12-1.12c0-0.618,0.501-1.12,1.12-1.12h7.379
							c1.049,0,1.901-0.853,1.901-1.902s-0.853-1.902-1.901-1.902h-3.685c-0.618,0-1.12-0.502-1.12-1.12
							c0-0.618,0.501-1.12,1.12-1.12h3.685c2.283,0,4.141,1.857,4.141,4.141C326.97,169.125,325.113,170.982,322.83,170.982z"/>
					</g>
				</g>
			</g>
			<g>
				<g>
					<path style="fill:#3C3C3B;" d="M460.42,170.982c-0.528,0-0.998-0.375-1.099-0.913c-6.049-32.235-18.665-62.363-37.497-89.545
						c-0.352-0.509-0.226-1.206,0.282-1.558c0.508-0.351,1.206-0.225,1.558,0.283c19.013,27.442,31.75,57.86,37.857,90.408
						c0.114,0.607-0.286,1.193-0.894,1.307C460.558,170.976,460.488,170.982,460.42,170.982z"/>
				</g>
				<g>
					<path style="fill:#3C3C3B;" d="M436.294,164.939c-0.505,0-0.964-0.345-1.088-0.859c-3.19-13.29-7.725-26.345-13.479-38.803
						c-0.259-0.561-0.014-1.227,0.547-1.486c0.562-0.261,1.226-0.015,1.486,0.547c5.816,12.591,10.4,25.787,13.624,39.22
						c0.144,0.601-0.226,1.206-0.827,1.35C436.469,164.929,436.381,164.939,436.294,164.939z"/>
				</g>
				<g>
					<path style="fill:#3C3C3B;" d="M398.846,115.46c-0.193,0-0.357-0.149-0.372-0.345c-0.016-0.206,0.138-0.385,0.344-0.401
						l23.812-1.818c3.703-2.147,7.587-4.067,11.546-5.707c0.19-0.079,0.409,0.012,0.488,0.202c0.079,0.19-0.012,0.409-0.202,0.488
						c-3.954,1.638-7.834,3.558-11.53,5.707c-0.049,0.028-0.103,0.045-0.159,0.05l-23.897,1.824
						C398.865,115.46,398.855,115.46,398.846,115.46z"/>
				</g>
				<g>
					<path style="fill:#3C3C3B;" d="M422.758,120.512c-0.13,0-0.257-0.069-0.325-0.19c-0.101-0.18-0.038-0.407,0.142-0.509
						c5.909-3.334,12.088-6.334,18.364-8.915c0.192-0.077,0.409,0.013,0.487,0.203c0.078,0.191-0.012,0.409-0.203,0.488
						c-6.248,2.569-12.399,5.555-18.281,8.875C422.883,120.497,422.819,120.512,422.758,120.512z"/>
				</g>
				<g>
					<path style="fill:#3C3C3B;" d="M423.5,127.582c-0.389,0-0.767-0.203-0.974-0.565c-0.306-0.537-0.119-1.221,0.418-1.527
						c6.502-3.709,13.301-7.055,20.209-9.945c0.571-0.238,1.226,0.031,1.465,0.601c0.239,0.571-0.03,1.226-0.601,1.465
						c-6.824,2.855-13.541,6.161-19.964,9.824C423.879,127.535,423.688,127.582,423.5,127.582z"/>
				</g>
				<g>
					<path style="fill:#3C3C3B;" d="M426.235,133.168c-0.132,0-0.26-0.07-0.327-0.193c-0.099-0.181-0.034-0.407,0.147-0.507
						c6.535-3.593,13.347-6.848,20.249-9.676c0.189-0.078,0.409,0.013,0.487,0.204c0.078,0.191-0.013,0.409-0.204,0.487
						c-6.875,2.817-13.662,6.06-20.172,9.639C426.358,133.153,426.296,133.168,426.235,133.168z"/>
				</g>
				<g>
					<path style="fill:#3C3C3B;" d="M427.969,137.507c-0.131,0-0.258-0.069-0.326-0.191c-0.101-0.18-0.036-0.407,0.144-0.508
						l19.696-11.02c0.18-0.1,0.408-0.036,0.508,0.144c0.101,0.18,0.036,0.407-0.144,0.508l-19.696,11.02
						C428.094,137.492,428.031,137.507,427.969,137.507z"/>
				</g>
				<g>
					<path style="fill:#3C3C3B;" d="M429.994,142.961c-0.123,0-0.243-0.061-0.314-0.171c-0.112-0.173-0.061-0.405,0.112-0.516
						c6.349-4.079,12.999-7.843,19.765-11.188c0.186-0.092,0.409-0.015,0.5,0.169c0.091,0.185,0.016,0.409-0.169,0.5
						c-6.742,3.332-13.367,7.082-19.693,11.147C430.132,142.943,430.062,142.961,429.994,142.961z"/>
				</g>
				<g>
					<path style="fill:#3C3C3B;" d="M431.701,148.708c-0.369,0-0.73-0.182-0.944-0.516c-0.333-0.52-0.181-1.213,0.339-1.547
						c6.406-4.102,13.131-7.841,19.988-11.115c0.557-0.267,1.227-0.03,1.493,0.528c0.266,0.558,0.03,1.227-0.528,1.493
						c-6.774,3.234-13.417,6.929-19.745,10.981C432.117,148.651,431.907,148.708,431.701,148.708z"/>
				</g>
				<g>
					<path style="fill:#3C3C3B;" d="M433.122,152.48c-0.136,0-0.267-0.074-0.333-0.204c-0.093-0.184-0.02-0.408,0.163-0.501
						l20.207-10.286c0.183-0.094,0.408-0.021,0.502,0.163c0.093,0.184,0.02,0.408-0.164,0.501l-20.206,10.286
						C433.237,152.467,433.179,152.48,433.122,152.48z"/>
				</g>
				<g>
					<path style="fill:#3C3C3B;" d="M434.517,157.302c-0.131,0-0.258-0.069-0.326-0.192c-0.101-0.179-0.036-0.407,0.144-0.507
						c6.602-3.683,13.45-7.118,20.356-10.208c0.19-0.087,0.409,0.001,0.493,0.188c0.084,0.188,0,0.409-0.188,0.493
						c-6.885,3.082-13.714,6.506-20.297,10.179C434.641,157.287,434.579,157.302,434.517,157.302z"/>
				</g>
				<g>
					<path style="fill:#3C3C3B;" d="M435.256,159.976c-0.146,0-0.285-0.086-0.344-0.23c-0.079-0.19,0.01-0.408,0.2-0.488
						c6.883-2.877,13.952-5.551,21.011-7.95c0.197-0.063,0.407,0.039,0.473,0.233c0.066,0.195-0.038,0.407-0.234,0.474
						c-7.043,2.392-14.096,5.061-20.963,7.931C435.353,159.967,435.304,159.976,435.256,159.976z"/>
				</g>
				<g>
					<path style="fill:#3C3C3B;" d="M436.613,164.939c-0.398,0-0.783-0.212-0.986-0.587c-0.294-0.544-0.093-1.223,0.451-1.518
						l19.99-10.824c0.544-0.295,1.223-0.093,1.518,0.452c0.294,0.544,0.093,1.223-0.451,1.518l-19.99,10.824
						C436.976,164.896,436.793,164.939,436.613,164.939z"/>
				</g>
				<g>
					<path style="fill:#3C3C3B;" d="M460.421,170.982h-20.034c-0.618,0-1.12-0.502-1.12-1.12c0-0.618,0.501-1.12,1.12-1.12h20.034
						c0.618,0,1.12,0.501,1.12,1.12C461.541,170.481,461.039,170.982,460.421,170.982z"/>
				</g>
				<g>
					<path style="fill:#3C3C3B;" d="M457.4,180.634c-2.283,0-4.141-1.857-4.141-4.141v-6.631c0-0.618,0.501-1.12,1.12-1.12
						s1.12,0.501,1.12,1.12v6.631c0,1.049,0.853,1.902,1.902,1.902s1.901-0.853,1.901-1.902v-6.631c0-0.618,0.501-1.12,1.12-1.12
						c0.618,0,1.12,0.501,1.12,1.12v6.631C461.541,178.777,459.683,180.634,457.4,180.634z"/>
				</g>
				<g>
					<path style="fill:#3C3C3B;" d="M454.378,172.851c-0.193,0-0.357-0.149-0.372-0.345c-0.016-0.206,0.138-0.385,0.344-0.401
						l6.042-0.461c0.21-0.018,0.385,0.138,0.401,0.344c0.016,0.206-0.138,0.385-0.344,0.401l-6.042,0.461
						C454.397,172.851,454.388,172.851,454.378,172.851z"/>
				</g>
				<g>
					<path style="fill:#3C3C3B;" d="M454.379,175.851c-0.202,0-0.368-0.161-0.373-0.364c-0.005-0.206,0.158-0.378,0.364-0.383
						l6.042-0.151c0.003,0,0.007,0,0.009,0c0.202,0,0.368,0.161,0.373,0.364c0.005,0.206-0.158,0.378-0.364,0.383l-6.042,0.151
						C454.385,175.851,454.382,175.851,454.379,175.851z"/>
				</g>
				<g>
					<g>
						<path style="fill:#3C3C3B;" d="M451.358,181.382c-2.283,0-4.141-1.857-4.141-4.141v-7.378c0-0.618,0.501-1.12,1.12-1.12
							c0.618,0,1.12,0.501,1.12,1.12v7.378c0,1.049,0.853,1.902,1.902,1.902s1.901-0.853,1.901-1.902v-7.378
							c0-0.618,0.501-1.12,1.12-1.12s1.12,0.501,1.12,1.12v7.378C455.498,179.524,453.641,181.382,451.358,181.382z"/>
					</g>
					<g>
						<path style="fill:#3C3C3B;" d="M448.336,173.611c-0.193,0-0.357-0.149-0.372-0.345c-0.016-0.206,0.138-0.385,0.344-0.401
							l6.042-0.461c0.211-0.015,0.385,0.139,0.401,0.344c0.016,0.206-0.138,0.385-0.344,0.401l-6.042,0.461
							C448.355,173.611,448.345,173.611,448.336,173.611z"/>
					</g>
					<g>
						<path style="fill:#3C3C3B;" d="M448.336,176.101c-0.202,0-0.368-0.161-0.373-0.364c-0.005-0.206,0.158-0.378,0.364-0.383
							l6.042-0.152c0.003,0,0.007,0,0.009,0c0.202,0,0.368,0.161,0.373,0.364c0.005,0.206-0.158,0.378-0.364,0.383l-6.042,0.152
							C448.342,176.101,448.339,176.101,448.336,176.101z"/>
					</g>
				</g>
				<g>
					<g>
						<path style="fill:#3C3C3B;" d="M441.393,181.382c-2.283,0-4.141-1.857-4.141-4.141v-7.378c0-0.618,0.501-1.12,1.12-1.12
							c0.618,0,1.12,0.501,1.12,1.12v7.378c0,1.049,0.853,1.902,1.902,1.902c1.049,0,1.901-0.853,1.901-1.902v-7.378
							c0-0.618,0.501-1.12,1.12-1.12c0.618,0,1.12,0.501,1.12,1.12v7.378C445.533,179.524,443.676,181.382,441.393,181.382z"/>
					</g>
					<g>
						<path style="fill:#3C3C3B;" d="M444.414,173.611c-0.009,0-0.019,0-0.029-0.001l-6.042-0.461
							c-0.206-0.016-0.359-0.195-0.344-0.401c0.016-0.206,0.187-0.359,0.401-0.344l6.042,0.461c0.206,0.016,0.359,0.195,0.344,0.401
							C444.771,173.463,444.607,173.611,444.414,173.611z"/>
					</g>
					<g>
						<path style="fill:#3C3C3B;" d="M444.414,176.101c-0.003,0-0.006,0-0.009,0l-6.042-0.152c-0.206-0.005-0.369-0.176-0.364-0.383
							c0.005-0.206,0.151-0.367,0.383-0.364l6.042,0.152c0.206,0.005,0.369,0.176,0.364,0.383
							C444.782,175.94,444.616,176.101,444.414,176.101z"/>
					</g>
				</g>
				<g>
					<g>
						<path style="fill:#3C3C3B;" d="M439.988,170.982h-7.379c-2.283,0-4.141-1.857-4.141-4.141c0-2.284,1.858-4.141,4.141-4.141
							h3.686c0.618,0,1.12,0.501,1.12,1.12c0,0.618-0.501,1.12-1.12,1.12h-3.686c-1.049,0-1.901,0.853-1.901,1.902
							s0.853,1.902,1.901,1.902h7.379c0.618,0,1.12,0.501,1.12,1.12C441.107,170.481,440.606,170.982,439.988,170.982z"/>
					</g>
				</g>
			</g>
			<g>
				<path style="fill:#3C3C3B;" d="M439.239,108.653h-43.834c-0.618,0-1.12-0.501-1.12-1.12s0.501-1.12,1.12-1.12h43.834
					c0.618,0,1.12,0.502,1.12,1.12S439.858,108.653,439.239,108.653z"/>
			</g>
		</g>
	</g>
	<g>
		<g>
			<path style="fill:#3C3C3B;" d="M336.071,235.921h-41.053c-0.618,0-1.12-0.502-1.12-1.12v-26.125c0-0.618,0.501-1.12,1.12-1.12
				h41.053c0.618,0,1.12,0.501,1.12,1.12v26.125C337.191,235.42,336.69,235.921,336.071,235.921z M296.138,233.682h38.814v-23.885
				h-38.814V233.682z"/>
		</g>
		<g>
			<path style="fill:#3C3C3B;" d="M295.019,235.921c-0.319,0-0.635-0.135-0.856-0.397c-0.399-0.472-0.339-1.179,0.133-1.578
				l15.712-13.266c0.473-0.399,1.179-0.34,1.578,0.133c0.399,0.472,0.339,1.179-0.133,1.578l-15.712,13.266
				C295.53,235.834,295.274,235.921,295.019,235.921z"/>
		</g>
		<g>
			<path style="fill:#3C3C3B;" d="M336.07,235.921c-0.255,0-0.511-0.087-0.722-0.264l-15.712-13.266
				c-0.472-0.399-0.532-1.106-0.133-1.578c0.398-0.472,1.105-0.531,1.578-0.133l15.712,13.266c0.472,0.399,0.532,1.106,0.133,1.578
				C336.705,235.786,336.389,235.921,336.07,235.921z"/>
		</g>
		<g>
			<path style="fill:#3C3C3B;" d="M315.546,225.6c-1.015,0-2.029-0.339-2.857-1.016l-18.379-15.041
				c-0.479-0.392-0.549-1.097-0.157-1.576c0.391-0.478,1.097-0.549,1.576-0.157l18.379,15.041c0.832,0.682,2.04,0.684,2.871,0.003
				l18.384-15.044l1.418,1.733l-18.384,15.044C317.571,225.263,316.558,225.6,315.546,225.6z"/>
		</g>
	</g>
	<g>
		<g>
			<path style="fill:#3C3C3B;" d="M395.527,350.897c-0.618,0-1.12-0.501-1.12-1.12v-75.041c0-0.618,0.501-1.12,1.12-1.12
				c0.618,0,1.12,0.501,1.12,1.12v75.041C396.647,350.396,396.146,350.897,395.527,350.897z"/>
		</g>
		<g>
			<path style="fill:#3C3C3B;" d="M422.744,350.897c-0.618,0-1.12-0.501-1.12-1.12v-75.041c0-0.618,0.501-1.12,1.12-1.12
				c0.618,0,1.12,0.501,1.12,1.12v75.041C423.863,350.396,423.362,350.897,422.744,350.897z"/>
		</g>
		<g>
			<path style="fill:#3C3C3B;" d="M359.912,350.897c-0.618,0-1.12-0.501-1.12-1.12v-75.041c0-0.618,0.501-1.12,1.12-1.12
				c0.618,0,1.12,0.501,1.12,1.12v75.041C361.031,350.396,360.53,350.897,359.912,350.897z"/>
		</g>
		<g>
			<path style="fill:#3C3C3B;" d="M332.695,350.897c-0.618,0-1.12-0.501-1.12-1.12v-75.041c0-0.618,0.501-1.12,1.12-1.12
				s1.12,0.501,1.12,1.12v75.041C333.815,350.396,333.314,350.897,332.695,350.897z"/>
		</g>
		<g>
			<path style="fill:#FFDB7C;" d="M426.334,275.856H328.18c-0.618,0-1.12-0.501-1.12-1.12s0.501-1.12,1.12-1.12h98.154
				c0.618,0,1.12,0.501,1.12,1.12S426.952,275.856,426.334,275.856z"/>
		</g>
		<g>
			<path style="fill:#3C3C3B;" d="M359.912,282.674c-0.001,0-0.002,0-0.003,0c-9.043-0.024-18.214-0.224-27.259-0.593
				c-0.618-0.026-1.098-0.547-1.073-1.165c0.025-0.617,0.553-1.093,1.164-1.073c9.017,0.368,18.159,0.567,27.174,0.591
				c0.618,0.001,1.118,0.504,1.117,1.123C361.029,282.175,360.529,282.674,359.912,282.674z"/>
		</g>
		<g>
			<path style="fill:#3C3C3B;" d="M332.695,291.818c-0.192,0-0.355-0.147-0.371-0.341c-0.018-0.205,0.134-0.386,0.339-0.404
				c9.052-0.786,18.203-1.839,27.195-3.132c0.207-0.023,0.393,0.112,0.423,0.316c0.029,0.204-0.112,0.394-0.316,0.423
				c-9.007,1.295-18.171,2.35-27.237,3.137C332.717,291.817,332.706,291.818,332.695,291.818z"/>
		</g>
		<g>
			<path style="fill:#3C3C3B;" d="M357.152,297.688c-8.157,0-16.379-0.278-24.482-0.827c-0.206-0.014-0.361-0.192-0.347-0.398
				c0.014-0.205,0.2-0.354,0.398-0.347c9,0.611,18.153,0.888,27.188,0.814c0.001,0,0.002,0,0.003,0c0.205,0,0.372,0.165,0.373,0.37
				c0.001,0.206-0.164,0.375-0.37,0.376C358.995,297.684,358.074,297.688,357.152,297.688z"/>
		</g>
		<g>
			<path style="fill:#3C3C3B;" d="M359.912,307.108c-0.014,0-0.028,0-0.042-0.001c-9.003-0.333-18.136-0.372-27.143-0.118
				c-0.612,0.044-1.133-0.468-1.151-1.088c-0.017-0.618,0.469-1.133,1.088-1.15c9.057-0.256,18.238-0.216,27.289,0.118
				c0.618,0.023,1.1,0.542,1.078,1.16C361.008,306.634,360.512,307.108,359.912,307.108z"/>
		</g>
		<g>
			<path style="fill:#3C3C3B;" d="M332.695,314.204c-0.183,0-0.343-0.135-0.369-0.321c-0.029-0.204,0.113-0.393,0.317-0.422
				c4.04-0.57,8.195-0.787,12.213-0.997c4.953-0.259,10.074-0.526,14.986-1.46c0.203-0.035,0.398,0.095,0.436,0.297
				c0.039,0.203-0.094,0.398-0.297,0.437c-4.961,0.943-10.108,1.212-15.086,1.472c-4.002,0.208-8.139,0.425-12.147,0.991
				C332.73,314.202,332.712,314.204,332.695,314.204z"/>
		</g>
		<g>
			<path style="fill:#3C3C3B;" d="M332.695,323.616c-0.182,0-0.341-0.133-0.369-0.319c-0.03-0.203,0.111-0.393,0.315-0.424
				l27.216-3.998c0.207-0.023,0.394,0.112,0.423,0.316c0.03,0.203-0.111,0.394-0.315,0.423l-27.216,3.998
				C332.731,323.615,332.713,323.616,332.695,323.616z"/>
		</g>
		<g>
			<path style="fill:#3C3C3B;" d="M359.912,332.739c-0.01,0-0.02,0-0.031-0.001l-27.217-0.731c-0.618-0.016-1.106-0.531-1.089-1.149
				c0.017-0.619,0.555-1.133,1.15-1.089l27.216,0.731c0.618,0.016,1.106,0.531,1.089,1.149
				C361.014,332.257,360.517,332.739,359.912,332.739z"/>
		</g>
		<g>
			<path style="fill:#3C3C3B;" d="M332.695,340.907c-0.206,0-0.373-0.167-0.373-0.372c0-0.206,0.167-0.374,0.373-0.374
				c9.044-0.012,18.187-0.538,27.174-1.564c0.203-0.026,0.39,0.124,0.413,0.329c0.024,0.205-0.124,0.39-0.328,0.413
				C350.939,340.368,341.768,340.895,332.695,340.907L332.695,340.907z"/>
		</g>
		<g>
			<path style="fill:#3C3C3B;" d="M395.527,280.135c-0.188,0-0.35-0.141-0.371-0.332c-0.022-0.206,0.126-0.389,0.331-0.412
				c9.018-0.985,18.183-1.66,27.242-2.01c0.196-0.001,0.379,0.152,0.387,0.359c0.008,0.206-0.153,0.38-0.359,0.388
				c-9.042,0.348-18.19,1.023-27.19,2.005C395.554,280.134,395.541,280.135,395.527,280.135z"/>
		</g>
		<g>
			<path style="fill:#3C3C3B;" d="M422.763,285.489c-0.027,0-0.054-0.001-0.082-0.003c-8.997-0.649-18.133-0.981-27.154-0.985
				c-0.618,0-1.12-0.501-1.119-1.12c0-0.618,0.501-1.119,1.12-1.119c0,0,0,0,0,0c9.075,0.004,18.264,0.337,27.314,0.991
				c0.617,0.044,1.081,0.581,1.036,1.198C423.836,285.039,423.344,285.489,422.763,285.489z"/>
		</g>
		<g>
			<path style="fill:#3C3C3B;" d="M398.04,293.168c-0.84,0-1.678-0.004-2.516-0.011c-0.206-0.002-0.372-0.171-0.37-0.377
				c0.002-0.206,0.178-0.369,0.376-0.37c9.029,0.084,18.172-0.274,27.175-1.054c0.207-0.017,0.386,0.134,0.404,0.34
				c0.018,0.206-0.134,0.386-0.34,0.404C414.579,292.809,406.271,293.168,398.04,293.168z"/>
		</g>
		<g>
			<path style="fill:#3C3C3B;" d="M395.527,310.776c-0.181,0-0.34-0.131-0.368-0.316c-0.032-0.203,0.108-0.394,0.311-0.426
				c8.992-1.408,18.161-2.401,27.251-2.95c0.209-0.016,0.383,0.144,0.395,0.35c0.012,0.206-0.144,0.383-0.35,0.395
				c-9.067,0.547-18.212,1.538-27.181,2.943C395.566,310.774,395.546,310.776,395.527,310.776z"/>
		</g>
		<g>
			<path style="fill:#3C3C3B;" d="M422.767,321.613c-0.004,0-0.007,0-0.01,0l-27.23-0.716c-0.206-0.006-0.369-0.177-0.363-0.383
				c0.005-0.207,0.203-0.372,0.383-0.364l27.23,0.716c0.206,0.006,0.368,0.177,0.363,0.383
				C423.134,321.453,422.969,321.613,422.767,321.613z"/>
		</g>
		<g>
			<path style="fill:#3C3C3B;" d="M395.48,332.159c-0.57,0-1.057-0.433-1.113-1.012c-0.059-0.616,0.391-1.163,1.007-1.222
				l27.171-2.624c0.614-0.065,1.163,0.391,1.222,1.007s-0.391,1.163-1.007,1.222l-27.171,2.624
				C395.552,332.158,395.516,332.159,395.48,332.159z"/>
		</g>
		<g>
			<path style="fill:#3C3C3B;" d="M395.527,337.078c-0.194,0-0.358-0.149-0.372-0.346c-0.015-0.206,0.14-0.384,0.345-0.399
				c9.036-0.657,18.187-1.569,27.196-2.709c0.207-0.026,0.391,0.12,0.417,0.324c0.026,0.204-0.119,0.391-0.323,0.417
				c-9.023,1.142-18.186,2.054-27.236,2.713C395.545,337.078,395.536,337.078,395.527,337.078z"/>
		</g>
		<g>
			<path style="fill:#3C3C3B;" d="M398.591,344.346c-1.019,0-2.036-0.007-3.052-0.023c-0.206-0.003-0.371-0.173-0.368-0.379
				c0.003-0.206,0.149-0.383,0.379-0.367c9.036,0.136,18.168-0.329,27.151-1.374c0.21-0.022,0.39,0.123,0.414,0.328
				c0.024,0.205-0.123,0.39-0.328,0.414C414.782,343.876,406.657,344.346,398.591,344.346z"/>
		</g>
	</g>
</g>
<rect x="281.827" y="301.061" style="fill:#FED061;" width="264.376" height="55.042"/>
<g>
	<path style="fill:#3C3C3B;" d="M598.567,303.927H1.433c-0.792,0-1.433-0.642-1.433-1.433s0.641-1.433,1.433-1.433h597.134
		c0.792,0,1.433,0.642,1.433,1.433S599.359,303.927,598.567,303.927z"/>
</g>
</svg>
