<!-- Generator: Adobe Illustrator 19.0.1, SVG Export Plug-In  -->
<svg version="1.1"
	 xmlns="http://www.w3.org/2000/svg" xmlns:xlink="http://www.w3.org/1999/xlink" xmlns:a="http://ns.adobe.com/AdobeSVGViewerExtensions/3.0/"
	 x="0px" y="0px" width="37.552px" height="36px" viewBox="0 0 37.552 36" style="enable-background:new 0 0 37.552 36;"
	 xml:space="preserve">
<defs>
</defs>
<path style="fill:#3C3C3B;" d="M10.293,32.325c8.313,1.135,16.478,2.25,24.805,3.386c-2.837-4.723-5.601-9.326-8.388-13.966
	C26.711,21.745,10.293,32.325,10.293,32.325z M37.445,6.18c-0.733,1.1-1.467,2.2-2.199,3.301c-2.513,3.781-5.026,7.562-7.537,11.345
	c-0.14,0.211-0.321,0.378-0.124,0.702c2.426,4.006,4.833,8.024,7.246,12.039c0.381,0.634,0.766,1.266,1.258,1.874
	c0.488-9.744,0.975-19.487,1.463-29.231C37.552,6.211,37.445,6.18,37.445,6.18z M4.325,18.672c0.113,0.107,0.397,0.17,0.529,0.105
	c2.327-1.144,4.669-2.262,6.945-3.5c0.742-0.403,1.313-1.127,1.953-1.713c2.118-1.942,4.232-3.888,6.346-5.835
	c0.129-0.12,0.282-0.235,0.36-0.386c0.759-1.484,1.505-2.975,2.278-4.509c-0.921-0.346-1.794-0.685-2.678-0.993
	c-0.12-0.042-0.309,0.041-0.439,0.113c-2.046,1.143-4.131,2.225-6.112,3.472c-0.991,0.624-1.799,1.543-2.676,2.344
	c-1.415,1.291-2.827,2.585-4.222,3.899c-0.37,0.349-0.707,0.747-0.995,1.166c-0.953,1.388-1.878,2.797-2.846,4.245
	C3.307,17.639,3.799,18.174,4.325,18.672z M12.83,16.774c-1.158,4.891-2.308,9.754-3.498,14.777
	c5.576-3.593,11.023-7.103,16.434-10.589C21.461,19.568,17.168,18.178,12.83,16.774z M36.023,6.227
	c-4.711,0.787-9.31,1.555-13.968,2.334c1.587,3.859,3.141,7.641,4.74,11.53C29.889,15.442,32.922,10.887,36.023,6.227z
	 M13.024,15.773c4.242,1.377,8.4,2.727,12.679,4.116c-1.589-3.871-3.123-7.607-4.69-11.422
	C18.346,10.907,15.718,13.31,13.024,15.773z M4.5,21.524c-1.505,3.597-2.958,7.071-4.438,10.608c2.844-0.084,5.6-0.166,8.452-0.25
	C7.175,28.428,5.863,25.042,4.5,21.524z M8.614,29.422l0.105-0.023c1.015-4.219,2.044-8.41,3.08-12.794
	c-2.311,1.201-4.516,2.347-6.781,3.524C6.174,23.133,7.407,26.302,8.614,29.422z M34.318,5.543c-1.35-0.357-2.699-0.716-4.049-1.071
	c-1.941-0.51-3.883-1.014-5.822-1.529c-0.242-0.064-0.418-0.107-0.56,0.186c-0.686,1.404-1.392,2.798-2.089,4.197
	c-0.021,0.043-0.017,0.099-0.034,0.208c4.203-0.637,8.377-1.27,12.551-1.902C34.315,5.631,34.318,5.543,34.318,5.543z M26.489,2.349
	l11,3.043c-0.631-1.798-1.216-3.464-1.817-5.179l-9.166,2.032C26.505,2.245,26.489,2.349,26.489,2.349z M9.547,33.135
	c-1.362-0.157-2.761-0.013-4.143,0.011c-1.135,0.019-2.27,0.062-3.405,0.098c-0.117,0.004-0.233,0.027-0.35,0.153
	c9.383,0.867,18.766,1.735,28.15,2.603l0.019-0.125c-3.008-0.411-6.016-0.821-9.024-1.232C17.046,34.131,13.304,33.568,9.547,33.135
	z M0.248,28.894c1.209-2.806,2.413-5.613,3.627-8.417c0.121-0.281,0.112-0.472-0.126-0.699c-0.508-0.483-0.98-1.004-1.535-1.582
	C1.464,21.901,0.732,25.514,0,29.127l0.082,0.038C0.138,29.075,0.206,28.99,0.248,28.894z M24.079,1.608
	c2.039-0.526,4.108-0.937,6.164-1.396c0.133-0.03,0.263-0.074,0.394-0.111L30.618,0c-2.897,0.39-5.793,0.779-8.836,1.189
	C22.611,1.551,23.251,1.822,24.079,1.608z"/>
</svg>
