<!-- Generator: Adobe Illustrator 19.0.1, SVG Export Plug-In  -->
<svg version="1.1"
	 xmlns="http://www.w3.org/2000/svg" xmlns:xlink="http://www.w3.org/1999/xlink" xmlns:a="http://ns.adobe.com/AdobeSVGViewerExtensions/3.0/"
	 x="0px" y="0px" width="51.66px" height="24.999px" viewBox="0 0 51.66 24.999" style="enable-background:new 0 0 51.66 24.999;"
	 xml:space="preserve">
<defs>
</defs>
<g>
	<path style="fill:#3C3C3B;" d="M33.296,6.529c-0.896-0.823-2.524-1.297-4.885-1.297H24.66L25.667,0h-4.212l-3.788,19.185h4.211
		l2.169-11.046h3.366c1.077,0,1.782,0.239,2.113,0.596c0.331,0.356,0.401,1.085,0.21,2.067l-1.675,8.383h4.278l1.762-8.861
		C34.461,8.481,34.192,7.353,33.296,6.529z"/>
	<path style="fill:#3C3C3B;" d="M50.453,7.228c-1.126-1.289-2.917-1.995-5.373-1.995h-8.163L33.13,24.999h4.245l1.007-5.814h3.635
		c1.604,0,2.924,0.07,3.96-0.268c1.036-0.337,1.978-0.665,2.826-1.458c0.711-0.654,1.287-1.375,1.727-2.164
		c0.44-0.788,0.753-1.658,0.938-2.609C51.917,10.378,51.578,8.517,50.453,7.228z M47.081,12.313
		c-0.294,1.508-0.858,2.508-1.696,3.152c-0.837,0.645-2.113,0.814-3.823,0.814h-2.583l1.585-8.139h2.907
		c1.613,0,2.688,0.405,3.225,1C47.235,9.735,47.363,10.865,47.081,12.313z"/>
	<path style="fill:#3C3C3B;" d="M17.323,7.228c-1.126-1.289-2.917-1.995-5.373-1.995H3.788L0,24.999h4.245l1.008-5.814h3.635
		c1.604,0,2.923,0.07,3.96-0.268c1.037-0.337,1.978-0.665,2.826-1.458c0.71-0.654,1.286-1.39,1.728-2.179
		c0.441-0.788,0.753-1.673,0.938-2.625C18.788,10.346,18.449,8.517,17.323,7.228z M13.95,12.313
		c-0.293,1.508-0.858,2.508-1.696,3.152c-0.838,0.645-2.113,0.814-3.824,0.814H5.849l1.585-8.139h2.908c1.613,0,2.687,0.405,3.224,1
		C14.104,9.735,14.232,10.865,13.95,12.313z"/>
</g>
</svg>
