<!-- Generator: Adobe Illustrator 19.0.1, SVG Export Plug-In  -->
<svg version="1.1"
	 xmlns="http://www.w3.org/2000/svg" xmlns:xlink="http://www.w3.org/1999/xlink" xmlns:a="http://ns.adobe.com/AdobeSVGViewerExtensions/3.0/"
	 x="0px" y="0px" width="600px" height="141.995px" viewBox="0 0 600 141.995" style="enable-background:new 0 0 600 141.995;"
	 xml:space="preserve">
<defs>
</defs>
<g>
	<g>
		<path style="fill:#FED061;" d="M593.845,42.117c-2.39,0-4.392,1.676-4.904,3.913h-18.469V35.789c0-0.619-0.502-1.121-1.121-1.121
			h-5.691v-6.879c0,0,0,0,0,0v-0.001C563.661,12.466,551.195,0,535.872,0c-11.74,0-21.796,7.322-25.86,17.636l-27.906,3.853
			c-3.554-3.396-8.364-5.489-13.656-5.489c-10.535,0-19.171,8.276-19.755,18.667h-5.725c-0.619,0-1.121,0.502-1.121,1.121V46.03
			h-20.933c-0.512-2.237-2.514-3.913-4.904-3.913c-2.776,0-5.034,2.258-5.034,5.034s2.258,5.034,5.034,5.034
			c2.39,0,4.393-1.676,4.904-3.913h20.933v10.242c0,0.619,0.502,1.121,1.121,1.121h5.691v6.415c0,0.016,0.004,0.031,0.005,0.047
			c0.002,0.04,0.006,0.079,0.012,0.119c0.005,0.035,0.011,0.069,0.019,0.103c0.009,0.035,0.02,0.07,0.032,0.104
			c0.013,0.036,0.026,0.071,0.042,0.105c0.014,0.03,0.031,0.06,0.049,0.09c0.021,0.035,0.043,0.069,0.067,0.101
			c0.009,0.012,0.016,0.026,0.026,0.039l10.781,13.271c-5.958,8.666-11.332,17.709-16.071,27.039
			c-0.032,0.052-0.061,0.106-0.084,0.164c-1.505,2.968-2.945,5.964-4.32,8.987c-0.008,0.017-0.019,0.031-0.026,0.049
			c-0.003,0.008-0.004,0.017-0.008,0.025c-1.056,2.324-2.071,4.664-3.049,7.017c-5.541-12.077-9.914-24.629-13.06-37.493l2.35-0.93
			c1.03-0.407,1.84-1.191,2.28-2.207s0.458-2.143,0.05-3.172c-0.84-2.125-3.255-3.17-5.379-2.33l-1.009,0.399v-7.77
			c0-2.286-1.859-4.145-4.145-4.145c-2.262,0-4.103,1.821-4.142,4.073v-2.171c0-2.285-1.859-4.145-4.145-4.145
			c-2.286,0-4.145,1.86-4.145,4.145v10.476h-0.001v-5.518c0-2.286-1.859-4.145-4.145-4.145s-4.145,1.86-4.145,4.145v6.617
			c0,0.001,0,0.003,0,0.004v0.017c0,0.031,0.007,0.059,0.009,0.09c0.003,0.039,0.003,0.078,0.01,0.117
			c1.15,6.129,2.552,12.202,4.186,18.209c0.01,0.055,0.019,0.109,0.038,0.163c0.003,0.009,0.009,0.015,0.013,0.024
			c1.378,5.05,2.925,10.051,4.638,14.996c0.018,0.081,0.043,0.162,0.081,0.24c0.001,0.002,0.003,0.004,0.004,0.006
			c3.233,9.299,7.047,18.401,11.439,27.246c0.006,0.013,0.017,0.022,0.024,0.034c0.038,0.07,0.083,0.135,0.135,0.195
			c0.013,0.015,0.024,0.031,0.038,0.046c0.063,0.065,0.133,0.122,0.209,0.171c0.018,0.012,0.038,0.02,0.057,0.031
			c0.063,0.035,0.129,0.063,0.198,0.086c0.024,0.008,0.047,0.016,0.071,0.022c0.086,0.022,0.174,0.036,0.266,0.037
			c0.003,0,0.005,0.001,0.005,0.001c0.004,0,0.005,0,0.005,0h25.353l0.003,0c0,0,0.002,0,0.003,0h11.638l0.002,0l0.002,0h41.587
			c0.001,0,0.002,0,0.002,0l0.004,0h19.293c0,0,0.002,0,0.003,0l0.003,0h41.587l0.002,0l0.002,0h16.547l0.003,0l0.003,0h7.165
			l0.002,0l0.006-0.001c0.109-0.001,0.212-0.021,0.312-0.051c0.012-0.003,0.023-0.002,0.035-0.006
			c0.013-0.004,0.025-0.012,0.038-0.017c0.039-0.014,0.075-0.031,0.112-0.05c0.031-0.016,0.061-0.031,0.09-0.049
			c0.031-0.02,0.06-0.041,0.089-0.064c0.029-0.023,0.058-0.045,0.085-0.07c0.025-0.024,0.048-0.049,0.071-0.075
			c0.025-0.028,0.049-0.055,0.071-0.086c0.021-0.029,0.038-0.059,0.056-0.09c0.018-0.031,0.036-0.062,0.051-0.095
			c0.015-0.032,0.027-0.066,0.039-0.1c0.012-0.035,0.024-0.07,0.033-0.107c0.008-0.033,0.013-0.066,0.018-0.1
			c0.006-0.041,0.011-0.081,0.012-0.122c0-0.014,0.004-0.027,0.004-0.041c0-0.021-0.005-0.04-0.006-0.06
			c-0.002-0.039-0.005-0.079-0.012-0.118c-0.006-0.039-0.015-0.077-0.026-0.114c-0.005-0.02-0.007-0.04-0.013-0.06
			c-0.329-0.994-0.672-1.982-1.015-2.971c-0.014-0.058-0.035-0.115-0.059-0.172c-2.352-6.769-5.011-13.429-7.977-19.958
			c-0.004-0.01-0.005-0.021-0.009-0.031c-0.007-0.016-0.017-0.03-0.025-0.046c-1.372-3.019-2.814-6.007-4.314-8.969
			c-0.032-0.085-0.072-0.167-0.123-0.241c-4.728-9.305-10.082-18.318-16.04-26.983l10.782-13.272
			c0.01-0.012,0.016-0.026,0.025-0.038c0.024-0.033,0.046-0.067,0.067-0.102c0.018-0.03,0.034-0.059,0.049-0.089
			c0.016-0.034,0.029-0.069,0.042-0.105c0.012-0.034,0.024-0.069,0.032-0.104c0.008-0.034,0.014-0.068,0.019-0.103
			c0.006-0.039,0.01-0.079,0.012-0.118c0.001-0.016,0.005-0.031,0.005-0.047v-6.415h5.691c0.619,0,1.121-0.502,1.121-1.121V48.272
			h18.469c0.511,2.237,2.514,3.913,4.904,3.913c2.776,0,5.034-2.258,5.034-5.034S596.621,42.117,593.845,42.117z"/>
		<g>
			<path style="fill:#FFE596;" d="M543.505,42.117c-2.39,0-4.392,1.676-4.904,3.913h-18.469V35.789c0-0.619-0.502-1.121-1.121-1.121
				h-5.691v-6.879c0,0,0,0,0,0v-0.001C513.321,12.466,500.855,0,485.532,0c-11.74,0-21.796,7.322-25.86,17.636l-27.906,3.853
				c-3.554-3.396-8.364-5.489-13.656-5.489c-10.535,0-19.171,8.276-19.755,18.667h-5.725c-0.619,0-1.121,0.502-1.121,1.121V46.03
				h-20.933c-0.512-2.237-2.514-3.913-4.904-3.913c-2.776,0-5.034,2.258-5.034,5.034s2.258,5.034,5.034,5.034
				c2.39,0,4.393-1.676,4.904-3.913h20.933v10.242c0,0.619,0.502,1.121,1.121,1.121h5.691v6.415c0,0.016,0.004,0.031,0.005,0.047
				c0.002,0.04,0.006,0.079,0.012,0.119c0.005,0.035,0.011,0.069,0.019,0.103c0.009,0.035,0.02,0.07,0.032,0.104
				c0.013,0.036,0.026,0.071,0.042,0.105c0.014,0.03,0.031,0.06,0.049,0.09c0.021,0.035,0.043,0.069,0.067,0.101
				c0.009,0.012,0.016,0.026,0.026,0.039l10.781,13.271c-5.958,8.666-11.332,17.709-16.071,27.039
				c-0.032,0.052-0.061,0.106-0.084,0.164c-1.505,2.968-2.945,5.964-4.32,8.987c-0.008,0.017-0.019,0.031-0.026,0.049
				c-0.003,0.008-0.004,0.017-0.008,0.025c-1.056,2.324-2.071,4.664-3.049,7.017c-5.541-12.077-9.914-24.629-13.06-37.493l2.35-0.93
				c1.03-0.407,1.84-1.191,2.28-2.207c0.44-1.016,0.457-2.143,0.05-3.172c-0.84-2.125-3.255-3.17-5.379-2.33l-1.009,0.399v-7.77
				c0-2.286-1.859-4.145-4.145-4.145c-2.262,0-4.103,1.821-4.142,4.073v-2.171c0-2.285-1.859-4.145-4.145-4.145
				s-4.145,1.86-4.145,4.145v10.476h-0.001v-5.518c0-2.286-1.859-4.145-4.145-4.145s-4.145,1.86-4.145,4.145v6.617
				c0,0.001,0,0.003,0,0.004v0.017c0,0.031,0.007,0.059,0.009,0.09c0.003,0.039,0.003,0.078,0.01,0.117
				c1.15,6.129,2.552,12.202,4.186,18.209c0.01,0.055,0.019,0.109,0.038,0.163c0.003,0.009,0.009,0.015,0.013,0.024
				c1.378,5.05,2.925,10.051,4.638,14.996c0.018,0.081,0.043,0.162,0.081,0.24c0.001,0.002,0.003,0.004,0.004,0.006
				c3.233,9.299,7.047,18.401,11.439,27.246c0.006,0.013,0.017,0.022,0.024,0.034c0.038,0.07,0.083,0.135,0.135,0.195
				c0.013,0.015,0.024,0.031,0.038,0.046c0.063,0.065,0.133,0.122,0.209,0.171c0.018,0.012,0.038,0.02,0.057,0.031
				c0.063,0.035,0.129,0.063,0.198,0.086c0.024,0.008,0.047,0.016,0.071,0.022c0.086,0.022,0.174,0.036,0.266,0.037
				c0.003,0,0.005,0.001,0.005,0.001l0.006,0h25.352l0.003,0l0.003,0h11.638l0.002,0c0,0,0.002,0,0.002,0h41.587l0.003,0l0.003,0
				h19.293l0.003,0c0.001,0,0.002,0,0.002,0h41.588l0.002,0l0.002,0h16.547l0.003,0c0,0,0.002,0,0.003,0h7.165l0.002,0
				c0,0,0.004-0.001,0.006-0.001c0.109-0.001,0.212-0.021,0.312-0.051c0.012-0.003,0.023-0.002,0.035-0.006
				c0.013-0.004,0.025-0.012,0.038-0.017c0.038-0.014,0.075-0.031,0.112-0.05c0.031-0.016,0.061-0.031,0.09-0.049
				c0.031-0.02,0.06-0.041,0.089-0.064c0.029-0.023,0.058-0.045,0.085-0.07c0.025-0.024,0.048-0.049,0.071-0.075
				c0.025-0.028,0.049-0.055,0.071-0.086c0.021-0.029,0.038-0.059,0.056-0.09c0.018-0.031,0.036-0.062,0.051-0.095
				c0.015-0.032,0.027-0.066,0.039-0.1c0.012-0.035,0.024-0.07,0.033-0.107c0.008-0.033,0.013-0.066,0.018-0.1
				c0.006-0.041,0.011-0.081,0.012-0.122c0-0.014,0.004-0.027,0.004-0.041c0-0.021-0.005-0.04-0.006-0.06
				c-0.002-0.039-0.005-0.079-0.012-0.118c-0.006-0.039-0.015-0.077-0.026-0.114c-0.005-0.02-0.007-0.04-0.013-0.06
				c-0.329-0.994-0.672-1.982-1.015-2.971c-0.014-0.058-0.035-0.115-0.059-0.172c-2.352-6.769-5.011-13.429-7.977-19.958
				c-0.004-0.01-0.005-0.021-0.009-0.031c-0.007-0.016-0.017-0.03-0.025-0.046c-1.372-3.019-2.814-6.007-4.314-8.969
				c-0.032-0.085-0.072-0.167-0.123-0.241c-4.728-9.305-10.082-18.318-16.04-26.983l10.782-13.272
				c0.01-0.012,0.016-0.026,0.025-0.038c0.024-0.033,0.046-0.067,0.067-0.102c0.018-0.03,0.034-0.059,0.049-0.089
				c0.016-0.034,0.029-0.069,0.042-0.105c0.012-0.034,0.023-0.069,0.032-0.104c0.008-0.034,0.014-0.068,0.02-0.103
				c0.006-0.039,0.01-0.079,0.012-0.118c0.001-0.016,0.005-0.031,0.005-0.047v-6.415h5.691c0.619,0,1.121-0.502,1.121-1.121V48.272
				h18.469c0.511,2.237,2.514,3.913,4.904,3.913c2.776,0,5.034-2.258,5.034-5.034S546.281,42.117,543.505,42.117z"/>
		</g>
		<g>
			<g>
				<path style="fill:#3C3C3B;" d="M465.47,140.874c-0.412,0-0.809-0.229-1.005-0.623c-0.275-0.555-0.049-1.227,0.506-1.502
					c7.074-3.509,11.468-10.591,11.468-18.483c0-4.132-1.209-8.095-3.501-11.499h-78.702c-0.619,0-1.121-0.502-1.121-1.121
					s0.502-1.121,1.121-1.121h79.288c0.362,0,0.702,0.175,0.912,0.47c2.776,3.888,4.244,8.477,4.244,13.271
					c0,8.749-4.872,16.6-12.714,20.491C465.808,140.836,465.638,140.874,465.47,140.874z"/>
			</g>
			<g>
				<path style="fill:#3C3C3B;" d="M385.858,127.228c-0.139,0-0.281-0.026-0.418-0.081c-0.574-0.231-0.852-0.884-0.621-1.458
					c6.535-16.239,14.95-31.836,25.011-46.357c0.352-0.509,1.051-0.636,1.559-0.283c0.509,0.352,0.636,1.051,0.283,1.559
					c-9.966,14.384-18.301,29.833-24.774,45.918C386.722,126.963,386.302,127.228,385.858,127.228z"/>
			</g>
			<g>
				<path style="fill:#3C3C3B;" d="M434.673,115.581c-0.009,0-0.019,0-0.029-0.001l-23.922-1.827
					c-0.056-0.004-0.111-0.021-0.159-0.05c-3.7-2.15-7.584-4.072-11.542-5.712c-0.19-0.079-0.281-0.298-0.202-0.488
					c0.079-0.191,0.298-0.281,0.488-0.202c3.963,1.642,7.851,3.564,11.558,5.714l23.837,1.82c0.206,0.016,0.36,0.195,0.344,0.401
					C435.03,115.432,434.867,115.581,434.673,115.581z"/>
			</g>
			<g>
				<path style="fill:#3C3C3B;" d="M410.736,120.638c-0.062,0-0.125-0.015-0.183-0.048c-5.89-3.323-12.047-6.313-18.301-8.884
					c-0.191-0.078-0.282-0.297-0.204-0.487s0.296-0.281,0.488-0.204c6.281,2.583,12.466,5.586,18.383,8.924
					c0.18,0.101,0.243,0.329,0.142,0.509C410.994,120.57,410.867,120.638,410.736,120.638z"/>
			</g>
			<g>
				<path style="fill:#3C3C3B;" d="M409.992,127.716c-0.188,0-0.379-0.048-0.554-0.148c-6.431-3.668-13.154-6.977-19.985-9.834
					c-0.571-0.239-0.84-0.896-0.601-1.467c0.239-0.571,0.896-0.84,1.467-0.601c6.914,2.893,13.72,6.242,20.23,9.955
					c0.538,0.306,0.725,0.991,0.418,1.529C410.76,127.512,410.382,127.716,409.992,127.716z"/>
			</g>
			<g>
				<path style="fill:#3C3C3B;" d="M407.255,133.307c-0.061,0-0.123-0.015-0.18-0.046c-6.516-3.583-13.311-6.829-20.194-9.649
					c-0.191-0.078-0.282-0.297-0.204-0.487c0.079-0.191,0.298-0.281,0.487-0.204c6.909,2.831,13.729,6.09,20.27,9.687
					c0.181,0.099,0.247,0.327,0.147,0.507C407.515,133.237,407.387,133.307,407.255,133.307z"/>
			</g>
			<g>
				<path style="fill:#3C3C3B;" d="M404.579,140.874c-0.13,0-0.262-0.023-0.391-0.071c-0.58-0.216-0.875-0.862-0.659-1.441
					c1.868-5.014,3.955-10.024,6.204-14.893c0.26-0.562,0.926-0.808,1.487-0.548c0.562,0.26,0.807,0.926,0.548,1.487
					c-2.225,4.817-4.29,9.775-6.138,14.736C405.461,140.595,405.034,140.874,404.579,140.874z"/>
			</g>
			<g>
				<path style="fill:#3C3C3B;" d="M367.579,140.874c-0.412,0-0.809-0.228-1.004-0.623c-9.571-19.274-16.434-39.758-20.398-60.885
					c-0.114-0.609,0.286-1.194,0.895-1.308c0.613-0.115,1.194,0.287,1.308,0.895c3.927,20.924,10.724,41.213,20.202,60.302
					c0.275,0.554,0.049,1.227-0.505,1.502C367.916,140.836,367.746,140.874,367.579,140.874z"/>
			</g>
			<g>
				<path style="fill:#3C3C3B;" d="M392.937,140.874c-0.391,0-0.771-0.205-0.977-0.57c-9.769-17.281-17.049-35.755-21.638-54.909
					c-0.144-0.602,0.227-1.207,0.829-1.351c0.601-0.146,1.207,0.227,1.351,0.829c4.54,18.951,11.744,37.229,21.41,54.328
					c0.305,0.539,0.115,1.223-0.424,1.527C393.313,140.826,393.124,140.874,392.937,140.874z"/>
			</g>
			<g>
				<path style="fill:#3C3C3B;" d="M366.639,138.213c-0.147,0-0.286-0.087-0.345-0.232c-0.078-0.191,0.012-0.409,0.204-0.487
					c6.875-2.827,13.62-6.153,20.048-9.885c0.179-0.104,0.408-0.042,0.511,0.136c0.104,0.178,0.043,0.407-0.136,0.511
					c-6.458,3.748-13.234,7.089-20.14,9.929C366.734,138.204,366.686,138.213,366.639,138.213z"/>
			</g>
			<g>
				<path style="fill:#3C3C3B;" d="M364.131,133.62c-0.438,0-0.854-0.259-1.034-0.688c-0.239-0.571,0.03-1.228,0.601-1.467
					c6.828-2.857,13.552-6.165,19.985-9.834c0.537-0.306,1.222-0.119,1.529,0.418c0.306,0.538,0.119,1.222-0.418,1.529
					c-6.512,3.713-13.319,7.063-20.23,9.955C364.422,133.592,364.275,133.62,364.131,133.62z"/>
			</g>
			<g>
				<path style="fill:#3C3C3B;" d="M361.268,126.307c-0.147,0-0.286-0.088-0.346-0.232c-0.078-0.191,0.013-0.409,0.204-0.487
					c6.883-2.82,13.677-6.066,20.194-9.649c0.18-0.1,0.408-0.034,0.507,0.147c0.1,0.181,0.034,0.408-0.147,0.507
					c-6.541,3.597-13.361,6.856-20.27,9.687C361.363,126.298,361.315,126.307,361.268,126.307z"/>
			</g>
			<g>
				<path style="fill:#3C3C3B;" d="M360.047,123.327c-0.131,0-0.258-0.069-0.327-0.191c-0.101-0.18-0.036-0.408,0.144-0.509
					l19.717-11.031c0.18-0.101,0.407-0.036,0.509,0.144c0.101,0.18,0.036,0.408-0.144,0.509l-19.717,11.031
					C360.172,123.311,360.109,123.327,360.047,123.327z"/>
			</g>
			<g>
				<path style="fill:#3C3C3B;" d="M357.988,118.014c-0.138,0-0.27-0.076-0.335-0.208c-0.092-0.185-0.016-0.409,0.169-0.501
					c6.746-3.334,13.379-7.088,19.713-11.158c0.174-0.113,0.405-0.062,0.516,0.112c0.112,0.174,0.061,0.405-0.112,0.516
					c-6.358,4.085-13.015,7.853-19.786,11.2C358.1,118.002,358.044,118.014,357.988,118.014z"/>
			</g>
			<g>
				<path style="fill:#3C3C3B;" d="M356.143,113.637c-0.418,0-0.82-0.235-1.012-0.638c-0.267-0.559-0.03-1.228,0.528-1.494
					c6.784-3.239,13.434-6.938,19.766-10.993c0.521-0.334,1.215-0.182,1.548,0.339c0.334,0.521,0.182,1.215-0.339,1.548
					c-6.41,4.104-13.142,7.848-20.009,11.128C356.469,113.602,356.305,113.637,356.143,113.637z"/>
			</g>
			<g>
				<path style="fill:#3C3C3B;" d="M354.378,107.603c-0.136,0-0.267-0.074-0.333-0.204c-0.093-0.184-0.02-0.409,0.163-0.503
					L374.436,96.6c0.184-0.093,0.409-0.02,0.503,0.163c0.093,0.184,0.02,0.409-0.163,0.503l-20.228,10.297
					C354.493,107.59,354.435,107.603,354.378,107.603z"/>
			</g>
			<g>
				<path style="fill:#3C3C3B;" d="M352.862,102.684c-0.143,0-0.279-0.082-0.341-0.221c-0.084-0.188,0-0.409,0.189-0.494
					c6.889-3.083,13.725-6.511,20.318-10.189c0.18-0.1,0.408-0.036,0.508,0.144c0.101,0.18,0.036,0.408-0.144,0.508
					c-6.612,3.689-13.467,7.127-20.377,10.219C352.965,102.673,352.913,102.684,352.862,102.684z"/>
			</g>
			<g>
				<path style="fill:#3C3C3B;" d="M351.46,98.499c-0.467,0-0.903-0.294-1.061-0.761c-0.199-0.586,0.115-1.223,0.701-1.422
					c7.037-2.39,14.081-5.055,20.937-7.921c0.571-0.239,1.228,0.031,1.466,0.602c0.239,0.571-0.031,1.228-0.602,1.466
					c-6.903,2.885-13.995,5.569-21.081,7.975C351.702,98.48,351.58,98.499,351.46,98.499z"/>
			</g>
			<g>
				<path style="fill:#3C3C3B;" d="M353.327,80.28c-0.619,0-1.121-0.502-1.121-1.121v-6.638c0-1.05-0.854-1.904-1.904-1.904
					s-1.903,0.854-1.903,1.904v6.638c0,0.619-0.502,1.121-1.121,1.121c-0.619,0-1.121-0.502-1.121-1.121v-6.638
					c0-2.286,1.86-4.145,4.145-4.145c2.286,0,4.145,1.86,4.145,4.145v6.638C354.447,79.778,353.946,80.28,353.327,80.28z"/>
			</g>
			<g>
				<path style="fill:#3C3C3B;" d="M347.278,77.376c-0.193,0-0.357-0.149-0.372-0.345c-0.016-0.206,0.138-0.385,0.344-0.401
					l6.048-0.462c0.21-0.012,0.385,0.138,0.401,0.344c0.016,0.206-0.138,0.385-0.344,0.401l-6.048,0.462
					C347.297,77.376,347.287,77.376,347.278,77.376z"/>
			</g>
			<g>
				<path style="fill:#3C3C3B;" d="M347.278,74.062c-0.202,0-0.368-0.161-0.374-0.364c-0.005-0.207,0.158-0.378,0.364-0.383
					l6.049-0.151c0.238,0.011,0.378,0.158,0.383,0.364c0.005,0.206-0.158,0.378-0.364,0.383l-6.049,0.151
					C347.284,74.062,347.281,74.062,347.278,74.062z"/>
			</g>
			<g>
				<g>
					<path style="fill:#3C3C3B;" d="M361.619,80.28c-0.619,0-1.121-0.502-1.121-1.121V67.563c0-1.05-0.854-1.904-1.904-1.904
						s-1.903,0.854-1.903,1.904v11.597c0,0.619-0.502,1.121-1.121,1.121c-0.619,0-1.121-0.502-1.121-1.121V67.563
						c0-2.286,1.86-4.145,4.145-4.145c2.286,0,4.145,1.86,4.145,4.145v11.597C362.739,79.778,362.238,80.28,361.619,80.28z"/>
				</g>
				<g>
					<path style="fill:#3C3C3B;" d="M355.57,76.615c-0.193,0-0.357-0.149-0.372-0.345c-0.016-0.206,0.138-0.385,0.344-0.401
						l6.049-0.462c0.211-0.016,0.385,0.139,0.401,0.344c0.016,0.206-0.138,0.385-0.344,0.401l-6.049,0.462
						C355.589,76.615,355.579,76.615,355.57,76.615z"/>
				</g>
				<g>
					<path style="fill:#3C3C3B;" d="M355.57,73.813c-0.202,0-0.368-0.161-0.374-0.364c-0.005-0.207,0.158-0.378,0.364-0.383
						l6.049-0.151c0.003,0,0.007,0,0.009,0c0.202,0,0.368,0.161,0.374,0.364c0.005,0.206-0.158,0.378-0.364,0.383l-6.049,0.151
						C355.576,73.813,355.573,73.813,355.57,73.813z"/>
				</g>
				<g>
					<path style="fill:#3C3C3B;" d="M355.57,72.824c-0.193,0-0.357-0.149-0.372-0.345c-0.016-0.206,0.138-0.385,0.344-0.401
						l6.049-0.462c0.211-0.016,0.385,0.139,0.401,0.344c0.016,0.206-0.138,0.385-0.344,0.401l-6.049,0.462
						C355.589,72.824,355.579,72.824,355.57,72.824z"/>
				</g>
				<g>
					<path style="fill:#3C3C3B;" d="M355.57,70.022c-0.202,0-0.368-0.161-0.374-0.364c-0.005-0.207,0.158-0.378,0.364-0.383
						l6.049-0.152c0.003,0,0.007,0,0.009,0c0.202,0,0.368,0.161,0.374,0.364c0.005,0.206-0.158,0.378-0.364,0.383l-6.049,0.152
						C355.576,70.022,355.573,70.022,355.57,70.022z"/>
				</g>
			</g>
			<g>
				<g>
					<path style="fill:#3C3C3B;" d="M369.905,80.28c-0.619,0-1.121-0.502-1.121-1.121v-9.353c0-1.05-0.854-1.904-1.903-1.904
						s-1.904,0.854-1.904,1.904v9.353c0,0.619-0.502,1.121-1.121,1.121s-1.121-0.502-1.121-1.121v-9.353
						c0-2.286,1.86-4.145,4.145-4.145c2.286,0,4.145,1.86,4.145,4.145v9.353C371.026,79.778,370.524,80.28,369.905,80.28z"/>
				</g>
				<g>
					<path style="fill:#3C3C3B;" d="M363.856,78.858c-0.193,0-0.357-0.149-0.372-0.345c-0.016-0.206,0.138-0.385,0.344-0.401
						l6.049-0.462c0.21-0.012,0.385,0.138,0.401,0.344s-0.138,0.385-0.344,0.401l-6.049,0.462
						C363.875,78.858,363.866,78.858,363.856,78.858z"/>
				</g>
				<g>
					<path style="fill:#3C3C3B;" d="M363.857,76.056c-0.202,0-0.368-0.161-0.374-0.364c-0.005-0.206,0.158-0.378,0.364-0.383
						l6.049-0.151c0.003,0,0.007,0,0.009,0c0.202,0,0.368,0.161,0.374,0.364c0.005,0.206-0.158,0.378-0.364,0.383l-6.049,0.151
						C363.863,76.056,363.86,76.056,363.857,76.056z"/>
				</g>
				<g>
					<path style="fill:#3C3C3B;" d="M363.856,75.067c-0.193,0-0.357-0.149-0.372-0.345c-0.016-0.206,0.138-0.385,0.344-0.401
						l6.049-0.462c0.21-0.013,0.385,0.138,0.401,0.344c0.016,0.206-0.138,0.385-0.344,0.401l-6.049,0.462
						C363.875,75.067,363.866,75.067,363.856,75.067z"/>
				</g>
				<g>
					<path style="fill:#3C3C3B;" d="M363.857,72.265c-0.202,0-0.368-0.161-0.374-0.364c-0.005-0.206,0.158-0.378,0.364-0.383
						l6.049-0.151c0.003,0,0.007,0,0.009,0c0.202,0,0.368,0.161,0.374,0.364c0.005,0.207-0.158,0.378-0.364,0.383l-6.049,0.151
						C363.863,72.265,363.86,72.265,363.857,72.265z"/>
				</g>
			</g>
			<g>
				<g>
					<path style="fill:#3C3C3B;" d="M367.806,87.682c-0.447,0-0.868-0.269-1.042-0.709c-0.228-0.575,0.054-1.227,0.63-1.454
						l6.868-2.718c0.976-0.386,1.456-1.495,1.07-2.471c-0.386-0.976-1.493-1.456-2.47-1.069l-2.377,0.94
						c-0.576,0.227-1.227-0.054-1.455-0.63c-0.228-0.576,0.054-1.227,0.63-1.455l2.377-0.94c2.124-0.838,4.539,0.204,5.379,2.329
						c0.408,1.03,0.389,2.157-0.051,3.173c-0.44,1.016-1.249,1.8-2.279,2.207l-6.868,2.717
						C368.083,87.656,367.943,87.682,367.806,87.682z"/>
				</g>
			</g>
			<g>
				<path style="fill:#3C3C3B;" d="M379.643,140.126c-0.146,0-0.285-0.086-0.345-0.229c-0.08-0.19,0.01-0.409,0.201-0.489
					c3.597-1.504,6.966-3.46,10.013-5.814c0.163-0.127,0.399-0.096,0.524,0.067c0.126,0.163,0.096,0.398-0.067,0.524
					c-3.099,2.394-6.525,4.384-10.182,5.913C379.74,140.117,379.691,140.126,379.643,140.126z"/>
			</g>
			<g>
				<path style="fill:#3C3C3B;" d="M388.09,140.127c-0.108,0-0.215-0.047-0.289-0.137c-0.131-0.159-0.108-0.395,0.052-0.526
					c1.109-0.909,2.197-1.867,3.236-2.848c0.15-0.142,0.386-0.135,0.528,0.015c0.142,0.15,0.135,0.386-0.015,0.528
					c-1.051,0.993-2.153,1.963-3.275,2.883C388.257,140.099,388.173,140.127,388.09,140.127z"/>
			</g>
			<g>
				<path style="fill:#3C3C3B;" d="M399.381,140.873c-0.273,0-0.547-0.099-0.763-0.3c-3.275-3.045-6.802-5.866-10.482-8.383
					c-0.511-0.349-0.642-1.047-0.292-1.558c0.349-0.511,1.047-0.642,1.557-0.292c3.772,2.58,7.386,5.47,10.743,8.591
					c0.453,0.421,0.479,1.131,0.058,1.584C399.982,140.753,399.682,140.873,399.381,140.873z"/>
			</g>
			<g>
				<g>
					<path style="fill:#3C3C3B;" d="M485.532,55.577c-15.323,0-27.788-12.466-27.788-27.788S470.21,0,485.532,0
						s27.788,12.466,27.788,27.788S500.855,55.577,485.532,55.577z M485.532,2.242c-14.087,0-25.547,11.46-25.547,25.547
						s11.46,25.547,25.547,25.547s25.547-11.46,25.547-25.547S499.619,2.242,485.532,2.242z"/>
				</g>
				<g>
					<path style="fill:#3C3C3B;" d="M485.532,50.855c-12.719,0-23.067-10.348-23.067-23.067s10.348-23.067,23.067-23.067
						s23.067,10.348,23.067,23.067S498.252,50.855,485.532,50.855z M485.532,6.216c-11.895,0-21.572,9.677-21.572,21.572
						s9.677,21.572,21.572,21.572c11.895,0,21.572-9.677,21.572-21.572S497.427,6.216,485.532,6.216z"/>
				</g>
				<g>
					<path style="fill:#3C3C3B;" d="M485.532,48.436c-11.386,0-20.648-9.263-20.648-20.648S474.147,7.14,485.532,7.14
						c11.385,0,20.648,9.263,20.648,20.648S496.918,48.436,485.532,48.436z M485.532,11.624c-8.913,0-16.165,7.252-16.165,16.165
						s7.252,16.165,16.165,16.165c8.913,0,16.165-7.252,16.165-16.165S494.446,11.624,485.532,11.624z"/>
				</g>
				<g>
					<path style="fill:#3C3C3B;" d="M485.532,43.579c-0.511,0-1.024-0.025-1.528-0.073c-0.205-0.02-0.356-0.202-0.336-0.408
						c0.02-0.205,0.199-0.352,0.408-0.336c0.88,0.085,1.791,0.092,2.668,0.021c0.212-0.011,0.386,0.137,0.402,0.343
						c0.016,0.206-0.137,0.386-0.343,0.402C486.384,43.562,485.956,43.579,485.532,43.579z M488.256,43.339
						c-0.178,0-0.335-0.127-0.367-0.308c-0.036-0.203,0.099-0.397,0.302-0.433c0.476-0.085,0.954-0.195,1.42-0.327
						c0.201-0.055,0.405,0.06,0.461,0.258c0.056,0.198-0.06,0.405-0.258,0.461c-0.49,0.138-0.991,0.253-1.491,0.343
						C488.3,43.337,488.278,43.339,488.256,43.339z M482.564,43.293c-0.024,0-0.048-0.002-0.072-0.007
						c-0.501-0.098-1-0.221-1.485-0.367c-0.198-0.059-0.31-0.268-0.251-0.465c0.059-0.198,0.266-0.31,0.465-0.251
						c0.462,0.139,0.938,0.256,1.414,0.35c0.202,0.04,0.335,0.236,0.295,0.439C482.895,43.169,482.739,43.293,482.564,43.293z
						 M491.127,42.529c-0.149,0-0.29-0.09-0.348-0.238c-0.075-0.192,0.02-0.409,0.212-0.484c0.451-0.176,0.898-0.377,1.33-0.596
						c0.185-0.093,0.409-0.02,0.502,0.164c0.093,0.184,0.02,0.409-0.164,0.502c-0.453,0.23-0.923,0.441-1.396,0.626
						C491.218,42.521,491.173,42.529,491.127,42.529z M479.706,42.436c-0.047,0-0.095-0.009-0.142-0.028
						c-0.471-0.193-0.937-0.411-1.386-0.648c-0.182-0.096-0.252-0.323-0.155-0.505c0.097-0.182,0.321-0.252,0.505-0.155
						c0.427,0.226,0.871,0.433,1.319,0.617c0.191,0.078,0.282,0.296,0.204,0.487C479.992,42.349,479.853,42.436,479.706,42.436z
						 M493.788,41.178c-0.123,0-0.244-0.061-0.316-0.173c-0.111-0.174-0.059-0.405,0.115-0.516c0.408-0.259,0.808-0.543,1.19-0.841
						c0.162-0.127,0.397-0.098,0.524,0.065c0.127,0.162,0.098,0.397-0.065,0.524c-0.401,0.313-0.821,0.61-1.249,0.883
						C493.926,41.159,493.857,41.178,493.788,41.178z M477.067,41.043c-0.071,0-0.142-0.02-0.205-0.062
						c-0.424-0.28-0.84-0.584-1.235-0.902c-0.161-0.13-0.186-0.365-0.056-0.525c0.129-0.161,0.365-0.186,0.525-0.056
						c0.377,0.304,0.772,0.593,1.177,0.86c0.172,0.114,0.22,0.346,0.106,0.518C477.308,40.984,477.189,41.043,477.067,41.043z
						 M496.139,39.341c-0.099,0-0.197-0.039-0.271-0.116c-0.142-0.15-0.136-0.386,0.014-0.528c0.352-0.334,0.691-0.688,1.008-1.053
						c0.136-0.156,0.371-0.171,0.527-0.037c0.156,0.135,0.172,0.371,0.037,0.527c-0.333,0.383-0.688,0.754-1.057,1.105
						C496.324,39.307,496.231,39.341,496.139,39.341z M474.746,39.168c-0.094,0-0.189-0.035-0.262-0.107
						c-0.364-0.356-0.713-0.734-1.039-1.122c-0.133-0.158-0.112-0.394,0.046-0.526c0.158-0.133,0.393-0.112,0.526,0.046
						c0.31,0.37,0.644,0.729,0.991,1.069c0.147,0.144,0.15,0.381,0.005,0.529C474.94,39.131,474.843,39.168,474.746,39.168z
						 M498.096,37.089c-0.075,0-0.151-0.023-0.216-0.069c-0.168-0.12-0.207-0.353-0.088-0.521c0.282-0.396,0.547-0.809,0.788-1.226
						c0.103-0.179,0.331-0.24,0.51-0.137s0.24,0.331,0.137,0.51c-0.252,0.438-0.53,0.871-0.826,1.287
						C498.328,37.034,498.213,37.089,498.096,37.089z M472.826,36.885c-0.119,0-0.236-0.057-0.308-0.162
						c-0.289-0.419-0.56-0.856-0.806-1.3c-0.1-0.18-0.035-0.408,0.146-0.508c0.18-0.1,0.408-0.035,0.508,0.146
						c0.234,0.422,0.493,0.839,0.767,1.238c0.117,0.17,0.074,0.402-0.096,0.52C472.973,36.863,472.899,36.885,472.826,36.885z
						 M499.584,34.504c-0.051,0-0.104-0.011-0.154-0.033c-0.188-0.085-0.271-0.307-0.186-0.495c0.2-0.44,0.38-0.896,0.537-1.355
						c0.067-0.195,0.279-0.3,0.474-0.233c0.195,0.066,0.3,0.279,0.233,0.474c-0.164,0.482-0.354,0.961-0.563,1.423
						C499.862,34.422,499.726,34.504,499.584,34.504z M471.379,34.275c-0.144,0-0.282-0.084-0.343-0.225
						c-0.202-0.465-0.383-0.947-0.54-1.432c-0.063-0.196,0.045-0.407,0.241-0.47c0.196-0.061,0.407,0.045,0.47,0.241
						c0.149,0.462,0.322,0.921,0.514,1.363c0.082,0.189-0.005,0.409-0.194,0.491C471.479,34.265,471.429,34.275,471.379,34.275z
						 M500.546,31.679c-0.028,0-0.057-0.003-0.085-0.01c-0.201-0.047-0.326-0.248-0.279-0.449c0.11-0.471,0.198-0.953,0.263-1.433
						c0.027-0.204,0.216-0.35,0.42-0.321c0.204,0.027,0.348,0.215,0.321,0.42c-0.067,0.504-0.16,1.01-0.276,1.504
						C500.869,31.563,500.715,31.679,500.546,31.679z M470.464,31.436c-0.172,0-0.327-0.119-0.365-0.294
						c-0.107-0.496-0.192-1.003-0.251-1.509c-0.024-0.205,0.123-0.39,0.328-0.414c0.207-0.025,0.391,0.123,0.414,0.328
						c0.057,0.482,0.137,0.965,0.239,1.437c0.044,0.202-0.084,0.401-0.286,0.444C470.517,31.433,470.491,31.436,470.464,31.436z
						 M500.94,28.723c-0.005,0-0.009,0-0.014,0c-0.206-0.008-0.367-0.181-0.359-0.387c0.007-0.182,0.01-0.364,0.01-0.547
						c0-0.306-0.009-0.609-0.027-0.91c-0.012-0.206,0.145-0.383,0.35-0.395c0.209-0.006,0.383,0.144,0.396,0.35
						c0.019,0.316,0.029,0.635,0.028,0.956c0,0.192-0.003,0.383-0.011,0.574C501.306,28.564,501.14,28.723,500.94,28.723z
						 M470.118,28.473c-0.203,0-0.369-0.162-0.374-0.366l-0.003-0.319c0-0.407,0.015-0.81,0.046-1.21
						c0.016-0.206,0.196-0.364,0.401-0.344c0.206,0.016,0.36,0.195,0.344,0.401c-0.029,0.381-0.044,0.765-0.044,1.153l0.003,0.303
						c0.004,0.207-0.159,0.377-0.366,0.382C470.123,28.473,470.121,28.473,470.118,28.473z M500.76,25.745
						c-0.181,0-0.34-0.131-0.368-0.315c-0.076-0.478-0.176-0.958-0.298-1.426c-0.052-0.2,0.068-0.404,0.267-0.456
						c0.199-0.054,0.404,0.067,0.456,0.267c0.128,0.492,0.233,0.996,0.312,1.498c0.032,0.204-0.107,0.395-0.31,0.427
						C500.799,25.743,500.78,25.745,500.76,25.745z M470.345,25.499c-0.021,0-0.043-0.002-0.065-0.005
						c-0.203-0.036-0.339-0.229-0.304-0.433c0.088-0.502,0.201-1.004,0.337-1.492c0.055-0.199,0.262-0.314,0.46-0.26
						c0.199,0.055,0.315,0.261,0.26,0.46c-0.129,0.465-0.237,0.943-0.321,1.421C470.681,25.371,470.523,25.499,470.345,25.499z
						 M500.009,22.858c-0.152,0-0.295-0.094-0.351-0.245c-0.166-0.452-0.357-0.903-0.568-1.341c-0.09-0.186-0.012-0.409,0.174-0.499
						c0.186-0.089,0.409-0.011,0.499,0.174c0.222,0.46,0.423,0.934,0.597,1.408c0.071,0.194-0.028,0.408-0.222,0.479
						C500.095,22.85,500.052,22.858,500.009,22.858z M471.143,22.624c-0.045,0-0.09-0.008-0.135-0.025
						c-0.193-0.074-0.288-0.291-0.214-0.483c0.183-0.474,0.391-0.944,0.62-1.398c0.092-0.184,0.316-0.259,0.501-0.166
						c0.185,0.093,0.259,0.317,0.166,0.501c-0.217,0.433-0.416,0.881-0.59,1.332C471.434,22.534,471.293,22.624,471.143,22.624z
						 M498.713,20.171c-0.126,0-0.249-0.064-0.32-0.18c-0.251-0.412-0.526-0.818-0.817-1.207c-0.124-0.165-0.09-0.4,0.075-0.523
						c0.165-0.123,0.399-0.089,0.523,0.075c0.305,0.408,0.594,0.834,0.857,1.267c0.107,0.176,0.051,0.406-0.125,0.513
						C498.846,20.153,498.779,20.171,498.713,20.171z M472.483,19.958c-0.068,0-0.137-0.019-0.199-0.058
						c-0.175-0.11-0.227-0.341-0.117-0.515c0.271-0.431,0.567-0.852,0.878-1.253c0.127-0.163,0.362-0.193,0.524-0.066
						c0.163,0.126,0.193,0.361,0.066,0.524c-0.296,0.382-0.578,0.784-0.836,1.194C472.728,19.897,472.607,19.958,472.483,19.958z
						 M496.924,17.783c-0.101,0-0.202-0.041-0.276-0.122c-0.325-0.357-0.673-0.703-1.033-1.029
						c-0.153-0.138-0.165-0.375-0.026-0.528c0.138-0.153,0.375-0.165,0.528-0.026c0.377,0.341,0.742,0.705,1.084,1.079
						c0.139,0.153,0.128,0.389-0.024,0.528C497.104,17.751,497.014,17.783,496.924,17.783z M474.311,17.6
						c-0.092,0-0.184-0.034-0.256-0.101c-0.15-0.142-0.157-0.378-0.016-0.528c0.351-0.372,0.721-0.729,1.101-1.062
						c0.154-0.136,0.39-0.121,0.527,0.035c0.136,0.155,0.12,0.391-0.035,0.527c-0.362,0.317-0.715,0.657-1.049,1.011
						C474.509,17.561,474.41,17.6,474.311,17.6z M494.71,15.781c-0.077,0-0.155-0.024-0.223-0.074
						c-0.39-0.29-0.798-0.563-1.21-0.812c-0.177-0.107-0.233-0.336-0.127-0.513c0.106-0.177,0.336-0.234,0.513-0.127
						c0.433,0.261,0.86,0.548,1.27,0.852c0.166,0.123,0.2,0.357,0.077,0.523C494.937,15.729,494.825,15.781,494.71,15.781z
						 M476.555,15.634c-0.116,0-0.231-0.054-0.304-0.156c-0.12-0.167-0.082-0.401,0.086-0.521c0.413-0.297,0.845-0.576,1.284-0.831
						c0.178-0.104,0.407-0.043,0.511,0.135c0.104,0.178,0.043,0.407-0.135,0.511c-0.418,0.243-0.83,0.51-1.224,0.793
						C476.707,15.612,476.631,15.634,476.555,15.634z M492.156,14.241c-0.054,0-0.109-0.012-0.161-0.036
						c-0.438-0.209-0.89-0.398-1.344-0.563c-0.194-0.07-0.294-0.285-0.224-0.479c0.071-0.194,0.285-0.293,0.479-0.224
						c0.477,0.173,0.952,0.372,1.411,0.591c0.186,0.089,0.265,0.312,0.176,0.498C492.429,14.162,492.296,14.241,492.156,14.241z
						 M479.135,14.135c-0.142,0-0.277-0.081-0.34-0.218c-0.086-0.188-0.004-0.409,0.184-0.495c0.462-0.212,0.94-0.403,1.42-0.568
						c0.196-0.067,0.408,0.036,0.475,0.231c0.067,0.195-0.036,0.408-0.231,0.475c-0.458,0.158-0.913,0.34-1.353,0.541
						C479.24,14.124,479.187,14.135,479.135,14.135z M489.352,13.223c-0.031,0-0.062-0.004-0.093-0.012
						c-0.467-0.12-0.948-0.218-1.428-0.292c-0.204-0.031-0.344-0.222-0.312-0.426c0.031-0.204,0.222-0.341,0.426-0.312
						c0.504,0.077,1.008,0.181,1.499,0.306c0.2,0.051,0.32,0.255,0.269,0.455C489.67,13.111,489.519,13.223,489.352,13.223z
						 M481.955,13.163c-0.169,0-0.322-0.115-0.363-0.287c-0.048-0.201,0.076-0.402,0.277-0.45c0.492-0.117,0.998-0.212,1.503-0.282
						c0.21-0.032,0.393,0.115,0.421,0.319c0.028,0.204-0.115,0.393-0.319,0.421c-0.482,0.066-0.964,0.157-1.432,0.269
						C482.013,13.16,481.984,13.163,481.955,13.163z M486.404,12.769c-0.007,0-0.014,0-0.021-0.001
						c-0.482-0.027-0.973-0.03-1.457-0.011c-0.219,0.009-0.38-0.152-0.389-0.358c-0.008-0.206,0.152-0.38,0.358-0.389
						c0.508-0.022,1.023-0.016,1.529,0.012c0.206,0.011,0.364,0.188,0.352,0.394C486.766,12.615,486.601,12.769,486.404,12.769z"/>
				</g>
			</g>
			<g>
				<path style="fill:#3C3C3B;" d="M418.11,55.577c-10.911,0-19.788-8.877-19.788-19.788s8.877-19.788,19.788-19.788
					c10.911,0,19.788,8.877,19.788,19.788S429.021,55.577,418.11,55.577z M418.11,18.242c-9.675,0-17.546,7.871-17.546,17.546
					s7.871,17.546,17.546,17.546s17.546-7.871,17.546-17.546S427.785,18.242,418.11,18.242z"/>
			</g>
			<g>
				<path style="fill:#3C3C3B;" d="M418.11,50.855c-8.307,0-15.066-6.759-15.066-15.067s6.759-15.067,15.066-15.067
					c8.308,0,15.067,6.759,15.067,15.067S426.418,50.855,418.11,50.855z M418.11,22.216c-7.484,0-13.572,6.088-13.572,13.572
					s6.088,13.572,13.572,13.572c7.484,0,13.572-6.088,13.572-13.572S425.593,22.216,418.11,22.216z"/>
			</g>
			<g>
				<path style="fill:#3C3C3B;" d="M418.11,48.436c-6.974,0-12.647-5.674-12.647-12.648s5.674-12.648,12.647-12.648
					c6.974,0,12.648,5.674,12.648,12.648S425.084,48.436,418.11,48.436z M418.11,27.624c-4.502,0-8.164,3.663-8.164,8.164
					s3.662,8.164,8.164,8.164c4.502,0,8.164-3.663,8.164-8.164S422.612,27.624,418.11,27.624z"/>
			</g>
			<g>
				<path style="fill:#3C3C3B;" d="M418.14,43.579h-0.031c-0.512,0-1.023-0.05-1.519-0.149c-0.202-0.04-0.334-0.237-0.293-0.439
					c0.04-0.202,0.235-0.336,0.439-0.293c0.448,0.089,0.91,0.134,1.373,0.134c0.206,0,0.389,0.167,0.389,0.374
					S418.347,43.579,418.14,43.579z M419.585,43.432c-0.174,0-0.33-0.122-0.366-0.299c-0.041-0.202,0.09-0.4,0.292-0.441
					c0.451-0.092,0.895-0.228,1.318-0.406c0.191-0.079,0.409,0.009,0.489,0.2c0.08,0.19-0.009,0.409-0.2,0.489
					c-0.469,0.197-0.96,0.348-1.459,0.449C419.634,43.43,419.609,43.432,419.585,43.432z M415.274,43.016
					c-0.048,0-0.096-0.009-0.143-0.028c-0.47-0.195-0.922-0.438-1.345-0.722c-0.171-0.115-0.217-0.347-0.102-0.518
					c0.115-0.171,0.347-0.217,0.518-0.102c0.382,0.256,0.792,0.476,1.216,0.652c0.19,0.079,0.281,0.298,0.202,0.489
					C415.559,42.929,415.42,43.016,415.274,43.016z M422.252,42.312c-0.12,0-0.238-0.058-0.31-0.165
					c-0.115-0.171-0.07-0.403,0.101-0.519c0.38-0.256,0.737-0.552,1.063-0.88c0.146-0.146,0.382-0.147,0.528-0.001
					s0.147,0.382,0.001,0.528c-0.36,0.362-0.755,0.689-1.175,0.973C422.397,42.291,422.324,42.312,422.252,42.312z M412.87,41.407
					c-0.096,0-0.191-0.036-0.264-0.109c-0.359-0.359-0.686-0.755-0.969-1.178c-0.115-0.171-0.069-0.404,0.102-0.518
					c0.171-0.116,0.403-0.07,0.518,0.102c0.257,0.382,0.552,0.741,0.877,1.066c0.146,0.146,0.146,0.382,0,0.528
					C413.061,41.37,412.966,41.407,412.87,41.407z M424.29,40.26c-0.071,0-0.143-0.02-0.206-0.063
					c-0.172-0.114-0.219-0.346-0.104-0.518c0.255-0.383,0.473-0.793,0.648-1.218c0.079-0.19,0.297-0.281,0.488-0.203
					c0.191,0.079,0.282,0.297,0.203,0.488c-0.194,0.471-0.435,0.924-0.717,1.347C424.529,40.201,424.41,40.26,424.29,40.26z
					 M411.259,39.005c-0.146,0-0.285-0.086-0.345-0.23c-0.196-0.47-0.346-0.961-0.445-1.46c-0.04-0.202,0.091-0.399,0.293-0.439
					c0.201-0.041,0.399,0.091,0.439,0.293c0.09,0.451,0.225,0.895,0.402,1.319c0.08,0.19-0.011,0.409-0.201,0.489
					C411.355,38.996,411.307,39.005,411.259,39.005z M425.391,37.586c-0.024,0-0.048-0.002-0.072-0.007
					c-0.202-0.04-0.335-0.236-0.295-0.439c0.086-0.442,0.13-0.896,0.13-1.352c0-0.207,0.167-0.385,0.374-0.385
					c0.207,0,0.374,0.156,0.374,0.362v0.023c0,0.503-0.049,1.006-0.144,1.495C425.722,37.462,425.566,37.586,425.391,37.586z
					 M410.693,36.166c-0.207,0-0.374-0.163-0.374-0.37v-0.007c0-0.508,0.05-1.017,0.147-1.511c0.04-0.202,0.236-0.335,0.439-0.294
					c0.202,0.04,0.334,0.237,0.294,0.439c-0.088,0.447-0.133,0.907-0.133,1.367C411.067,35.995,410.899,36.166,410.693,36.166z
					 M425.381,34.694c-0.174,0-0.33-0.123-0.366-0.3c-0.09-0.45-0.227-0.893-0.404-1.318c-0.08-0.19,0.01-0.409,0.2-0.489
					c0.189-0.08,0.409,0.01,0.489,0.2c0.197,0.47,0.348,0.961,0.448,1.459c0.04,0.202-0.09,0.4-0.293,0.44
					C425.43,34.692,425.405,34.694,425.381,34.694z M411.254,33.333c-0.048,0-0.096-0.009-0.143-0.028
					c-0.19-0.079-0.281-0.297-0.202-0.488c0.194-0.468,0.436-0.921,0.719-1.346c0.115-0.171,0.346-0.218,0.518-0.103
					c0.171,0.115,0.218,0.347,0.103,0.518c-0.257,0.384-0.476,0.794-0.651,1.217C411.539,33.246,411.4,33.333,411.254,33.333z
					 M424.265,32.027c-0.12,0-0.238-0.058-0.31-0.165c-0.256-0.381-0.552-0.738-0.879-1.064c-0.146-0.146-0.147-0.382-0.001-0.528
					c0.146-0.146,0.382-0.147,0.528-0.001c0.362,0.36,0.689,0.756,0.972,1.176c0.115,0.171,0.07,0.404-0.101,0.518
					C424.409,32.006,424.337,32.027,424.265,32.027z M412.86,30.928c-0.096,0-0.191-0.036-0.264-0.109
					c-0.146-0.146-0.146-0.382-0.001-0.528c0.359-0.36,0.755-0.687,1.177-0.97c0.171-0.116,0.404-0.07,0.518,0.101
					c0.115,0.171,0.07,0.404-0.101,0.518c-0.382,0.257-0.74,0.553-1.065,0.879C413.052,30.891,412.956,30.928,412.86,30.928z
					 M422.214,29.987c-0.071,0-0.143-0.02-0.207-0.063c-0.384-0.256-0.794-0.475-1.217-0.65c-0.191-0.079-0.281-0.297-0.202-0.488
					c0.079-0.191,0.298-0.281,0.488-0.202c0.469,0.194,0.922,0.435,1.347,0.718c0.172,0.115,0.218,0.346,0.104,0.518
					C422.454,29.929,422.335,29.987,422.214,29.987z M415.26,29.314c-0.146,0-0.285-0.086-0.345-0.23
					c-0.08-0.19,0.011-0.409,0.201-0.489c0.471-0.196,0.962-0.347,1.46-0.446c0.202-0.042,0.399,0.09,0.44,0.293
					s-0.09,0.399-0.293,0.44c-0.45,0.09-0.893,0.226-1.319,0.403C415.357,29.305,415.308,29.314,415.26,29.314z M419.542,28.884
					c-0.024,0-0.048-0.002-0.072-0.007c-0.446-0.088-0.904-0.132-1.36-0.132c-0.207,0-0.381-0.167-0.381-0.374
					s0.16-0.374,0.367-0.374h0.014c0.505,0,1.011,0.049,1.504,0.146c0.202,0.04,0.335,0.236,0.295,0.439
					C419.873,28.76,419.717,28.884,419.542,28.884z"/>
			</g>
			<g>
				<path style="fill:#3C3C3B;" d="M512.2,67.171H399.443c-0.619,0-1.121-0.502-1.121-1.121V35.789c0-0.619,0.502-1.121,1.121-1.121
					c0.619,0,1.121,0.502,1.121,1.121V64.93h110.516V27.789c0-0.619,0.502-1.121,1.121-1.121c0.619,0,1.121,0.502,1.121,1.121
					v38.261C513.321,66.67,512.819,67.171,512.2,67.171z"/>
			</g>
			<g>
				<path style="fill:#3C3C3B;" d="M500.892,81.09h-15.36c-0.619,0-1.121-0.502-1.121-1.121c0-0.619,0.502-1.121,1.121-1.121h14.826
					l10.971-13.505c0.391-0.48,1.096-0.553,1.576-0.163c0.48,0.39,0.553,1.096,0.163,1.576l-11.308,13.919
					C501.549,80.938,501.23,81.09,500.892,81.09z"/>
			</g>
			<g>
				<path style="fill:#3C3C3B;" d="M436.777,81.09H410.75c-0.337,0-0.657-0.152-0.87-0.414l-11.308-13.919
					c-0.39-0.48-0.317-1.186,0.163-1.576c0.48-0.391,1.186-0.317,1.577,0.163l10.971,13.505h25.493c0.619,0,1.121,0.502,1.121,1.121
					C437.898,80.589,437.396,81.09,436.777,81.09z"/>
			</g>
			<g>
				<path style="fill:#3C3C3B;" d="M446.172,140.874c-0.167,0-0.337-0.038-0.497-0.117c-7.842-3.89-12.714-11.742-12.714-20.491
					c0-4.084,1.065-8.019,3.097-11.499h-24.187v30.985c0,0.619-0.502,1.121-1.121,1.121s-1.121-0.502-1.121-1.121v-32.106
					c0-0.619,0.502-1.121,1.121-1.121h27.367c0.42,0,0.804,0.235,0.996,0.608c0.192,0.373,0.16,0.823-0.084,1.164
					c-2.504,3.506-3.827,7.645-3.827,11.968c0,7.891,4.395,14.974,11.468,18.483c0.555,0.275,0.781,0.947,0.506,1.502
					C446.981,140.645,446.584,140.874,446.172,140.874z"/>
			</g>
			<g>
				<path style="fill:#3C3C3B;" d="M500.892,140.873c-0.619,0-1.121-0.502-1.121-1.121v-32.106c0-0.619,0.502-1.121,1.121-1.121
					s1.121,0.502,1.121,1.121v32.106C502.013,140.372,501.511,140.873,500.892,140.873z"/>
			</g>
			<g>
				<path style="fill:#3C3C3B;" d="M431.391,23.793c-0.551,0-1.031-0.406-1.109-0.968c-0.085-0.613,0.344-1.179,0.957-1.263
					l29.077-4.015c0.608-0.088,1.179,0.344,1.263,0.957c0.085,0.613-0.344,1.179-0.957,1.263l-29.077,4.015
					C431.494,23.79,431.442,23.793,431.391,23.793z"/>
			</g>
			<g>
				<path style="fill:#3C3C3B;" d="M399.443,59.635h-6.812c-0.619,0-1.121-0.502-1.121-1.121V35.789
					c0-0.619,0.502-1.121,1.121-1.121h6.812c0.619,0,1.121,0.502,1.121,1.121c0,0.619-0.502,1.121-1.121,1.121h-5.691v20.484h5.691
					c0.619,0,1.121,0.502,1.121,1.121C400.563,59.133,400.062,59.635,399.443,59.635z"/>
			</g>
			<g>
				<path style="fill:#3C3C3B;" d="M519.012,59.635H512.2c-0.619,0-1.121-0.502-1.121-1.121c0-0.619,0.502-1.121,1.121-1.121h5.691
					V36.909H512.2c-0.619,0-1.121-0.502-1.121-1.121c0-0.619,0.502-1.121,1.121-1.121h6.812c0.619,0,1.121,0.502,1.121,1.121v22.725
					C520.133,59.133,519.631,59.635,519.012,59.635z"/>
			</g>
			<g>
				<path style="fill:#3C3C3B;" d="M392.631,48.272h-23.044c-0.619,0-1.121-0.502-1.121-1.121c0-0.619,0.502-1.121,1.121-1.121
					h23.044c0.619,0,1.121,0.502,1.121,1.121C393.751,47.77,393.25,48.272,392.631,48.272z"/>
			</g>
			<g>
				<path style="fill:#3C3C3B;" d="M539.592,48.272h-20.58c-0.619,0-1.121-0.502-1.121-1.121c0-0.619,0.502-1.121,1.121-1.121h20.58
					c0.619,0,1.121,0.502,1.121,1.121C540.713,47.77,540.211,48.272,539.592,48.272z"/>
			</g>
			<g>
				<path style="fill:#3C3C3B;" d="M365.674,52.185c-2.776,0-5.034-2.258-5.034-5.034c0-2.776,2.258-5.034,5.034-5.034
					s5.034,2.258,5.034,5.034C370.707,49.927,368.449,52.185,365.674,52.185z M365.674,44.359c-1.54,0-2.793,1.253-2.793,2.792
					c0,1.54,1.253,2.793,2.793,2.793s2.792-1.253,2.792-2.793C368.466,45.612,367.213,44.359,365.674,44.359z"/>
			</g>
			<g>
				<path style="fill:#3C3C3B;" d="M543.505,52.185c-2.776,0-5.034-2.258-5.034-5.034c0-2.776,2.258-5.034,5.034-5.034
					c2.776,0,5.034,2.258,5.034,5.034C548.539,49.927,546.281,52.185,543.505,52.185z M543.505,44.359
					c-1.54,0-2.792,1.253-2.792,2.792c0,1.54,1.253,2.793,2.792,2.793s2.792-1.253,2.792-2.793
					C546.298,45.612,545.045,44.359,543.505,44.359z"/>
			</g>
			<g>
				<path style="fill:#3C3C3B;" d="M455.821,139.39c-10.545,0-19.124-8.579-19.124-19.125c0-4.768,1.772-9.34,4.991-12.871
					c0.139-0.153,0.375-0.164,0.528-0.024c0.152,0.139,0.163,0.375,0.024,0.528c-3.093,3.393-4.796,7.785-4.796,12.367
					c0,10.134,8.244,18.378,18.377,18.378c10.134,0,18.378-8.244,18.378-18.378c0-4.582-1.703-8.974-4.797-12.367
					c-0.139-0.153-0.128-0.389,0.024-0.528c0.152-0.139,0.389-0.127,0.528,0.024c3.219,3.531,4.991,8.102,4.991,12.871
					C474.946,130.811,466.366,139.39,455.821,139.39z"/>
			</g>
			<g>
				<path style="fill:#3C3C3B;" d="M480.378,81.09h-8.71c-0.619,0-1.121-0.502-1.121-1.121c0-0.619,0.502-1.121,1.121-1.121h8.71
					c0.619,0,1.121,0.502,1.121,1.121C481.499,80.589,480.997,81.09,480.378,81.09z"/>
			</g>
			<g>
				<path style="fill:#3C3C3B;" d="M466.187,81.09h-4.297c-0.619,0-1.121-0.502-1.121-1.121c0-0.619,0.502-1.121,1.121-1.121h4.297
					c0.619,0,1.121,0.502,1.121,1.121C467.308,80.589,466.806,81.09,466.187,81.09z"/>
			</g>
			<g>
				<path style="fill:#3C3C3B;" d="M500.906,120.638c-0.009,0-0.019,0-0.029-0.001l-23.417-1.788
					c-0.206-0.016-0.36-0.195-0.344-0.401s0.186-0.364,0.401-0.344l23.417,1.788c0.206,0.016,0.36,0.195,0.344,0.401
					C501.263,120.489,501.1,120.638,500.906,120.638z"/>
			</g>
			<g>
				<path style="fill:#3C3C3B;" d="M500.892,113.754c-0.004,0-0.008,0-0.012,0l-90.041-2.867c-0.206-0.007-0.368-0.179-0.361-0.385
					c0.007-0.206,0.158-0.387,0.385-0.361l90.041,2.867c0.206,0.007,0.368,0.179,0.361,0.385
					C501.259,113.595,501.093,113.754,500.892,113.754z"/>
			</g>
			<g>
				<path style="fill:#3C3C3B;" d="M433.54,25.654c-0.191,0-0.354-0.146-0.372-0.339c-0.019-0.205,0.132-0.387,0.338-0.406
					l25.77-2.371c0.207-0.022,0.387,0.132,0.406,0.338c0.019,0.205-0.132,0.387-0.338,0.406l-25.77,2.371
					C433.563,25.654,433.551,25.654,433.54,25.654z"/>
			</g>
			<g>
				<path style="fill:#3C3C3B;" d="M508.15,71.41c-0.006,0-0.012,0-0.018,0l-108.707-4.986c-0.206-0.009-0.366-0.184-0.356-0.39
					c0.009-0.206,0.191-0.366,0.39-0.356l108.707,4.986c0.206,0.009,0.366,0.184,0.356,0.39
					C508.514,71.254,508.349,71.41,508.15,71.41z"/>
			</g>
			<g>
				<path style="fill:#3C3C3B;" d="M530.786,140.874c-0.47,0-0.908-0.298-1.064-0.768c-6.982-21.062-16.992-41.08-29.751-59.497
					c-0.352-0.509-0.226-1.207,0.283-1.559c0.509-0.353,1.208-0.226,1.559,0.283c12.882,18.593,22.987,38.803,30.037,60.068
					c0.195,0.588-0.124,1.222-0.711,1.417C531.022,140.855,530.903,140.874,530.786,140.874z"/>
			</g>
			<g>
				<path style="fill:#3C3C3B;" d="M507.063,140.874c-0.455,0-0.882-0.279-1.05-0.73c-1.849-4.964-3.914-9.922-6.138-14.736
					c-0.259-0.562-0.015-1.228,0.548-1.487c0.562-0.259,1.228-0.014,1.487,0.548c2.247,4.865,4.334,9.876,6.204,14.893
					c0.216,0.58-0.079,1.225-0.659,1.441C507.326,140.851,507.193,140.874,507.063,140.874z"/>
			</g>
			<g>
				<path style="fill:#3C3C3B;" d="M476.969,115.581c-0.193,0-0.357-0.149-0.372-0.345c-0.016-0.206,0.138-0.385,0.344-0.401
					l23.837-1.82c3.706-2.149,7.594-4.071,11.558-5.714c0.19-0.078,0.409,0.012,0.488,0.202c0.079,0.19-0.012,0.409-0.202,0.488
					c-3.96,1.641-7.843,3.563-11.543,5.712c-0.049,0.028-0.103,0.045-0.159,0.05l-23.922,1.827
					C476.988,115.58,476.979,115.581,476.969,115.581z"/>
			</g>
			<g>
				<path style="fill:#3C3C3B;" d="M500.906,120.638c-0.131,0-0.257-0.068-0.326-0.19c-0.101-0.18-0.038-0.408,0.142-0.509
					c5.917-3.339,12.103-6.341,18.384-8.924c0.19-0.077,0.409,0.013,0.487,0.204s-0.012,0.409-0.204,0.487
					c-6.253,2.572-12.41,5.561-18.301,8.884C501.031,120.623,500.968,120.638,500.906,120.638z"/>
			</g>
			<g>
				<path style="fill:#3C3C3B;" d="M501.65,127.716c-0.39,0-0.768-0.203-0.975-0.566c-0.306-0.538-0.119-1.222,0.418-1.529
					c6.511-3.713,13.318-7.063,20.23-9.955c0.572-0.239,1.228,0.03,1.467,0.601c0.239,0.571-0.03,1.228-0.601,1.467
					c-6.829,2.857-13.552,6.166-19.985,9.835C502.029,127.668,501.838,127.716,501.65,127.716z"/>
			</g>
			<g>
				<path style="fill:#3C3C3B;" d="M504.387,133.307c-0.132,0-0.26-0.07-0.328-0.194c-0.1-0.181-0.034-0.408,0.147-0.507
					c6.542-3.597,13.362-6.856,20.27-9.687c0.19-0.077,0.409,0.013,0.487,0.204c0.078,0.191-0.013,0.409-0.204,0.487
					c-6.882,2.819-13.676,6.066-20.194,9.649C504.51,133.292,504.448,133.307,504.387,133.307z"/>
			</g>
			<g>
				<path style="fill:#3C3C3B;" d="M506.123,137.651c-0.131,0-0.258-0.069-0.327-0.191c-0.101-0.18-0.036-0.408,0.144-0.509
					l19.717-11.031c0.181-0.1,0.408-0.036,0.509,0.144c0.101,0.18,0.036,0.408-0.144,0.509l-19.717,11.031
					C506.248,137.636,506.185,137.651,506.123,137.651z"/>
			</g>
			<g>
				<path style="fill:#3C3C3B;" d="M512.942,140.126c-0.127,0-0.25-0.064-0.32-0.181c-0.107-0.177-0.05-0.406,0.127-0.513
					c4.858-2.933,9.9-5.695,14.985-8.209c0.186-0.091,0.41-0.016,0.501,0.169c0.092,0.185,0.016,0.409-0.169,0.501
					c-5.067,2.504-10.09,5.256-14.93,8.179C513.074,140.109,513.007,140.126,512.942,140.126z"/>
			</g>
			<g>
				<path style="fill:#3C3C3B;" d="M523.616,140.874c-0.404,0-0.794-0.219-0.994-0.601c-0.287-0.548-0.076-1.226,0.472-1.513
					c2.029-1.063,4.103-2.102,6.168-3.088c0.558-0.266,1.228-0.03,1.494,0.528c0.267,0.559,0.03,1.228-0.528,1.494
					c-2.039,0.974-4.089,2-6.093,3.051C523.969,140.832,523.791,140.874,523.616,140.874z"/>
			</g>
			<g>
				<path style="fill:#3C3C3B;" d="M517.405,108.767h-43.88c-0.619,0-1.121-0.502-1.121-1.121s0.502-1.121,1.121-1.121h43.88
					c0.619,0,1.121,0.502,1.121,1.121S518.024,108.767,517.405,108.767z"/>
			</g>
			<g>
				<path style="fill:#3C3C3B;" d="M355.57,80.28h-2.243c-0.619,0-1.121-0.502-1.121-1.121c0-0.619,0.502-1.121,1.121-1.121h2.243
					c0.619,0,1.121,0.502,1.121,1.121C356.691,79.778,356.189,80.28,355.57,80.28z"/>
			</g>
			<g>
				<path style="fill:#3C3C3B;" d="M363.857,80.28h-2.238c-0.619,0-1.121-0.502-1.121-1.121c0-0.619,0.502-1.121,1.121-1.121h2.238
					c0.619,0,1.121,0.502,1.121,1.121C364.977,79.778,364.476,80.28,363.857,80.28z"/>
			</g>
		</g>
	</g>
	<g>
		<path style="fill:#3C3C3B;" d="M598.879,141.995H1.121c-0.619,0-1.121-0.502-1.121-1.121c0-0.619,0.502-1.121,1.121-1.121h597.758
			c0.619,0,1.121,0.502,1.121,1.121C600,141.493,599.498,141.995,598.879,141.995z"/>
	</g>
</g>
</svg>
