<!-- Generator: Adobe Illustrator 19.0.1, SVG Export Plug-In  -->
<svg version="1.1"
	 xmlns="http://www.w3.org/2000/svg" xmlns:xlink="http://www.w3.org/1999/xlink" xmlns:a="http://ns.adobe.com/AdobeSVGViewerExtensions/3.0/"
	 x="0px" y="0px" width="56.7px" height="36px" viewBox="0 0 56.7 36" style="enable-background:new 0 0 56.7 36;"
	 xml:space="preserve">
<defs>
</defs>
<g>
	<path style="fill:#3C3C3B;" d="M7.74,0.045L0,0v36h8.865v-0.045C4.5,31.32,1.89,24.84,1.935,17.145
		C1.89,10.35,4.05,4.455,7.74,0.045z M56.7,0h-7.38c2.79,4.05,4.32,8.685,4.095,14.445c0.045,0.54,0.045,0.855,0,2.205h-33.03
		c0,9.9,3.465,17.235,12.285,17.28c6.075-0.045,10.44-4.545,13.455-9.405l8.55,4.275c-1.53,2.745-3.24,4.95-5.13,7.2H56.7
		C56.7,36,56.7,0,56.7,0z M28.845,0.72c-4.05,0-7.56,3.33-7.92,7.38H36C35.865,4.05,32.94,0.72,28.845,0.72z"/>
</g>
</svg>
