<!-- Generator: Adobe Illustrator 19.0.1, SVG Export Plug-In  -->
<svg version="1.1"
	 xmlns="http://www.w3.org/2000/svg" xmlns:xlink="http://www.w3.org/1999/xlink" xmlns:a="http://ns.adobe.com/AdobeSVGViewerExtensions/3.0/"
	 x="0px" y="0px" width="26.46px" height="36px" viewBox="0 0 26.46 36" style="enable-background:new 0 0 26.46 36;"
	 xml:space="preserve">
<defs>
</defs>
<g>
	<path style="fill:#3C3C3B;" d="M25.909,18.26c-0.029-0.029-0.058-0.058-0.115-0.058l-0.029-0.029
		c-0.029-0.029-0.058-0.029-0.058-0.058l-0.029-0.029c-0.029,0-0.058-0.029-0.058-0.029l-0.058-0.029
		c-0.029,0-0.058-0.029-0.058-0.029l-0.058-0.029c-0.029,0-0.058-0.029-0.058-0.029c-0.029,0-0.029,0-0.058-0.029l-0.086-0.029
		c-0.029,0-0.029,0-0.058-0.029l-0.086-0.029h-0.029L24.96,17.8h-0.058c-0.029,0-0.058,0-0.086-0.029h-0.661
		c-0.173-3.824,0.173-7.706-0.805-11.387c3.709-1.323,0.805-6.412-2.415-4.141C18.806,0.403,15.873,0,12.796,0
		C9.777,0.201,6.93,0.834,4.917,2.415C4.112,2.013,3.336,1.898,2.646,2.099v0.029c-0.029,0-0.086,0.029-0.115,0.058
		c-0.029,0-0.086,0.029-0.115,0.058H2.387c-0.029,0-0.058,0.029-0.115,0.058H2.243L2.157,2.358H2.128L2.042,2.415H2.013L1.927,2.473
		c0,0-0.029,0-0.029,0.029L1.812,2.559c0,0-0.029,0-0.029,0.029L1.697,2.646c0,0-0.029,0-0.029,0.029L1.582,2.732L1.553,2.761
		C1.524,2.789,1.495,2.789,1.495,2.818L1.467,2.847L1.409,2.904L1.38,2.933C1.352,2.962,1.352,2.991,1.323,2.991L1.294,3.019
		C1.265,3.048,1.265,3.077,1.236,3.077L1.208,3.106C1.179,3.134,1.179,3.163,1.15,3.163L1.121,3.192
		C1.093,3.221,1.093,3.249,1.064,3.249L1.035,3.278C1.006,3.307,1.006,3.336,0.978,3.336L0.949,3.364L0.92,3.451
		c0,0,0,0.029-0.029,0.029L0.863,3.566c0,0,0,0.029-0.029,0.029L0.805,3.681c0,0,0,0.029-0.029,0.029L0.748,3.796
		c0,0,0,0.029-0.029,0.029C0.834,3.911,0.834,3.94,0.834,3.94v0.029L0.805,4.055v0.029c0,0.029,0,0.058-0.029,0.086v0.891
		c0,0.029,0,0.058,0.029,0.086v0.029l0.029,0.086v0.029l0.029,0.086c0,0,0,0.029,0.029,0.029L0.92,5.492c0,0,0,0.029,0.029,0.029
		l0.029,0.086c0,0,0,0.029,0.029,0.029l0.058,0.086c0,0,0,0.029,0.029,0.029L1.15,5.837c0,0,0,0.029,0.029,0.029l0.058,0.086
		l0.029,0.029l0.086,0.086l0.086,0.086h0.029c0.288,0.259,0.575,0.46,1.15,0.633V6.729c-1.208,3.623-0.201,7.275-0.144,11.013
		c-0.173,0-0.201,0.115-0.489,0.144H1.84c-0.029,0-0.086,0-0.144,0.029c-0.029,0-0.086,0-0.115,0.029l-0.115,0.029H1.438
		l-0.115,0.029H1.294L1.208,18.03H1.179l-0.086,0.029c0,0-0.029,0-0.029,0.029l-0.086,0.029L0.92,18.145
		c-0.029,0-0.058,0.029-0.058,0.029l-0.058,0.029l-0.058,0.029c-0.029,0-0.058,0.029-0.058,0.029l-0.058,0.029l-0.115,0.086
		c-0.029,0.029-0.058,0.058-0.086,0.058l-0.115,0.115l-0.029,0.029c-0.029,0.058-0.086,0.115-0.115,0.144l-0.058,0.086l-0.086,0.173
		L0,19.065v0.086c0,0.144,0.058,0.259,0.259,0.345c0.058,1.064,1.121,0.575,1.61,0.23l0.029-0.029
		c0.058-0.058,0.144-0.086,0.173-0.086h0.029l0.058-0.029c0.029,0,0.029,0,0.058-0.029c0.058-0.029,0.115-0.029,0.144-0.058
		c0.029,0,0.029-0.029,0.029-0.058l0.029-0.029c0.029-0.058,0.058-0.173,0.058-0.345l0.029-0.374v0.518
		c-0.144,3.767-1.15,8.828,0.949,12.221c0.374,0.604,0.834,1.121,1.352,1.553H4.658c-0.058,0.058-0.144,0.115-0.23,0.173
		L4.17,33.328l-0.086,0.058L3.911,33.5l-0.259,0.201l-0.316,0.288c-0.058,0.058-0.086,0.115-0.115,0.144l-0.115,0.173l-0.058,0.086
		c-0.029,0.058-0.058,0.115-0.058,0.173L2.962,34.65c-0.058,0.23,0,0.489,0.173,0.776l0.115,0.115h0.058
		c0.029,0,0.058,0,0.115,0.029c0.058,0.115,0.345,0.719,1.121,0.259c0.805-0.431,1.352-1.323,2.329-1.467L6.729,34.19
		c1.697,0.805,3.681,1.15,5.464,1.208c2.502,0.086,5.349-0.259,7.62-1.495c0.633,0.201,1.121,1.121,1.668,1.553l0.029,0.029
		l0.029,0.029l0.029,0.029l0.029,0.029c0,0,0.029,0,0.029,0.029c0,0,0.029,0,0.029,0.029c0,0,0.029,0,0.029,0.029h0.604
		c0,0,0.029,0,0.029-0.029h0.029c0,0,0.029,0,0.029-0.029h0.029c0,0,0.029,0,0.029-0.029c0,0,0.029,0,0.029-0.029l0.029-0.029
		c0,0,0.029,0,0.029-0.029l0.029-0.029h0.029l0.058-0.058l0.058-0.029h0.029l0.029-0.029h0.029l0.029-0.029l0.029-0.029l0.029-0.029
		l0.029-0.029l0.029-0.029l0.029-0.029l0.029-0.029v-0.029c0,0,0-0.029,0.029-0.029v-0.029c0,0,0-0.029,0.029-0.029v-0.029
		c0,0,0-0.029,0.029-0.029v-0.403c0,0-0.086,0-0.086-0.029l-0.086-0.029v-0.029l0.086-0.029c0,0,0.058,0,0.058-0.029l0.029-0.029
		v-0.604c0,0,0-0.029-0.029-0.029V33.73c0,0,0-0.029-0.029-0.029v-0.029c0,0,0-0.029-0.029-0.029c0,0,0-0.029-0.029-0.029
		c0,0,0-0.029-0.029-0.029c0,0,0-0.029-0.029-0.029c0,0,0-0.029-0.029-0.029c0,0,0-0.029-0.029-0.029c0,0,0-0.029-0.029-0.029
		c0,0,0-0.029-0.029-0.029c0,0,0-0.029-0.029-0.029c0,0,0-0.029-0.029-0.029c0,0,0-0.029-0.029-0.029c0,0,0-0.029-0.029-0.029
		c0,0,0-0.029-0.029-0.029c0,0,0-0.029-0.029-0.029l-0.029-0.029l-0.029-0.029l-0.029-0.029l-0.029-0.029l-0.029-0.029l-0.029-0.029
		l-0.029-0.029l-0.029-0.029l-0.029-0.029l-0.029-0.029l-0.029-0.029l-0.029-0.029v-0.029l-0.029-0.029l-0.029-0.029l-0.029-0.029
		l-0.029-0.029l-0.029-0.029l-0.029-0.029l-0.029-0.029l-0.029-0.029l-0.029-0.029l-0.029-0.029l-0.029-0.029l-0.029-0.029
		l-0.029-0.029l-0.029-0.029l-0.029-0.029l-0.029-0.029l-0.029-0.029l-0.029-0.029L21.71,32.35c0.575-0.546,1.093-1.208,1.467-1.984
		c1.697-3.393,1.409-7.534,1.179-11.272h0.029c0.029,0,0.058,0.029,0.058,0.029h0.086c0,0,0.029,0,0.029,0.029h0.029
		c0,0,0.029,0,0.029,0.029l0.058,0.029c0.489,0.345,1.553,0.834,1.61-0.23C26.743,19.151,26.196,18.461,25.909,18.26L25.909,18.26z
		 M5.147,6.24c-0.92-4.601,6.441-5.464,6.7-0.978C12.077,9,6.096,9.949,5.147,6.24z M15.528,10.553
		c-0.374,0.403-0.776,0.345-1.179,0.201c0,0.546,0.115,1.121,0.029,1.697c-0.144,0.259-0.431,0.288-0.661,0.403
		c-0.345-0.058-0.604-0.259-0.748-0.575l-0.058-0.029c-1.121,1.495-1.812-0.316-1.495-1.438c-0.345,0.029-0.633-0.058-0.863-0.431
		c-0.403-0.748,0.201-1.668,0.978-1.812c0.201,0.863,2.502,0.748,2.904-0.058C15.327,8.943,16.304,9.748,15.528,10.553z
		 M13.515,5.521c-0.259-3.968,5.837-5.032,6.729-1.15C21.25,8.684,14.263,9.806,13.515,5.521z M6.786,4.515
		c-0.546,0-1.006,0.489-1.006,1.093S6.24,6.7,6.786,6.7s1.006-0.489,1.006-1.093C7.793,5.003,7.361,4.515,6.786,4.515z M7.246,6.154
		c-0.144,0-0.23-0.115-0.23-0.288c0-0.144,0.115-0.288,0.23-0.288c0.144,0,0.23,0.115,0.23,0.288C7.476,6.01,7.39,6.154,7.246,6.154
		z M15.24,4.256c-0.546,0-0.978,0.489-0.978,1.093s0.431,1.093,0.978,1.093s0.978-0.489,0.978-1.093
		C16.218,4.745,15.787,4.256,15.24,4.256z M15.701,5.866c-0.115,0-0.23-0.115-0.23-0.288c0-0.144,0.115-0.288,0.23-0.288
		s0.23,0.115,0.23,0.288S15.816,5.866,15.701,5.866z"/>
</g>
</svg>
