<!-- Generator: Adobe Illustrator 19.0.1, SVG Export Plug-In  -->
<svg version="1.1"
	 xmlns="http://www.w3.org/2000/svg" xmlns:xlink="http://www.w3.org/1999/xlink" xmlns:a="http://ns.adobe.com/AdobeSVGViewerExtensions/3.0/"
	 x="0px" y="0px" width="37.5px" height="38.07px" viewBox="0 0 37.5 38.07" style="enable-background:new 0 0 37.5 38.07;"
	 xml:space="preserve">
<defs>
</defs>
<path style="fill:#3C3C3B;" d="M18.75,0C8.395,0,0,8.522,0,19.035S8.395,38.07,18.75,38.07c10.355,0,18.75-8.522,18.75-19.035
	S29.105,0,18.75,0z M13.971,28.005H9.728V15.044h4.243V28.005z M11.85,13.275h-0.027c-1.425,0-2.345-0.996-2.345-2.24
	c0-1.271,0.949-2.239,2.401-2.239s2.345,0.968,2.373,2.239C14.25,12.279,13.329,13.275,11.85,13.275z M29.273,28.005H25.03v-6.934
	c0-1.742-0.614-2.93-2.15-2.93c-1.172,0-1.87,0.801-2.177,1.575c-0.112,0.277-0.14,0.664-0.14,1.051v7.239H16.32
	c0,0,0.056-11.745,0-12.961h4.244v1.836c0.563-0.883,1.572-2.141,3.825-2.141c2.792,0,4.885,1.853,4.885,5.834L29.273,28.005z"/>
</svg>
