<!-- Generator: Adobe Illustrator 19.0.1, SVG Export Plug-In  -->
<svg version="1.1"
	 xmlns="http://www.w3.org/2000/svg" xmlns:xlink="http://www.w3.org/1999/xlink" xmlns:a="http://ns.adobe.com/AdobeSVGViewerExtensions/3.0/"
	 x="0px" y="0px" width="35.607px" height="36px" viewBox="0 0 35.607 36" style="enable-background:new 0 0 35.607 36;"
	 xml:space="preserve">
<defs>
</defs>
<path style="fill:#3C3C3B;" d="M13.488,17.412h8.578c2.388,0,4.269-2.02,4.269-4.418V4.815c0-2.328-1.951-4.076-4.282-4.465
	C20.578,0.105,19.054-0.007,17.585,0c-1.468,0.007-2.828,0.132-4.061,0.35C9.889,0.992,9.272,2.337,9.272,4.815v3.182h8.531v1.177
	H5.97c-2.496,0-4.682,1.503-5.365,4.357c-0.789,3.271-0.824,5.272,0,8.687c0.61,2.542,2.068,4.312,4.564,4.312h2.926v-3.839
	C8.095,19.858,10.574,17.412,13.488,17.412z M12.947,5.906c-0.89,0-1.612-0.729-1.612-1.631c0-0.906,0.721-1.642,1.612-1.642
	c0.887,0,1.612,0.736,1.612,1.642C14.558,5.177,13.833,5.906,12.947,5.906z M34.949,13.531c-0.617-2.485-1.795-4.357-4.295-4.357
	h-3.143v3.819c0,2.957-2.587,5.301-5.446,5.301h-8.578c-2.35,0-4.216,2.155-4.216,4.509v8.178c0,2.327,1.984,3.696,4.255,4.364
	c2.719,0.799,5.294,0.944,8.546,0c2.162-0.626,4.262-1.886,4.262-4.364v-3.273h-8.531v-1.177h12.851
	c2.496,0,3.426-1.699,4.295-4.313C35.845,19.528,35.807,16.982,34.949,13.531L34.949,13.531z M22.606,29.89
	c0.891,0,1.612,0.729,1.612,1.632c0,0.905-0.721,1.641-1.612,1.641c-0.887,0-1.612-0.736-1.612-1.641
	C20.995,30.619,21.719,29.89,22.606,29.89z"/>
</svg>
