<!-- Generator: Adobe Illustrator 19.0.1, SVG Export Plug-In  -->
<svg version="1.1"
	 xmlns="http://www.w3.org/2000/svg" xmlns:xlink="http://www.w3.org/1999/xlink" xmlns:a="http://ns.adobe.com/AdobeSVGViewerExtensions/3.0/"
	 x="0px" y="0px" width="600px" height="48px" viewBox="0 0 600 48" style="enable-background:new 0 0 600 48;"
	 xml:space="preserve">
<defs>
</defs>
<g>
	<path style="fill:#3C3C3B;" d="M372.586,43.1c11.084,1.513,21.971,3,33.074,4.515c-3.783-6.298-7.468-12.435-11.184-18.621
		C394.476,28.993,372.586,43.1,372.586,43.1z M408.788,8.24c-0.977,1.467-1.956,2.933-2.932,4.401
		c-3.351,5.042-6.702,10.083-10.05,15.127c-0.186,0.281-0.428,0.504-0.165,0.937c3.235,5.342,6.444,10.699,9.662,16.052
		c0.508,0.845,1.021,1.688,1.678,2.499c0.651-12.991,1.301-25.983,1.951-38.975C408.931,8.281,408.788,8.24,408.788,8.24z
		 M364.628,24.896c0.151,0.143,0.529,0.227,0.705,0.14c3.103-1.525,6.226-3.016,9.261-4.667c0.99-0.538,1.751-1.502,2.604-2.284
		c2.824-2.59,5.643-5.184,8.461-7.78c0.172-0.159,0.376-0.314,0.479-0.515c1.012-1.978,2.007-3.966,3.037-6.012
		c-1.228-0.462-2.392-0.913-3.571-1.324c-0.16-0.056-0.412,0.055-0.585,0.151c-2.728,1.524-5.508,2.967-8.15,4.63
		c-1.322,0.832-2.398,2.057-3.569,3.125c-1.886,1.722-3.77,3.447-5.629,5.199c-0.493,0.465-0.943,0.996-1.327,1.555
		c-1.271,1.851-2.504,3.729-3.794,5.66C363.271,23.519,363.927,24.231,364.628,24.896z M375.968,22.365
		c-1.544,6.521-3.078,13.005-4.663,19.702c7.435-4.791,14.698-9.47,21.913-14.119C387.476,26.09,381.753,24.237,375.968,22.365z
		 M406.893,8.303c-6.282,1.05-12.413,2.074-18.624,3.111c2.115,5.146,4.188,10.188,6.32,15.374
		C398.714,20.59,402.757,14.516,406.893,8.303z M376.228,21.031c5.657,1.836,11.2,3.636,16.905,5.488
		c-2.119-5.161-4.165-10.142-6.253-15.229C383.323,14.543,379.819,17.747,376.228,21.031z M364.862,28.698
		c-2.006,4.795-3.944,9.428-5.917,14.144c3.792-0.112,7.467-0.221,11.269-0.333C368.429,37.904,366.679,33.389,364.862,28.698z
		 M370.347,39.229l0.14-0.031c1.353-5.626,2.726-11.213,4.107-17.059c-3.081,1.602-6.021,3.129-9.041,4.699
		C367.094,30.844,368.737,35.07,370.347,39.229z M404.619,7.391c-1.799-0.477-3.599-0.955-5.399-1.428
		c-2.588-0.68-5.177-1.352-7.763-2.039c-0.323-0.086-0.557-0.142-0.747,0.247c-0.914,1.872-1.856,3.731-2.785,5.596
		c-0.029,0.058-0.023,0.132-0.045,0.277c5.604-0.849,11.17-1.693,16.735-2.536C404.616,7.508,404.619,7.391,404.619,7.391z
		 M394.18,3.132l14.666,4.057c-0.841-2.397-1.621-4.619-2.423-6.905l-12.221,2.71C394.201,2.994,394.18,3.132,394.18,3.132z
		 M371.59,44.18c-1.816-0.209-3.681-0.017-5.523,0.015c-1.513,0.025-3.027,0.083-4.54,0.13c-0.156,0.005-0.311,0.036-0.467,0.204
		c12.511,1.157,25.022,2.313,37.533,3.471l0.025-0.167c-4.01-0.548-8.021-1.095-12.032-1.642
		C381.59,45.508,376.6,44.757,371.59,44.18z M359.192,38.525c1.612-3.741,3.217-7.484,4.836-11.222
		c0.162-0.375,0.149-0.63-0.167-0.931c-0.677-0.644-1.306-1.339-2.046-2.109c-1,4.939-1.976,9.757-2.953,14.573l0.109,0.051
		C359.046,38.767,359.137,38.654,359.192,38.525z M390.968,2.144c2.719-0.701,5.477-1.25,8.219-1.862
		c0.178-0.04,0.351-0.098,0.526-0.149L399.685,0c-3.862,0.519-7.724,1.039-11.781,1.585C389.01,2.068,389.863,2.429,390.968,2.144z"
		/>
	<path style="fill:#3C3C3B;" d="M292.872,23.215h11.438c3.184,0,5.692-2.694,5.692-5.891V6.42c0-3.103-2.601-5.435-5.709-5.953
		c-1.967-0.328-3.999-0.477-5.957-0.467c-1.957,0.009-3.77,0.176-5.415,0.467c-4.846,0.855-5.669,2.648-5.669,5.953v4.243h11.375
		v1.569h-15.778c-3.328,0-6.242,2.004-7.153,5.81c-1.052,4.362-1.098,7.029,0,11.583c0.814,3.39,2.758,5.75,6.086,5.75h3.901v-5.118
		C285.682,26.477,288.988,23.215,292.872,23.215z M292.151,7.874c-1.187,0-2.149-0.972-2.149-2.175c0-1.208,0.961-2.189,2.149-2.189
		c1.183,0,2.149,0.981,2.149,2.189C294.3,6.902,293.334,7.874,292.151,7.874z M321.487,18.042c-0.823-3.314-2.394-5.81-5.726-5.81
		h-4.19v5.092c0,3.942-3.449,7.068-7.261,7.068h-11.438c-3.133,0-5.621,2.874-5.621,6.012v10.905c0,3.103,2.646,4.928,5.673,5.819
		c3.625,1.066,7.058,1.258,11.395,0c2.883-0.835,5.683-2.515,5.683-5.819v-4.364h-11.375v-1.569h17.134
		c3.328,0,4.569-2.266,5.726-5.75C322.683,26.038,322.631,22.643,321.487,18.042L321.487,18.042z M305.03,39.853
		c1.187,0,2.149,0.972,2.149,2.176c0,1.207-0.961,2.188-2.149,2.188c-1.183,0-2.149-0.981-2.149-2.188
		C302.882,40.826,303.848,39.853,305.03,39.853z"/>
	<path style="fill:#3C3C3B;" d="M47.358,0C21.204,0,0,10.745,0,24s21.204,24,47.358,24s47.358-10.745,47.358-24S73.512,0,47.358,0z
		 M35.035,28.676c-1.13,1.057-2.385,1.494-3.767,1.943c-1.382,0.45-3.141,0.357-5.28,0.357h-4.847l-1.343,7.752h-5.66l5.05-26.356
		h10.883c3.274,0,5.663,0.942,7.164,2.66c1.502,1.719,1.953,4.158,1.354,7.238c-0.247,1.269-0.664,2.449-1.251,3.5
		C36.751,26.822,35.983,27.805,35.035,28.676z M51.555,30.977l2.233-11.178c0.254-1.308,0.161-2.281-0.28-2.756
		c-0.442-0.476-1.381-0.795-2.818-0.795h-4.488L43.31,30.977h-5.615l5.05-25.581h5.615l-1.343,6.977h5.002
		c3.148,0,5.318,0.632,6.513,1.729s1.553,2.601,1.075,5.06l-2.35,11.814H51.555z M82.762,22.312
		c-0.247,1.269-0.664,2.429-1.25,3.479c-0.588,1.052-1.355,2.014-2.303,2.885c-1.13,1.057-2.386,1.494-3.767,1.943
		c-1.381,0.45-3.142,0.357-5.28,0.357h-4.847l-1.343,7.752h-5.66l5.049-26.356h10.884c3.274,0,5.663,0.942,7.163,2.66
		C82.909,16.751,83.361,19.233,82.762,22.312z M72.101,16.248h-3.877L66.11,27.101h3.443c2.281,0,3.981-0.225,5.098-1.085
		c1.118-0.859,1.87-2.192,2.262-4.202c0.375-1.931,0.205-3.437-0.512-4.231C75.684,16.789,74.251,16.248,72.101,16.248z
		 M27.928,16.248H24.05l-2.114,10.852h3.443c2.281,0,3.981-0.225,5.098-1.085c1.117-0.859,1.87-2.192,2.261-4.202
		c0.375-1.931,0.205-3.437-0.512-4.231S30.078,16.248,27.928,16.248z"/>
	<path style="fill:#3C3C3B;" d="M486.224,10.636L468.719,0.472c-1.104-0.629-2.541-0.629-3.654,0l-17.692,10.164
		c-1.139,0.655-1.945,1.887-1.945,3.205v20.301c0,1.318,0.827,2.55,1.967,3.209l4.674,2.655c2.234,1.1,3.024,1.1,4.04,1.1
		c3.308,0,5.197-2,5.197-5.489V15.574c0-0.283-0.147-0.704-0.425-0.704h-2.232c-0.283,0-0.915,0.421-0.915,0.704v20.043
		c0,1.547-1.399,3.086-4.013,1.778l-4.83-2.784c-0.168-0.091-0.287-0.275-0.287-0.469V13.84c0-0.191,0.22-0.383,0.39-0.482
		l17.635-10.147c0.165-0.093,0.407-0.093,0.571,0l17.419,10.144c0.167,0.1,0.108,0.287,0.108,0.484v20.301
		c0,0.194,0.073,0.382-0.092,0.476l-17.5,10.153c-0.15,0.09-0.336,0.09-0.501,0l-4.488-2.679c-0.135-0.079-0.296-0.107-0.426-0.034
		c-1.249,0.708-1.479,0.802-2.651,1.208c-0.288,0.1-0.713,0.275,0.163,0.766l5.874,3.475c0.562,0.326,1.202,0.495,1.845,0.495
		c0.652,0,1.29-0.169,1.853-0.495l17.421-10.155c1.139-0.664,1.679-1.891,1.679-3.209V13.84
		C487.903,12.523,487.363,11.294,486.224,10.636z M472.386,30.925c-4.655,0-5.68-1.284-6.022-3.599
		c-0.04-0.249-0.251-0.547-0.505-0.547h-2.275c-0.281,0-0.508,0.341-0.508,0.622c0,2.964,1.611,6.555,9.31,6.555
		c5.573,0,8.768-2.165,8.768-5.998c0-3.8-2.567-4.797-7.972-5.512c-5.463-0.722-6.018-1.087-6.018-2.367
		c0-1.055,0.47-2.462,4.515-2.462c3.614,0,4.947,0.776,5.495,3.212c0.047,0.229,0.256,0.393,0.492,0.393h2.284
		c0.141,0,0.275-0.057,0.373-0.157c0.095-0.108,0.146-0.243,0.133-0.389c-0.354-4.195-3.141-6.15-8.778-6.15
		c-5.014,0-8.005,2.117-8.005,5.667c0,3.85,2.976,4.914,7.789,5.39c5.758,0.564,6.206,1.406,6.206,2.539
		C477.669,30.087,476.09,30.925,472.386,30.925z"/>
	<g>
		<path style="fill:#3C3C3B;" d="M142.614,37.12c0,0-1.833,1.067,1.306,1.427c3.804,0.435,5.748,0.372,9.938-0.42
			c0,0,1.104,0.69,2.643,1.289C147.104,43.442,135.234,39.182,142.614,37.12z M141.465,31.866c0,0-2.057,1.522,1.086,1.848
			c4.063,0.42,7.272,0.454,12.826-0.615c0,0,0.766,0.779,1.973,1.204C145.99,37.625,133.337,34.564,141.465,31.866z"/>
		<path style="fill:#3C3C3B;" d="M151.145,22.951c2.317,2.667-0.608,5.064-0.608,5.064s5.879-3.034,3.18-6.836
			c-2.522-3.544-4.456-5.304,6.012-11.375C159.729,9.805,143.298,13.908,151.145,22.951z"/>
		<path style="fill:#3C3C3B;" d="M163.574,41.008c0,0,1.357,1.119-1.495,1.984c-5.423,1.643-22.575,2.138-27.338,0.066
			c-1.712-0.745,1.499-1.778,2.509-1.997c1.053-0.228,1.655-0.187,1.655-0.187c-1.905-1.341-12.31,2.634-5.285,3.774
			C152.778,47.754,168.542,43.25,163.574,41.008z M143.497,26.42c0,0-8.724,2.072-3.089,2.826c2.38,0.318,7.121,0.245,11.54-0.125
			c3.611-0.303,7.234-0.951,7.234-0.951s-1.272,0.546-2.193,1.174c-8.86,2.331-25.973,1.245-21.046-1.137
			C140.108,26.191,143.497,26.42,143.497,26.42z M159.146,35.167c9.006-4.679,4.842-9.175,1.935-8.569
			c-0.711,0.148-1.029,0.277-1.029,0.277s0.265-0.415,0.769-0.593c5.75-2.021,10.171,5.961-1.855,9.123
			C158.966,35.404,159.104,35.279,159.146,35.167z"/>
		<path style="fill:#3C3C3B;" d="M153.717,0c0,0,4.987,4.99-4.731,12.66c-7.793,6.155-1.777,9.663-0.003,13.674
			c-4.549-4.104-7.886-7.718-5.648-11.08C146.622,10.318,155.729,7.925,153.717,0z"/>
		<path style="fill:#3C3C3B;" d="M144.382,47.849c8.643,0.553,21.919-0.308,22.233-4.398c0,0-0.604,1.55-7.144,2.781
			c-7.378,1.389-16.479,1.227-21.875,0.336C137.596,46.569,138.701,47.484,144.382,47.849z"/>
	</g>
	<g>
		<path style="fill:#3C3C3B;" d="M237.657,24.346c-0.038-0.038-0.077-0.077-0.153-0.077l-0.038-0.038
			c-0.038-0.038-0.077-0.038-0.077-0.077l-0.038-0.038c-0.038,0-0.077-0.038-0.077-0.038l-0.077-0.038
			c-0.038,0-0.077-0.038-0.077-0.038l-0.077-0.038c-0.038,0-0.077-0.038-0.077-0.038c-0.038,0-0.038,0-0.077-0.038l-0.115-0.038
			c-0.038,0-0.038,0-0.077-0.038l-0.115-0.038h-0.038l-0.153-0.038h-0.077c-0.038,0-0.077,0-0.115-0.038h-0.882
			c-0.23-5.099,0.23-10.275-1.074-15.183c4.946-1.764,1.074-8.55-3.221-5.521C228.186,0.537,224.276,0,220.173,0
			c-4.026,0.268-7.822,1.112-10.505,3.221c-1.074-0.537-2.109-0.69-3.029-0.422v0.038c-0.038,0-0.115,0.038-0.153,0.077
			c-0.038,0-0.115,0.038-0.153,0.077h-0.038c-0.038,0-0.077,0.038-0.153,0.077h-0.038l-0.115,0.077h-0.038l-0.115,0.077h-0.038
			l-0.115,0.077c0,0-0.038,0-0.038,0.038l-0.115,0.077c0,0-0.038,0-0.038,0.038l-0.115,0.077c0,0-0.038,0-0.038,0.038l-0.115,0.077
			l-0.038,0.038c-0.038,0.038-0.077,0.038-0.077,0.077l-0.038,0.038l-0.077,0.077l-0.038,0.038
			c-0.038,0.038-0.038,0.077-0.077,0.077l-0.038,0.038c-0.038,0.038-0.038,0.077-0.077,0.077l-0.038,0.038
			c-0.038,0.038-0.038,0.077-0.077,0.077l-0.038,0.038c-0.038,0.038-0.038,0.077-0.077,0.077l-0.038,0.038
			c-0.038,0.038-0.038,0.077-0.077,0.077l-0.038,0.038l-0.038,0.115c0,0,0,0.038-0.038,0.038l-0.038,0.115c0,0,0,0.038-0.038,0.038
			l-0.038,0.115c0,0,0,0.038-0.038,0.038l-0.038,0.115c0,0,0,0.038-0.038,0.038c0.153,0.115,0.153,0.153,0.153,0.153v0.038
			l-0.038,0.115v0.038c0,0.038,0,0.077-0.038,0.115v1.189c0,0.038,0,0.077,0.038,0.115v0.038l0.038,0.115v0.038l0.038,0.115
			c0,0,0,0.038,0.038,0.038l0.038,0.115c0,0,0,0.038,0.038,0.038l0.038,0.115c0,0,0,0.038,0.038,0.038l0.077,0.115
			c0,0,0,0.038,0.038,0.038l0.077,0.115c0,0,0,0.038,0.038,0.038l0.077,0.115l0.038,0.038l0.115,0.115l0.115,0.115h0.038
			c0.383,0.345,0.767,0.613,1.534,0.843V8.972c-1.61,4.831-0.268,9.7-0.192,14.685c-0.23,0-0.268,0.153-0.652,0.192h-0.192
			c-0.038,0-0.115,0-0.192,0.038c-0.038,0-0.115,0-0.153,0.038l-0.153,0.038h-0.038l-0.153,0.038h-0.038l-0.115,0.038h-0.038
			l-0.115,0.038c0,0-0.038,0-0.038,0.038l-0.115,0.038l-0.077,0.038c-0.038,0-0.077,0.038-0.077,0.038l-0.077,0.038l-0.077,0.038
			c-0.038,0-0.077,0.038-0.077,0.038l-0.077,0.038l-0.153,0.115c-0.038,0.038-0.077,0.077-0.115,0.077l-0.153,0.153l-0.038,0.038
			c-0.038,0.077-0.115,0.153-0.153,0.192l-0.077,0.115l-0.115,0.23l-0.038,0.115v0.115c0,0.192,0.077,0.345,0.345,0.46
			c0.077,1.419,1.495,0.767,2.147,0.307l0.038-0.038c0.077-0.077,0.192-0.115,0.23-0.115h0.038l0.077-0.038
			c0.038,0,0.038,0,0.077-0.038c0.077-0.038,0.153-0.038,0.192-0.077c0.038,0,0.038-0.038,0.038-0.077l0.038-0.038
			c0.038-0.077,0.077-0.23,0.077-0.46l0.038-0.498v0.69c-0.192,5.023-1.534,11.771,1.265,16.295c0.498,0.805,1.112,1.495,1.802,2.07
			h-0.192c-0.077,0.077-0.192,0.153-0.307,0.23l-0.345,0.23l-0.115,0.077l-0.23,0.153l-0.345,0.268l-0.422,0.383
			c-0.077,0.077-0.115,0.153-0.153,0.192l-0.153,0.23l-0.077,0.115c-0.038,0.077-0.077,0.153-0.077,0.23l-0.038,0.115
			c-0.077,0.307,0,0.652,0.23,1.035l0.153,0.153h0.077c0.038,0,0.077,0,0.153,0.038c0.077,0.153,0.46,0.959,1.495,0.345
			c1.074-0.575,1.802-1.764,3.106-1.955l-0.192-0.23c2.262,1.074,4.908,1.534,7.285,1.61c3.336,0.115,7.131-0.345,10.16-1.994
			c0.843,0.268,1.495,1.495,2.224,2.07l0.038,0.038l0.038,0.038l0.038,0.038l0.038,0.038c0,0,0.038,0,0.038,0.038
			c0,0,0.038,0,0.038,0.038c0,0,0.038,0,0.038,0.038h0.805c0,0,0.038,0,0.038-0.038h0.038c0,0,0.038,0,0.038-0.038h0.038
			c0,0,0.038,0,0.038-0.038c0,0,0.038,0,0.038-0.038l0.038-0.038c0,0,0.038,0,0.038-0.038l0.038-0.038h0.038l0.077-0.077
			l0.077-0.038h0.038l0.038-0.038h0.038l0.038-0.038l0.038-0.038l0.038-0.038l0.038-0.038l0.038-0.038l0.038-0.038l0.038-0.038
			v-0.038c0,0,0-0.038,0.038-0.038v-0.038c0,0,0-0.038,0.038-0.038v-0.038c0,0,0-0.038,0.038-0.038v-0.537c0,0-0.115,0-0.115-0.038
			l-0.115-0.038v-0.038l0.115-0.038c0,0,0.077,0,0.077-0.038l0.038-0.038V45.05c0,0,0-0.038-0.038-0.038v-0.038
			c0,0,0-0.038-0.038-0.038v-0.038c0,0,0-0.038-0.038-0.038c0,0,0-0.038-0.038-0.038c0,0,0-0.038-0.038-0.038
			c0,0,0-0.038-0.038-0.038c0,0,0-0.038-0.038-0.038c0,0,0-0.038-0.038-0.038c0,0,0-0.038-0.038-0.038c0,0,0-0.038-0.038-0.038
			c0,0,0-0.038-0.038-0.038c0,0,0-0.038-0.038-0.038c0,0,0-0.038-0.038-0.038c0,0,0-0.038-0.038-0.038c0,0,0-0.038-0.038-0.038
			c0,0,0-0.038-0.038-0.038l-0.038-0.038l-0.038-0.038l-0.038-0.038l-0.038-0.038l-0.038-0.038l-0.038-0.038l-0.038-0.038
			l-0.038-0.038l-0.038-0.038l-0.038-0.038l-0.038-0.038l-0.038-0.038v-0.038l-0.038-0.038l-0.038-0.038l-0.038-0.038l-0.038-0.038
			l-0.038-0.038l-0.038-0.038l-0.038-0.038l-0.038-0.038l-0.038-0.038l-0.038-0.038l-0.038-0.038l-0.038-0.038l-0.038-0.038
			l-0.038-0.038l-0.038-0.038l-0.038-0.038l-0.038-0.038l-0.038-0.038l-0.038-0.038c0.767-0.728,1.457-1.61,1.955-2.646
			c2.262-4.524,1.879-10.045,1.572-15.03h0.038c0.038,0,0.077,0.038,0.077,0.038h0.115c0,0,0.038,0,0.038,0.038h0.038
			c0,0,0.038,0,0.038,0.038l0.077,0.038c0.652,0.46,2.07,1.112,2.147-0.307C238.769,25.535,238.04,24.615,237.657,24.346
			L237.657,24.346z M209.975,8.32c-1.227-6.135,8.588-7.285,8.933-1.304C219.215,12.001,211.24,13.266,209.975,8.32z
			 M223.816,14.071c-0.498,0.537-1.035,0.46-1.572,0.268c0,0.728,0.153,1.495,0.038,2.262c-0.192,0.345-0.575,0.383-0.882,0.537
			c-0.46-0.077-0.805-0.345-0.997-0.767l-0.077-0.038c-1.495,1.994-2.415-0.422-1.994-1.917c-0.46,0.038-0.843-0.077-1.15-0.575
			c-0.537-0.997,0.268-2.224,1.304-2.415c0.268,1.15,3.336,0.997,3.872-0.077C223.547,11.924,224.851,12.998,223.816,14.071z
			 M221.132,7.361c-0.345-5.291,7.783-6.71,8.972-1.534C231.445,11.579,222.129,13.074,221.132,7.361z M212.16,6.019
			c-0.728,0-1.342,0.652-1.342,1.457c0,0.805,0.613,1.457,1.342,1.457c0.728,0,1.342-0.652,1.342-1.457S212.927,6.019,212.16,6.019z
			 M212.773,8.205c-0.192,0-0.307-0.153-0.307-0.383c0-0.192,0.153-0.383,0.307-0.383c0.192,0,0.307,0.153,0.307,0.383
			C213.08,8.013,212.965,8.205,212.773,8.205z M223.432,5.674c-0.728,0-1.304,0.652-1.304,1.457c0,0.805,0.575,1.457,1.304,1.457
			c0.728,0,1.304-0.652,1.304-1.457S224.161,5.674,223.432,5.674z M224.046,7.822c-0.153,0-0.307-0.153-0.307-0.383
			c0-0.192,0.153-0.383,0.307-0.383c0.153,0,0.307,0.153,0.307,0.383S224.199,7.822,224.046,7.822z"/>
	</g>
	<g>
		<path style="fill:#3C3C3B;" d="M534.72,0.06L524.4,0v48h11.82v-0.06c-5.82-6.18-9.3-14.82-9.24-25.08
			C526.92,13.8,529.8,5.94,534.72,0.06z M600,0h-9.84c3.72,5.4,5.76,11.58,5.46,19.26c0.06,0.72,0.06,1.14,0,2.94h-44.04
			c0,13.2,4.62,22.98,16.38,23.04c8.1-0.06,13.92-6.06,17.94-12.54l11.4,5.7c-2.04,3.66-4.32,6.6-6.84,9.6H600C600,48,600,0,600,0z
			 M562.86,0.96c-5.4,0-10.08,4.44-10.56,9.84h20.1C572.22,5.4,568.32,0.96,562.86,0.96z"/>
	</g>
</g>
</svg>
