<!-- Generator: Adobe Illustrator 19.0.1, SVG Export Plug-In  -->
<svg version="1.1"
	 xmlns="http://www.w3.org/2000/svg" xmlns:xlink="http://www.w3.org/1999/xlink" xmlns:a="http://ns.adobe.com/AdobeSVGViewerExtensions/3.0/"
	 x="0px" y="0px" width="37.5px" height="37.5px" viewBox="0 0 37.5 37.5" style="enable-background:new 0 0 37.5 37.5;"
	 xml:space="preserve">
<defs>
</defs>
<path style="fill-rule:evenodd;clip-rule:evenodd;fill:#3C3C3B;" d="M10.965,19.105c-0.276-0.798-0.398-1.712-0.398-2.733
	c0-1.812,0.575-2.496,1.346-3.462c-0.59-2.066,0.212-3.478,0.212-3.478s1.24-0.253,3.585,1.397c1.271-0.535,4.659-0.58,6.262-0.119
	c0.983-0.639,2.783-1.546,3.509-1.292c0.197,0.311,0.62,1.218,0.257,3.209c0.246,0.437,1.528,1.367,1.533,3.998
	c-0.021,0.97-0.123,1.79-0.314,2.482c0.036,0-0.243,0.859-0.31,0.857c-0.85,1.835-2.594,2.52-5.412,2.805
	c0.913,0.565,1.175,1.274,1.175,3.191c0,1.917-0.026,2.175-0.02,2.616c0.01,0.724,1.089,1.07,1.048,1.303
	c-0.04,0.232-0.903,0.195-1.306,0.056c-1.142-0.391-1.028-1.325-1.028-1.325l-0.038-2.564c0,0,0.078-1.38-0.441-1.38v4.196
	c0,0.912,0.65,1.189,0.65,1.526c0,0.58-1.187-0.055-1.553-0.416c-0.557-0.55-0.494-1.716-0.48-2.639
	c0.013-0.891-0.008-2.839-0.008-2.839l-0.378,0.008c0,0,0.155,4.256-0.2,5.031c-0.459,0.996-1.842,1.338-1.842,0.885
	c0-0.305,0.341-0.208,0.529-0.892c0.161-0.581,0.106-4.92,0.106-4.92s-0.444,0.257-0.444,1.07c0,0.372-0.01,2.497-0.01,3.129
	c0,0.796-1.15,1.249-1.702,1.249c-0.279,0-0.627-0.014-0.627-0.159c0-0.368,1.051-0.584,1.051-1.349
	c0-0.664-0.015-2.371-0.015-2.371s-0.53,0.089-1.286,0.089c-1.906,0-2.508-1.195-2.795-1.864c-0.373-0.871-0.857-1.28-1.372-1.607
	c-0.316-0.201-0.388-0.438-0.023-0.505c1.687-0.312,2.118,1.88,3.245,2.23c0.804,0.249,1.838,0.142,2.352-0.186
	c0.068-0.669,0.559-1.249,0.968-1.554c-2.865-0.271-4.565-1.249-5.445-2.821C11.335,19.96,10.931,19.105,10.965,19.105z M18.75,37.5
	c10.355,0,18.75-8.395,18.75-18.75S29.105,0,18.75,0S0,8.395,0,18.75S8.395,37.5,18.75,37.5z"/>
</svg>
